%TF.GenerationSoftware,KiCad,Pcbnew,6.0.4-1.fc35*%
%TF.CreationDate,2022-04-06T22:50:00+03:00*%
%TF.ProjectId,Glove,476c6f76-652e-46b6-9963-61645f706362,rev?*%
%TF.SameCoordinates,Original*%
%TF.FileFunction,Legend,Top*%
%TF.FilePolarity,Positive*%
%FSLAX46Y46*%
G04 Gerber Fmt 4.6, Leading zero omitted, Abs format (unit mm)*
G04 Created by KiCad (PCBNEW 6.0.4-1.fc35) date 2022-04-06 22:50:00*
%MOMM*%
%LPD*%
G01*
G04 APERTURE LIST*
%ADD10C,0.150000*%
%ADD11C,0.120000*%
G04 APERTURE END LIST*
D10*
X119147619Y-86047619D02*
X119100000Y-86000000D01*
X119052380Y-85904761D01*
X119052380Y-85666666D01*
X119100000Y-85571428D01*
X119147619Y-85523809D01*
X119242857Y-85476190D01*
X119338095Y-85476190D01*
X119480952Y-85523809D01*
X120052380Y-86095238D01*
X120052380Y-85476190D01*
X119957142Y-85047619D02*
X120004761Y-85000000D01*
X120052380Y-85047619D01*
X120004761Y-85095238D01*
X119957142Y-85047619D01*
X120052380Y-85047619D01*
X119052380Y-84095238D02*
X119052380Y-84571428D01*
X119528571Y-84619047D01*
X119480952Y-84571428D01*
X119433333Y-84476190D01*
X119433333Y-84238095D01*
X119480952Y-84142857D01*
X119528571Y-84095238D01*
X119623809Y-84047619D01*
X119861904Y-84047619D01*
X119957142Y-84095238D01*
X120004761Y-84142857D01*
X120052380Y-84238095D01*
X120052380Y-84476190D01*
X120004761Y-84571428D01*
X119957142Y-84619047D01*
X119766666Y-83666666D02*
X119766666Y-83190476D01*
X120052380Y-83761904D02*
X119052380Y-83428571D01*
X120052380Y-83095238D01*
X119671428Y-82761904D02*
X119671428Y-82000000D01*
X120052380Y-82380952D02*
X119290476Y-82380952D01*
D11*
%TO.C,R9*%
X127772936Y-89265000D02*
X128227064Y-89265000D01*
X127772936Y-90735000D02*
X128227064Y-90735000D01*
%TO.C,R2*%
X122272936Y-87765000D02*
X122727064Y-87765000D01*
X122272936Y-89235000D02*
X122727064Y-89235000D01*
%TO.C,R1*%
X122272936Y-90265000D02*
X122727064Y-90265000D01*
X122272936Y-91735000D02*
X122727064Y-91735000D01*
%TO.C,RV_Pinky1*%
X167250000Y-98975000D02*
X170750000Y-98975000D01*
X173300000Y-96725000D02*
X173300000Y-93775000D01*
X174060000Y-93015000D02*
X163940000Y-93015000D01*
X164700000Y-96725000D02*
X164700000Y-93775000D01*
X165750000Y-98975000D02*
X165750000Y-98225000D01*
X163940000Y-98985000D02*
X174060000Y-98985000D01*
X174050000Y-96725000D02*
X173300000Y-96725000D01*
X174350000Y-99275000D02*
X174350000Y-98025000D01*
X173300000Y-93775000D02*
X169000000Y-93775000D01*
X163940000Y-93015000D02*
X163940000Y-98985000D01*
X165750000Y-98225000D02*
X163950000Y-98225000D01*
X173100000Y-99275000D02*
X174350000Y-99275000D01*
X174060000Y-98985000D02*
X174060000Y-93015000D01*
X174050000Y-98225000D02*
X172250000Y-98225000D01*
X170750000Y-98225000D02*
X167250000Y-98225000D01*
X164700000Y-93775000D02*
X169000000Y-93775000D01*
X174050000Y-98975000D02*
X174050000Y-98225000D01*
X163950000Y-98225000D02*
X163950000Y-98975000D01*
X163950000Y-96725000D02*
X164700000Y-96725000D01*
X172250000Y-98975000D02*
X174050000Y-98975000D01*
X163950000Y-98975000D02*
X165750000Y-98975000D01*
X167250000Y-98225000D02*
X167250000Y-98975000D01*
X172250000Y-98225000D02*
X172250000Y-98975000D01*
X170750000Y-98975000D02*
X170750000Y-98225000D01*
%TO.C,C3*%
X117935000Y-92061252D02*
X117935000Y-91538748D01*
X116465000Y-92061252D02*
X116465000Y-91538748D01*
%TO.C,BTN_A1*%
X147844444Y-107175000D02*
X149644444Y-107175000D01*
X149644444Y-106425000D02*
X147844444Y-106425000D01*
X149644444Y-107175000D02*
X149644444Y-106425000D01*
X148594444Y-104925000D02*
X148594444Y-101975000D01*
X147844444Y-104925000D02*
X148594444Y-104925000D01*
X153644444Y-107175000D02*
X155444444Y-107175000D01*
X151144444Y-106425000D02*
X151144444Y-107175000D01*
X147834444Y-107185000D02*
X155454444Y-107185000D01*
X151144444Y-107175000D02*
X152144444Y-107175000D01*
X155444444Y-106425000D02*
X153644444Y-106425000D01*
X155454444Y-101215000D02*
X147834444Y-101215000D01*
X147844444Y-106425000D02*
X147844444Y-107175000D01*
X154694444Y-101975000D02*
X151644444Y-101975000D01*
X154694444Y-104925000D02*
X154694444Y-101975000D01*
X147834444Y-101215000D02*
X147834444Y-107185000D01*
X155454444Y-107185000D02*
X155454444Y-101215000D01*
X152144444Y-107175000D02*
X152144444Y-106425000D01*
X155444444Y-104925000D02*
X154694444Y-104925000D01*
X152144444Y-106425000D02*
X151144444Y-106425000D01*
X155744444Y-107475000D02*
X155744444Y-106225000D01*
X155444444Y-107175000D02*
X155444444Y-106425000D01*
X148594444Y-101975000D02*
X151644444Y-101975000D01*
X154494444Y-107475000D02*
X155744444Y-107475000D01*
X153644444Y-106425000D02*
X153644444Y-107175000D01*
%TO.C,C2*%
X123265000Y-59261252D02*
X123265000Y-58738748D01*
X124735000Y-59261252D02*
X124735000Y-58738748D01*
%TO.C,Ring_Servo1*%
X150950000Y-87975000D02*
X151700000Y-87975000D01*
X150940000Y-84265000D02*
X150940000Y-90235000D01*
X161060000Y-84265000D02*
X150940000Y-84265000D01*
X161060000Y-90235000D02*
X161060000Y-84265000D01*
X159250000Y-90225000D02*
X161050000Y-90225000D01*
X151700000Y-87975000D02*
X151700000Y-85025000D01*
X161050000Y-89475000D02*
X159250000Y-89475000D01*
X157750000Y-90225000D02*
X157750000Y-89475000D01*
X161050000Y-90225000D02*
X161050000Y-89475000D01*
X152750000Y-90225000D02*
X152750000Y-89475000D01*
X160300000Y-85025000D02*
X156000000Y-85025000D01*
X154250000Y-89475000D02*
X154250000Y-90225000D01*
X161350000Y-90525000D02*
X161350000Y-89275000D01*
X154250000Y-90225000D02*
X157750000Y-90225000D01*
X150940000Y-90235000D02*
X161060000Y-90235000D01*
X161050000Y-87975000D02*
X160300000Y-87975000D01*
X160100000Y-90525000D02*
X161350000Y-90525000D01*
X159250000Y-89475000D02*
X159250000Y-90225000D01*
X150950000Y-89475000D02*
X150950000Y-90225000D01*
X150950000Y-90225000D02*
X152750000Y-90225000D01*
X151700000Y-85025000D02*
X156000000Y-85025000D01*
X157750000Y-89475000D02*
X154250000Y-89475000D01*
X152750000Y-89475000D02*
X150950000Y-89475000D01*
X160300000Y-87975000D02*
X160300000Y-85025000D01*
%TO.C,R3*%
X134535000Y-83027064D02*
X134535000Y-82572936D01*
X133065000Y-83027064D02*
X133065000Y-82572936D01*
%TO.C,C1*%
X120265000Y-59298752D02*
X120265000Y-58776248D01*
X121735000Y-59298752D02*
X121735000Y-58776248D01*
%TO.C,R7*%
X121767064Y-68215000D02*
X121312936Y-68215000D01*
X121767064Y-66745000D02*
X121312936Y-66745000D01*
%TO.C,RV_Pointer1*%
X174350000Y-90525000D02*
X174350000Y-89275000D01*
X173100000Y-90525000D02*
X174350000Y-90525000D01*
X170750000Y-90225000D02*
X170750000Y-89475000D01*
X174050000Y-90225000D02*
X174050000Y-89475000D01*
X174060000Y-84265000D02*
X163940000Y-84265000D01*
X174060000Y-90235000D02*
X174060000Y-84265000D01*
X164700000Y-85025000D02*
X169000000Y-85025000D01*
X172250000Y-89475000D02*
X172250000Y-90225000D01*
X163950000Y-89475000D02*
X163950000Y-90225000D01*
X165750000Y-90225000D02*
X165750000Y-89475000D01*
X174050000Y-89475000D02*
X172250000Y-89475000D01*
X173300000Y-87975000D02*
X173300000Y-85025000D01*
X173300000Y-85025000D02*
X169000000Y-85025000D01*
X165750000Y-89475000D02*
X163950000Y-89475000D01*
X167250000Y-89475000D02*
X167250000Y-90225000D01*
X163940000Y-90235000D02*
X174060000Y-90235000D01*
X163950000Y-90225000D02*
X165750000Y-90225000D01*
X163950000Y-87975000D02*
X164700000Y-87975000D01*
X167250000Y-90225000D02*
X170750000Y-90225000D01*
X164700000Y-87975000D02*
X164700000Y-85025000D01*
X172250000Y-90225000D02*
X174050000Y-90225000D01*
X174050000Y-87975000D02*
X173300000Y-87975000D01*
X170750000Y-89475000D02*
X167250000Y-89475000D01*
X163940000Y-84265000D02*
X163940000Y-90235000D01*
%TO.C,BTN_Trigger1*%
X139550000Y-96725000D02*
X139550000Y-93775000D01*
X138800000Y-96725000D02*
X139550000Y-96725000D01*
X140600000Y-98225000D02*
X138800000Y-98225000D01*
X144600000Y-98975000D02*
X146400000Y-98975000D01*
X146400000Y-96725000D02*
X145650000Y-96725000D01*
X146410000Y-93015000D02*
X138790000Y-93015000D01*
X140600000Y-98975000D02*
X140600000Y-98225000D01*
X146700000Y-99275000D02*
X146700000Y-98025000D01*
X139550000Y-93775000D02*
X142600000Y-93775000D01*
X143100000Y-98975000D02*
X143100000Y-98225000D01*
X142100000Y-98225000D02*
X142100000Y-98975000D01*
X146410000Y-98985000D02*
X146410000Y-93015000D01*
X145650000Y-93775000D02*
X142600000Y-93775000D01*
X138790000Y-98985000D02*
X146410000Y-98985000D01*
X145650000Y-96725000D02*
X145650000Y-93775000D01*
X138800000Y-98975000D02*
X140600000Y-98975000D01*
X142100000Y-98975000D02*
X143100000Y-98975000D01*
X146400000Y-98975000D02*
X146400000Y-98225000D01*
X145450000Y-99275000D02*
X146700000Y-99275000D01*
X144600000Y-98225000D02*
X144600000Y-98975000D01*
X146400000Y-98225000D02*
X144600000Y-98225000D01*
X138800000Y-98225000D02*
X138800000Y-98975000D01*
X138790000Y-93015000D02*
X138790000Y-98985000D01*
X143100000Y-98225000D02*
X142100000Y-98225000D01*
%TO.C,BTN_B1*%
X168400000Y-106425000D02*
X166600000Y-106425000D01*
X166600000Y-104925000D02*
X167350000Y-104925000D01*
X174210000Y-107185000D02*
X174210000Y-101215000D01*
X166600000Y-106425000D02*
X166600000Y-107175000D01*
X166600000Y-107175000D02*
X168400000Y-107175000D01*
X174200000Y-107175000D02*
X174200000Y-106425000D01*
X174200000Y-104925000D02*
X173450000Y-104925000D01*
X166590000Y-107185000D02*
X174210000Y-107185000D01*
X166590000Y-101215000D02*
X166590000Y-107185000D01*
X173450000Y-101975000D02*
X170400000Y-101975000D01*
X174200000Y-106425000D02*
X172400000Y-106425000D01*
X169900000Y-106425000D02*
X169900000Y-107175000D01*
X170900000Y-107175000D02*
X170900000Y-106425000D01*
X172400000Y-107175000D02*
X174200000Y-107175000D01*
X168400000Y-107175000D02*
X168400000Y-106425000D01*
X170900000Y-106425000D02*
X169900000Y-106425000D01*
X174210000Y-101215000D02*
X166590000Y-101215000D01*
X169900000Y-107175000D02*
X170900000Y-107175000D01*
X167350000Y-101975000D02*
X170400000Y-101975000D01*
X173250000Y-107475000D02*
X174500000Y-107475000D01*
X167350000Y-104925000D02*
X167350000Y-101975000D01*
X174500000Y-107475000D02*
X174500000Y-106225000D01*
X173450000Y-104925000D02*
X173450000Y-101975000D01*
X172400000Y-106425000D02*
X172400000Y-107175000D01*
%TO.C,R6*%
X121747064Y-69285000D02*
X121292936Y-69285000D01*
X121747064Y-70755000D02*
X121292936Y-70755000D01*
%TO.C,U2*%
X128040000Y-76090000D02*
X129040000Y-76090000D01*
X146280000Y-75310000D02*
X146280000Y-76090000D01*
X128040000Y-50345000D02*
X146280000Y-50345000D01*
X128040000Y-56765000D02*
X127660000Y-56765000D01*
X128040000Y-50345000D02*
X128040000Y-56765000D01*
X146280000Y-76090000D02*
X145280000Y-76090000D01*
X146280000Y-50345000D02*
X146280000Y-56765000D01*
X128040000Y-75310000D02*
X128040000Y-76090000D01*
%TO.C,C_Out1*%
X132538748Y-90535000D02*
X133061252Y-90535000D01*
X132538748Y-89065000D02*
X133061252Y-89065000D01*
%TO.C,R4*%
X121727064Y-74265000D02*
X121272936Y-74265000D01*
X121727064Y-75735000D02*
X121272936Y-75735000D01*
%TO.C,J2*%
X134950000Y-101975000D02*
X136750000Y-101975000D01*
X136760000Y-107185000D02*
X136760000Y-101215000D01*
X121650000Y-101225000D02*
X121650000Y-101975000D01*
X123450000Y-101975000D02*
X123450000Y-101225000D01*
X122600000Y-100925000D02*
X121350000Y-100925000D01*
X136750000Y-101975000D02*
X136750000Y-101225000D01*
X136750000Y-103475000D02*
X136000000Y-103475000D01*
X122400000Y-103475000D02*
X122400000Y-106425000D01*
X124950000Y-101225000D02*
X124950000Y-101975000D01*
X121650000Y-101975000D02*
X123450000Y-101975000D01*
X121650000Y-103475000D02*
X122400000Y-103475000D01*
X136000000Y-106425000D02*
X129200000Y-106425000D01*
X133450000Y-101975000D02*
X133450000Y-101225000D01*
X134950000Y-101225000D02*
X134950000Y-101975000D01*
X121350000Y-100925000D02*
X121350000Y-102175000D01*
X121640000Y-107185000D02*
X136760000Y-107185000D01*
X136750000Y-101225000D02*
X134950000Y-101225000D01*
X123450000Y-101225000D02*
X121650000Y-101225000D01*
X122400000Y-106425000D02*
X129200000Y-106425000D01*
X136760000Y-101215000D02*
X121640000Y-101215000D01*
X124950000Y-101975000D02*
X133450000Y-101975000D01*
X133450000Y-101225000D02*
X124950000Y-101225000D01*
X136000000Y-103475000D02*
X136000000Y-106425000D01*
X121640000Y-101215000D02*
X121640000Y-107185000D01*
%TO.C,R5*%
X121727064Y-73235000D02*
X121272936Y-73235000D01*
X121727064Y-71765000D02*
X121272936Y-71765000D01*
%TO.C,BTN_Grab1*%
X138466667Y-106425000D02*
X138466667Y-107175000D01*
X139216667Y-104925000D02*
X139216667Y-101975000D01*
X139216667Y-101975000D02*
X142266667Y-101975000D01*
X142766667Y-106425000D02*
X141766667Y-106425000D01*
X144266667Y-107175000D02*
X146066667Y-107175000D01*
X138466667Y-107175000D02*
X140266667Y-107175000D01*
X138466667Y-104925000D02*
X139216667Y-104925000D01*
X138456667Y-107185000D02*
X146076667Y-107185000D01*
X146366667Y-107475000D02*
X146366667Y-106225000D01*
X141766667Y-107175000D02*
X142766667Y-107175000D01*
X145116667Y-107475000D02*
X146366667Y-107475000D01*
X140266667Y-107175000D02*
X140266667Y-106425000D01*
X146076667Y-101215000D02*
X138456667Y-101215000D01*
X146066667Y-106425000D02*
X144266667Y-106425000D01*
X142766667Y-107175000D02*
X142766667Y-106425000D01*
X145316667Y-104925000D02*
X145316667Y-101975000D01*
X146066667Y-104925000D02*
X145316667Y-104925000D01*
X145316667Y-101975000D02*
X142266667Y-101975000D01*
X146076667Y-107185000D02*
X146076667Y-101215000D01*
X146066667Y-107175000D02*
X146066667Y-106425000D01*
X138456667Y-101215000D02*
X138456667Y-107185000D01*
X144266667Y-106425000D02*
X144266667Y-107175000D01*
X140266667Y-106425000D02*
X138466667Y-106425000D01*
X141766667Y-106425000D02*
X141766667Y-107175000D01*
%TO.C,Pinky_Servo1*%
X161060000Y-98985000D02*
X161060000Y-93015000D01*
X151700000Y-93775000D02*
X156000000Y-93775000D01*
X152750000Y-98225000D02*
X150950000Y-98225000D01*
X150940000Y-93015000D02*
X150940000Y-98985000D01*
X160100000Y-99275000D02*
X161350000Y-99275000D01*
X161050000Y-98225000D02*
X159250000Y-98225000D01*
X150950000Y-98975000D02*
X152750000Y-98975000D01*
X150950000Y-98225000D02*
X150950000Y-98975000D01*
X157750000Y-98225000D02*
X154250000Y-98225000D01*
X161350000Y-99275000D02*
X161350000Y-98025000D01*
X159250000Y-98975000D02*
X161050000Y-98975000D01*
X161050000Y-98975000D02*
X161050000Y-98225000D01*
X152750000Y-98975000D02*
X152750000Y-98225000D01*
X161050000Y-96725000D02*
X160300000Y-96725000D01*
X159250000Y-98225000D02*
X159250000Y-98975000D01*
X160300000Y-93775000D02*
X156000000Y-93775000D01*
X151700000Y-96725000D02*
X151700000Y-93775000D01*
X160300000Y-96725000D02*
X160300000Y-93775000D01*
X161060000Y-93015000D02*
X150940000Y-93015000D01*
X150950000Y-96725000D02*
X151700000Y-96725000D01*
X154250000Y-98975000D02*
X157750000Y-98975000D01*
X157750000Y-98975000D02*
X157750000Y-98225000D01*
X154250000Y-98225000D02*
X154250000Y-98975000D01*
X150940000Y-98985000D02*
X161060000Y-98985000D01*
%TO.C,Q1*%
X132800000Y-80560000D02*
X132150000Y-80560000D01*
X132800000Y-77440000D02*
X131125000Y-77440000D01*
X132800000Y-77440000D02*
X133450000Y-77440000D01*
X132800000Y-80560000D02*
X133450000Y-80560000D01*
%TO.C,RV_Ring1*%
X163950000Y-71975000D02*
X163950000Y-72725000D01*
X163950000Y-70475000D02*
X164700000Y-70475000D01*
X163940000Y-72735000D02*
X174060000Y-72735000D01*
X170750000Y-71975000D02*
X167250000Y-71975000D01*
X167250000Y-72725000D02*
X170750000Y-72725000D01*
X164700000Y-70475000D02*
X164700000Y-67525000D01*
X174050000Y-71975000D02*
X172250000Y-71975000D01*
X164700000Y-67525000D02*
X169000000Y-67525000D01*
X174350000Y-73025000D02*
X174350000Y-71775000D01*
X163950000Y-72725000D02*
X165750000Y-72725000D01*
X173100000Y-73025000D02*
X174350000Y-73025000D01*
X170750000Y-72725000D02*
X170750000Y-71975000D01*
X174050000Y-70475000D02*
X173300000Y-70475000D01*
X172250000Y-71975000D02*
X172250000Y-72725000D01*
X174050000Y-72725000D02*
X174050000Y-71975000D01*
X165750000Y-71975000D02*
X163950000Y-71975000D01*
X173300000Y-70475000D02*
X173300000Y-67525000D01*
X174060000Y-72735000D02*
X174060000Y-66765000D01*
X172250000Y-72725000D02*
X174050000Y-72725000D01*
X163940000Y-66765000D02*
X163940000Y-72735000D01*
X174060000Y-66765000D02*
X163940000Y-66765000D01*
X165750000Y-72725000D02*
X165750000Y-71975000D01*
X167250000Y-71975000D02*
X167250000Y-72725000D01*
X173300000Y-67525000D02*
X169000000Y-67525000D01*
%TO.C,R8*%
X123865000Y-79027064D02*
X123865000Y-78572936D01*
X125335000Y-79027064D02*
X125335000Y-78572936D01*
%TO.C,U3*%
X127090000Y-85510000D02*
X127090000Y-85035000D01*
X131310000Y-81290000D02*
X131310000Y-81765000D01*
X127565000Y-81290000D02*
X127090000Y-81290000D01*
X131310000Y-85510000D02*
X131310000Y-85035000D01*
X127565000Y-85510000D02*
X127090000Y-85510000D01*
X130835000Y-85510000D02*
X131310000Y-85510000D01*
X130835000Y-81290000D02*
X131310000Y-81290000D01*
%TO.C,J1*%
X113530000Y-88980000D02*
X115450000Y-88980000D01*
X115450000Y-79820000D02*
X113530000Y-79820000D01*
X111520000Y-88980000D02*
X109815000Y-88980000D01*
X109815000Y-88980000D02*
X109815000Y-79820000D01*
X109815000Y-79820000D02*
X111520000Y-79820000D01*
%TO.C,Pointer_Servo1*%
X150950000Y-71975000D02*
X150950000Y-72725000D01*
X157750000Y-72725000D02*
X157750000Y-71975000D01*
X154250000Y-71975000D02*
X154250000Y-72725000D01*
X160300000Y-70475000D02*
X160300000Y-67525000D01*
X154250000Y-72725000D02*
X157750000Y-72725000D01*
X161050000Y-72725000D02*
X161050000Y-71975000D01*
X157750000Y-71975000D02*
X154250000Y-71975000D01*
X161060000Y-72735000D02*
X161060000Y-66765000D01*
X161060000Y-66765000D02*
X150940000Y-66765000D01*
X151700000Y-67525000D02*
X156000000Y-67525000D01*
X161350000Y-73025000D02*
X161350000Y-71775000D01*
X152750000Y-72725000D02*
X152750000Y-71975000D01*
X152750000Y-71975000D02*
X150950000Y-71975000D01*
X159250000Y-71975000D02*
X159250000Y-72725000D01*
X161050000Y-70475000D02*
X160300000Y-70475000D01*
X150940000Y-72735000D02*
X161060000Y-72735000D01*
X160300000Y-67525000D02*
X156000000Y-67525000D01*
X160100000Y-73025000D02*
X161350000Y-73025000D01*
X150950000Y-72725000D02*
X152750000Y-72725000D01*
X159250000Y-72725000D02*
X161050000Y-72725000D01*
X150950000Y-70475000D02*
X151700000Y-70475000D01*
X161050000Y-71975000D02*
X159250000Y-71975000D01*
X151700000Y-70475000D02*
X151700000Y-67525000D01*
X150940000Y-66765000D02*
X150940000Y-72735000D01*
%TO.C,C5*%
X118845000Y-78538748D02*
X118845000Y-79061252D01*
X120315000Y-78538748D02*
X120315000Y-79061252D01*
%TO.C,Middle_Servo1*%
X161060000Y-75515000D02*
X150940000Y-75515000D01*
X157750000Y-80725000D02*
X154250000Y-80725000D01*
X161050000Y-81475000D02*
X161050000Y-80725000D01*
X151700000Y-79225000D02*
X151700000Y-76275000D01*
X150950000Y-81475000D02*
X152750000Y-81475000D01*
X150940000Y-81485000D02*
X161060000Y-81485000D01*
X161350000Y-81775000D02*
X161350000Y-80525000D01*
X160100000Y-81775000D02*
X161350000Y-81775000D01*
X151700000Y-76275000D02*
X156000000Y-76275000D01*
X161060000Y-81485000D02*
X161060000Y-75515000D01*
X157750000Y-81475000D02*
X157750000Y-80725000D01*
X152750000Y-80725000D02*
X150950000Y-80725000D01*
X154250000Y-80725000D02*
X154250000Y-81475000D01*
X150950000Y-79225000D02*
X151700000Y-79225000D01*
X154250000Y-81475000D02*
X157750000Y-81475000D01*
X150940000Y-75515000D02*
X150940000Y-81485000D01*
X152750000Y-81475000D02*
X152750000Y-80725000D01*
X160300000Y-79225000D02*
X160300000Y-76275000D01*
X159250000Y-81475000D02*
X161050000Y-81475000D01*
X161050000Y-80725000D02*
X159250000Y-80725000D01*
X150950000Y-80725000D02*
X150950000Y-81475000D01*
X160300000Y-76275000D02*
X156000000Y-76275000D01*
X159250000Y-80725000D02*
X159250000Y-81475000D01*
X161050000Y-79225000D02*
X160300000Y-79225000D01*
%TO.C,C4*%
X121265000Y-78538748D02*
X121265000Y-79061252D01*
X122735000Y-78538748D02*
X122735000Y-79061252D01*
%TO.C,BTN_Pinch1*%
X160522221Y-107175000D02*
X161522221Y-107175000D01*
X164822221Y-107175000D02*
X164822221Y-106425000D01*
X159022221Y-107175000D02*
X159022221Y-106425000D01*
X165122221Y-107475000D02*
X165122221Y-106225000D01*
X164072221Y-101975000D02*
X161022221Y-101975000D01*
X157972221Y-104925000D02*
X157972221Y-101975000D01*
X161522221Y-106425000D02*
X160522221Y-106425000D01*
X164822221Y-106425000D02*
X163022221Y-106425000D01*
X157212221Y-101215000D02*
X157212221Y-107185000D01*
X161522221Y-107175000D02*
X161522221Y-106425000D01*
X159022221Y-106425000D02*
X157222221Y-106425000D01*
X157972221Y-101975000D02*
X161022221Y-101975000D01*
X164822221Y-104925000D02*
X164072221Y-104925000D01*
X160522221Y-106425000D02*
X160522221Y-107175000D01*
X157222221Y-104925000D02*
X157972221Y-104925000D01*
X163022221Y-107175000D02*
X164822221Y-107175000D01*
X164832221Y-101215000D02*
X157212221Y-101215000D01*
X157222221Y-107175000D02*
X159022221Y-107175000D01*
X164072221Y-104925000D02*
X164072221Y-101975000D01*
X164832221Y-107185000D02*
X164832221Y-101215000D01*
X163872221Y-107475000D02*
X165122221Y-107475000D01*
X163022221Y-106425000D02*
X163022221Y-107175000D01*
X157212221Y-107185000D02*
X164832221Y-107185000D01*
X157222221Y-106425000D02*
X157222221Y-107175000D01*
%TO.C,J_JTAG1*%
X117830000Y-66150000D02*
X115170000Y-66150000D01*
X117830000Y-76430000D02*
X116500000Y-76430000D01*
X117830000Y-75100000D02*
X117830000Y-76430000D01*
X115170000Y-73830000D02*
X115170000Y-66150000D01*
X117830000Y-73830000D02*
X115170000Y-73830000D01*
X117830000Y-73830000D02*
X117830000Y-66150000D01*
%TO.C,RV_Thumb1*%
X163940000Y-58015000D02*
X163940000Y-63985000D01*
X167250000Y-63975000D02*
X170750000Y-63975000D01*
X173300000Y-58775000D02*
X169000000Y-58775000D01*
X174050000Y-61725000D02*
X173300000Y-61725000D01*
X173300000Y-61725000D02*
X173300000Y-58775000D01*
X164700000Y-61725000D02*
X164700000Y-58775000D01*
X165750000Y-63975000D02*
X165750000Y-63225000D01*
X174060000Y-58015000D02*
X163940000Y-58015000D01*
X170750000Y-63975000D02*
X170750000Y-63225000D01*
X174060000Y-63985000D02*
X174060000Y-58015000D01*
X172250000Y-63975000D02*
X174050000Y-63975000D01*
X163940000Y-63985000D02*
X174060000Y-63985000D01*
X167250000Y-63225000D02*
X167250000Y-63975000D01*
X173100000Y-64275000D02*
X174350000Y-64275000D01*
X164700000Y-58775000D02*
X169000000Y-58775000D01*
X163950000Y-63975000D02*
X165750000Y-63975000D01*
X163950000Y-61725000D02*
X164700000Y-61725000D01*
X174050000Y-63975000D02*
X174050000Y-63225000D01*
X170750000Y-63225000D02*
X167250000Y-63225000D01*
X174050000Y-63225000D02*
X172250000Y-63225000D01*
X163950000Y-63225000D02*
X163950000Y-63975000D01*
X165750000Y-63225000D02*
X163950000Y-63225000D01*
X174350000Y-64275000D02*
X174350000Y-63025000D01*
X172250000Y-63225000D02*
X172250000Y-63975000D01*
%TO.C,C_In1*%
X131738748Y-86765000D02*
X132261252Y-86765000D01*
X131738748Y-88235000D02*
X132261252Y-88235000D01*
%TO.C,RV_Middle1*%
X174050000Y-81475000D02*
X174050000Y-80725000D01*
X173100000Y-81775000D02*
X174350000Y-81775000D01*
X163950000Y-80725000D02*
X163950000Y-81475000D01*
X174350000Y-81775000D02*
X174350000Y-80525000D01*
X163950000Y-79225000D02*
X164700000Y-79225000D01*
X173300000Y-76275000D02*
X169000000Y-76275000D01*
X174050000Y-79225000D02*
X173300000Y-79225000D01*
X174050000Y-80725000D02*
X172250000Y-80725000D01*
X163950000Y-81475000D02*
X165750000Y-81475000D01*
X163940000Y-81485000D02*
X174060000Y-81485000D01*
X173300000Y-79225000D02*
X173300000Y-76275000D01*
X167250000Y-81475000D02*
X170750000Y-81475000D01*
X163940000Y-75515000D02*
X163940000Y-81485000D01*
X167250000Y-80725000D02*
X167250000Y-81475000D01*
X174060000Y-81485000D02*
X174060000Y-75515000D01*
X170750000Y-80725000D02*
X167250000Y-80725000D01*
X165750000Y-81475000D02*
X165750000Y-80725000D01*
X172250000Y-80725000D02*
X172250000Y-81475000D01*
X174060000Y-75515000D02*
X163940000Y-75515000D01*
X165750000Y-80725000D02*
X163950000Y-80725000D01*
X164700000Y-79225000D02*
X164700000Y-76275000D01*
X164700000Y-76275000D02*
X169000000Y-76275000D01*
X170750000Y-81475000D02*
X170750000Y-80725000D01*
X172250000Y-81475000D02*
X174050000Y-81475000D01*
%TO.C,Q2*%
X128600000Y-77440000D02*
X126925000Y-77440000D01*
X128600000Y-80560000D02*
X129250000Y-80560000D01*
X128600000Y-80560000D02*
X127950000Y-80560000D01*
X128600000Y-77440000D02*
X129250000Y-77440000D01*
%TO.C,U1*%
X143810000Y-85650000D02*
X143810000Y-81890000D01*
X136990000Y-81890000D02*
X138250000Y-81890000D01*
X143810000Y-81890000D02*
X142550000Y-81890000D01*
X136990000Y-87900000D02*
X136990000Y-81890000D01*
%TO.C,Thumb_Servo1*%
X159250000Y-63975000D02*
X161050000Y-63975000D01*
X150950000Y-63975000D02*
X152750000Y-63975000D01*
X150940000Y-58015000D02*
X150940000Y-63985000D01*
X154250000Y-63975000D02*
X157750000Y-63975000D01*
X152750000Y-63975000D02*
X152750000Y-63225000D01*
X161050000Y-61725000D02*
X160300000Y-61725000D01*
X150950000Y-61725000D02*
X151700000Y-61725000D01*
X161050000Y-63225000D02*
X159250000Y-63225000D01*
X161350000Y-64275000D02*
X161350000Y-63025000D01*
X151700000Y-61725000D02*
X151700000Y-58775000D01*
X160300000Y-61725000D02*
X160300000Y-58775000D01*
X151700000Y-58775000D02*
X156000000Y-58775000D01*
X161050000Y-63975000D02*
X161050000Y-63225000D01*
X157750000Y-63975000D02*
X157750000Y-63225000D01*
X150940000Y-63985000D02*
X161060000Y-63985000D01*
X160100000Y-64275000D02*
X161350000Y-64275000D01*
X152750000Y-63225000D02*
X150950000Y-63225000D01*
X161060000Y-63985000D02*
X161060000Y-58015000D01*
X160300000Y-58775000D02*
X156000000Y-58775000D01*
X159250000Y-63225000D02*
X159250000Y-63975000D01*
X150950000Y-63225000D02*
X150950000Y-63975000D01*
X157750000Y-63225000D02*
X154250000Y-63225000D01*
X154250000Y-63225000D02*
X154250000Y-63975000D01*
X161060000Y-58015000D02*
X150940000Y-58015000D01*
%TD*%
M02*
