M48
; DRILL file {KiCad 6.0.4-1.fc35} date 2022-04-11T22:06:04 IDT
; FORMAT={-:-/ absolute / inch / decimal}
; #@! TF.CreationDate,2022-04-11T22:06:04+03:00
; #@! TF.GenerationSoftware,Kicad,Pcbnew,6.0.4-1.fc35
; #@! TF.FileFunction,Plated,1,4,PTH
FMAT,2
INCH
; #@! TA.AperFunction,Plated,PTH,ViaDrill
T1C0.0079
; #@! TA.AperFunction,Plated,PTH,ViaDrill
T2C0.0157
; #@! TA.AperFunction,Plated,PTH,ComponentDrill
T3C0.0236
; #@! TA.AperFunction,Plated,PTH,ComponentDrill
T4C0.0374
; #@! TA.AperFunction,Plated,PTH,ViaDrill
T5C0.0394
; #@! TA.AperFunction,Plated,PTH,ComponentDrill
T6C0.0394
%
G90
G05
T1
X4.6752Y-3.311
X4.6757Y-3.3547
X5.1969Y-2.4961
X5.3839Y-3.6122
X5.3839Y-3.6614
X5.5118Y-3.2382
X6.122Y-3.1988
X6.2008Y-3.0906
T2
X4.6752Y-3.2736
X4.685Y-3.002
X4.685Y-3.6811
X4.7157Y-3.3612
X4.7618Y-3.2382
X4.8228Y-3.2382
X4.8327Y-3.4449
X4.8524Y-3.6417
X4.8583Y-2.4567
X4.9016Y-3.7008
X4.9331Y-3.1378
X4.9744Y-3.6378
X5.0Y-3.5728
X5.0236Y-3.0984
X5.0236Y-3.1417
X5.0236Y-3.185
X5.0295Y-3.8484
X5.1575Y-3.6713
X5.1969Y-2.3976
X5.2047Y-2.3031
X5.2264Y-3.6024
X5.2264Y-3.6713
X5.3346Y-3.6713
X5.3445Y-3.6093
X5.374Y-3.7106
X5.3937Y-3.3268
X5.4035Y-2.815
X5.4488Y-3.3307
X5.4921Y-2.8031
X5.5118Y-2.8543
X5.5256Y-3.3976
X5.5276Y-3.5512
X5.5906Y-3.4449
X5.7087Y-2.815
X5.748Y-3.0094
X5.748Y-3.6093
X5.7638Y-3.3701
X5.8632Y-3.185
X5.9449Y-3.3701
X6.0472Y-3.2835
X6.063Y-3.0197
X6.0728Y-3.8681
X6.0827Y-2.8445
X6.0925Y-2.687
X6.1378Y-2.4528
X6.1772Y-2.4055
X6.1969Y-3.1496
X6.2894Y-3.5925
X6.2894Y-3.7205
X6.3504Y-3.1535
X6.3622Y-2.3041
X6.3681Y-3.6713
X6.3701Y-2.9055
X6.3878Y-3.1988
X6.4173Y-2.7559
X6.5945Y-3.189
T4
X4.8898Y-4.0817
X4.9882Y-4.0817
X5.0276Y-2.3701
X5.0276Y-2.4685
X5.0276Y-2.5669
X5.0276Y-2.6654
X5.0276Y-2.7638
X5.0276Y-2.8622
X5.0276Y-2.9606
X5.0866Y-4.0817
X5.185Y-4.0817
X5.2835Y-4.0817
X6.6654Y-2.3701
X6.6654Y-2.4685
X6.6654Y-2.5669
X6.6654Y-2.6654
X6.6654Y-2.7638
X6.6654Y-2.8622
X6.6654Y-2.9606
T5
X4.7146Y-3.7697
X6.0039Y-3.5531
T6
X5.5518Y-4.123
X5.565Y-3.8002
X5.6503Y-4.123
X5.6634Y-3.8002
X5.921Y-4.123
X6.0195Y-4.123
X6.2902Y-4.123
X6.3887Y-4.123
X6.3957Y-3.5079
X6.4957Y-3.5079
X6.5957Y-3.5079
X6.6594Y-4.123
X6.6957Y-3.5079
X6.7579Y-4.123
X6.7957Y-3.5079
X6.8957Y-3.5079
T3
G00X4.4419Y-3.1528
M15
G01X4.4183Y-3.1528
M16
G05
G00X4.4419Y-3.4929
M15
G01X4.4183Y-3.4929
M16
G05
G00X4.6163Y-3.1528
M15
G01X4.573Y-3.1528
M16
G05
G00X4.6163Y-3.4929
M15
G01X4.573Y-3.4929
M16
G05
T0
M30
