%TF.GenerationSoftware,KiCad,Pcbnew,6.0.4-1.fc35*%
%TF.CreationDate,2022-04-06T20:10:00+03:00*%
%TF.ProjectId,Glove,476c6f76-652e-46b6-9963-61645f706362,rev?*%
%TF.SameCoordinates,Original*%
%TF.FileFunction,Copper,L2,Inr*%
%TF.FilePolarity,Positive*%
%FSLAX46Y46*%
G04 Gerber Fmt 4.6, Leading zero omitted, Abs format (unit mm)*
G04 Created by KiCad (PCBNEW 6.0.4-1.fc35) date 2022-04-06 20:10:00*
%MOMM*%
%LPD*%
G01*
G04 APERTURE LIST*
G04 Aperture macros list*
%AMRoundRect*
0 Rectangle with rounded corners*
0 $1 Rounding radius*
0 $2 $3 $4 $5 $6 $7 $8 $9 X,Y pos of 4 corners*
0 Add a 4 corners polygon primitive as box body*
4,1,4,$2,$3,$4,$5,$6,$7,$8,$9,$2,$3,0*
0 Add four circle primitives for the rounded corners*
1,1,$1+$1,$2,$3*
1,1,$1+$1,$4,$5*
1,1,$1+$1,$6,$7*
1,1,$1+$1,$8,$9*
0 Add four rect primitives between the rounded corners*
20,1,$1+$1,$2,$3,$4,$5,0*
20,1,$1+$1,$4,$5,$6,$7,0*
20,1,$1+$1,$6,$7,$8,$9,0*
20,1,$1+$1,$8,$9,$2,$3,0*%
G04 Aperture macros list end*
%TA.AperFunction,ComponentPad*%
%ADD10RoundRect,0.250000X0.600000X0.725000X-0.600000X0.725000X-0.600000X-0.725000X0.600000X-0.725000X0*%
%TD*%
%TA.AperFunction,ComponentPad*%
%ADD11O,1.700000X1.950000*%
%TD*%
%TA.AperFunction,ComponentPad*%
%ADD12RoundRect,0.250000X0.600000X0.750000X-0.600000X0.750000X-0.600000X-0.750000X0.600000X-0.750000X0*%
%TD*%
%TA.AperFunction,ComponentPad*%
%ADD13O,1.700000X2.000000*%
%TD*%
%TA.AperFunction,ComponentPad*%
%ADD14RoundRect,0.250000X-0.600000X-0.725000X0.600000X-0.725000X0.600000X0.725000X-0.600000X0.725000X0*%
%TD*%
%TA.AperFunction,ComponentPad*%
%ADD15O,1.600000X1.000000*%
%TD*%
%TA.AperFunction,ComponentPad*%
%ADD16O,2.100000X1.000000*%
%TD*%
%TA.AperFunction,ComponentPad*%
%ADD17R,1.700000X1.700000*%
%TD*%
%TA.AperFunction,ComponentPad*%
%ADD18O,1.700000X1.700000*%
%TD*%
%TA.AperFunction,ViaPad*%
%ADD19C,0.800000*%
%TD*%
%TA.AperFunction,ViaPad*%
%ADD20C,0.450000*%
%TD*%
%TA.AperFunction,Conductor*%
%ADD21C,0.250000*%
%TD*%
G04 APERTURE END LIST*
D10*
%TO.N,GND*%
%TO.C,RV_Pinky1*%
X171500000Y-96525000D03*
D11*
%TO.N,PinkyPot*%
X169000000Y-96525000D03*
%TO.N,+3V3*%
X166500000Y-96525000D03*
%TD*%
D12*
%TO.N,GND*%
%TO.C,BTN_A1*%
X152894444Y-104725000D03*
D13*
%TO.N,BtnA*%
X150394444Y-104725000D03*
%TD*%
D10*
%TO.N,RingPWM*%
%TO.C,Ring_Servo1*%
X158500000Y-87775000D03*
D11*
%TO.N,+5V*%
X156000000Y-87775000D03*
%TO.N,GND*%
X153500000Y-87775000D03*
%TD*%
D10*
%TO.N,GND*%
%TO.C,RV_Pointer1*%
X171500000Y-87775000D03*
D11*
%TO.N,PointerPot*%
X169000000Y-87775000D03*
%TO.N,+3V3*%
X166500000Y-87775000D03*
%TD*%
D12*
%TO.N,GND*%
%TO.C,BTN_Trigger1*%
X143850000Y-96525000D03*
D13*
%TO.N,BtnTrigger*%
X141350000Y-96525000D03*
%TD*%
D12*
%TO.N,GND*%
%TO.C,BTN_B1*%
X171650000Y-104725000D03*
D13*
%TO.N,BtnB*%
X169150000Y-104725000D03*
%TD*%
D14*
%TO.N,+3V3*%
%TO.C,J2*%
X124200000Y-103675000D03*
D11*
%TO.N,JoyX*%
X126700000Y-103675000D03*
%TO.N,JoyY*%
X129200000Y-103675000D03*
%TO.N,JoyClick*%
X131700000Y-103675000D03*
%TO.N,GND*%
X134200000Y-103675000D03*
%TD*%
D12*
%TO.N,GND*%
%TO.C,BTN_Grab1*%
X143516667Y-104725000D03*
D13*
%TO.N,BtnGrab*%
X141016667Y-104725000D03*
%TD*%
D10*
%TO.N,PinkyPWM*%
%TO.C,Pinky_Servo1*%
X158500000Y-96525000D03*
D11*
%TO.N,+5V*%
X156000000Y-96525000D03*
%TO.N,GND*%
X153500000Y-96525000D03*
%TD*%
D10*
%TO.N,GND*%
%TO.C,RV_Ring1*%
X171500000Y-70275000D03*
D11*
%TO.N,RingPot*%
X169000000Y-70275000D03*
%TO.N,+3V3*%
X166500000Y-70275000D03*
%TD*%
D15*
%TO.N,GND*%
%TO.C,J1*%
X112525000Y-80080000D03*
X112525000Y-88720000D03*
D16*
X116705000Y-88720000D03*
X116705000Y-80080000D03*
%TD*%
D10*
%TO.N,PointerPWM*%
%TO.C,Pointer_Servo1*%
X158500000Y-70275000D03*
D11*
%TO.N,+5V*%
X156000000Y-70275000D03*
%TO.N,GND*%
X153500000Y-70275000D03*
%TD*%
D10*
%TO.N,MiddlePWM*%
%TO.C,Middle_Servo1*%
X158500000Y-79025000D03*
D11*
%TO.N,+5V*%
X156000000Y-79025000D03*
%TO.N,GND*%
X153500000Y-79025000D03*
%TD*%
D12*
%TO.N,GND*%
%TO.C,BTN_Pinch1*%
X162272221Y-104725000D03*
D13*
%TO.N,BtnPinch*%
X159772221Y-104725000D03*
%TD*%
D17*
%TO.N,/MTMS*%
%TO.C,J_JTAG1*%
X116500000Y-75100000D03*
D18*
%TO.N,/MTDI*%
X116500000Y-72560000D03*
%TO.N,/MTCK*%
X116500000Y-70020000D03*
%TO.N,/MTDO*%
X116500000Y-67480000D03*
%TD*%
D10*
%TO.N,GND*%
%TO.C,RV_Thumb1*%
X171500000Y-61525000D03*
D11*
%TO.N,ThumbPot*%
X169000000Y-61525000D03*
%TO.N,+3V3*%
X166500000Y-61525000D03*
%TD*%
D10*
%TO.N,GND*%
%TO.C,RV_Middle1*%
X171500000Y-79025000D03*
D11*
%TO.N,MiddlePot*%
X169000000Y-79025000D03*
%TO.N,+3V3*%
X166500000Y-79025000D03*
%TD*%
D10*
%TO.N,ThumbPWM*%
%TO.C,Thumb_Servo1*%
X158500000Y-61525000D03*
D11*
%TO.N,+5V*%
X156000000Y-61525000D03*
%TO.N,GND*%
X153500000Y-61525000D03*
%TD*%
D19*
%TO.N,GND*%
X135000000Y-87000000D03*
D20*
X128800000Y-83200000D03*
X131400000Y-75800000D03*
X125800000Y-81800000D03*
D19*
X123400000Y-62400000D03*
D20*
X132000000Y-63400000D03*
X135400000Y-83800000D03*
D19*
%TO.N,BtnA*%
X128600000Y-72000000D03*
%TO.N,BtnB*%
X125500000Y-75000000D03*
X128660000Y-73195000D03*
%TO.N,BtnGrab*%
X132715000Y-75465000D03*
X124500000Y-71775500D03*
%TO.N,BtnPinch*%
X145800000Y-59200000D03*
X148400000Y-72400000D03*
%TO.N,BtnTrigger*%
X128660000Y-74465000D03*
D20*
%TO.N,+3V3*%
X115820000Y-59875000D03*
D19*
X125400000Y-85400000D03*
X130500000Y-91500000D03*
%TO.N,JoyX*%
X134200000Y-73000000D03*
X139800000Y-70600000D03*
X128600000Y-68200000D03*
%TO.N,JoyY*%
X135800000Y-73000000D03*
X128600000Y-69400000D03*
%TO.N,JoyClick*%
X137600000Y-70800000D03*
%TO.N,MiddlePWM*%
X145600000Y-67000000D03*
%TO.N,PinkyPWM*%
X145600000Y-69400000D03*
%TO.N,PointerPWM*%
X145500000Y-64500000D03*
%TO.N,JTAG_MTDO*%
X124012299Y-70487701D03*
X141605000Y-75465000D03*
%TO.N,RingPWM*%
X145600000Y-68200000D03*
%TO.N,MiddlePot*%
X128750000Y-64250000D03*
X139800000Y-67800000D03*
%TO.N,PinkyPot*%
X147436533Y-72665963D03*
X147675500Y-76600000D03*
X128750000Y-61750000D03*
%TO.N,PointerPot*%
X128750000Y-65500000D03*
%TO.N,RingPot*%
X142200000Y-66200000D03*
%TO.N,ThumbPot*%
X128750000Y-66750000D03*
%TO.N,ThumbPWM*%
X154500000Y-64500000D03*
D20*
%TO.N,Net-(J1-PadA7)*%
X125994759Y-83825014D03*
X122200000Y-83675500D03*
%TO.N,Net-(J1-PadA6)*%
X118600000Y-85200000D03*
X118600000Y-84200000D03*
X125600000Y-83000000D03*
%TO.N,EN*%
X126400000Y-60600000D03*
X126400000Y-75000000D03*
%TO.N,IO0*%
X145200000Y-77800000D03*
X129452735Y-79734292D03*
X135200000Y-78000000D03*
X142600000Y-78000000D03*
%TO.N,RXD*%
X129928698Y-80176233D03*
X135200000Y-79600000D03*
D19*
%TO.N,TXD*%
X130200000Y-75600000D03*
D20*
X129000000Y-80200000D03*
D19*
X143400000Y-63000000D03*
X132600000Y-73600000D03*
%TD*%
D21*
%TO.N,BtnB*%
X163400000Y-99203182D02*
X163400000Y-91600000D01*
X146800000Y-84200000D02*
X146800000Y-75200000D01*
X141000000Y-69400000D02*
X135600000Y-69400000D01*
X161200000Y-89400000D02*
X152000000Y-89400000D01*
X169150000Y-104725000D02*
X168921818Y-104725000D01*
X163400000Y-91600000D02*
X161200000Y-89400000D01*
X135600000Y-69400000D02*
X131805000Y-73195000D01*
X168921818Y-104725000D02*
X163400000Y-99203182D01*
X131805000Y-73195000D02*
X128660000Y-73195000D01*
X146800000Y-75200000D02*
X141000000Y-69400000D01*
X152000000Y-89400000D02*
X146800000Y-84200000D01*
%TO.N,BtnPinch*%
X148400000Y-72400000D02*
X148400000Y-59600000D01*
X148400000Y-59600000D02*
X148000000Y-59200000D01*
X148000000Y-59200000D02*
X145800000Y-59200000D01*
%TO.N,JoyX*%
X136200000Y-75000000D02*
X134200000Y-73000000D01*
X132575000Y-97800000D02*
X136200000Y-97800000D01*
X136200000Y-97800000D02*
X136200000Y-75000000D01*
X126700000Y-103675000D02*
X132575000Y-97800000D01*
%TO.N,JoyY*%
X134124520Y-98750480D02*
X137000000Y-98750480D01*
X136875489Y-74075489D02*
X135800000Y-73000000D01*
X129200000Y-103675000D02*
X134124520Y-98750480D01*
X137000000Y-98750480D02*
X136875489Y-98625969D01*
X136875489Y-98625969D02*
X136875489Y-74075489D01*
%TO.N,JoyClick*%
X136175000Y-99200000D02*
X137600000Y-99200000D01*
X131700000Y-103675000D02*
X136175000Y-99200000D01*
X137600000Y-99200000D02*
X137600000Y-70800000D01*
%TO.N,MiddlePot*%
X136250000Y-64250000D02*
X128750000Y-64250000D01*
X139800000Y-67800000D02*
X136250000Y-64250000D01*
%TO.N,PinkyPot*%
X128900000Y-61600000D02*
X128750000Y-61750000D01*
X156325499Y-85249999D02*
X147675500Y-76600000D01*
X147265963Y-72665963D02*
X136200000Y-61600000D01*
X169000000Y-96525000D02*
X169000000Y-96053182D01*
X147436533Y-72665963D02*
X147265963Y-72665963D01*
X158196817Y-85249999D02*
X156325499Y-85249999D01*
X169000000Y-96053182D02*
X158196817Y-85249999D01*
X136200000Y-61600000D02*
X128900000Y-61600000D01*
%TO.N,PointerPot*%
X139324511Y-68524511D02*
X136300000Y-65500000D01*
X140924511Y-68524511D02*
X139324511Y-68524511D01*
X136300000Y-65500000D02*
X128750000Y-65500000D01*
X157200479Y-84800479D02*
X140924511Y-68524511D01*
X169000000Y-87775000D02*
X166025479Y-84800479D01*
X166025479Y-84800479D02*
X157200479Y-84800479D01*
%TO.N,Net-(J1-PadA7)*%
X122200000Y-83675500D02*
X122349514Y-83825014D01*
X122349514Y-83825014D02*
X125994759Y-83825014D01*
%TO.N,EN*%
X126400000Y-75000000D02*
X126400000Y-60600000D01*
%TD*%
M02*
