M48
; DRILL file {KiCad (6.0.4)} date Thu Apr  7 08:52:46 2022
; FORMAT={-:-/ absolute / inch / decimal}
; #@! TF.CreationDate,2022-04-07T08:52:46+03:00
; #@! TF.GenerationSoftware,Kicad,Pcbnew,(6.0.4)
; #@! TF.FileFunction,Plated,1,4,PTH
FMAT,2
INCH
; #@! TA.AperFunction,Plated,PTH,ViaDrill
T1C0.0079
; #@! TA.AperFunction,Plated,PTH,ViaDrill
T2C0.0157
; #@! TA.AperFunction,Plated,PTH,ComponentDrill
T3C0.0236
; #@! TA.AperFunction,Plated,PTH,ComponentDrill
T4C0.0374
; #@! TA.AperFunction,Plated,PTH,ComponentDrill
T5C0.0394
%
G90
G05
T1
X4.6693Y-3.311
X4.6772Y-3.3543
X4.9528Y-3.2205
X4.9606Y-2.9528
X4.9764Y-2.3858
X5.0709Y-3.2756
X5.0787Y-3.1575
X5.0787Y-3.3986
X5.0966Y-3.1391
X5.1153Y-3.1565
X5.1732Y-2.9843
X5.1969Y-2.4961
X5.3228Y-3.0709
X5.3228Y-3.1339
X5.3307Y-3.2992
X5.6142Y-3.0709
X5.7165Y-3.063
T2
X4.685Y-3.002
X4.685Y-3.2648
X4.685Y-3.3858
X4.7047Y-2.4606
X4.7269Y-3.6048
X4.7362Y-3.4646
X4.8425Y-3.2283
X4.8425Y-3.4193
X4.8583Y-2.4567
X4.8824Y-2.7751
X4.9016Y-2.8258
X4.9301Y-2.9134
X4.937Y-3.3622
X5.0Y-3.4843
X5.0049Y-2.9208
X5.0787Y-3.4843
X5.126Y-2.9764
X5.1358Y-2.879
X5.1378Y-2.685
X5.1378Y-2.7362
X5.1378Y-3.6024
X5.1476Y-2.5787
X5.1476Y-2.628
X5.1476Y-2.4203
X5.1575Y-2.5295
X5.1575Y-2.8346
X5.2205Y-2.8976
X5.2557Y-3.034
X5.2835Y-2.874
X5.315Y-3.4252
X5.3465Y-2.874
X5.4173Y-2.7874
X5.5039Y-2.6693
X5.5039Y-2.7795
X5.575Y-3.0423
X5.5984Y-2.6063
X5.6457Y-2.4803
X5.8046Y-2.8609
X5.8071Y-2.6378
X5.8071Y-2.685
X5.8071Y-2.7323
X5.814Y-2.5394
X5.814Y-3.0157
X5.8425Y-2.8504
X5.8465Y-2.3327
X6.0827Y-2.5394
T4
X4.8898Y-4.0817
X4.9882Y-4.0817
X5.0866Y-4.0817
X5.185Y-4.0817
X5.2835Y-4.0817
X6.0433Y-2.4222
X6.0433Y-2.7667
X6.0433Y-3.1112
X6.0433Y-3.4557
X6.0433Y-3.8002
X6.1417Y-2.4222
X6.1417Y-2.7667
X6.1417Y-3.1112
X6.1417Y-3.4557
X6.1417Y-3.8002
X6.2402Y-2.4222
X6.2402Y-2.7667
X6.2402Y-3.1112
X6.2402Y-3.4557
X6.2402Y-3.8002
X6.5551Y-2.4222
X6.5551Y-2.7667
X6.5551Y-3.1112
X6.5551Y-3.4557
X6.5551Y-3.8002
X6.6535Y-2.4222
X6.6535Y-2.7667
X6.6535Y-3.1112
X6.6535Y-3.4557
X6.6535Y-3.8002
X6.752Y-2.4222
X6.752Y-2.7667
X6.752Y-3.1112
X6.752Y-3.4557
X6.752Y-3.8002
T5
X4.5866Y-2.6567
X4.5866Y-2.7567
X4.5866Y-2.8567
X4.5866Y-2.9567
X5.5518Y-4.123
X5.565Y-3.8002
X5.6503Y-4.123
X5.6634Y-3.8002
X5.921Y-4.123
X6.0195Y-4.123
X6.2902Y-4.123
X6.3887Y-4.123
X6.6594Y-4.123
X6.7579Y-4.123
T3
G00X4.4419Y-3.1528
M15
G01X4.4183Y-3.1528
M16
G05
G00X4.4419Y-3.4929
M15
G01X4.4183Y-3.4929
M16
G05
G00X4.6163Y-3.1528
M15
G01X4.573Y-3.1528
M16
G05
G00X4.6163Y-3.4929
M15
G01X4.573Y-3.4929
M16
G05
T0
M30
