%TF.GenerationSoftware,KiCad,Pcbnew,(6.0.4)*%
%TF.CreationDate,2022-04-07T08:52:43+03:00*%
%TF.ProjectId,Glove,476c6f76-652e-46b6-9963-61645f706362,rev?*%
%TF.SameCoordinates,Original*%
%TF.FileFunction,Copper,L3,Inr*%
%TF.FilePolarity,Positive*%
%FSLAX46Y46*%
G04 Gerber Fmt 4.6, Leading zero omitted, Abs format (unit mm)*
G04 Created by KiCad (PCBNEW (6.0.4)) date 2022-04-07 08:52:43*
%MOMM*%
%LPD*%
G01*
G04 APERTURE LIST*
G04 Aperture macros list*
%AMRoundRect*
0 Rectangle with rounded corners*
0 $1 Rounding radius*
0 $2 $3 $4 $5 $6 $7 $8 $9 X,Y pos of 4 corners*
0 Add a 4 corners polygon primitive as box body*
4,1,4,$2,$3,$4,$5,$6,$7,$8,$9,$2,$3,0*
0 Add four circle primitives for the rounded corners*
1,1,$1+$1,$2,$3*
1,1,$1+$1,$4,$5*
1,1,$1+$1,$6,$7*
1,1,$1+$1,$8,$9*
0 Add four rect primitives between the rounded corners*
20,1,$1+$1,$2,$3,$4,$5,0*
20,1,$1+$1,$4,$5,$6,$7,0*
20,1,$1+$1,$6,$7,$8,$9,0*
20,1,$1+$1,$8,$9,$2,$3,0*%
G04 Aperture macros list end*
%TA.AperFunction,ComponentPad*%
%ADD10RoundRect,0.250000X0.600000X0.725000X-0.600000X0.725000X-0.600000X-0.725000X0.600000X-0.725000X0*%
%TD*%
%TA.AperFunction,ComponentPad*%
%ADD11O,1.700000X1.950000*%
%TD*%
%TA.AperFunction,ComponentPad*%
%ADD12RoundRect,0.250000X0.600000X0.750000X-0.600000X0.750000X-0.600000X-0.750000X0.600000X-0.750000X0*%
%TD*%
%TA.AperFunction,ComponentPad*%
%ADD13O,1.700000X2.000000*%
%TD*%
%TA.AperFunction,ComponentPad*%
%ADD14RoundRect,0.250000X-0.600000X-0.725000X0.600000X-0.725000X0.600000X0.725000X-0.600000X0.725000X0*%
%TD*%
%TA.AperFunction,ComponentPad*%
%ADD15O,1.600000X1.000000*%
%TD*%
%TA.AperFunction,ComponentPad*%
%ADD16O,2.100000X1.000000*%
%TD*%
%TA.AperFunction,ComponentPad*%
%ADD17R,1.700000X1.700000*%
%TD*%
%TA.AperFunction,ComponentPad*%
%ADD18O,1.700000X1.700000*%
%TD*%
%TA.AperFunction,ViaPad*%
%ADD19C,0.800000*%
%TD*%
%TA.AperFunction,ViaPad*%
%ADD20C,0.450000*%
%TD*%
%TA.AperFunction,Conductor*%
%ADD21C,0.250000*%
%TD*%
G04 APERTURE END LIST*
D10*
%TO.N,GND*%
%TO.C,RV_Pinky1*%
X171500000Y-96525000D03*
D11*
%TO.N,PinkyPot*%
X169000000Y-96525000D03*
%TO.N,+3V3*%
X166500000Y-96525000D03*
%TD*%
D12*
%TO.N,GND*%
%TO.C,BTN_A1*%
X152894444Y-104725000D03*
D13*
%TO.N,BtnA*%
X150394444Y-104725000D03*
%TD*%
D10*
%TO.N,RingPWM*%
%TO.C,Ring_Servo1*%
X158500000Y-87775000D03*
D11*
%TO.N,+5V*%
X156000000Y-87775000D03*
%TO.N,GND*%
X153500000Y-87775000D03*
%TD*%
D10*
%TO.N,GND*%
%TO.C,RV_Pointer1*%
X171500000Y-87775000D03*
D11*
%TO.N,PointerPot*%
X169000000Y-87775000D03*
%TO.N,+3V3*%
X166500000Y-87775000D03*
%TD*%
D12*
%TO.N,GND*%
%TO.C,BTN_Trigger1*%
X143850000Y-96525000D03*
D13*
%TO.N,BtnTrigger*%
X141350000Y-96525000D03*
%TD*%
D12*
%TO.N,GND*%
%TO.C,BTN_B1*%
X171650000Y-104725000D03*
D13*
%TO.N,BtnB*%
X169150000Y-104725000D03*
%TD*%
D14*
%TO.N,+3V3*%
%TO.C,J2*%
X124200000Y-103675000D03*
D11*
%TO.N,JoyX*%
X126700000Y-103675000D03*
%TO.N,JoyY*%
X129200000Y-103675000D03*
%TO.N,JoyClick*%
X131700000Y-103675000D03*
%TO.N,GND*%
X134200000Y-103675000D03*
%TD*%
D12*
%TO.N,GND*%
%TO.C,BTN_Grab1*%
X143516667Y-104725000D03*
D13*
%TO.N,BtnGrab*%
X141016667Y-104725000D03*
%TD*%
D10*
%TO.N,PinkyPWM*%
%TO.C,Pinky_Servo1*%
X158500000Y-96525000D03*
D11*
%TO.N,+5V*%
X156000000Y-96525000D03*
%TO.N,GND*%
X153500000Y-96525000D03*
%TD*%
D10*
%TO.N,GND*%
%TO.C,RV_Ring1*%
X171500000Y-70275000D03*
D11*
%TO.N,RingPot*%
X169000000Y-70275000D03*
%TO.N,+3V3*%
X166500000Y-70275000D03*
%TD*%
D15*
%TO.N,GND*%
%TO.C,J1*%
X112525000Y-80080000D03*
X112525000Y-88720000D03*
D16*
X116705000Y-88720000D03*
X116705000Y-80080000D03*
%TD*%
D10*
%TO.N,PointerPWM*%
%TO.C,Pointer_Servo1*%
X158500000Y-70275000D03*
D11*
%TO.N,+5V*%
X156000000Y-70275000D03*
%TO.N,GND*%
X153500000Y-70275000D03*
%TD*%
D10*
%TO.N,MiddlePWM*%
%TO.C,Middle_Servo1*%
X158500000Y-79025000D03*
D11*
%TO.N,+5V*%
X156000000Y-79025000D03*
%TO.N,GND*%
X153500000Y-79025000D03*
%TD*%
D12*
%TO.N,GND*%
%TO.C,BTN_Pinch1*%
X162272221Y-104725000D03*
D13*
%TO.N,BtnPinch*%
X159772221Y-104725000D03*
%TD*%
D17*
%TO.N,/MTMS*%
%TO.C,J_JTAG1*%
X116500000Y-75100000D03*
D18*
%TO.N,/MTDI*%
X116500000Y-72560000D03*
%TO.N,/MTCK*%
X116500000Y-70020000D03*
%TO.N,/MTDO*%
X116500000Y-67480000D03*
%TD*%
D10*
%TO.N,GND*%
%TO.C,RV_Thumb1*%
X171500000Y-61525000D03*
D11*
%TO.N,ThumbPot*%
X169000000Y-61525000D03*
%TO.N,+3V3*%
X166500000Y-61525000D03*
%TD*%
D10*
%TO.N,GND*%
%TO.C,RV_Middle1*%
X171500000Y-79025000D03*
D11*
%TO.N,MiddlePot*%
X169000000Y-79025000D03*
%TO.N,+3V3*%
X166500000Y-79025000D03*
%TD*%
D10*
%TO.N,ThumbPWM*%
%TO.C,Thumb_Servo1*%
X158500000Y-61525000D03*
D11*
%TO.N,+5V*%
X156000000Y-61525000D03*
%TO.N,GND*%
X153500000Y-61525000D03*
%TD*%
D19*
%TO.N,+5V*%
X123000000Y-86850489D03*
X123000000Y-82000000D03*
D20*
%TO.N,GND*%
X128800000Y-83200000D03*
X131400000Y-75800000D03*
D19*
X135000000Y-87000000D03*
D20*
X125800000Y-81800000D03*
D19*
X123400000Y-62400000D03*
D20*
X132000000Y-63400000D03*
X135400000Y-83800000D03*
D19*
%TO.N,BtnA*%
X131000000Y-72000000D03*
%TO.N,BtnB*%
X125224500Y-74000000D03*
X130449409Y-73125993D03*
%TO.N,BtnGrab*%
X133495864Y-77063223D03*
X124500000Y-71775500D03*
%TO.N,BtnPinch*%
X148500000Y-59250000D03*
X148400000Y-72400000D03*
%TO.N,BtnTrigger*%
X127124500Y-74189533D03*
%TO.N,+3V3*%
X127000000Y-88500000D03*
X125400000Y-85400000D03*
X119000000Y-76250000D03*
X119500000Y-62500000D03*
X130500000Y-91500000D03*
%TO.N,JoyX*%
X134200000Y-73000000D03*
X139800000Y-70600000D03*
X130500000Y-68200000D03*
%TO.N,JoyY*%
X135800000Y-73000000D03*
X130500000Y-69500000D03*
%TO.N,JoyClick*%
X137600000Y-70800000D03*
%TO.N,MiddlePWM*%
X147500000Y-67000000D03*
%TO.N,PinkyPWM*%
X147500000Y-69400000D03*
%TO.N,PointerPWM*%
X147675500Y-64500000D03*
%TO.N,JTAG_MTDO*%
X124012299Y-70487701D03*
X141605000Y-77275500D03*
%TO.N,RingPWM*%
X147500000Y-68200000D03*
%TO.N,MiddlePot*%
X131000000Y-64250000D03*
X139800000Y-67800000D03*
%TO.N,PinkyPot*%
X147436533Y-72665963D03*
X147675500Y-76600000D03*
X130750175Y-61475500D03*
%TO.N,PointerPot*%
X130750000Y-65500000D03*
%TO.N,RingPot*%
X142200000Y-66200000D03*
%TO.N,ThumbPot*%
X130750000Y-66750000D03*
%TO.N,ThumbPWM*%
X154500000Y-64500000D03*
D20*
%TO.N,/D+*%
X118800000Y-85199500D03*
X118600000Y-84100500D03*
%TO.N,EN*%
X126400000Y-60600000D03*
X126000000Y-75000000D03*
%TO.N,IO0*%
X145200000Y-77800000D03*
X129452735Y-79734292D03*
X135200000Y-78000000D03*
X142600000Y-78000000D03*
%TO.N,RXD*%
X129928698Y-80176233D03*
X135200000Y-79600000D03*
D19*
%TO.N,TXD*%
X130200000Y-75600000D03*
D20*
X129000000Y-80200000D03*
D19*
X143400000Y-63000000D03*
X132600000Y-73600000D03*
%TO.N,Net-(J1-PadB5)*%
X120062299Y-91562299D03*
X119000000Y-86000000D03*
%TO.N,Net-(J1-PadA5)*%
X120299989Y-88000000D03*
X119000000Y-82925500D03*
D20*
%TO.N,Net-(R9-Pad2)*%
X129000000Y-86325500D03*
D19*
X129000000Y-88500000D03*
%TD*%
D21*
%TO.N,/D+*%
X119000000Y-84100500D02*
X118600000Y-84100500D01*
X119000000Y-84999500D02*
X119000000Y-84100500D01*
X118800000Y-85199500D02*
X119000000Y-84999500D01*
%TO.N,BtnA*%
X144600000Y-83200000D02*
X150394444Y-88994444D01*
X131007141Y-71992859D02*
X142607141Y-71992859D01*
X150394444Y-88994444D02*
X150394444Y-104725000D01*
X142607141Y-71992859D02*
X144600000Y-73985718D01*
X144600000Y-73985718D02*
X144600000Y-83200000D01*
X131000000Y-72000000D02*
X131007141Y-71992859D01*
%TO.N,BtnGrab*%
X138000000Y-99600000D02*
X141016667Y-102616667D01*
X135094087Y-75465000D02*
X137000000Y-75465000D01*
X141016667Y-102616667D02*
X141016667Y-104725000D01*
X133495864Y-77063223D02*
X135094087Y-75465000D01*
X137000000Y-75465000D02*
X138000000Y-76465000D01*
X138000000Y-76465000D02*
X138000000Y-99600000D01*
%TO.N,BtnTrigger*%
X138449520Y-76278802D02*
X138449520Y-93624520D01*
X127399967Y-74465000D02*
X136635718Y-74465000D01*
X127124500Y-74189533D02*
X127399967Y-74465000D01*
X138449520Y-93624520D02*
X141350000Y-96525000D01*
X136635718Y-74465000D02*
X138449520Y-76278802D01*
%TO.N,MiddlePot*%
X169000000Y-75000000D02*
X161300479Y-67300479D01*
X169000000Y-79025000D02*
X169000000Y-75000000D01*
X161300479Y-67300479D02*
X149000000Y-67300479D01*
X149000000Y-71000000D02*
X143400000Y-71000000D01*
X143400000Y-71000000D02*
X140200000Y-67800000D01*
X149000000Y-67300479D02*
X149000000Y-71000000D01*
X140200000Y-67800000D02*
X139800000Y-67800000D01*
%TO.N,PinkyPot*%
X147675500Y-72904930D02*
X147436533Y-72665963D01*
X147675500Y-76600000D02*
X147675500Y-72904930D01*
%TO.N,RingPot*%
X142475489Y-66275489D02*
X142400000Y-66200000D01*
X169000000Y-70275000D02*
X165000489Y-66275489D01*
X165000489Y-66275489D02*
X142475489Y-66275489D01*
X142400000Y-66200000D02*
X142200000Y-66200000D01*
%TO.N,ThumbPot*%
X169000000Y-64600000D02*
X169000000Y-61525000D01*
X168375489Y-65224511D02*
X169000000Y-64600000D01*
X140200000Y-66800000D02*
X141775489Y-65224511D01*
X130800000Y-66800000D02*
X140200000Y-66800000D01*
X130750000Y-66750000D02*
X130800000Y-66800000D01*
X141775489Y-65224511D02*
X168375489Y-65224511D01*
%TO.N,IO0*%
X131191257Y-78136547D02*
X129593512Y-79734292D01*
X131191257Y-78000000D02*
X135200000Y-78000000D01*
X129593512Y-79734292D02*
X129452735Y-79734292D01*
X131191257Y-78000000D02*
X131191257Y-78136547D01*
%TO.N,TXD*%
X128000000Y-77800000D02*
X130200000Y-75600000D01*
X128000000Y-80000000D02*
X128000000Y-77800000D01*
X128200000Y-80200000D02*
X128000000Y-80000000D01*
X129000000Y-80200000D02*
X128200000Y-80200000D01*
%TD*%
M02*
