M48
; DRILL file {KiCad 6.0.4-1.fc35} date 2022-04-23T17:21:27 IDT
; FORMAT={-:-/ absolute / inch / decimal}
; #@! TF.CreationDate,2022-04-23T17:21:27+03:00
; #@! TF.GenerationSoftware,Kicad,Pcbnew,6.0.4-1.fc35
; #@! TF.FileFunction,Plated,1,2,PTH
FMAT,2
INCH
; #@! TA.AperFunction,Plated,PTH,ViaDrill
T1C0.0079
; #@! TA.AperFunction,Plated,PTH,ViaDrill
T2C0.0157
; #@! TA.AperFunction,Plated,PTH,ComponentDrill
T3C0.0236
; #@! TA.AperFunction,Plated,PTH,ComponentDrill
T4C0.0374
; #@! TA.AperFunction,Plated,PTH,ComponentDrill
T5C0.0394
%
G90
G05
T1
X4.6752Y-3.311
X4.6757Y-3.3547
X5.4528Y-3.2382
X6.122Y-3.1988
X6.2008Y-3.0906
T2
X4.5079Y-2.6378
X4.5079Y-2.8543
X4.5079Y-3.0512
X4.5079Y-3.9173
X4.5177Y-3.6909
X4.6161Y-3.6417
X4.6752Y-3.2736
X4.6752Y-3.7795
X4.7047Y-2.2835
X4.7087Y-3.2362
X4.7146Y-3.7795
X4.7157Y-3.3612
X4.7343Y-4.0846
X4.7539Y-3.7795
X4.7638Y-3.1004
X4.7835Y-2.874
X4.8012Y-3.2264
X4.8228Y-2.5098
X4.8228Y-3.5138
X4.8327Y-3.4252
X4.8425Y-3.1004
X4.8524Y-3.6417
X4.8927Y-3.1654
X4.9016Y-3.7008
X4.9744Y-3.6713
X4.9902Y-3.5728
X5.0236Y-3.0984
X5.0236Y-3.1417
X5.0236Y-3.185
X5.029Y-3.4847
X5.0787Y-3.435
X5.2047Y-2.3031
X5.2067Y-2.9626
X5.2165Y-3.4154
X5.2362Y-3.8976
X5.2461Y-2.3819
X5.3839Y-2.8248
X5.3839Y-3.8819
X5.4528Y-3.8484
X5.4823Y-2.2539
X5.4882Y-3.6378
X5.4921Y-2.3622
X5.4921Y-2.8031
X5.502Y-3.4252
X5.5118Y-2.8543
X5.5118Y-3.5925
X5.5276Y-3.6378
X5.5315Y-3.1299
X5.5669Y-3.6378
X5.5906Y-3.4449
X5.6398Y-3.0709
X5.6398Y-3.7795
X5.6594Y-3.376
X5.6594Y-3.622
X5.6644Y-3.7549
X5.6791Y-2.2638
X5.689Y-3.7303
X5.7087Y-2.815
X5.7136Y-3.7057
X5.7185Y-2.6083
X5.7382Y-3.6811
X5.748Y-3.0094
X5.7677Y-3.3661
X5.7776Y-3.1398
X5.8071Y-2.8248
X5.8632Y-3.185
X5.876Y-2.3917
X5.9449Y-3.5531
X5.9646Y-3.3661
X6.0335Y-2.6772
X6.0472Y-3.2835
X6.063Y-2.815
X6.063Y-3.0197
X6.0728Y-2.3425
X6.1378Y-2.4528
X6.1713Y-2.2638
X6.1772Y-2.4055
X6.1969Y-3.1496
X6.2008Y-3.4055
X6.2106Y-3.2382
X6.2894Y-3.1535
X6.2894Y-3.1929
X6.2894Y-3.5925
X6.2894Y-3.7402
X6.3386Y-2.9035
X6.3484Y-2.4508
X6.3583Y-3.2283
X6.3583Y-3.7008
X6.3622Y-2.3041
X6.3681Y-2.2441
X6.437Y-2.7657
X6.4469Y-3.435
X6.4961Y-2.4213
X6.5059Y-3.7402
X6.5945Y-3.189
X6.8012Y-3.0906
X6.8996Y-2.5886
X6.9094Y-2.9232
X7.0374Y-2.687
X7.0374Y-3.0413
X7.0374Y-3.4449
X7.0374Y-3.8681
T4
X4.8898Y-4.0817
X4.9882Y-4.0817
X5.0276Y-2.3701
X5.0276Y-2.4685
X5.0276Y-2.5669
X5.0276Y-2.6654
X5.0276Y-2.7638
X5.0276Y-2.8622
X5.0276Y-2.9606
X5.0866Y-4.0817
X5.185Y-4.0817
X5.2835Y-4.0817
X6.6654Y-2.3701
X6.6654Y-2.4685
X6.6654Y-2.5669
X6.6654Y-2.6654
X6.6654Y-2.7638
X6.6654Y-2.8622
X6.6654Y-2.9606
T5
X5.5518Y-4.123
X5.6503Y-4.123
X5.921Y-4.123
X5.9252Y-3.8484
X6.0195Y-4.123
X6.0236Y-3.8484
X6.2902Y-4.123
X6.3887Y-4.123
X6.3957Y-3.5079
X6.4957Y-3.5079
X6.5957Y-3.5079
X6.6594Y-4.123
X6.6957Y-3.5079
X6.7579Y-4.123
X6.7957Y-3.5079
X6.8957Y-3.5079
T3
G00X4.4419Y-3.1528
M15
G01X4.4183Y-3.1528
M16
G05
G00X4.4419Y-3.4929
M15
G01X4.4183Y-3.4929
M16
G05
G00X4.6163Y-3.1528
M15
G01X4.573Y-3.1528
M16
G05
G00X4.6163Y-3.4929
M15
G01X4.573Y-3.4929
M16
G05
T0
M30
