%TF.GenerationSoftware,KiCad,Pcbnew,6.0.4-1.fc35*%
%TF.CreationDate,2022-04-08T19:50:50+03:00*%
%TF.ProjectId,Glove,476c6f76-652e-46b6-9963-61645f706362,rev?*%
%TF.SameCoordinates,Original*%
%TF.FileFunction,Paste,Top*%
%TF.FilePolarity,Positive*%
%FSLAX46Y46*%
G04 Gerber Fmt 4.6, Leading zero omitted, Abs format (unit mm)*
G04 Created by KiCad (PCBNEW 6.0.4-1.fc35) date 2022-04-08 19:50:50*
%MOMM*%
%LPD*%
G01*
G04 APERTURE LIST*
G04 Aperture macros list*
%AMRoundRect*
0 Rectangle with rounded corners*
0 $1 Rounding radius*
0 $2 $3 $4 $5 $6 $7 $8 $9 X,Y pos of 4 corners*
0 Add a 4 corners polygon primitive as box body*
4,1,4,$2,$3,$4,$5,$6,$7,$8,$9,$2,$3,0*
0 Add four circle primitives for the rounded corners*
1,1,$1+$1,$2,$3*
1,1,$1+$1,$4,$5*
1,1,$1+$1,$6,$7*
1,1,$1+$1,$8,$9*
0 Add four rect primitives between the rounded corners*
20,1,$1+$1,$2,$3,$4,$5,0*
20,1,$1+$1,$4,$5,$6,$7,0*
20,1,$1+$1,$6,$7,$8,$9,0*
20,1,$1+$1,$8,$9,$2,$3,0*%
G04 Aperture macros list end*
%ADD10RoundRect,0.250000X-1.450000X0.400000X-1.450000X-0.400000X1.450000X-0.400000X1.450000X0.400000X0*%
%ADD11RoundRect,0.250000X0.337500X0.475000X-0.337500X0.475000X-0.337500X-0.475000X0.337500X-0.475000X0*%
%ADD12RoundRect,0.250000X0.475000X-0.337500X0.475000X0.337500X-0.475000X0.337500X-0.475000X-0.337500X0*%
%ADD13RoundRect,0.250000X-0.350000X-0.450000X0.350000X-0.450000X0.350000X0.450000X-0.350000X0.450000X0*%
%ADD14RoundRect,0.250000X0.350000X0.450000X-0.350000X0.450000X-0.350000X-0.450000X0.350000X-0.450000X0*%
%ADD15RoundRect,0.250000X-0.450000X0.350000X-0.450000X-0.350000X0.450000X-0.350000X0.450000X0.350000X0*%
%ADD16R,2.000000X0.900000*%
%ADD17R,0.900000X2.000000*%
%ADD18R,5.000000X5.000000*%
%ADD19RoundRect,0.250000X-0.337500X-0.475000X0.337500X-0.475000X0.337500X0.475000X-0.337500X0.475000X0*%
%ADD20RoundRect,0.150000X0.150000X-0.587500X0.150000X0.587500X-0.150000X0.587500X-0.150000X-0.587500X0*%
%ADD21RoundRect,0.250000X-0.275000X-0.275000X0.275000X-0.275000X0.275000X0.275000X-0.275000X0.275000X0*%
%ADD22RoundRect,0.062500X-0.350000X-0.062500X0.350000X-0.062500X0.350000X0.062500X-0.350000X0.062500X0*%
%ADD23RoundRect,0.062500X-0.062500X-0.350000X0.062500X-0.350000X0.062500X0.350000X-0.062500X0.350000X0*%
%ADD24R,1.150000X0.300000*%
%ADD25RoundRect,0.250000X-0.475000X0.337500X-0.475000X-0.337500X0.475000X-0.337500X0.475000X0.337500X0*%
%ADD26RoundRect,0.250000X0.450000X-0.350000X0.450000X0.350000X-0.450000X0.350000X-0.450000X-0.350000X0*%
%ADD27R,2.000000X3.800000*%
%ADD28R,2.000000X1.500000*%
G04 APERTURE END LIST*
D10*
%TO.C,F1*%
X114200000Y-91325000D03*
X114200000Y-95775000D03*
%TD*%
D11*
%TO.C,C6*%
X119687500Y-95690000D03*
X117612500Y-95690000D03*
%TD*%
%TO.C,C3*%
X119687500Y-93050000D03*
X117612500Y-93050000D03*
%TD*%
D12*
%TO.C,C2*%
X124000000Y-60037500D03*
X124000000Y-57962500D03*
%TD*%
D13*
%TO.C,R3*%
X129900000Y-82500000D03*
X131900000Y-82500000D03*
%TD*%
D12*
%TO.C,C1*%
X121000000Y-60075000D03*
X121000000Y-58000000D03*
%TD*%
D14*
%TO.C,R7*%
X122540000Y-67480000D03*
X120540000Y-67480000D03*
%TD*%
D15*
%TO.C,R2*%
X124400000Y-93150000D03*
X124400000Y-95150000D03*
%TD*%
D14*
%TO.C,R6*%
X122520000Y-70020000D03*
X120520000Y-70020000D03*
%TD*%
D16*
%TO.C,U2*%
X128660000Y-57955000D03*
X128660000Y-59225000D03*
X128660000Y-60495000D03*
X128660000Y-61765000D03*
X128660000Y-63035000D03*
X128660000Y-64305000D03*
X128660000Y-65575000D03*
X128660000Y-66845000D03*
X128660000Y-68115000D03*
X128660000Y-69385000D03*
X128660000Y-70655000D03*
X128660000Y-71925000D03*
X128660000Y-73195000D03*
X128660000Y-74465000D03*
D17*
X131445000Y-75465000D03*
X132715000Y-75465000D03*
X133985000Y-75465000D03*
X135255000Y-75465000D03*
X136525000Y-75465000D03*
X137795000Y-75465000D03*
X139065000Y-75465000D03*
X140335000Y-75465000D03*
X141605000Y-75465000D03*
X142875000Y-75465000D03*
D16*
X145660000Y-74465000D03*
X145660000Y-73195000D03*
X145660000Y-71925000D03*
X145660000Y-70655000D03*
X145660000Y-69385000D03*
X145660000Y-68115000D03*
X145660000Y-66845000D03*
X145660000Y-65575000D03*
X145660000Y-64305000D03*
X145660000Y-63035000D03*
X145660000Y-61765000D03*
X145660000Y-60495000D03*
X145660000Y-59225000D03*
X145660000Y-57955000D03*
D18*
X136160000Y-65455000D03*
%TD*%
D19*
%TO.C,C_Out1*%
X142487500Y-89650000D03*
X140412500Y-89650000D03*
%TD*%
D14*
%TO.C,R4*%
X122500000Y-75000000D03*
X120500000Y-75000000D03*
%TD*%
%TO.C,R5*%
X122500000Y-72500000D03*
X120500000Y-72500000D03*
%TD*%
D20*
%TO.C,Q1*%
X128050000Y-80287500D03*
X129950000Y-80287500D03*
X129000000Y-78412500D03*
%TD*%
D15*
%TO.C,R8*%
X125250000Y-79425480D03*
X125250000Y-77425480D03*
%TD*%
D21*
%TO.C,U3*%
X124300000Y-83750000D03*
X124300000Y-85050000D03*
X125600000Y-85050000D03*
X125600000Y-83750000D03*
D22*
X123012500Y-83150000D03*
X123012500Y-83650000D03*
X123012500Y-84150000D03*
X123012500Y-84650000D03*
X123012500Y-85150000D03*
X123012500Y-85650000D03*
D23*
X123700000Y-86337500D03*
X124200000Y-86337500D03*
X124700000Y-86337500D03*
X125200000Y-86337500D03*
X125700000Y-86337500D03*
X126200000Y-86337500D03*
D22*
X126887500Y-85650000D03*
X126887500Y-85150000D03*
X126887500Y-84650000D03*
X126887500Y-84150000D03*
X126887500Y-83650000D03*
X126887500Y-83150000D03*
D23*
X126200000Y-82462500D03*
X125700000Y-82462500D03*
X125200000Y-82462500D03*
X124700000Y-82462500D03*
X124200000Y-82462500D03*
X123700000Y-82462500D03*
%TD*%
D24*
%TO.C,J1*%
X117270000Y-81050000D03*
X117270000Y-81850000D03*
X117270000Y-83150000D03*
X117270000Y-84150000D03*
X117270000Y-84650000D03*
X117270000Y-85650000D03*
X117270000Y-86950000D03*
X117270000Y-87750000D03*
X117270000Y-87450000D03*
X117270000Y-86650000D03*
X117270000Y-86150000D03*
X117270000Y-85150000D03*
X117270000Y-83650000D03*
X117270000Y-82650000D03*
X117270000Y-82150000D03*
X117270000Y-81350000D03*
%TD*%
D25*
%TO.C,C5*%
X121150000Y-85650000D03*
X121150000Y-87725000D03*
%TD*%
D19*
%TO.C,C4*%
X120962500Y-80600000D03*
X123037500Y-80600000D03*
%TD*%
D26*
%TO.C,R9*%
X127850000Y-90400000D03*
X127850000Y-92400000D03*
%TD*%
D15*
%TO.C,R1*%
X122300000Y-93150000D03*
X122300000Y-95150000D03*
%TD*%
D25*
%TO.C,C_In1*%
X133000000Y-87687500D03*
X133000000Y-85612500D03*
%TD*%
D20*
%TO.C,Q2*%
X131800000Y-80287500D03*
X133700000Y-80287500D03*
X132750000Y-78412500D03*
%TD*%
D27*
%TO.C,U1*%
X144050000Y-83150000D03*
D28*
X137750000Y-85450000D03*
X137750000Y-83150000D03*
X137750000Y-80850000D03*
%TD*%
M02*
