%TF.GenerationSoftware,KiCad,Pcbnew,(6.0.4)*%
%TF.CreationDate,2022-04-07T08:48:20+03:00*%
%TF.ProjectId,Glove,476c6f76-652e-46b6-9963-61645f706362,rev?*%
%TF.SameCoordinates,Original*%
%TF.FileFunction,Legend,Bot*%
%TF.FilePolarity,Positive*%
%FSLAX46Y46*%
G04 Gerber Fmt 4.6, Leading zero omitted, Abs format (unit mm)*
G04 Created by KiCad (PCBNEW (6.0.4)) date 2022-04-07 08:48:20*
%MOMM*%
%LPD*%
G01*
G04 APERTURE LIST*
%ADD10C,0.150000*%
G04 APERTURE END LIST*
D10*
X166052380Y-84023809D02*
X166052380Y-84642857D01*
X166433333Y-84309524D01*
X166433333Y-84452381D01*
X166480952Y-84547619D01*
X166528571Y-84595238D01*
X166623809Y-84642857D01*
X166861904Y-84642857D01*
X166957142Y-84595238D01*
X167004761Y-84547619D01*
X167052380Y-84452381D01*
X167052380Y-84166666D01*
X167004761Y-84071428D01*
X166957142Y-84023809D01*
X166052380Y-84928571D02*
X167052380Y-85261905D01*
X166052380Y-85595238D01*
X166052380Y-85833333D02*
X166052380Y-86452381D01*
X166433333Y-86119047D01*
X166433333Y-86261905D01*
X166480952Y-86357143D01*
X166528571Y-86404762D01*
X166623809Y-86452381D01*
X166861904Y-86452381D01*
X166957142Y-86404762D01*
X167004761Y-86357143D01*
X167052380Y-86261905D01*
X167052380Y-85976190D01*
X167004761Y-85880952D01*
X166957142Y-85833333D01*
X153100000Y-66728571D02*
X153052380Y-66633333D01*
X153052380Y-66490476D01*
X153100000Y-66347618D01*
X153195238Y-66252380D01*
X153290476Y-66204761D01*
X153480952Y-66157142D01*
X153623809Y-66157142D01*
X153814285Y-66204761D01*
X153909523Y-66252380D01*
X154004761Y-66347618D01*
X154052380Y-66490476D01*
X154052380Y-66585714D01*
X154004761Y-66728571D01*
X153957142Y-66776190D01*
X153623809Y-66776190D01*
X153623809Y-66585714D01*
X154052380Y-67204761D02*
X153052380Y-67204761D01*
X154052380Y-67776190D01*
X153052380Y-67776190D01*
X154052380Y-68252380D02*
X153052380Y-68252380D01*
X153052380Y-68490476D01*
X153100000Y-68633333D01*
X153195238Y-68728571D01*
X153290476Y-68776190D01*
X153480952Y-68823809D01*
X153623809Y-68823809D01*
X153814285Y-68776190D01*
X153909523Y-68728571D01*
X154004761Y-68633333D01*
X154052380Y-68490476D01*
X154052380Y-68252380D01*
X173414285Y-90302380D02*
X173747619Y-89826190D01*
X173985714Y-90302380D02*
X173985714Y-89302380D01*
X173604762Y-89302380D01*
X173509524Y-89350000D01*
X173461905Y-89397619D01*
X173414285Y-89492857D01*
X173414285Y-89635714D01*
X173461905Y-89730952D01*
X173509524Y-89778571D01*
X173604762Y-89826190D01*
X173985714Y-89826190D01*
X172985714Y-90302380D02*
X172985714Y-89635714D01*
X172985714Y-89302380D02*
X173033333Y-89350000D01*
X172985714Y-89397619D01*
X172938095Y-89350000D01*
X172985714Y-89302380D01*
X172985714Y-89397619D01*
X172509524Y-89635714D02*
X172509524Y-90302380D01*
X172509524Y-89730952D02*
X172461905Y-89683333D01*
X172366666Y-89635714D01*
X172223809Y-89635714D01*
X172128571Y-89683333D01*
X172080952Y-89778571D01*
X172080952Y-90302380D01*
X171176190Y-89635714D02*
X171176190Y-90445238D01*
X171223809Y-90540476D01*
X171271428Y-90588095D01*
X171366666Y-90635714D01*
X171509524Y-90635714D01*
X171604762Y-90588095D01*
X171176190Y-90254761D02*
X171271428Y-90302380D01*
X171461905Y-90302380D01*
X171557143Y-90254761D01*
X171604762Y-90207142D01*
X171652381Y-90111904D01*
X171652381Y-89826190D01*
X171604762Y-89730952D01*
X171557143Y-89683333D01*
X171461905Y-89635714D01*
X171271428Y-89635714D01*
X171176190Y-89683333D01*
X169938095Y-90302380D02*
X169938095Y-89302380D01*
X169557143Y-89302380D01*
X169461905Y-89350000D01*
X169414285Y-89397619D01*
X169366666Y-89492857D01*
X169366666Y-89635714D01*
X169414285Y-89730952D01*
X169461905Y-89778571D01*
X169557143Y-89826190D01*
X169938095Y-89826190D01*
X168795238Y-90302380D02*
X168890476Y-90254761D01*
X168938095Y-90207142D01*
X168985714Y-90111904D01*
X168985714Y-89826190D01*
X168938095Y-89730952D01*
X168890476Y-89683333D01*
X168795238Y-89635714D01*
X168652381Y-89635714D01*
X168557143Y-89683333D01*
X168509524Y-89730952D01*
X168461905Y-89826190D01*
X168461905Y-90111904D01*
X168509524Y-90207142D01*
X168557143Y-90254761D01*
X168652381Y-90302380D01*
X168795238Y-90302380D01*
X168176190Y-89635714D02*
X167795238Y-89635714D01*
X168033333Y-89302380D02*
X168033333Y-90159523D01*
X167985714Y-90254761D01*
X167890476Y-90302380D01*
X167795238Y-90302380D01*
X161033333Y-81552380D02*
X161033333Y-80552380D01*
X160699999Y-81266666D01*
X160366666Y-80552380D01*
X160366666Y-81552380D01*
X159890475Y-81552380D02*
X159890475Y-80885714D01*
X159890475Y-80552380D02*
X159938095Y-80600000D01*
X159890475Y-80647619D01*
X159842856Y-80600000D01*
X159890475Y-80552380D01*
X159890475Y-80647619D01*
X158985714Y-81552380D02*
X158985714Y-80552380D01*
X158985714Y-81504761D02*
X159080952Y-81552380D01*
X159271428Y-81552380D01*
X159366666Y-81504761D01*
X159414285Y-81457142D01*
X159461904Y-81361904D01*
X159461904Y-81076190D01*
X159414285Y-80980952D01*
X159366666Y-80933333D01*
X159271428Y-80885714D01*
X159080952Y-80885714D01*
X158985714Y-80933333D01*
X158080952Y-81552380D02*
X158080952Y-80552380D01*
X158080952Y-81504761D02*
X158176190Y-81552380D01*
X158366666Y-81552380D01*
X158461904Y-81504761D01*
X158509523Y-81457142D01*
X158557142Y-81361904D01*
X158557142Y-81076190D01*
X158509523Y-80980952D01*
X158461904Y-80933333D01*
X158366666Y-80885714D01*
X158176190Y-80885714D01*
X158080952Y-80933333D01*
X157461904Y-81552380D02*
X157557142Y-81504761D01*
X157604761Y-81409523D01*
X157604761Y-80552380D01*
X156699999Y-81504761D02*
X156795237Y-81552380D01*
X156985714Y-81552380D01*
X157080952Y-81504761D01*
X157128571Y-81409523D01*
X157128571Y-81028571D01*
X157080952Y-80933333D01*
X156985714Y-80885714D01*
X156795237Y-80885714D01*
X156699999Y-80933333D01*
X156652380Y-81028571D01*
X156652380Y-81123809D01*
X157128571Y-81219047D01*
X155509523Y-81504761D02*
X155366666Y-81552380D01*
X155128571Y-81552380D01*
X155033333Y-81504761D01*
X154985714Y-81457142D01*
X154938095Y-81361904D01*
X154938095Y-81266666D01*
X154985714Y-81171428D01*
X155033333Y-81123809D01*
X155128571Y-81076190D01*
X155319047Y-81028571D01*
X155414285Y-80980952D01*
X155461904Y-80933333D01*
X155509523Y-80838095D01*
X155509523Y-80742857D01*
X155461904Y-80647619D01*
X155414285Y-80600000D01*
X155319047Y-80552380D01*
X155080952Y-80552380D01*
X154938095Y-80600000D01*
X154128571Y-81504761D02*
X154223809Y-81552380D01*
X154414285Y-81552380D01*
X154509523Y-81504761D01*
X154557142Y-81409523D01*
X154557142Y-81028571D01*
X154509523Y-80933333D01*
X154414285Y-80885714D01*
X154223809Y-80885714D01*
X154128571Y-80933333D01*
X154080952Y-81028571D01*
X154080952Y-81123809D01*
X154557142Y-81219047D01*
X153652380Y-81552380D02*
X153652380Y-80885714D01*
X153652380Y-81076190D02*
X153604761Y-80980952D01*
X153557142Y-80933333D01*
X153461904Y-80885714D01*
X153366666Y-80885714D01*
X153128571Y-80885714D02*
X152890475Y-81552380D01*
X152652380Y-80885714D01*
X152128571Y-81552380D02*
X152223809Y-81504761D01*
X152271428Y-81457142D01*
X152319047Y-81361904D01*
X152319047Y-81076190D01*
X152271428Y-80980952D01*
X152223809Y-80933333D01*
X152128571Y-80885714D01*
X151985714Y-80885714D01*
X151890475Y-80933333D01*
X151842856Y-80980952D01*
X151795237Y-81076190D01*
X151795237Y-81361904D01*
X151842856Y-81457142D01*
X151890475Y-81504761D01*
X151985714Y-81552380D01*
X152128571Y-81552380D01*
X170900000Y-93019048D02*
X170852380Y-92923810D01*
X170852380Y-92780953D01*
X170900000Y-92638095D01*
X170995238Y-92542857D01*
X171090476Y-92495238D01*
X171280952Y-92447619D01*
X171423809Y-92447619D01*
X171614285Y-92495238D01*
X171709523Y-92542857D01*
X171804761Y-92638095D01*
X171852380Y-92780953D01*
X171852380Y-92876191D01*
X171804761Y-93019048D01*
X171757142Y-93066667D01*
X171423809Y-93066667D01*
X171423809Y-92876191D01*
X171852380Y-93495238D02*
X170852380Y-93495238D01*
X171852380Y-94066667D01*
X170852380Y-94066667D01*
X171852380Y-94542857D02*
X170852380Y-94542857D01*
X170852380Y-94780953D01*
X170900000Y-94923810D01*
X170995238Y-95019048D01*
X171090476Y-95066667D01*
X171280952Y-95114286D01*
X171423809Y-95114286D01*
X171614285Y-95066667D01*
X171709523Y-95019048D01*
X171804761Y-94923810D01*
X171852380Y-94780953D01*
X171852380Y-94542857D01*
X159052380Y-92257143D02*
X158052380Y-92257143D01*
X158052380Y-92638095D01*
X158100000Y-92733333D01*
X158147619Y-92780952D01*
X158242857Y-92828571D01*
X158385714Y-92828571D01*
X158480952Y-92780952D01*
X158528571Y-92733333D01*
X158576190Y-92638095D01*
X158576190Y-92257143D01*
X158052380Y-93161905D02*
X159052380Y-93400000D01*
X158338095Y-93590476D01*
X159052380Y-93780952D01*
X158052380Y-94019047D01*
X159052380Y-94400000D02*
X158052380Y-94400000D01*
X158766666Y-94733333D01*
X158052380Y-95066666D01*
X159052380Y-95066666D01*
X161033333Y-72802380D02*
X161033333Y-71802380D01*
X160652381Y-71802380D01*
X160557143Y-71850000D01*
X160509524Y-71897619D01*
X160461905Y-71992857D01*
X160461905Y-72135714D01*
X160509524Y-72230952D01*
X160557143Y-72278571D01*
X160652381Y-72326190D01*
X161033333Y-72326190D01*
X159890476Y-72802380D02*
X159985714Y-72754761D01*
X160033333Y-72707142D01*
X160080952Y-72611904D01*
X160080952Y-72326190D01*
X160033333Y-72230952D01*
X159985714Y-72183333D01*
X159890476Y-72135714D01*
X159747619Y-72135714D01*
X159652381Y-72183333D01*
X159604762Y-72230952D01*
X159557143Y-72326190D01*
X159557143Y-72611904D01*
X159604762Y-72707142D01*
X159652381Y-72754761D01*
X159747619Y-72802380D01*
X159890476Y-72802380D01*
X159128571Y-72802380D02*
X159128571Y-72135714D01*
X159128571Y-71802380D02*
X159176191Y-71850000D01*
X159128571Y-71897619D01*
X159080952Y-71850000D01*
X159128571Y-71802380D01*
X159128571Y-71897619D01*
X158652381Y-72135714D02*
X158652381Y-72802380D01*
X158652381Y-72230952D02*
X158604762Y-72183333D01*
X158509524Y-72135714D01*
X158366667Y-72135714D01*
X158271429Y-72183333D01*
X158223810Y-72278571D01*
X158223810Y-72802380D01*
X157890476Y-72135714D02*
X157509524Y-72135714D01*
X157747619Y-71802380D02*
X157747619Y-72659523D01*
X157700000Y-72754761D01*
X157604762Y-72802380D01*
X157509524Y-72802380D01*
X156795238Y-72754761D02*
X156890476Y-72802380D01*
X157080952Y-72802380D01*
X157176191Y-72754761D01*
X157223810Y-72659523D01*
X157223810Y-72278571D01*
X157176191Y-72183333D01*
X157080952Y-72135714D01*
X156890476Y-72135714D01*
X156795238Y-72183333D01*
X156747619Y-72278571D01*
X156747619Y-72373809D01*
X157223810Y-72469047D01*
X156319048Y-72802380D02*
X156319048Y-72135714D01*
X156319048Y-72326190D02*
X156271429Y-72230952D01*
X156223810Y-72183333D01*
X156128571Y-72135714D01*
X156033333Y-72135714D01*
X154985714Y-72754761D02*
X154842857Y-72802380D01*
X154604762Y-72802380D01*
X154509524Y-72754761D01*
X154461905Y-72707142D01*
X154414286Y-72611904D01*
X154414286Y-72516666D01*
X154461905Y-72421428D01*
X154509524Y-72373809D01*
X154604762Y-72326190D01*
X154795238Y-72278571D01*
X154890476Y-72230952D01*
X154938095Y-72183333D01*
X154985714Y-72088095D01*
X154985714Y-71992857D01*
X154938095Y-71897619D01*
X154890476Y-71850000D01*
X154795238Y-71802380D01*
X154557143Y-71802380D01*
X154414286Y-71850000D01*
X153604762Y-72754761D02*
X153700000Y-72802380D01*
X153890476Y-72802380D01*
X153985714Y-72754761D01*
X154033333Y-72659523D01*
X154033333Y-72278571D01*
X153985714Y-72183333D01*
X153890476Y-72135714D01*
X153700000Y-72135714D01*
X153604762Y-72183333D01*
X153557143Y-72278571D01*
X153557143Y-72373809D01*
X154033333Y-72469047D01*
X153128571Y-72802380D02*
X153128571Y-72135714D01*
X153128571Y-72326190D02*
X153080952Y-72230952D01*
X153033333Y-72183333D01*
X152938095Y-72135714D01*
X152842857Y-72135714D01*
X152604762Y-72135714D02*
X152366667Y-72802380D01*
X152128571Y-72135714D01*
X151604762Y-72802380D02*
X151700000Y-72754761D01*
X151747619Y-72707142D01*
X151795238Y-72611904D01*
X151795238Y-72326190D01*
X151747619Y-72230952D01*
X151700000Y-72183333D01*
X151604762Y-72135714D01*
X151461905Y-72135714D01*
X151366667Y-72183333D01*
X151319048Y-72230952D01*
X151271429Y-72326190D01*
X151271429Y-72611904D01*
X151319048Y-72707142D01*
X151366667Y-72754761D01*
X151461905Y-72802380D01*
X151604762Y-72802380D01*
X122161904Y-67852380D02*
X122161904Y-66852380D01*
X121828570Y-67566666D01*
X121495237Y-66852380D01*
X121495237Y-67852380D01*
X121161904Y-66852380D02*
X120590475Y-66852380D01*
X120876189Y-67852380D02*
X120876189Y-66852380D01*
X120257142Y-67852380D02*
X120257142Y-66852380D01*
X120019047Y-66852380D01*
X119876189Y-66900000D01*
X119780951Y-66995238D01*
X119733332Y-67090476D01*
X119685713Y-67280952D01*
X119685713Y-67423809D01*
X119733332Y-67614285D01*
X119780951Y-67709523D01*
X119876189Y-67804761D01*
X120019047Y-67852380D01*
X120257142Y-67852380D01*
X119066666Y-66852380D02*
X118876189Y-66852380D01*
X118780951Y-66900000D01*
X118685713Y-66995238D01*
X118638094Y-67185714D01*
X118638094Y-67519047D01*
X118685713Y-67709523D01*
X118780951Y-67804761D01*
X118876189Y-67852380D01*
X119066666Y-67852380D01*
X119161904Y-67804761D01*
X119257142Y-67709523D01*
X119304761Y-67519047D01*
X119304761Y-67185714D01*
X119257142Y-66995238D01*
X119161904Y-66900000D01*
X119066666Y-66852380D01*
X160461904Y-90302380D02*
X160795238Y-89826190D01*
X161033333Y-90302380D02*
X161033333Y-89302380D01*
X160652380Y-89302380D01*
X160557142Y-89350000D01*
X160509523Y-89397619D01*
X160461904Y-89492857D01*
X160461904Y-89635714D01*
X160509523Y-89730952D01*
X160557142Y-89778571D01*
X160652380Y-89826190D01*
X161033333Y-89826190D01*
X160033333Y-90302380D02*
X160033333Y-89635714D01*
X160033333Y-89302380D02*
X160080952Y-89350000D01*
X160033333Y-89397619D01*
X159985714Y-89350000D01*
X160033333Y-89302380D01*
X160033333Y-89397619D01*
X159557142Y-89635714D02*
X159557142Y-90302380D01*
X159557142Y-89730952D02*
X159509523Y-89683333D01*
X159414285Y-89635714D01*
X159271428Y-89635714D01*
X159176190Y-89683333D01*
X159128571Y-89778571D01*
X159128571Y-90302380D01*
X158223809Y-89635714D02*
X158223809Y-90445238D01*
X158271428Y-90540476D01*
X158319047Y-90588095D01*
X158414285Y-90635714D01*
X158557142Y-90635714D01*
X158652380Y-90588095D01*
X158223809Y-90254761D02*
X158319047Y-90302380D01*
X158509523Y-90302380D01*
X158604761Y-90254761D01*
X158652380Y-90207142D01*
X158700000Y-90111904D01*
X158700000Y-89826190D01*
X158652380Y-89730952D01*
X158604761Y-89683333D01*
X158509523Y-89635714D01*
X158319047Y-89635714D01*
X158223809Y-89683333D01*
X157033333Y-90254761D02*
X156890476Y-90302380D01*
X156652380Y-90302380D01*
X156557142Y-90254761D01*
X156509523Y-90207142D01*
X156461904Y-90111904D01*
X156461904Y-90016666D01*
X156509523Y-89921428D01*
X156557142Y-89873809D01*
X156652380Y-89826190D01*
X156842857Y-89778571D01*
X156938095Y-89730952D01*
X156985714Y-89683333D01*
X157033333Y-89588095D01*
X157033333Y-89492857D01*
X156985714Y-89397619D01*
X156938095Y-89350000D01*
X156842857Y-89302380D01*
X156604761Y-89302380D01*
X156461904Y-89350000D01*
X155652380Y-90254761D02*
X155747619Y-90302380D01*
X155938095Y-90302380D01*
X156033333Y-90254761D01*
X156080952Y-90159523D01*
X156080952Y-89778571D01*
X156033333Y-89683333D01*
X155938095Y-89635714D01*
X155747619Y-89635714D01*
X155652380Y-89683333D01*
X155604761Y-89778571D01*
X155604761Y-89873809D01*
X156080952Y-89969047D01*
X155176190Y-90302380D02*
X155176190Y-89635714D01*
X155176190Y-89826190D02*
X155128571Y-89730952D01*
X155080952Y-89683333D01*
X154985714Y-89635714D01*
X154890476Y-89635714D01*
X154652380Y-89635714D02*
X154414285Y-90302380D01*
X154176190Y-89635714D01*
X153652380Y-90302380D02*
X153747619Y-90254761D01*
X153795238Y-90207142D01*
X153842857Y-90111904D01*
X153842857Y-89826190D01*
X153795238Y-89730952D01*
X153747619Y-89683333D01*
X153652380Y-89635714D01*
X153509523Y-89635714D01*
X153414285Y-89683333D01*
X153366666Y-89730952D01*
X153319047Y-89826190D01*
X153319047Y-90111904D01*
X153366666Y-90207142D01*
X153414285Y-90254761D01*
X153509523Y-90302380D01*
X153652380Y-90302380D01*
X155452380Y-94209523D02*
X155452380Y-93733333D01*
X155928571Y-93685714D01*
X155880952Y-93733333D01*
X155833333Y-93828571D01*
X155833333Y-94066666D01*
X155880952Y-94161904D01*
X155928571Y-94209523D01*
X156023809Y-94257142D01*
X156261904Y-94257142D01*
X156357142Y-94209523D01*
X156404761Y-94161904D01*
X156452380Y-94066666D01*
X156452380Y-93828571D01*
X156404761Y-93733333D01*
X156357142Y-93685714D01*
X155452380Y-94542857D02*
X156452380Y-94876190D01*
X155452380Y-95209523D01*
X170900000Y-75585715D02*
X170852380Y-75490477D01*
X170852380Y-75347620D01*
X170900000Y-75204762D01*
X170995238Y-75109524D01*
X171090476Y-75061905D01*
X171280952Y-75014286D01*
X171423809Y-75014286D01*
X171614285Y-75061905D01*
X171709523Y-75109524D01*
X171804761Y-75204762D01*
X171852380Y-75347620D01*
X171852380Y-75442858D01*
X171804761Y-75585715D01*
X171757142Y-75633334D01*
X171423809Y-75633334D01*
X171423809Y-75442858D01*
X171852380Y-76061905D02*
X170852380Y-76061905D01*
X171852380Y-76633334D01*
X170852380Y-76633334D01*
X171852380Y-77109524D02*
X170852380Y-77109524D01*
X170852380Y-77347620D01*
X170900000Y-77490477D01*
X170995238Y-77585715D01*
X171090476Y-77633334D01*
X171280952Y-77680953D01*
X171423809Y-77680953D01*
X171614285Y-77633334D01*
X171709523Y-77585715D01*
X171804761Y-77490477D01*
X171852380Y-77347620D01*
X171852380Y-77109524D01*
X173985714Y-81552380D02*
X173985714Y-80552380D01*
X173652380Y-81266666D01*
X173319047Y-80552380D01*
X173319047Y-81552380D01*
X172842857Y-81552380D02*
X172842857Y-80885714D01*
X172842857Y-80552380D02*
X172890476Y-80600000D01*
X172842857Y-80647619D01*
X172795238Y-80600000D01*
X172842857Y-80552380D01*
X172842857Y-80647619D01*
X171938095Y-81552380D02*
X171938095Y-80552380D01*
X171938095Y-81504761D02*
X172033333Y-81552380D01*
X172223809Y-81552380D01*
X172319047Y-81504761D01*
X172366666Y-81457142D01*
X172414285Y-81361904D01*
X172414285Y-81076190D01*
X172366666Y-80980952D01*
X172319047Y-80933333D01*
X172223809Y-80885714D01*
X172033333Y-80885714D01*
X171938095Y-80933333D01*
X171033333Y-81552380D02*
X171033333Y-80552380D01*
X171033333Y-81504761D02*
X171128571Y-81552380D01*
X171319047Y-81552380D01*
X171414285Y-81504761D01*
X171461904Y-81457142D01*
X171509523Y-81361904D01*
X171509523Y-81076190D01*
X171461904Y-80980952D01*
X171414285Y-80933333D01*
X171319047Y-80885714D01*
X171128571Y-80885714D01*
X171033333Y-80933333D01*
X170414285Y-81552380D02*
X170509523Y-81504761D01*
X170557142Y-81409523D01*
X170557142Y-80552380D01*
X169652380Y-81504761D02*
X169747619Y-81552380D01*
X169938095Y-81552380D01*
X170033333Y-81504761D01*
X170080952Y-81409523D01*
X170080952Y-81028571D01*
X170033333Y-80933333D01*
X169938095Y-80885714D01*
X169747619Y-80885714D01*
X169652380Y-80933333D01*
X169604761Y-81028571D01*
X169604761Y-81123809D01*
X170080952Y-81219047D01*
X168414285Y-81552380D02*
X168414285Y-80552380D01*
X168033333Y-80552380D01*
X167938095Y-80600000D01*
X167890476Y-80647619D01*
X167842857Y-80742857D01*
X167842857Y-80885714D01*
X167890476Y-80980952D01*
X167938095Y-81028571D01*
X168033333Y-81076190D01*
X168414285Y-81076190D01*
X167271428Y-81552380D02*
X167366666Y-81504761D01*
X167414285Y-81457142D01*
X167461904Y-81361904D01*
X167461904Y-81076190D01*
X167414285Y-80980952D01*
X167366666Y-80933333D01*
X167271428Y-80885714D01*
X167128571Y-80885714D01*
X167033333Y-80933333D01*
X166985714Y-80980952D01*
X166938095Y-81076190D01*
X166938095Y-81361904D01*
X166985714Y-81457142D01*
X167033333Y-81504761D01*
X167128571Y-81552380D01*
X167271428Y-81552380D01*
X166652380Y-80885714D02*
X166271428Y-80885714D01*
X166509523Y-80552380D02*
X166509523Y-81409523D01*
X166461904Y-81504761D01*
X166366666Y-81552380D01*
X166271428Y-81552380D01*
X133700000Y-105933333D02*
X133652380Y-105838095D01*
X133652380Y-105695238D01*
X133700000Y-105552380D01*
X133795238Y-105457142D01*
X133890476Y-105409523D01*
X134080952Y-105361904D01*
X134223809Y-105361904D01*
X134414285Y-105409523D01*
X134509523Y-105457142D01*
X134604761Y-105552380D01*
X134652380Y-105695238D01*
X134652380Y-105790476D01*
X134604761Y-105933333D01*
X134557142Y-105980952D01*
X134223809Y-105980952D01*
X134223809Y-105790476D01*
X134652380Y-106409523D02*
X133652380Y-106409523D01*
X134652380Y-106980952D01*
X133652380Y-106980952D01*
X134652380Y-107457142D02*
X133652380Y-107457142D01*
X133652380Y-107695238D01*
X133700000Y-107838095D01*
X133795238Y-107933333D01*
X133890476Y-107980952D01*
X134080952Y-108028571D01*
X134223809Y-108028571D01*
X134414285Y-107980952D01*
X134509523Y-107933333D01*
X134604761Y-107838095D01*
X134652380Y-107695238D01*
X134652380Y-107457142D01*
X155452380Y-59147618D02*
X155452380Y-58671428D01*
X155928571Y-58623809D01*
X155880952Y-58671428D01*
X155833333Y-58766666D01*
X155833333Y-59004761D01*
X155880952Y-59099999D01*
X155928571Y-59147618D01*
X156023809Y-59195237D01*
X156261904Y-59195237D01*
X156357142Y-59147618D01*
X156404761Y-59099999D01*
X156452380Y-59004761D01*
X156452380Y-58766666D01*
X156404761Y-58671428D01*
X156357142Y-58623809D01*
X155452380Y-59480952D02*
X156452380Y-59814285D01*
X155452380Y-60147618D01*
X131628571Y-105742856D02*
X131676190Y-105885713D01*
X131723809Y-105933332D01*
X131819047Y-105980951D01*
X131961904Y-105980951D01*
X132057142Y-105933332D01*
X132104761Y-105885713D01*
X132152380Y-105790475D01*
X132152380Y-105409523D01*
X131152380Y-105409523D01*
X131152380Y-105742856D01*
X131200000Y-105838094D01*
X131247619Y-105885713D01*
X131342857Y-105933332D01*
X131438095Y-105933332D01*
X131533333Y-105885713D01*
X131580952Y-105838094D01*
X131628571Y-105742856D01*
X131628571Y-105409523D01*
X170528571Y-102328571D02*
X170385714Y-102376190D01*
X170338095Y-102423809D01*
X170290476Y-102519047D01*
X170290476Y-102661904D01*
X170338095Y-102757142D01*
X170385714Y-102804761D01*
X170480952Y-102852380D01*
X170861904Y-102852380D01*
X170861904Y-101852380D01*
X170528571Y-101852380D01*
X170433333Y-101900000D01*
X170385714Y-101947619D01*
X170338095Y-102042857D01*
X170338095Y-102138095D01*
X170385714Y-102233333D01*
X170433333Y-102280952D01*
X170528571Y-102328571D01*
X170861904Y-102328571D01*
X159052380Y-74823810D02*
X158052380Y-74823810D01*
X158052380Y-75204762D01*
X158100000Y-75300000D01*
X158147619Y-75347619D01*
X158242857Y-75395238D01*
X158385714Y-75395238D01*
X158480952Y-75347619D01*
X158528571Y-75300000D01*
X158576190Y-75204762D01*
X158576190Y-74823810D01*
X158052380Y-75728572D02*
X159052380Y-75966667D01*
X158338095Y-76157143D01*
X159052380Y-76347619D01*
X158052380Y-76585714D01*
X159052380Y-76966667D02*
X158052380Y-76966667D01*
X158766666Y-77300000D01*
X158052380Y-77633333D01*
X159052380Y-77633333D01*
X155452380Y-67919046D02*
X155452380Y-67442856D01*
X155928571Y-67395237D01*
X155880952Y-67442856D01*
X155833333Y-67538094D01*
X155833333Y-67776189D01*
X155880952Y-67871427D01*
X155928571Y-67919046D01*
X156023809Y-67966665D01*
X156261904Y-67966665D01*
X156357142Y-67919046D01*
X156404761Y-67871427D01*
X156452380Y-67776189D01*
X156452380Y-67538094D01*
X156404761Y-67442856D01*
X156357142Y-67395237D01*
X155452380Y-68252380D02*
X156452380Y-68585713D01*
X155452380Y-68919046D01*
X159052380Y-83595238D02*
X158052380Y-83595238D01*
X158052380Y-83976190D01*
X158100000Y-84071428D01*
X158147619Y-84119047D01*
X158242857Y-84166666D01*
X158385714Y-84166666D01*
X158480952Y-84119047D01*
X158528571Y-84071428D01*
X158576190Y-83976190D01*
X158576190Y-83595238D01*
X158052380Y-84500000D02*
X159052380Y-84738095D01*
X158338095Y-84928571D01*
X159052380Y-85119047D01*
X158052380Y-85357142D01*
X159052380Y-85738095D02*
X158052380Y-85738095D01*
X158766666Y-86071428D01*
X158052380Y-86404761D01*
X159052380Y-86404761D01*
X166052380Y-92685714D02*
X166052380Y-93304762D01*
X166433333Y-92971429D01*
X166433333Y-93114286D01*
X166480952Y-93209524D01*
X166528571Y-93257143D01*
X166623809Y-93304762D01*
X166861904Y-93304762D01*
X166957142Y-93257143D01*
X167004761Y-93209524D01*
X167052380Y-93114286D01*
X167052380Y-92828571D01*
X167004761Y-92733333D01*
X166957142Y-92685714D01*
X166052380Y-93590476D02*
X167052380Y-93923810D01*
X166052380Y-94257143D01*
X166052380Y-94495238D02*
X166052380Y-95114286D01*
X166433333Y-94780952D01*
X166433333Y-94923810D01*
X166480952Y-95019048D01*
X166528571Y-95066667D01*
X166623809Y-95114286D01*
X166861904Y-95114286D01*
X166957142Y-95066667D01*
X167004761Y-95019048D01*
X167052380Y-94923810D01*
X167052380Y-94638095D01*
X167004761Y-94542857D01*
X166957142Y-94495238D01*
X153100000Y-75585715D02*
X153052380Y-75490477D01*
X153052380Y-75347620D01*
X153100000Y-75204762D01*
X153195238Y-75109524D01*
X153290476Y-75061905D01*
X153480952Y-75014286D01*
X153623809Y-75014286D01*
X153814285Y-75061905D01*
X153909523Y-75109524D01*
X154004761Y-75204762D01*
X154052380Y-75347620D01*
X154052380Y-75442858D01*
X154004761Y-75585715D01*
X153957142Y-75633334D01*
X153623809Y-75633334D01*
X153623809Y-75442858D01*
X154052380Y-76061905D02*
X153052380Y-76061905D01*
X154052380Y-76633334D01*
X153052380Y-76633334D01*
X154052380Y-77109524D02*
X153052380Y-77109524D01*
X153052380Y-77347620D01*
X153100000Y-77490477D01*
X153195238Y-77585715D01*
X153290476Y-77633334D01*
X153480952Y-77680953D01*
X153623809Y-77680953D01*
X153814285Y-77633334D01*
X153909523Y-77585715D01*
X154004761Y-77490477D01*
X154052380Y-77347620D01*
X154052380Y-77109524D01*
X173985714Y-72802380D02*
X173985714Y-71802380D01*
X173604761Y-71802380D01*
X173509523Y-71850000D01*
X173461904Y-71897619D01*
X173414285Y-71992857D01*
X173414285Y-72135714D01*
X173461904Y-72230952D01*
X173509523Y-72278571D01*
X173604761Y-72326190D01*
X173985714Y-72326190D01*
X172842856Y-72802380D02*
X172938095Y-72754761D01*
X172985714Y-72707142D01*
X173033333Y-72611904D01*
X173033333Y-72326190D01*
X172985714Y-72230952D01*
X172938095Y-72183333D01*
X172842856Y-72135714D01*
X172699999Y-72135714D01*
X172604761Y-72183333D01*
X172557142Y-72230952D01*
X172509523Y-72326190D01*
X172509523Y-72611904D01*
X172557142Y-72707142D01*
X172604761Y-72754761D01*
X172699999Y-72802380D01*
X172842856Y-72802380D01*
X172080952Y-72802380D02*
X172080952Y-72135714D01*
X172080952Y-71802380D02*
X172128571Y-71850000D01*
X172080952Y-71897619D01*
X172033333Y-71850000D01*
X172080952Y-71802380D01*
X172080952Y-71897619D01*
X171604761Y-72135714D02*
X171604761Y-72802380D01*
X171604761Y-72230952D02*
X171557142Y-72183333D01*
X171461904Y-72135714D01*
X171319047Y-72135714D01*
X171223809Y-72183333D01*
X171176190Y-72278571D01*
X171176190Y-72802380D01*
X170842856Y-72135714D02*
X170461904Y-72135714D01*
X170699999Y-71802380D02*
X170699999Y-72659523D01*
X170652380Y-72754761D01*
X170557142Y-72802380D01*
X170461904Y-72802380D01*
X169747618Y-72754761D02*
X169842856Y-72802380D01*
X170033333Y-72802380D01*
X170128571Y-72754761D01*
X170176190Y-72659523D01*
X170176190Y-72278571D01*
X170128571Y-72183333D01*
X170033333Y-72135714D01*
X169842856Y-72135714D01*
X169747618Y-72183333D01*
X169699999Y-72278571D01*
X169699999Y-72373809D01*
X170176190Y-72469047D01*
X169271428Y-72802380D02*
X169271428Y-72135714D01*
X169271428Y-72326190D02*
X169223809Y-72230952D01*
X169176190Y-72183333D01*
X169080952Y-72135714D01*
X168985714Y-72135714D01*
X167890475Y-72802380D02*
X167890475Y-71802380D01*
X167509523Y-71802380D01*
X167414285Y-71850000D01*
X167366666Y-71897619D01*
X167319047Y-71992857D01*
X167319047Y-72135714D01*
X167366666Y-72230952D01*
X167414285Y-72278571D01*
X167509523Y-72326190D01*
X167890475Y-72326190D01*
X166747618Y-72802380D02*
X166842856Y-72754761D01*
X166890475Y-72707142D01*
X166938095Y-72611904D01*
X166938095Y-72326190D01*
X166890475Y-72230952D01*
X166842856Y-72183333D01*
X166747618Y-72135714D01*
X166604761Y-72135714D01*
X166509523Y-72183333D01*
X166461904Y-72230952D01*
X166414285Y-72326190D01*
X166414285Y-72611904D01*
X166461904Y-72707142D01*
X166509523Y-72754761D01*
X166604761Y-72802380D01*
X166747618Y-72802380D01*
X166128571Y-72135714D02*
X165747618Y-72135714D01*
X165985714Y-71802380D02*
X165985714Y-72659523D01*
X165938095Y-72754761D01*
X165842856Y-72802380D01*
X165747618Y-72802380D01*
X153100000Y-57957143D02*
X153052380Y-57861905D01*
X153052380Y-57719048D01*
X153100000Y-57576190D01*
X153195238Y-57480952D01*
X153290476Y-57433333D01*
X153480952Y-57385714D01*
X153623809Y-57385714D01*
X153814285Y-57433333D01*
X153909523Y-57480952D01*
X154004761Y-57576190D01*
X154052380Y-57719048D01*
X154052380Y-57814286D01*
X154004761Y-57957143D01*
X153957142Y-58004762D01*
X153623809Y-58004762D01*
X153623809Y-57814286D01*
X154052380Y-58433333D02*
X153052380Y-58433333D01*
X154052380Y-59004762D01*
X153052380Y-59004762D01*
X154052380Y-59480952D02*
X153052380Y-59480952D01*
X153052380Y-59719048D01*
X153100000Y-59861905D01*
X153195238Y-59957143D01*
X153290476Y-60004762D01*
X153480952Y-60052381D01*
X153623809Y-60052381D01*
X153814285Y-60004762D01*
X153909523Y-59957143D01*
X154004761Y-59861905D01*
X154052380Y-59719048D01*
X154052380Y-59480952D01*
X161176190Y-63052380D02*
X160604761Y-63052380D01*
X160890475Y-64052380D02*
X160890475Y-63052380D01*
X160271428Y-64052380D02*
X160271428Y-63052380D01*
X159842856Y-64052380D02*
X159842856Y-63528571D01*
X159890475Y-63433333D01*
X159985714Y-63385714D01*
X160128571Y-63385714D01*
X160223809Y-63433333D01*
X160271428Y-63480952D01*
X158938095Y-63385714D02*
X158938095Y-64052380D01*
X159366666Y-63385714D02*
X159366666Y-63909523D01*
X159319047Y-64004761D01*
X159223809Y-64052380D01*
X159080952Y-64052380D01*
X158985714Y-64004761D01*
X158938095Y-63957142D01*
X158461904Y-64052380D02*
X158461904Y-63385714D01*
X158461904Y-63480952D02*
X158414285Y-63433333D01*
X158319047Y-63385714D01*
X158176190Y-63385714D01*
X158080952Y-63433333D01*
X158033333Y-63528571D01*
X158033333Y-64052380D01*
X158033333Y-63528571D02*
X157985714Y-63433333D01*
X157890475Y-63385714D01*
X157747618Y-63385714D01*
X157652380Y-63433333D01*
X157604761Y-63528571D01*
X157604761Y-64052380D01*
X157128571Y-64052380D02*
X157128571Y-63052380D01*
X157128571Y-63433333D02*
X157033333Y-63385714D01*
X156842856Y-63385714D01*
X156747618Y-63433333D01*
X156699999Y-63480952D01*
X156652380Y-63576190D01*
X156652380Y-63861904D01*
X156699999Y-63957142D01*
X156747618Y-64004761D01*
X156842856Y-64052380D01*
X157033333Y-64052380D01*
X157128571Y-64004761D01*
X155509523Y-64004761D02*
X155366666Y-64052380D01*
X155128571Y-64052380D01*
X155033333Y-64004761D01*
X154985714Y-63957142D01*
X154938095Y-63861904D01*
X154938095Y-63766666D01*
X154985714Y-63671428D01*
X155033333Y-63623809D01*
X155128571Y-63576190D01*
X155319047Y-63528571D01*
X155414285Y-63480952D01*
X155461904Y-63433333D01*
X155509523Y-63338095D01*
X155509523Y-63242857D01*
X155461904Y-63147619D01*
X155414285Y-63100000D01*
X155319047Y-63052380D01*
X155080952Y-63052380D01*
X154938095Y-63100000D01*
X154128571Y-64004761D02*
X154223809Y-64052380D01*
X154414285Y-64052380D01*
X154509523Y-64004761D01*
X154557142Y-63909523D01*
X154557142Y-63528571D01*
X154509523Y-63433333D01*
X154414285Y-63385714D01*
X154223809Y-63385714D01*
X154128571Y-63433333D01*
X154080952Y-63528571D01*
X154080952Y-63623809D01*
X154557142Y-63719047D01*
X153652380Y-64052380D02*
X153652380Y-63385714D01*
X153652380Y-63576190D02*
X153604761Y-63480952D01*
X153557142Y-63433333D01*
X153461904Y-63385714D01*
X153366666Y-63385714D01*
X153128571Y-63385714D02*
X152890475Y-64052380D01*
X152652380Y-63385714D01*
X152128571Y-64052380D02*
X152223809Y-64004761D01*
X152271428Y-63957142D01*
X152319047Y-63861904D01*
X152319047Y-63576190D01*
X152271428Y-63480952D01*
X152223809Y-63433333D01*
X152128571Y-63385714D01*
X151985714Y-63385714D01*
X151890475Y-63433333D01*
X151842856Y-63480952D01*
X151795237Y-63576190D01*
X151795237Y-63861904D01*
X151842856Y-63957142D01*
X151890475Y-64004761D01*
X151985714Y-64052380D01*
X152128571Y-64052380D01*
X169404761Y-66776190D02*
X169452380Y-66919047D01*
X169452380Y-67157142D01*
X169404761Y-67252380D01*
X169357142Y-67300000D01*
X169261904Y-67347619D01*
X169166666Y-67347619D01*
X169071428Y-67300000D01*
X169023809Y-67252380D01*
X168976190Y-67157142D01*
X168928571Y-66966666D01*
X168880952Y-66871428D01*
X168833333Y-66823809D01*
X168738095Y-66776190D01*
X168642857Y-66776190D01*
X168547619Y-66823809D01*
X168500000Y-66871428D01*
X168452380Y-66966666D01*
X168452380Y-67204761D01*
X168500000Y-67347619D01*
X169452380Y-67776190D02*
X168452380Y-67776190D01*
X168500000Y-68776190D02*
X168452380Y-68680952D01*
X168452380Y-68538095D01*
X168500000Y-68395238D01*
X168595238Y-68300000D01*
X168690476Y-68252380D01*
X168880952Y-68204761D01*
X169023809Y-68204761D01*
X169214285Y-68252380D01*
X169309523Y-68300000D01*
X169404761Y-68395238D01*
X169452380Y-68538095D01*
X169452380Y-68633333D01*
X169404761Y-68776190D01*
X169357142Y-68823809D01*
X169023809Y-68823809D01*
X169023809Y-68633333D01*
X155452380Y-85547618D02*
X155452380Y-85071428D01*
X155928571Y-85023809D01*
X155880952Y-85071428D01*
X155833333Y-85166666D01*
X155833333Y-85404761D01*
X155880952Y-85499999D01*
X155928571Y-85547618D01*
X156023809Y-85595237D01*
X156261904Y-85595237D01*
X156357142Y-85547618D01*
X156404761Y-85499999D01*
X156452380Y-85404761D01*
X156452380Y-85166666D01*
X156404761Y-85071428D01*
X156357142Y-85023809D01*
X155452380Y-85880952D02*
X156452380Y-86214285D01*
X155452380Y-86547618D01*
X170900000Y-84357143D02*
X170852380Y-84261905D01*
X170852380Y-84119048D01*
X170900000Y-83976190D01*
X170995238Y-83880952D01*
X171090476Y-83833333D01*
X171280952Y-83785714D01*
X171423809Y-83785714D01*
X171614285Y-83833333D01*
X171709523Y-83880952D01*
X171804761Y-83976190D01*
X171852380Y-84119048D01*
X171852380Y-84214286D01*
X171804761Y-84357143D01*
X171757142Y-84404762D01*
X171423809Y-84404762D01*
X171423809Y-84214286D01*
X171852380Y-84833333D02*
X170852380Y-84833333D01*
X171852380Y-85404762D01*
X170852380Y-85404762D01*
X171852380Y-85880952D02*
X170852380Y-85880952D01*
X170852380Y-86119048D01*
X170900000Y-86261905D01*
X170995238Y-86357143D01*
X171090476Y-86404762D01*
X171280952Y-86452381D01*
X171423809Y-86452381D01*
X171614285Y-86404762D01*
X171709523Y-86357143D01*
X171804761Y-86261905D01*
X171852380Y-86119048D01*
X171852380Y-85880952D01*
X169404761Y-84404762D02*
X169452380Y-84547619D01*
X169452380Y-84785714D01*
X169404761Y-84880952D01*
X169357142Y-84928572D01*
X169261904Y-84976191D01*
X169166666Y-84976191D01*
X169071428Y-84928572D01*
X169023809Y-84880952D01*
X168976190Y-84785714D01*
X168928571Y-84595238D01*
X168880952Y-84500000D01*
X168833333Y-84452381D01*
X168738095Y-84404762D01*
X168642857Y-84404762D01*
X168547619Y-84452381D01*
X168500000Y-84500000D01*
X168452380Y-84595238D01*
X168452380Y-84833333D01*
X168500000Y-84976191D01*
X169452380Y-85404762D02*
X168452380Y-85404762D01*
X168500000Y-86404762D02*
X168452380Y-86309524D01*
X168452380Y-86166667D01*
X168500000Y-86023810D01*
X168595238Y-85928572D01*
X168690476Y-85880952D01*
X168880952Y-85833333D01*
X169023809Y-85833333D01*
X169214285Y-85880952D01*
X169309523Y-85928572D01*
X169404761Y-86023810D01*
X169452380Y-86166667D01*
X169452380Y-86261905D01*
X169404761Y-86404762D01*
X169357142Y-86452381D01*
X169023809Y-86452381D01*
X169023809Y-86261905D01*
X169404761Y-58004762D02*
X169452380Y-58147619D01*
X169452380Y-58385714D01*
X169404761Y-58480952D01*
X169357142Y-58528572D01*
X169261904Y-58576191D01*
X169166666Y-58576191D01*
X169071428Y-58528572D01*
X169023809Y-58480952D01*
X168976190Y-58385714D01*
X168928571Y-58195238D01*
X168880952Y-58100000D01*
X168833333Y-58052381D01*
X168738095Y-58004762D01*
X168642857Y-58004762D01*
X168547619Y-58052381D01*
X168500000Y-58100000D01*
X168452380Y-58195238D01*
X168452380Y-58433333D01*
X168500000Y-58576191D01*
X169452380Y-59004762D02*
X168452380Y-59004762D01*
X168500000Y-60004762D02*
X168452380Y-59909524D01*
X168452380Y-59766667D01*
X168500000Y-59623810D01*
X168595238Y-59528572D01*
X168690476Y-59480952D01*
X168880952Y-59433333D01*
X169023809Y-59433333D01*
X169214285Y-59480952D01*
X169309523Y-59528572D01*
X169404761Y-59623810D01*
X169452380Y-59766667D01*
X169452380Y-59861905D01*
X169404761Y-60004762D01*
X169357142Y-60052381D01*
X169023809Y-60052381D01*
X169023809Y-59861905D01*
X143352380Y-101900000D02*
X143447619Y-101852380D01*
X143590476Y-101852380D01*
X143733333Y-101900000D01*
X143828571Y-101995238D01*
X143876190Y-102090476D01*
X143923809Y-102280952D01*
X143923809Y-102423809D01*
X143876190Y-102614285D01*
X143828571Y-102709523D01*
X143733333Y-102804761D01*
X143590476Y-102852380D01*
X143495238Y-102852380D01*
X143352380Y-102804761D01*
X143304761Y-102757142D01*
X143304761Y-102423809D01*
X143495238Y-102423809D01*
X142876190Y-102852380D02*
X142876190Y-102185714D01*
X142876190Y-102376190D02*
X142828571Y-102280952D01*
X142780952Y-102233333D01*
X142685714Y-102185714D01*
X142590476Y-102185714D01*
X141828571Y-102852380D02*
X141828571Y-102328571D01*
X141876190Y-102233333D01*
X141971428Y-102185714D01*
X142161904Y-102185714D01*
X142257142Y-102233333D01*
X141828571Y-102804761D02*
X141923809Y-102852380D01*
X142161904Y-102852380D01*
X142257142Y-102804761D01*
X142304761Y-102709523D01*
X142304761Y-102614285D01*
X142257142Y-102519047D01*
X142161904Y-102471428D01*
X141923809Y-102471428D01*
X141828571Y-102423809D01*
X141352380Y-102852380D02*
X141352380Y-101852380D01*
X141352380Y-102233333D02*
X141257142Y-102185714D01*
X141066666Y-102185714D01*
X140971428Y-102233333D01*
X140923809Y-102280952D01*
X140876190Y-102376190D01*
X140876190Y-102661904D01*
X140923809Y-102757142D01*
X140971428Y-102804761D01*
X141066666Y-102852380D01*
X141257142Y-102852380D01*
X141352380Y-102804761D01*
X170900000Y-57957143D02*
X170852380Y-57861905D01*
X170852380Y-57719048D01*
X170900000Y-57576190D01*
X170995238Y-57480952D01*
X171090476Y-57433333D01*
X171280952Y-57385714D01*
X171423809Y-57385714D01*
X171614285Y-57433333D01*
X171709523Y-57480952D01*
X171804761Y-57576190D01*
X171852380Y-57719048D01*
X171852380Y-57814286D01*
X171804761Y-57957143D01*
X171757142Y-58004762D01*
X171423809Y-58004762D01*
X171423809Y-57814286D01*
X171852380Y-58433333D02*
X170852380Y-58433333D01*
X171852380Y-59004762D01*
X170852380Y-59004762D01*
X171852380Y-59480952D02*
X170852380Y-59480952D01*
X170852380Y-59719048D01*
X170900000Y-59861905D01*
X170995238Y-59957143D01*
X171090476Y-60004762D01*
X171280952Y-60052381D01*
X171423809Y-60052381D01*
X171614285Y-60004762D01*
X171709523Y-59957143D01*
X171804761Y-59861905D01*
X171852380Y-59719048D01*
X171852380Y-59480952D01*
X169404761Y-75633334D02*
X169452380Y-75776191D01*
X169452380Y-76014286D01*
X169404761Y-76109524D01*
X169357142Y-76157144D01*
X169261904Y-76204763D01*
X169166666Y-76204763D01*
X169071428Y-76157144D01*
X169023809Y-76109524D01*
X168976190Y-76014286D01*
X168928571Y-75823810D01*
X168880952Y-75728572D01*
X168833333Y-75680953D01*
X168738095Y-75633334D01*
X168642857Y-75633334D01*
X168547619Y-75680953D01*
X168500000Y-75728572D01*
X168452380Y-75823810D01*
X168452380Y-76061905D01*
X168500000Y-76204763D01*
X169452380Y-76633334D02*
X168452380Y-76633334D01*
X168500000Y-77633334D02*
X168452380Y-77538096D01*
X168452380Y-77395239D01*
X168500000Y-77252382D01*
X168595238Y-77157144D01*
X168690476Y-77109524D01*
X168880952Y-77061905D01*
X169023809Y-77061905D01*
X169214285Y-77109524D01*
X169309523Y-77157144D01*
X169404761Y-77252382D01*
X169452380Y-77395239D01*
X169452380Y-77490477D01*
X169404761Y-77633334D01*
X169357142Y-77680953D01*
X169023809Y-77680953D01*
X169023809Y-77490477D01*
X162866666Y-102852380D02*
X162866666Y-101852380D01*
X162485713Y-101852380D01*
X162390475Y-101900000D01*
X162342856Y-101947619D01*
X162295237Y-102042857D01*
X162295237Y-102185714D01*
X162342856Y-102280952D01*
X162390475Y-102328571D01*
X162485713Y-102376190D01*
X162866666Y-102376190D01*
X161866666Y-102852380D02*
X161866666Y-102185714D01*
X161866666Y-101852380D02*
X161914285Y-101900000D01*
X161866666Y-101947619D01*
X161819047Y-101900000D01*
X161866666Y-101852380D01*
X161866666Y-101947619D01*
X161390475Y-102185714D02*
X161390475Y-102852380D01*
X161390475Y-102280952D02*
X161342856Y-102233333D01*
X161247618Y-102185714D01*
X161104761Y-102185714D01*
X161009523Y-102233333D01*
X160961904Y-102328571D01*
X160961904Y-102852380D01*
X160057142Y-102804761D02*
X160152380Y-102852380D01*
X160342856Y-102852380D01*
X160438094Y-102804761D01*
X160485713Y-102757142D01*
X160533333Y-102661904D01*
X160533333Y-102376190D01*
X160485713Y-102280952D01*
X160438094Y-102233333D01*
X160342856Y-102185714D01*
X160152380Y-102185714D01*
X160057142Y-102233333D01*
X159628571Y-102852380D02*
X159628571Y-101852380D01*
X159199999Y-102852380D02*
X159199999Y-102328571D01*
X159247618Y-102233333D01*
X159342856Y-102185714D01*
X159485713Y-102185714D01*
X159580952Y-102233333D01*
X159628571Y-102280952D01*
X170900000Y-66728571D02*
X170852380Y-66633333D01*
X170852380Y-66490476D01*
X170900000Y-66347618D01*
X170995238Y-66252380D01*
X171090476Y-66204761D01*
X171280952Y-66157142D01*
X171423809Y-66157142D01*
X171614285Y-66204761D01*
X171709523Y-66252380D01*
X171804761Y-66347618D01*
X171852380Y-66490476D01*
X171852380Y-66585714D01*
X171804761Y-66728571D01*
X171757142Y-66776190D01*
X171423809Y-66776190D01*
X171423809Y-66585714D01*
X171852380Y-67204761D02*
X170852380Y-67204761D01*
X171852380Y-67776190D01*
X170852380Y-67776190D01*
X171852380Y-68252380D02*
X170852380Y-68252380D01*
X170852380Y-68490476D01*
X170900000Y-68633333D01*
X170995238Y-68728571D01*
X171090476Y-68776190D01*
X171280952Y-68823809D01*
X171423809Y-68823809D01*
X171614285Y-68776190D01*
X171709523Y-68728571D01*
X171804761Y-68633333D01*
X171852380Y-68490476D01*
X171852380Y-68252380D01*
X129176190Y-105600000D02*
X129652380Y-105600000D01*
X128652380Y-105266666D02*
X129176190Y-105600000D01*
X128652380Y-105933333D01*
X166052380Y-66395237D02*
X166052380Y-67014285D01*
X166433333Y-66680952D01*
X166433333Y-66823809D01*
X166480952Y-66919047D01*
X166528571Y-66966666D01*
X166623809Y-67014285D01*
X166861904Y-67014285D01*
X166957142Y-66966666D01*
X167004761Y-66919047D01*
X167052380Y-66823809D01*
X167052380Y-66538094D01*
X167004761Y-66442856D01*
X166957142Y-66395237D01*
X166052380Y-67299999D02*
X167052380Y-67633333D01*
X166052380Y-67966666D01*
X166052380Y-68204761D02*
X166052380Y-68823809D01*
X166433333Y-68490475D01*
X166433333Y-68633333D01*
X166480952Y-68728571D01*
X166528571Y-68776190D01*
X166623809Y-68823809D01*
X166861904Y-68823809D01*
X166957142Y-68776190D01*
X167004761Y-68728571D01*
X167052380Y-68633333D01*
X167052380Y-68347618D01*
X167004761Y-68252380D01*
X166957142Y-68204761D01*
X123652380Y-105314285D02*
X123652380Y-105933333D01*
X124033333Y-105600000D01*
X124033333Y-105742857D01*
X124080952Y-105838095D01*
X124128571Y-105885714D01*
X124223809Y-105933333D01*
X124461904Y-105933333D01*
X124557142Y-105885714D01*
X124604761Y-105838095D01*
X124652380Y-105742857D01*
X124652380Y-105457142D01*
X124604761Y-105361904D01*
X124557142Y-105314285D01*
X123652380Y-106219047D02*
X124652380Y-106552381D01*
X123652380Y-106885714D01*
X123652380Y-107123809D02*
X123652380Y-107742857D01*
X124033333Y-107409523D01*
X124033333Y-107552381D01*
X124080952Y-107647619D01*
X124128571Y-107695238D01*
X124223809Y-107742857D01*
X124461904Y-107742857D01*
X124557142Y-107695238D01*
X124604761Y-107647619D01*
X124652380Y-107552381D01*
X124652380Y-107266666D01*
X124604761Y-107171428D01*
X124557142Y-107123809D01*
X173985714Y-99052380D02*
X173985714Y-98052380D01*
X173604762Y-98052380D01*
X173509524Y-98100000D01*
X173461905Y-98147619D01*
X173414286Y-98242857D01*
X173414286Y-98385714D01*
X173461905Y-98480952D01*
X173509524Y-98528571D01*
X173604762Y-98576190D01*
X173985714Y-98576190D01*
X172985714Y-99052380D02*
X172985714Y-98385714D01*
X172985714Y-98052380D02*
X173033333Y-98100000D01*
X172985714Y-98147619D01*
X172938095Y-98100000D01*
X172985714Y-98052380D01*
X172985714Y-98147619D01*
X172509524Y-98385714D02*
X172509524Y-99052380D01*
X172509524Y-98480952D02*
X172461905Y-98433333D01*
X172366667Y-98385714D01*
X172223810Y-98385714D01*
X172128572Y-98433333D01*
X172080952Y-98528571D01*
X172080952Y-99052380D01*
X171604762Y-99052380D02*
X171604762Y-98052380D01*
X171509524Y-98671428D02*
X171223810Y-99052380D01*
X171223810Y-98385714D02*
X171604762Y-98766666D01*
X170890476Y-98385714D02*
X170652381Y-99052380D01*
X170414286Y-98385714D02*
X170652381Y-99052380D01*
X170747619Y-99290476D01*
X170795238Y-99338095D01*
X170890476Y-99385714D01*
X169271429Y-99052380D02*
X169271429Y-98052380D01*
X168890476Y-98052380D01*
X168795238Y-98100000D01*
X168747619Y-98147619D01*
X168700000Y-98242857D01*
X168700000Y-98385714D01*
X168747619Y-98480952D01*
X168795238Y-98528571D01*
X168890476Y-98576190D01*
X169271429Y-98576190D01*
X168128572Y-99052380D02*
X168223810Y-99004761D01*
X168271429Y-98957142D01*
X168319048Y-98861904D01*
X168319048Y-98576190D01*
X168271429Y-98480952D01*
X168223810Y-98433333D01*
X168128572Y-98385714D01*
X167985714Y-98385714D01*
X167890476Y-98433333D01*
X167842857Y-98480952D01*
X167795238Y-98576190D01*
X167795238Y-98861904D01*
X167842857Y-98957142D01*
X167890476Y-99004761D01*
X167985714Y-99052380D01*
X168128572Y-99052380D01*
X167509524Y-98385714D02*
X167128572Y-98385714D01*
X167366667Y-98052380D02*
X167366667Y-98909523D01*
X167319048Y-99004761D01*
X167223810Y-99052380D01*
X167128572Y-99052380D01*
X174128571Y-63052380D02*
X173557142Y-63052380D01*
X173842857Y-64052380D02*
X173842857Y-63052380D01*
X173223809Y-64052380D02*
X173223809Y-63052380D01*
X172795238Y-64052380D02*
X172795238Y-63528571D01*
X172842857Y-63433333D01*
X172938095Y-63385714D01*
X173080952Y-63385714D01*
X173176190Y-63433333D01*
X173223809Y-63480952D01*
X171890476Y-63385714D02*
X171890476Y-64052380D01*
X172319047Y-63385714D02*
X172319047Y-63909523D01*
X172271428Y-64004761D01*
X172176190Y-64052380D01*
X172033333Y-64052380D01*
X171938095Y-64004761D01*
X171890476Y-63957142D01*
X171414285Y-64052380D02*
X171414285Y-63385714D01*
X171414285Y-63480952D02*
X171366666Y-63433333D01*
X171271428Y-63385714D01*
X171128571Y-63385714D01*
X171033333Y-63433333D01*
X170985714Y-63528571D01*
X170985714Y-64052380D01*
X170985714Y-63528571D02*
X170938095Y-63433333D01*
X170842857Y-63385714D01*
X170700000Y-63385714D01*
X170604761Y-63433333D01*
X170557142Y-63528571D01*
X170557142Y-64052380D01*
X170080952Y-64052380D02*
X170080952Y-63052380D01*
X170080952Y-63433333D02*
X169985714Y-63385714D01*
X169795238Y-63385714D01*
X169700000Y-63433333D01*
X169652380Y-63480952D01*
X169604761Y-63576190D01*
X169604761Y-63861904D01*
X169652380Y-63957142D01*
X169700000Y-64004761D01*
X169795238Y-64052380D01*
X169985714Y-64052380D01*
X170080952Y-64004761D01*
X168414285Y-64052380D02*
X168414285Y-63052380D01*
X168033333Y-63052380D01*
X167938095Y-63100000D01*
X167890476Y-63147619D01*
X167842857Y-63242857D01*
X167842857Y-63385714D01*
X167890476Y-63480952D01*
X167938095Y-63528571D01*
X168033333Y-63576190D01*
X168414285Y-63576190D01*
X167271428Y-64052380D02*
X167366666Y-64004761D01*
X167414285Y-63957142D01*
X167461904Y-63861904D01*
X167461904Y-63576190D01*
X167414285Y-63480952D01*
X167366666Y-63433333D01*
X167271428Y-63385714D01*
X167128571Y-63385714D01*
X167033333Y-63433333D01*
X166985714Y-63480952D01*
X166938095Y-63576190D01*
X166938095Y-63861904D01*
X166985714Y-63957142D01*
X167033333Y-64004761D01*
X167128571Y-64052380D01*
X167271428Y-64052380D01*
X166652380Y-63385714D02*
X166271428Y-63385714D01*
X166509523Y-63052380D02*
X166509523Y-63909523D01*
X166461904Y-64004761D01*
X166366666Y-64052380D01*
X166271428Y-64052380D01*
X122209523Y-75652380D02*
X122209523Y-74652380D01*
X121876190Y-75366666D01*
X121542857Y-74652380D01*
X121542857Y-75652380D01*
X121209523Y-74652380D02*
X120638095Y-74652380D01*
X120923809Y-75652380D02*
X120923809Y-74652380D01*
X120304761Y-75652380D02*
X120304761Y-74652380D01*
X119971428Y-75366666D01*
X119638095Y-74652380D01*
X119638095Y-75652380D01*
X119209523Y-75604761D02*
X119066666Y-75652380D01*
X118828571Y-75652380D01*
X118733333Y-75604761D01*
X118685714Y-75557142D01*
X118638095Y-75461904D01*
X118638095Y-75366666D01*
X118685714Y-75271428D01*
X118733333Y-75223809D01*
X118828571Y-75176190D01*
X119019047Y-75128571D01*
X119114285Y-75080952D01*
X119161904Y-75033333D01*
X119209523Y-74938095D01*
X119209523Y-74842857D01*
X119161904Y-74747619D01*
X119114285Y-74700000D01*
X119019047Y-74652380D01*
X118780952Y-74652380D01*
X118638095Y-74700000D01*
X144876190Y-93452380D02*
X144304761Y-93452380D01*
X144590476Y-94452380D02*
X144590476Y-93452380D01*
X143971428Y-94452380D02*
X143971428Y-93785714D01*
X143971428Y-93976190D02*
X143923809Y-93880952D01*
X143876190Y-93833333D01*
X143780952Y-93785714D01*
X143685714Y-93785714D01*
X143352380Y-94452380D02*
X143352380Y-93785714D01*
X143352380Y-93452380D02*
X143400000Y-93500000D01*
X143352380Y-93547619D01*
X143304761Y-93500000D01*
X143352380Y-93452380D01*
X143352380Y-93547619D01*
X142447619Y-93785714D02*
X142447619Y-94595238D01*
X142495238Y-94690476D01*
X142542857Y-94738095D01*
X142638095Y-94785714D01*
X142780952Y-94785714D01*
X142876190Y-94738095D01*
X142447619Y-94404761D02*
X142542857Y-94452380D01*
X142733333Y-94452380D01*
X142828571Y-94404761D01*
X142876190Y-94357142D01*
X142923809Y-94261904D01*
X142923809Y-93976190D01*
X142876190Y-93880952D01*
X142828571Y-93833333D01*
X142733333Y-93785714D01*
X142542857Y-93785714D01*
X142447619Y-93833333D01*
X141542857Y-93785714D02*
X141542857Y-94595238D01*
X141590476Y-94690476D01*
X141638095Y-94738095D01*
X141733333Y-94785714D01*
X141876190Y-94785714D01*
X141971428Y-94738095D01*
X141542857Y-94404761D02*
X141638095Y-94452380D01*
X141828571Y-94452380D01*
X141923809Y-94404761D01*
X141971428Y-94357142D01*
X142019047Y-94261904D01*
X142019047Y-93976190D01*
X141971428Y-93880952D01*
X141923809Y-93833333D01*
X141828571Y-93785714D01*
X141638095Y-93785714D01*
X141542857Y-93833333D01*
X140685714Y-94404761D02*
X140780952Y-94452380D01*
X140971428Y-94452380D01*
X141066666Y-94404761D01*
X141114285Y-94309523D01*
X141114285Y-93928571D01*
X141066666Y-93833333D01*
X140971428Y-93785714D01*
X140780952Y-93785714D01*
X140685714Y-93833333D01*
X140638095Y-93928571D01*
X140638095Y-94023809D01*
X141114285Y-94119047D01*
X140209523Y-94452380D02*
X140209523Y-93785714D01*
X140209523Y-93976190D02*
X140161904Y-93880952D01*
X140114285Y-93833333D01*
X140019047Y-93785714D01*
X139923809Y-93785714D01*
X159052380Y-57195238D02*
X158052380Y-57195238D01*
X158052380Y-57576190D01*
X158100000Y-57671428D01*
X158147619Y-57719047D01*
X158242857Y-57766666D01*
X158385714Y-57766666D01*
X158480952Y-57719047D01*
X158528571Y-57671428D01*
X158576190Y-57576190D01*
X158576190Y-57195238D01*
X158052380Y-58100000D02*
X159052380Y-58338095D01*
X158338095Y-58528571D01*
X159052380Y-58719047D01*
X158052380Y-58957142D01*
X159052380Y-59338095D02*
X158052380Y-59338095D01*
X158766666Y-59671428D01*
X158052380Y-60004761D01*
X159052380Y-60004761D01*
X169404761Y-93066667D02*
X169452380Y-93209524D01*
X169452380Y-93447619D01*
X169404761Y-93542857D01*
X169357142Y-93590477D01*
X169261904Y-93638096D01*
X169166666Y-93638096D01*
X169071428Y-93590477D01*
X169023809Y-93542857D01*
X168976190Y-93447619D01*
X168928571Y-93257143D01*
X168880952Y-93161905D01*
X168833333Y-93114286D01*
X168738095Y-93066667D01*
X168642857Y-93066667D01*
X168547619Y-93114286D01*
X168500000Y-93161905D01*
X168452380Y-93257143D01*
X168452380Y-93495238D01*
X168500000Y-93638096D01*
X169452380Y-94066667D02*
X168452380Y-94066667D01*
X168500000Y-95066667D02*
X168452380Y-94971429D01*
X168452380Y-94828572D01*
X168500000Y-94685715D01*
X168595238Y-94590477D01*
X168690476Y-94542857D01*
X168880952Y-94495238D01*
X169023809Y-94495238D01*
X169214285Y-94542857D01*
X169309523Y-94590477D01*
X169404761Y-94685715D01*
X169452380Y-94828572D01*
X169452380Y-94923810D01*
X169404761Y-95066667D01*
X169357142Y-95114286D01*
X169023809Y-95114286D01*
X169023809Y-94923810D01*
X121590475Y-73052380D02*
X121590475Y-72052380D01*
X121257142Y-72766666D01*
X120923809Y-72052380D01*
X120923809Y-73052380D01*
X120590475Y-72052380D02*
X120019047Y-72052380D01*
X120304761Y-73052380D02*
X120304761Y-72052380D01*
X119685714Y-73052380D02*
X119685714Y-72052380D01*
X119447618Y-72052380D01*
X119304761Y-72100000D01*
X119209523Y-72195238D01*
X119161904Y-72290476D01*
X119114285Y-72480952D01*
X119114285Y-72623809D01*
X119161904Y-72814285D01*
X119209523Y-72909523D01*
X119304761Y-73004761D01*
X119447618Y-73052380D01*
X119685714Y-73052380D01*
X118685714Y-73052380D02*
X118685714Y-72052380D01*
X161033333Y-99052380D02*
X161033333Y-98052380D01*
X160652381Y-98052380D01*
X160557143Y-98100000D01*
X160509524Y-98147619D01*
X160461905Y-98242857D01*
X160461905Y-98385714D01*
X160509524Y-98480952D01*
X160557143Y-98528571D01*
X160652381Y-98576190D01*
X161033333Y-98576190D01*
X160033333Y-99052380D02*
X160033333Y-98385714D01*
X160033333Y-98052380D02*
X160080952Y-98100000D01*
X160033333Y-98147619D01*
X159985714Y-98100000D01*
X160033333Y-98052380D01*
X160033333Y-98147619D01*
X159557143Y-98385714D02*
X159557143Y-99052380D01*
X159557143Y-98480952D02*
X159509524Y-98433333D01*
X159414286Y-98385714D01*
X159271428Y-98385714D01*
X159176190Y-98433333D01*
X159128571Y-98528571D01*
X159128571Y-99052380D01*
X158652381Y-99052380D02*
X158652381Y-98052380D01*
X158557143Y-98671428D02*
X158271428Y-99052380D01*
X158271428Y-98385714D02*
X158652381Y-98766666D01*
X157938095Y-98385714D02*
X157700000Y-99052380D01*
X157461905Y-98385714D02*
X157700000Y-99052380D01*
X157795238Y-99290476D01*
X157842857Y-99338095D01*
X157938095Y-99385714D01*
X156366667Y-99004761D02*
X156223809Y-99052380D01*
X155985714Y-99052380D01*
X155890476Y-99004761D01*
X155842857Y-98957142D01*
X155795238Y-98861904D01*
X155795238Y-98766666D01*
X155842857Y-98671428D01*
X155890476Y-98623809D01*
X155985714Y-98576190D01*
X156176190Y-98528571D01*
X156271428Y-98480952D01*
X156319047Y-98433333D01*
X156366667Y-98338095D01*
X156366667Y-98242857D01*
X156319047Y-98147619D01*
X156271428Y-98100000D01*
X156176190Y-98052380D01*
X155938095Y-98052380D01*
X155795238Y-98100000D01*
X154985714Y-99004761D02*
X155080952Y-99052380D01*
X155271428Y-99052380D01*
X155366667Y-99004761D01*
X155414286Y-98909523D01*
X155414286Y-98528571D01*
X155366667Y-98433333D01*
X155271428Y-98385714D01*
X155080952Y-98385714D01*
X154985714Y-98433333D01*
X154938095Y-98528571D01*
X154938095Y-98623809D01*
X155414286Y-98719047D01*
X154509524Y-99052380D02*
X154509524Y-98385714D01*
X154509524Y-98576190D02*
X154461905Y-98480952D01*
X154414286Y-98433333D01*
X154319047Y-98385714D01*
X154223809Y-98385714D01*
X153985714Y-98385714D02*
X153747619Y-99052380D01*
X153509524Y-98385714D01*
X152985714Y-99052380D02*
X153080952Y-99004761D01*
X153128571Y-98957142D01*
X153176190Y-98861904D01*
X153176190Y-98576190D01*
X153128571Y-98480952D01*
X153080952Y-98433333D01*
X152985714Y-98385714D01*
X152842857Y-98385714D01*
X152747619Y-98433333D01*
X152700000Y-98480952D01*
X152652381Y-98576190D01*
X152652381Y-98861904D01*
X152700000Y-98957142D01*
X152747619Y-99004761D01*
X152842857Y-99052380D01*
X152985714Y-99052380D01*
X153100000Y-93019048D02*
X153052380Y-92923810D01*
X153052380Y-92780953D01*
X153100000Y-92638095D01*
X153195238Y-92542857D01*
X153290476Y-92495238D01*
X153480952Y-92447619D01*
X153623809Y-92447619D01*
X153814285Y-92495238D01*
X153909523Y-92542857D01*
X154004761Y-92638095D01*
X154052380Y-92780953D01*
X154052380Y-92876191D01*
X154004761Y-93019048D01*
X153957142Y-93066667D01*
X153623809Y-93066667D01*
X153623809Y-92876191D01*
X154052380Y-93495238D02*
X153052380Y-93495238D01*
X154052380Y-94066667D01*
X153052380Y-94066667D01*
X154052380Y-94542857D02*
X153052380Y-94542857D01*
X153052380Y-94780953D01*
X153100000Y-94923810D01*
X153195238Y-95019048D01*
X153290476Y-95066667D01*
X153480952Y-95114286D01*
X153623809Y-95114286D01*
X153814285Y-95066667D01*
X153909523Y-95019048D01*
X154004761Y-94923810D01*
X154052380Y-94780953D01*
X154052380Y-94542857D01*
X155452380Y-76776190D02*
X155452380Y-76300000D01*
X155928571Y-76252381D01*
X155880952Y-76300000D01*
X155833333Y-76395238D01*
X155833333Y-76633333D01*
X155880952Y-76728571D01*
X155928571Y-76776190D01*
X156023809Y-76823809D01*
X156261904Y-76823809D01*
X156357142Y-76776190D01*
X156404761Y-76728571D01*
X156452380Y-76633333D01*
X156452380Y-76395238D01*
X156404761Y-76300000D01*
X156357142Y-76252381D01*
X155452380Y-77109524D02*
X156452380Y-77442857D01*
X155452380Y-77776190D01*
X166052380Y-57623809D02*
X166052380Y-58242857D01*
X166433333Y-57909524D01*
X166433333Y-58052381D01*
X166480952Y-58147619D01*
X166528571Y-58195238D01*
X166623809Y-58242857D01*
X166861904Y-58242857D01*
X166957142Y-58195238D01*
X167004761Y-58147619D01*
X167052380Y-58052381D01*
X167052380Y-57766666D01*
X167004761Y-57671428D01*
X166957142Y-57623809D01*
X166052380Y-58528571D02*
X167052380Y-58861905D01*
X166052380Y-59195238D01*
X166052380Y-59433333D02*
X166052380Y-60052381D01*
X166433333Y-59719047D01*
X166433333Y-59861905D01*
X166480952Y-59957143D01*
X166528571Y-60004762D01*
X166623809Y-60052381D01*
X166861904Y-60052381D01*
X166957142Y-60004762D01*
X167004761Y-59957143D01*
X167052380Y-59861905D01*
X167052380Y-59576190D01*
X167004761Y-59480952D01*
X166957142Y-59433333D01*
X126152380Y-105314285D02*
X127152380Y-105980952D01*
X126152380Y-105980952D02*
X127152380Y-105314285D01*
X153100000Y-84357143D02*
X153052380Y-84261905D01*
X153052380Y-84119048D01*
X153100000Y-83976190D01*
X153195238Y-83880952D01*
X153290476Y-83833333D01*
X153480952Y-83785714D01*
X153623809Y-83785714D01*
X153814285Y-83833333D01*
X153909523Y-83880952D01*
X154004761Y-83976190D01*
X154052380Y-84119048D01*
X154052380Y-84214286D01*
X154004761Y-84357143D01*
X153957142Y-84404762D01*
X153623809Y-84404762D01*
X153623809Y-84214286D01*
X154052380Y-84833333D02*
X153052380Y-84833333D01*
X154052380Y-85404762D01*
X153052380Y-85404762D01*
X154052380Y-85880952D02*
X153052380Y-85880952D01*
X153052380Y-86119048D01*
X153100000Y-86261905D01*
X153195238Y-86357143D01*
X153290476Y-86404762D01*
X153480952Y-86452381D01*
X153623809Y-86452381D01*
X153814285Y-86404762D01*
X153909523Y-86357143D01*
X154004761Y-86261905D01*
X154052380Y-86119048D01*
X154052380Y-85880952D01*
X159052380Y-65966666D02*
X158052380Y-65966666D01*
X158052380Y-66347618D01*
X158100000Y-66442856D01*
X158147619Y-66490475D01*
X158242857Y-66538094D01*
X158385714Y-66538094D01*
X158480952Y-66490475D01*
X158528571Y-66442856D01*
X158576190Y-66347618D01*
X158576190Y-65966666D01*
X158052380Y-66871428D02*
X159052380Y-67109523D01*
X158338095Y-67299999D01*
X159052380Y-67490475D01*
X158052380Y-67728570D01*
X159052380Y-68109523D02*
X158052380Y-68109523D01*
X158766666Y-68442856D01*
X158052380Y-68776189D01*
X159052380Y-68776189D01*
X166052380Y-75252381D02*
X166052380Y-75871429D01*
X166433333Y-75538096D01*
X166433333Y-75680953D01*
X166480952Y-75776191D01*
X166528571Y-75823810D01*
X166623809Y-75871429D01*
X166861904Y-75871429D01*
X166957142Y-75823810D01*
X167004761Y-75776191D01*
X167052380Y-75680953D01*
X167052380Y-75395238D01*
X167004761Y-75300000D01*
X166957142Y-75252381D01*
X166052380Y-76157143D02*
X167052380Y-76490477D01*
X166052380Y-76823810D01*
X166052380Y-77061905D02*
X166052380Y-77680953D01*
X166433333Y-77347619D01*
X166433333Y-77490477D01*
X166480952Y-77585715D01*
X166528571Y-77633334D01*
X166623809Y-77680953D01*
X166861904Y-77680953D01*
X166957142Y-77633334D01*
X167004761Y-77585715D01*
X167052380Y-77490477D01*
X167052380Y-77204762D01*
X167004761Y-77109524D01*
X166957142Y-77061905D01*
X122114285Y-70452380D02*
X122114285Y-69452380D01*
X121780952Y-70166666D01*
X121447619Y-69452380D01*
X121447619Y-70452380D01*
X121114285Y-69452380D02*
X120542857Y-69452380D01*
X120828571Y-70452380D02*
X120828571Y-69452380D01*
X119638095Y-70357142D02*
X119685714Y-70404761D01*
X119828571Y-70452380D01*
X119923809Y-70452380D01*
X120066666Y-70404761D01*
X120161904Y-70309523D01*
X120209523Y-70214285D01*
X120257142Y-70023809D01*
X120257142Y-69880952D01*
X120209523Y-69690476D01*
X120161904Y-69595238D01*
X120066666Y-69500000D01*
X119923809Y-69452380D01*
X119828571Y-69452380D01*
X119685714Y-69500000D01*
X119638095Y-69547619D01*
X119209523Y-70452380D02*
X119209523Y-69452380D01*
X118638095Y-70452380D02*
X119066666Y-69880952D01*
X118638095Y-69452380D02*
X119209523Y-70023809D01*
X151776190Y-102566666D02*
X151299999Y-102566666D01*
X151871428Y-102852380D02*
X151538095Y-101852380D01*
X151204761Y-102852380D01*
M02*
