%TF.GenerationSoftware,KiCad,Pcbnew,6.0.4-1.fc35*%
%TF.CreationDate,2022-04-18T23:22:51+03:00*%
%TF.ProjectId,Glove,476c6f76-652e-46b6-9963-61645f706362,rev?*%
%TF.SameCoordinates,Original*%
%TF.FileFunction,Paste,Top*%
%TF.FilePolarity,Positive*%
%FSLAX46Y46*%
G04 Gerber Fmt 4.6, Leading zero omitted, Abs format (unit mm)*
G04 Created by KiCad (PCBNEW 6.0.4-1.fc35) date 2022-04-18 23:22:51*
%MOMM*%
%LPD*%
G01*
G04 APERTURE LIST*
G04 Aperture macros list*
%AMRoundRect*
0 Rectangle with rounded corners*
0 $1 Rounding radius*
0 $2 $3 $4 $5 $6 $7 $8 $9 X,Y pos of 4 corners*
0 Add a 4 corners polygon primitive as box body*
4,1,4,$2,$3,$4,$5,$6,$7,$8,$9,$2,$3,0*
0 Add four circle primitives for the rounded corners*
1,1,$1+$1,$2,$3*
1,1,$1+$1,$4,$5*
1,1,$1+$1,$6,$7*
1,1,$1+$1,$8,$9*
0 Add four rect primitives between the rounded corners*
20,1,$1+$1,$2,$3,$4,$5,0*
20,1,$1+$1,$4,$5,$6,$7,0*
20,1,$1+$1,$6,$7,$8,$9,0*
20,1,$1+$1,$8,$9,$2,$3,0*%
G04 Aperture macros list end*
%ADD10RoundRect,0.250000X0.337500X0.475000X-0.337500X0.475000X-0.337500X-0.475000X0.337500X-0.475000X0*%
%ADD11RoundRect,0.250000X-0.475000X0.337500X-0.475000X-0.337500X0.475000X-0.337500X0.475000X0.337500X0*%
%ADD12RoundRect,0.250000X-0.350000X-0.450000X0.350000X-0.450000X0.350000X0.450000X-0.350000X0.450000X0*%
%ADD13RoundRect,0.250000X-0.450000X0.350000X-0.450000X-0.350000X0.450000X-0.350000X0.450000X0.350000X0*%
%ADD14R,2.000000X0.900000*%
%ADD15R,0.900000X2.000000*%
%ADD16R,5.000000X5.000000*%
%ADD17RoundRect,0.150000X0.150000X-0.587500X0.150000X0.587500X-0.150000X0.587500X-0.150000X-0.587500X0*%
%ADD18RoundRect,0.250000X-0.275000X-0.275000X0.275000X-0.275000X0.275000X0.275000X-0.275000X0.275000X0*%
%ADD19RoundRect,0.062500X-0.350000X-0.062500X0.350000X-0.062500X0.350000X0.062500X-0.350000X0.062500X0*%
%ADD20RoundRect,0.062500X-0.062500X-0.350000X0.062500X-0.350000X0.062500X0.350000X-0.062500X0.350000X0*%
%ADD21R,1.150000X0.300000*%
%ADD22RoundRect,0.250000X-1.450000X0.400000X-1.450000X-0.400000X1.450000X-0.400000X1.450000X0.400000X0*%
%ADD23RoundRect,0.250000X-0.337500X-0.475000X0.337500X-0.475000X0.337500X0.475000X-0.337500X0.475000X0*%
%ADD24RoundRect,0.250000X0.450000X-0.350000X0.450000X0.350000X-0.450000X0.350000X-0.450000X-0.350000X0*%
%ADD25R,2.000000X1.500000*%
%ADD26R,2.000000X3.800000*%
G04 APERTURE END LIST*
D10*
%TO.C,C3*%
X126337500Y-89000000D03*
X124262500Y-89000000D03*
%TD*%
D11*
%TO.C,C6*%
X117250000Y-93712500D03*
X117250000Y-95787500D03*
%TD*%
%TO.C,C2*%
X137700000Y-58525000D03*
X137700000Y-60600000D03*
%TD*%
D12*
%TO.C,R3*%
X150050000Y-81250000D03*
X152050000Y-81250000D03*
%TD*%
D11*
%TO.C,C1*%
X135500000Y-58525000D03*
X135500000Y-60600000D03*
%TD*%
D13*
%TO.C,R7*%
X164980000Y-83060000D03*
X164980000Y-85060000D03*
%TD*%
%TO.C,R2*%
X124500000Y-95600000D03*
X124500000Y-97600000D03*
%TD*%
%TO.C,R6*%
X167520000Y-83080000D03*
X167520000Y-85080000D03*
%TD*%
D14*
%TO.C,U2*%
X142000000Y-57255000D03*
X142000000Y-58525000D03*
X142000000Y-59795000D03*
X142000000Y-61065000D03*
X142000000Y-62335000D03*
X142000000Y-63605000D03*
X142000000Y-64875000D03*
X142000000Y-66145000D03*
X142000000Y-67415000D03*
X142000000Y-68685000D03*
X142000000Y-69955000D03*
X142000000Y-71225000D03*
X142000000Y-72495000D03*
X142000000Y-73765000D03*
D15*
X144785000Y-74765000D03*
X146055000Y-74765000D03*
X147325000Y-74765000D03*
X148595000Y-74765000D03*
X149865000Y-74765000D03*
X151135000Y-74765000D03*
X152405000Y-74765000D03*
X153675000Y-74765000D03*
X154945000Y-74765000D03*
X156215000Y-74765000D03*
D14*
X159000000Y-73765000D03*
X159000000Y-72495000D03*
X159000000Y-71225000D03*
X159000000Y-69955000D03*
X159000000Y-68685000D03*
X159000000Y-67415000D03*
X159000000Y-66145000D03*
X159000000Y-64875000D03*
X159000000Y-63605000D03*
X159000000Y-62335000D03*
X159000000Y-61065000D03*
X159000000Y-59795000D03*
X159000000Y-58525000D03*
X159000000Y-57255000D03*
D16*
X149500000Y-64755000D03*
%TD*%
D10*
%TO.C,C_Out1*%
X145837500Y-87400000D03*
X143762500Y-87400000D03*
%TD*%
D13*
%TO.C,R4*%
X172500000Y-83100000D03*
X172500000Y-85100000D03*
%TD*%
%TO.C,R5*%
X170000000Y-83100000D03*
X170000000Y-85100000D03*
%TD*%
D17*
%TO.C,Q1*%
X148200000Y-79037500D03*
X150100000Y-79037500D03*
X149150000Y-77162500D03*
%TD*%
D12*
%TO.C,R8*%
X150050000Y-83300000D03*
X152050000Y-83300000D03*
%TD*%
D18*
%TO.C,U3*%
X124300000Y-83750000D03*
X124300000Y-85050000D03*
X125600000Y-85050000D03*
X125600000Y-83750000D03*
D19*
X123012500Y-83150000D03*
X123012500Y-83650000D03*
X123012500Y-84150000D03*
X123012500Y-84650000D03*
X123012500Y-85150000D03*
X123012500Y-85650000D03*
D20*
X123700000Y-86337500D03*
X124200000Y-86337500D03*
X124700000Y-86337500D03*
X125200000Y-86337500D03*
X125700000Y-86337500D03*
X126200000Y-86337500D03*
D19*
X126887500Y-85650000D03*
X126887500Y-85150000D03*
X126887500Y-84650000D03*
X126887500Y-84150000D03*
X126887500Y-83650000D03*
X126887500Y-83150000D03*
D20*
X126200000Y-82462500D03*
X125700000Y-82462500D03*
X125200000Y-82462500D03*
X124700000Y-82462500D03*
X124200000Y-82462500D03*
X123700000Y-82462500D03*
%TD*%
D21*
%TO.C,J1*%
X117270000Y-81350000D03*
X117270000Y-82150000D03*
X117270000Y-82650000D03*
X117270000Y-83650000D03*
X117270000Y-85150000D03*
X117270000Y-86150000D03*
X117270000Y-86650000D03*
X117270000Y-87450000D03*
X117270000Y-87750000D03*
X117270000Y-86950000D03*
X117270000Y-85650000D03*
X117270000Y-84650000D03*
X117270000Y-84150000D03*
X117270000Y-83150000D03*
X117270000Y-81850000D03*
X117270000Y-81050000D03*
%TD*%
D11*
%TO.C,C5*%
X121150000Y-85650000D03*
X121150000Y-87725000D03*
%TD*%
D22*
%TO.C,F1*%
X114100000Y-91375000D03*
X114100000Y-95825000D03*
%TD*%
D23*
%TO.C,C4*%
X120962500Y-80600000D03*
X123037500Y-80600000D03*
%TD*%
D24*
%TO.C,R9*%
X128750000Y-93250000D03*
X128750000Y-91250000D03*
%TD*%
D13*
%TO.C,R1*%
X122300000Y-95600000D03*
X122300000Y-97600000D03*
%TD*%
D10*
%TO.C,C_In1*%
X145837500Y-90200000D03*
X143762500Y-90200000D03*
%TD*%
D17*
%TO.C,Q2*%
X151950000Y-79037500D03*
X153850000Y-79037500D03*
X152900000Y-77162500D03*
%TD*%
D25*
%TO.C,U1*%
X148950000Y-85600000D03*
X148950000Y-87900000D03*
X148950000Y-90200000D03*
D26*
X155250000Y-87900000D03*
%TD*%
M02*
