%TF.GenerationSoftware,KiCad,Pcbnew,6.0.4-1.fc35*%
%TF.CreationDate,2022-04-09T00:49:24+03:00*%
%TF.ProjectId,Glove,476c6f76-652e-46b6-9963-61645f706362,rev?*%
%TF.SameCoordinates,Original*%
%TF.FileFunction,Legend,Bot*%
%TF.FilePolarity,Positive*%
%FSLAX46Y46*%
G04 Gerber Fmt 4.6, Leading zero omitted, Abs format (unit mm)*
G04 Created by KiCad (PCBNEW 6.0.4-1.fc35) date 2022-04-09 00:49:24*
%MOMM*%
%LPD*%
G01*
G04 APERTURE LIST*
%ADD10C,0.150000*%
G04 APERTURE END LIST*
D10*
X174552380Y-84361904D02*
X174552380Y-84980952D01*
X174933333Y-84647619D01*
X174933333Y-84790476D01*
X174980952Y-84885714D01*
X175028571Y-84933333D01*
X175123809Y-84980952D01*
X175361904Y-84980952D01*
X175457142Y-84933333D01*
X175504761Y-84885714D01*
X175552380Y-84790476D01*
X175552380Y-84504761D01*
X175504761Y-84409523D01*
X175457142Y-84361904D01*
X174552380Y-85266666D02*
X175552380Y-85600000D01*
X174552380Y-85933333D01*
X174552380Y-86171428D02*
X174552380Y-86790476D01*
X174933333Y-86457142D01*
X174933333Y-86600000D01*
X174980952Y-86695238D01*
X175028571Y-86742857D01*
X175123809Y-86790476D01*
X175361904Y-86790476D01*
X175457142Y-86742857D01*
X175504761Y-86695238D01*
X175552380Y-86600000D01*
X175552380Y-86314285D01*
X175504761Y-86219047D01*
X175457142Y-86171428D01*
X161965731Y-84695238D02*
X161918111Y-84600000D01*
X161918111Y-84457143D01*
X161965731Y-84314285D01*
X162060969Y-84219047D01*
X162156207Y-84171428D01*
X162346683Y-84123809D01*
X162489540Y-84123809D01*
X162680016Y-84171428D01*
X162775254Y-84219047D01*
X162870492Y-84314285D01*
X162918111Y-84457143D01*
X162918111Y-84552381D01*
X162870492Y-84695238D01*
X162822873Y-84742857D01*
X162489540Y-84742857D01*
X162489540Y-84552381D01*
X162918111Y-85171428D02*
X161918111Y-85171428D01*
X162918111Y-85742857D01*
X161918111Y-85742857D01*
X162918111Y-86219047D02*
X161918111Y-86219047D01*
X161918111Y-86457143D01*
X161965731Y-86600000D01*
X162060969Y-86695238D01*
X162156207Y-86742857D01*
X162346683Y-86790476D01*
X162489540Y-86790476D01*
X162680016Y-86742857D01*
X162775254Y-86695238D01*
X162870492Y-86600000D01*
X162918111Y-86457143D01*
X162918111Y-86219047D01*
X133700000Y-99414286D02*
X133652380Y-99319048D01*
X133652380Y-99176191D01*
X133700000Y-99033333D01*
X133795238Y-98938095D01*
X133890476Y-98890476D01*
X134080952Y-98842857D01*
X134223809Y-98842857D01*
X134414285Y-98890476D01*
X134509523Y-98938095D01*
X134604761Y-99033333D01*
X134652380Y-99176191D01*
X134652380Y-99271429D01*
X134604761Y-99414286D01*
X134557142Y-99461905D01*
X134223809Y-99461905D01*
X134223809Y-99271429D01*
X134652380Y-99890476D02*
X133652380Y-99890476D01*
X134652380Y-100461905D01*
X133652380Y-100461905D01*
X134652380Y-100938095D02*
X133652380Y-100938095D01*
X133652380Y-101176191D01*
X133700000Y-101319048D01*
X133795238Y-101414286D01*
X133890476Y-101461905D01*
X134080952Y-101509524D01*
X134223809Y-101509524D01*
X134414285Y-101461905D01*
X134509523Y-101414286D01*
X134604761Y-101319048D01*
X134652380Y-101176191D01*
X134652380Y-100938095D01*
X165444964Y-83266666D02*
X164444964Y-83266666D01*
X165159250Y-83600000D01*
X164444964Y-83933333D01*
X165444964Y-83933333D01*
X164444964Y-84266666D02*
X164444964Y-84838095D01*
X165444964Y-84552381D02*
X164444964Y-84552381D01*
X165444964Y-85171428D02*
X164444964Y-85171428D01*
X164444964Y-85409523D01*
X164492584Y-85552381D01*
X164587822Y-85647619D01*
X164683060Y-85695238D01*
X164873536Y-85742857D01*
X165016393Y-85742857D01*
X165206869Y-85695238D01*
X165302107Y-85647619D01*
X165397345Y-85552381D01*
X165444964Y-85409523D01*
X165444964Y-85171428D01*
X164444964Y-86361904D02*
X164444964Y-86552381D01*
X164492584Y-86647619D01*
X164587822Y-86742857D01*
X164778298Y-86790476D01*
X165111631Y-86790476D01*
X165302107Y-86742857D01*
X165397345Y-86647619D01*
X165444964Y-86552381D01*
X165444964Y-86361904D01*
X165397345Y-86266666D01*
X165302107Y-86171428D01*
X165111631Y-86123809D01*
X164778298Y-86123809D01*
X164587822Y-86171428D01*
X164492584Y-86266666D01*
X164444964Y-86361904D01*
X131628571Y-101271428D02*
X131676190Y-101414285D01*
X131723809Y-101461904D01*
X131819047Y-101509523D01*
X131961904Y-101509523D01*
X132057142Y-101461904D01*
X132104761Y-101414285D01*
X132152380Y-101319047D01*
X132152380Y-100938095D01*
X131152380Y-100938095D01*
X131152380Y-101271428D01*
X131200000Y-101366666D01*
X131247619Y-101414285D01*
X131342857Y-101461904D01*
X131438095Y-101461904D01*
X131533333Y-101414285D01*
X131580952Y-101366666D01*
X131628571Y-101271428D01*
X131628571Y-100938095D01*
X170528571Y-102328571D02*
X170385714Y-102376190D01*
X170338095Y-102423809D01*
X170290476Y-102519047D01*
X170290476Y-102661904D01*
X170338095Y-102757142D01*
X170385714Y-102804761D01*
X170480952Y-102852380D01*
X170861904Y-102852380D01*
X170861904Y-101852380D01*
X170528571Y-101852380D01*
X170433333Y-101900000D01*
X170385714Y-101947619D01*
X170338095Y-102042857D01*
X170338095Y-102138095D01*
X170385714Y-102233333D01*
X170433333Y-102280952D01*
X170528571Y-102328571D01*
X170861904Y-102328571D01*
X143352380Y-101900000D02*
X143447619Y-101852380D01*
X143590476Y-101852380D01*
X143733333Y-101900000D01*
X143828571Y-101995238D01*
X143876190Y-102090476D01*
X143923809Y-102280952D01*
X143923809Y-102423809D01*
X143876190Y-102614285D01*
X143828571Y-102709523D01*
X143733333Y-102804761D01*
X143590476Y-102852380D01*
X143495238Y-102852380D01*
X143352380Y-102804761D01*
X143304761Y-102757142D01*
X143304761Y-102423809D01*
X143495238Y-102423809D01*
X142876190Y-102852380D02*
X142876190Y-102185714D01*
X142876190Y-102376190D02*
X142828571Y-102280952D01*
X142780952Y-102233333D01*
X142685714Y-102185714D01*
X142590476Y-102185714D01*
X141828571Y-102852380D02*
X141828571Y-102328571D01*
X141876190Y-102233333D01*
X141971428Y-102185714D01*
X142161904Y-102185714D01*
X142257142Y-102233333D01*
X141828571Y-102804761D02*
X141923809Y-102852380D01*
X142161904Y-102852380D01*
X142257142Y-102804761D01*
X142304761Y-102709523D01*
X142304761Y-102614285D01*
X142257142Y-102519047D01*
X142161904Y-102471428D01*
X141923809Y-102471428D01*
X141828571Y-102423809D01*
X141352380Y-102852380D02*
X141352380Y-101852380D01*
X141352380Y-102233333D02*
X141257142Y-102185714D01*
X141066666Y-102185714D01*
X140971428Y-102233333D01*
X140923809Y-102280952D01*
X140876190Y-102376190D01*
X140876190Y-102661904D01*
X140923809Y-102757142D01*
X140971428Y-102804761D01*
X141066666Y-102852380D01*
X141257142Y-102852380D01*
X141352380Y-102804761D01*
X162866666Y-102852380D02*
X162866666Y-101852380D01*
X162485713Y-101852380D01*
X162390475Y-101900000D01*
X162342856Y-101947619D01*
X162295237Y-102042857D01*
X162295237Y-102185714D01*
X162342856Y-102280952D01*
X162390475Y-102328571D01*
X162485713Y-102376190D01*
X162866666Y-102376190D01*
X161866666Y-102852380D02*
X161866666Y-102185714D01*
X161866666Y-101852380D02*
X161914285Y-101900000D01*
X161866666Y-101947619D01*
X161819047Y-101900000D01*
X161866666Y-101852380D01*
X161866666Y-101947619D01*
X161390475Y-102185714D02*
X161390475Y-102852380D01*
X161390475Y-102280952D02*
X161342856Y-102233333D01*
X161247618Y-102185714D01*
X161104761Y-102185714D01*
X161009523Y-102233333D01*
X160961904Y-102328571D01*
X160961904Y-102852380D01*
X160057142Y-102804761D02*
X160152380Y-102852380D01*
X160342856Y-102852380D01*
X160438094Y-102804761D01*
X160485713Y-102757142D01*
X160533333Y-102661904D01*
X160533333Y-102376190D01*
X160485713Y-102280952D01*
X160438094Y-102233333D01*
X160342856Y-102185714D01*
X160152380Y-102185714D01*
X160057142Y-102233333D01*
X159628571Y-102852380D02*
X159628571Y-101852380D01*
X159199999Y-102852380D02*
X159199999Y-102328571D01*
X159247618Y-102233333D01*
X159342856Y-102185714D01*
X159485713Y-102185714D01*
X159580952Y-102233333D01*
X159628571Y-102280952D01*
X129176190Y-101271429D02*
X129652380Y-101271429D01*
X128652380Y-100938095D02*
X129176190Y-101271429D01*
X128652380Y-101604762D01*
X123652380Y-99080952D02*
X123652380Y-99700000D01*
X124033333Y-99366667D01*
X124033333Y-99509524D01*
X124080952Y-99604762D01*
X124128571Y-99652381D01*
X124223809Y-99700000D01*
X124461904Y-99700000D01*
X124557142Y-99652381D01*
X124604761Y-99604762D01*
X124652380Y-99509524D01*
X124652380Y-99223809D01*
X124604761Y-99128571D01*
X124557142Y-99080952D01*
X123652380Y-99985714D02*
X124652380Y-100319048D01*
X123652380Y-100652381D01*
X123652380Y-100890476D02*
X123652380Y-101509524D01*
X124033333Y-101176190D01*
X124033333Y-101319048D01*
X124080952Y-101414286D01*
X124128571Y-101461905D01*
X124223809Y-101509524D01*
X124461904Y-101509524D01*
X124557142Y-101461905D01*
X124604761Y-101414286D01*
X124652380Y-101319048D01*
X124652380Y-101033333D01*
X124604761Y-100938095D01*
X124557142Y-100890476D01*
X173025523Y-83219047D02*
X172025523Y-83219047D01*
X172739809Y-83552380D01*
X172025523Y-83885713D01*
X173025523Y-83885713D01*
X172025523Y-84219047D02*
X172025523Y-84790475D01*
X173025523Y-84504761D02*
X172025523Y-84504761D01*
X173025523Y-85123809D02*
X172025523Y-85123809D01*
X172739809Y-85457142D01*
X172025523Y-85790475D01*
X173025523Y-85790475D01*
X172977904Y-86219047D02*
X173025523Y-86361904D01*
X173025523Y-86599999D01*
X172977904Y-86695237D01*
X172930285Y-86742856D01*
X172835047Y-86790475D01*
X172739809Y-86790475D01*
X172644571Y-86742856D01*
X172596952Y-86695237D01*
X172549333Y-86599999D01*
X172501714Y-86409523D01*
X172454095Y-86314285D01*
X172406476Y-86266666D01*
X172311238Y-86219047D01*
X172216000Y-86219047D01*
X172120762Y-86266666D01*
X172073143Y-86314285D01*
X172025523Y-86409523D01*
X172025523Y-86647618D01*
X172073143Y-86790475D01*
X144876190Y-93452380D02*
X144304761Y-93452380D01*
X144590476Y-94452380D02*
X144590476Y-93452380D01*
X143971428Y-94452380D02*
X143971428Y-93785714D01*
X143971428Y-93976190D02*
X143923809Y-93880952D01*
X143876190Y-93833333D01*
X143780952Y-93785714D01*
X143685714Y-93785714D01*
X143352380Y-94452380D02*
X143352380Y-93785714D01*
X143352380Y-93452380D02*
X143400000Y-93500000D01*
X143352380Y-93547619D01*
X143304761Y-93500000D01*
X143352380Y-93452380D01*
X143352380Y-93547619D01*
X142447619Y-93785714D02*
X142447619Y-94595238D01*
X142495238Y-94690476D01*
X142542857Y-94738095D01*
X142638095Y-94785714D01*
X142780952Y-94785714D01*
X142876190Y-94738095D01*
X142447619Y-94404761D02*
X142542857Y-94452380D01*
X142733333Y-94452380D01*
X142828571Y-94404761D01*
X142876190Y-94357142D01*
X142923809Y-94261904D01*
X142923809Y-93976190D01*
X142876190Y-93880952D01*
X142828571Y-93833333D01*
X142733333Y-93785714D01*
X142542857Y-93785714D01*
X142447619Y-93833333D01*
X141542857Y-93785714D02*
X141542857Y-94595238D01*
X141590476Y-94690476D01*
X141638095Y-94738095D01*
X141733333Y-94785714D01*
X141876190Y-94785714D01*
X141971428Y-94738095D01*
X141542857Y-94404761D02*
X141638095Y-94452380D01*
X141828571Y-94452380D01*
X141923809Y-94404761D01*
X141971428Y-94357142D01*
X142019047Y-94261904D01*
X142019047Y-93976190D01*
X141971428Y-93880952D01*
X141923809Y-93833333D01*
X141828571Y-93785714D01*
X141638095Y-93785714D01*
X141542857Y-93833333D01*
X140685714Y-94404761D02*
X140780952Y-94452380D01*
X140971428Y-94452380D01*
X141066666Y-94404761D01*
X141114285Y-94309523D01*
X141114285Y-93928571D01*
X141066666Y-93833333D01*
X140971428Y-93785714D01*
X140780952Y-93785714D01*
X140685714Y-93833333D01*
X140638095Y-93928571D01*
X140638095Y-94023809D01*
X141114285Y-94119047D01*
X140209523Y-94452380D02*
X140209523Y-93785714D01*
X140209523Y-93976190D02*
X140161904Y-93880952D01*
X140114285Y-93833333D01*
X140019047Y-93785714D01*
X139923809Y-93785714D01*
X170498670Y-83838095D02*
X169498670Y-83838095D01*
X170212956Y-84171428D01*
X169498670Y-84504761D01*
X170498670Y-84504761D01*
X169498670Y-84838095D02*
X169498670Y-85409523D01*
X170498670Y-85123809D02*
X169498670Y-85123809D01*
X170498670Y-85742856D02*
X169498670Y-85742856D01*
X169498670Y-85980952D01*
X169546290Y-86123809D01*
X169641528Y-86219047D01*
X169736766Y-86266666D01*
X169927242Y-86314285D01*
X170070099Y-86314285D01*
X170260575Y-86266666D01*
X170355813Y-86219047D01*
X170451051Y-86123809D01*
X170498670Y-85980952D01*
X170498670Y-85742856D01*
X170498670Y-86742856D02*
X169498670Y-86742856D01*
X126152380Y-100890476D02*
X127152380Y-101557143D01*
X126152380Y-101557143D02*
X127152380Y-100890476D01*
X167971817Y-83314285D02*
X166971817Y-83314285D01*
X167686103Y-83647618D01*
X166971817Y-83980951D01*
X167971817Y-83980951D01*
X166971817Y-84314285D02*
X166971817Y-84885713D01*
X167971817Y-84599999D02*
X166971817Y-84599999D01*
X167876579Y-85790475D02*
X167924198Y-85742856D01*
X167971817Y-85599999D01*
X167971817Y-85504761D01*
X167924198Y-85361904D01*
X167828960Y-85266666D01*
X167733722Y-85219047D01*
X167543246Y-85171428D01*
X167400389Y-85171428D01*
X167209913Y-85219047D01*
X167114675Y-85266666D01*
X167019437Y-85361904D01*
X166971817Y-85504761D01*
X166971817Y-85599999D01*
X167019437Y-85742856D01*
X167067056Y-85790475D01*
X167971817Y-86219047D02*
X166971817Y-86219047D01*
X167971817Y-86790475D02*
X167400389Y-86361904D01*
X166971817Y-86790475D02*
X167543246Y-86219047D01*
X151776190Y-102566666D02*
X151299999Y-102566666D01*
X151871428Y-102852380D02*
X151538095Y-101852380D01*
X151204761Y-102852380D01*
M02*
