%TF.GenerationSoftware,KiCad,Pcbnew,6.0.4-1.fc35*%
%TF.CreationDate,2022-04-11T23:28:11+03:00*%
%TF.ProjectId,Glove,476c6f76-652e-46b6-9963-61645f706362,rev?*%
%TF.SameCoordinates,Original*%
%TF.FileFunction,Legend,Top*%
%TF.FilePolarity,Positive*%
%FSLAX46Y46*%
G04 Gerber Fmt 4.6, Leading zero omitted, Abs format (unit mm)*
G04 Created by KiCad (PCBNEW 6.0.4-1.fc35) date 2022-04-11 23:28:11*
%MOMM*%
%LPD*%
G01*
G04 APERTURE LIST*
%ADD10C,0.150000*%
%ADD11C,0.120000*%
G04 APERTURE END LIST*
D10*
X163938095Y-59700000D02*
X163842857Y-59652380D01*
X163700000Y-59652380D01*
X163557142Y-59700000D01*
X163461904Y-59795238D01*
X163414285Y-59890476D01*
X163366666Y-60080952D01*
X163366666Y-60223809D01*
X163414285Y-60414285D01*
X163461904Y-60509523D01*
X163557142Y-60604761D01*
X163700000Y-60652380D01*
X163795238Y-60652380D01*
X163938095Y-60604761D01*
X163985714Y-60557142D01*
X163985714Y-60223809D01*
X163795238Y-60223809D01*
X164414285Y-60652380D02*
X164414285Y-59652380D01*
X164985714Y-60652380D01*
X164985714Y-59652380D01*
X165461904Y-60652380D02*
X165461904Y-59652380D01*
X165700000Y-59652380D01*
X165842857Y-59700000D01*
X165938095Y-59795238D01*
X165985714Y-59890476D01*
X166033333Y-60080952D01*
X166033333Y-60223809D01*
X165985714Y-60414285D01*
X165938095Y-60509523D01*
X165842857Y-60604761D01*
X165700000Y-60652380D01*
X165461904Y-60652380D01*
X161509524Y-62152380D02*
X162080952Y-62152380D01*
X161795238Y-63152380D02*
X161795238Y-62152380D01*
X162414286Y-63152380D02*
X162414286Y-62152380D01*
X162842857Y-63152380D02*
X162842857Y-62628571D01*
X162795238Y-62533333D01*
X162700000Y-62485714D01*
X162557143Y-62485714D01*
X162461905Y-62533333D01*
X162414286Y-62580952D01*
X163747619Y-62485714D02*
X163747619Y-63152380D01*
X163319048Y-62485714D02*
X163319048Y-63009523D01*
X163366667Y-63104761D01*
X163461905Y-63152380D01*
X163604762Y-63152380D01*
X163700000Y-63104761D01*
X163747619Y-63057142D01*
X164223809Y-63152380D02*
X164223809Y-62485714D01*
X164223809Y-62580952D02*
X164271428Y-62533333D01*
X164366667Y-62485714D01*
X164509524Y-62485714D01*
X164604762Y-62533333D01*
X164652381Y-62628571D01*
X164652381Y-63152380D01*
X164652381Y-62628571D02*
X164700000Y-62533333D01*
X164795238Y-62485714D01*
X164938095Y-62485714D01*
X165033333Y-62533333D01*
X165080952Y-62628571D01*
X165080952Y-63152380D01*
X165557143Y-63152380D02*
X165557143Y-62152380D01*
X165557143Y-62533333D02*
X165652381Y-62485714D01*
X165842857Y-62485714D01*
X165938095Y-62533333D01*
X165985714Y-62580952D01*
X166033333Y-62676190D01*
X166033333Y-62961904D01*
X165985714Y-63057142D01*
X165938095Y-63104761D01*
X165842857Y-63152380D01*
X165652381Y-63152380D01*
X165557143Y-63104761D01*
X119866666Y-63152380D02*
X119866666Y-62152380D01*
X120247619Y-62152380D01*
X120342857Y-62200000D01*
X120390476Y-62247619D01*
X120438095Y-62342857D01*
X120438095Y-62485714D01*
X120390476Y-62580952D01*
X120342857Y-62628571D01*
X120247619Y-62676190D01*
X119866666Y-62676190D01*
X120866666Y-63152380D02*
X120866666Y-62485714D01*
X120866666Y-62152380D02*
X120819047Y-62200000D01*
X120866666Y-62247619D01*
X120914285Y-62200000D01*
X120866666Y-62152380D01*
X120866666Y-62247619D01*
X121342857Y-62485714D02*
X121342857Y-63152380D01*
X121342857Y-62580952D02*
X121390476Y-62533333D01*
X121485714Y-62485714D01*
X121628571Y-62485714D01*
X121723809Y-62533333D01*
X121771428Y-62628571D01*
X121771428Y-63152380D01*
X122247619Y-63152380D02*
X122247619Y-62152380D01*
X122342857Y-62771428D02*
X122628571Y-63152380D01*
X122628571Y-62485714D02*
X122247619Y-62866666D01*
X122961904Y-62485714D02*
X123200000Y-63152380D01*
X123438095Y-62485714D02*
X123200000Y-63152380D01*
X123104762Y-63390476D01*
X123057142Y-63438095D01*
X122961904Y-63485714D01*
X179641666Y-97750000D02*
X179641666Y-98583333D01*
X177891666Y-98583333D01*
X178475000Y-96416666D02*
X179641666Y-96416666D01*
X178475000Y-97166666D02*
X179391666Y-97166666D01*
X179558333Y-97083333D01*
X179641666Y-96916666D01*
X179641666Y-96666666D01*
X179558333Y-96500000D01*
X179475000Y-96416666D01*
X179558333Y-94833333D02*
X179641666Y-95000000D01*
X179641666Y-95333333D01*
X179558333Y-95500000D01*
X179475000Y-95583333D01*
X179308333Y-95666666D01*
X178808333Y-95666666D01*
X178641666Y-95583333D01*
X178558333Y-95500000D01*
X178475000Y-95333333D01*
X178475000Y-95000000D01*
X178558333Y-94833333D01*
X179641666Y-94083333D02*
X178475000Y-94083333D01*
X177891666Y-94083333D02*
X177975000Y-94166666D01*
X178058333Y-94083333D01*
X177975000Y-94000000D01*
X177891666Y-94083333D01*
X178058333Y-94083333D01*
X179641666Y-92500000D02*
X177891666Y-92500000D01*
X179558333Y-92500000D02*
X179641666Y-92666666D01*
X179641666Y-93000000D01*
X179558333Y-93166666D01*
X179475000Y-93250000D01*
X179308333Y-93333333D01*
X178808333Y-93333333D01*
X178641666Y-93250000D01*
X178558333Y-93166666D01*
X178475000Y-93000000D01*
X178475000Y-92666666D01*
X178558333Y-92500000D01*
X177891666Y-91916666D02*
X179641666Y-91333333D01*
X177891666Y-90750000D01*
X179641666Y-89166666D02*
X178808333Y-89750000D01*
X179641666Y-90166666D02*
X177891666Y-90166666D01*
X177891666Y-89500000D01*
X177975000Y-89333333D01*
X178058333Y-89250000D01*
X178225000Y-89166666D01*
X178475000Y-89166666D01*
X178641666Y-89250000D01*
X178725000Y-89333333D01*
X178808333Y-89500000D01*
X178808333Y-90166666D01*
X179641666Y-87083333D02*
X177891666Y-87083333D01*
X177891666Y-86416666D01*
X177975000Y-86250000D01*
X178058333Y-86166666D01*
X178225000Y-86083333D01*
X178475000Y-86083333D01*
X178641666Y-86166666D01*
X178725000Y-86250000D01*
X178808333Y-86416666D01*
X178808333Y-87083333D01*
X179641666Y-85333333D02*
X178475000Y-85333333D01*
X178808333Y-85333333D02*
X178641666Y-85250000D01*
X178558333Y-85166666D01*
X178475000Y-85000000D01*
X178475000Y-84833333D01*
X179641666Y-84000000D02*
X179558333Y-84166666D01*
X179475000Y-84250000D01*
X179308333Y-84333333D01*
X178808333Y-84333333D01*
X178641666Y-84250000D01*
X178558333Y-84166666D01*
X178475000Y-84000000D01*
X178475000Y-83750000D01*
X178558333Y-83583333D01*
X178641666Y-83500000D01*
X178808333Y-83416666D01*
X179308333Y-83416666D01*
X179475000Y-83500000D01*
X179558333Y-83583333D01*
X179641666Y-83750000D01*
X179641666Y-84000000D01*
X178475000Y-82916666D02*
X178475000Y-82250000D01*
X177891666Y-82666666D02*
X179391666Y-82666666D01*
X179558333Y-82583333D01*
X179641666Y-82416666D01*
X179641666Y-82250000D01*
X179641666Y-81416666D02*
X179558333Y-81583333D01*
X179475000Y-81666666D01*
X179308333Y-81750000D01*
X178808333Y-81750000D01*
X178641666Y-81666666D01*
X178558333Y-81583333D01*
X178475000Y-81416666D01*
X178475000Y-81166666D01*
X178558333Y-81000000D01*
X178641666Y-80916666D01*
X178808333Y-80833333D01*
X179308333Y-80833333D01*
X179475000Y-80916666D01*
X179558333Y-81000000D01*
X179641666Y-81166666D01*
X179641666Y-81416666D01*
X178475000Y-80333333D02*
X178475000Y-79666666D01*
X177891666Y-80083333D02*
X179391666Y-80083333D01*
X179558333Y-80000000D01*
X179641666Y-79833333D01*
X179641666Y-79666666D01*
X178475000Y-79250000D02*
X179641666Y-78833333D01*
X178475000Y-78416666D02*
X179641666Y-78833333D01*
X180058333Y-79000000D01*
X180141666Y-79083333D01*
X180225000Y-79250000D01*
X178475000Y-77750000D02*
X180225000Y-77750000D01*
X178558333Y-77750000D02*
X178475000Y-77583333D01*
X178475000Y-77250000D01*
X178558333Y-77083333D01*
X178641666Y-77000000D01*
X178808333Y-76916666D01*
X179308333Y-76916666D01*
X179475000Y-77000000D01*
X179558333Y-77083333D01*
X179641666Y-77250000D01*
X179641666Y-77583333D01*
X179558333Y-77750000D01*
X179558333Y-75500000D02*
X179641666Y-75666666D01*
X179641666Y-76000000D01*
X179558333Y-76166666D01*
X179391666Y-76250000D01*
X178725000Y-76250000D01*
X178558333Y-76166666D01*
X178475000Y-76000000D01*
X178475000Y-75666666D01*
X178558333Y-75500000D01*
X178725000Y-75416666D01*
X178891666Y-75416666D01*
X179058333Y-76250000D01*
X178475000Y-72583333D02*
X179641666Y-72583333D01*
X177808333Y-73000000D02*
X179058333Y-73416666D01*
X179058333Y-72333333D01*
X179641666Y-70333333D02*
X177891666Y-70333333D01*
X177891666Y-69666666D01*
X177975000Y-69500000D01*
X178058333Y-69416666D01*
X178225000Y-69333333D01*
X178475000Y-69333333D01*
X178641666Y-69416666D01*
X178725000Y-69500000D01*
X178808333Y-69666666D01*
X178808333Y-70333333D01*
X179475000Y-67583333D02*
X179558333Y-67666666D01*
X179641666Y-67916666D01*
X179641666Y-68083333D01*
X179558333Y-68333333D01*
X179391666Y-68500000D01*
X179225000Y-68583333D01*
X178891666Y-68666666D01*
X178641666Y-68666666D01*
X178308333Y-68583333D01*
X178141666Y-68500000D01*
X177975000Y-68333333D01*
X177891666Y-68083333D01*
X177891666Y-67916666D01*
X177975000Y-67666666D01*
X178058333Y-67583333D01*
X178725000Y-66250000D02*
X178808333Y-66000000D01*
X178891666Y-65916666D01*
X179058333Y-65833333D01*
X179308333Y-65833333D01*
X179475000Y-65916666D01*
X179558333Y-66000000D01*
X179641666Y-66166666D01*
X179641666Y-66833333D01*
X177891666Y-66833333D01*
X177891666Y-66250000D01*
X177975000Y-66083333D01*
X178058333Y-66000000D01*
X178225000Y-65916666D01*
X178391666Y-65916666D01*
X178558333Y-66000000D01*
X178641666Y-66083333D01*
X178725000Y-66250000D01*
X178725000Y-66833333D01*
X161128571Y-65652380D02*
X161128571Y-64652380D01*
X161509523Y-64652380D01*
X161604762Y-64700000D01*
X161652381Y-64747619D01*
X161700000Y-64842857D01*
X161700000Y-64985714D01*
X161652381Y-65080952D01*
X161604762Y-65128571D01*
X161509523Y-65176190D01*
X161128571Y-65176190D01*
X162271428Y-65652380D02*
X162176190Y-65604761D01*
X162128571Y-65557142D01*
X162080952Y-65461904D01*
X162080952Y-65176190D01*
X162128571Y-65080952D01*
X162176190Y-65033333D01*
X162271428Y-64985714D01*
X162414285Y-64985714D01*
X162509523Y-65033333D01*
X162557143Y-65080952D01*
X162604762Y-65176190D01*
X162604762Y-65461904D01*
X162557143Y-65557142D01*
X162509523Y-65604761D01*
X162414285Y-65652380D01*
X162271428Y-65652380D01*
X163033333Y-65652380D02*
X163033333Y-64985714D01*
X163033333Y-64652380D02*
X162985714Y-64700000D01*
X163033333Y-64747619D01*
X163080952Y-64700000D01*
X163033333Y-64652380D01*
X163033333Y-64747619D01*
X163509523Y-64985714D02*
X163509523Y-65652380D01*
X163509523Y-65080952D02*
X163557143Y-65033333D01*
X163652381Y-64985714D01*
X163795238Y-64985714D01*
X163890476Y-65033333D01*
X163938095Y-65128571D01*
X163938095Y-65652380D01*
X164271428Y-64985714D02*
X164652381Y-64985714D01*
X164414285Y-64652380D02*
X164414285Y-65509523D01*
X164461904Y-65604761D01*
X164557143Y-65652380D01*
X164652381Y-65652380D01*
X165366666Y-65604761D02*
X165271428Y-65652380D01*
X165080952Y-65652380D01*
X164985714Y-65604761D01*
X164938095Y-65509523D01*
X164938095Y-65128571D01*
X164985714Y-65033333D01*
X165080952Y-64985714D01*
X165271428Y-64985714D01*
X165366666Y-65033333D01*
X165414285Y-65128571D01*
X165414285Y-65223809D01*
X164938095Y-65319047D01*
X165842857Y-65652380D02*
X165842857Y-64985714D01*
X165842857Y-65176190D02*
X165890476Y-65080952D01*
X165938095Y-65033333D01*
X166033333Y-64985714D01*
X166128571Y-64985714D01*
X121104762Y-65652380D02*
X120771429Y-65176190D01*
X120533334Y-65652380D02*
X120533334Y-64652380D01*
X120914286Y-64652380D01*
X121009524Y-64700000D01*
X121057143Y-64747619D01*
X121104762Y-64842857D01*
X121104762Y-64985714D01*
X121057143Y-65080952D01*
X121009524Y-65128571D01*
X120914286Y-65176190D01*
X120533334Y-65176190D01*
X121533334Y-65652380D02*
X121533334Y-64985714D01*
X121533334Y-64652380D02*
X121485715Y-64700000D01*
X121533334Y-64747619D01*
X121580953Y-64700000D01*
X121533334Y-64652380D01*
X121533334Y-64747619D01*
X122009524Y-64985714D02*
X122009524Y-65652380D01*
X122009524Y-65080952D02*
X122057143Y-65033333D01*
X122152381Y-64985714D01*
X122295238Y-64985714D01*
X122390476Y-65033333D01*
X122438096Y-65128571D01*
X122438096Y-65652380D01*
X123342857Y-64985714D02*
X123342857Y-65795238D01*
X123295238Y-65890476D01*
X123247619Y-65938095D01*
X123152381Y-65985714D01*
X123009524Y-65985714D01*
X122914286Y-65938095D01*
X123342857Y-65604761D02*
X123247619Y-65652380D01*
X123057143Y-65652380D01*
X122961905Y-65604761D01*
X122914286Y-65557142D01*
X122866667Y-65461904D01*
X122866667Y-65176190D01*
X122914286Y-65080952D01*
X122961905Y-65033333D01*
X123057143Y-64985714D01*
X123247619Y-64985714D01*
X123342857Y-65033333D01*
X121295238Y-74700000D02*
X121200000Y-74652380D01*
X121057143Y-74652380D01*
X120914285Y-74700000D01*
X120819047Y-74795238D01*
X120771428Y-74890476D01*
X120723809Y-75080952D01*
X120723809Y-75223809D01*
X120771428Y-75414285D01*
X120819047Y-75509523D01*
X120914285Y-75604761D01*
X121057143Y-75652380D01*
X121152381Y-75652380D01*
X121295238Y-75604761D01*
X121342857Y-75557142D01*
X121342857Y-75223809D01*
X121152381Y-75223809D01*
X121771428Y-75652380D02*
X121771428Y-74652380D01*
X122342857Y-75652380D01*
X122342857Y-74652380D01*
X122819047Y-75652380D02*
X122819047Y-74652380D01*
X123057143Y-74652380D01*
X123200000Y-74700000D01*
X123295238Y-74795238D01*
X123342857Y-74890476D01*
X123390476Y-75080952D01*
X123390476Y-75223809D01*
X123342857Y-75414285D01*
X123295238Y-75509523D01*
X123200000Y-75604761D01*
X123057143Y-75652380D01*
X122819047Y-75652380D01*
X161652381Y-68152380D02*
X161652381Y-67152380D01*
X161985714Y-67866666D01*
X162319048Y-67152380D01*
X162319048Y-68152380D01*
X162795238Y-68152380D02*
X162795238Y-67485714D01*
X162795238Y-67152380D02*
X162747619Y-67200000D01*
X162795238Y-67247619D01*
X162842857Y-67200000D01*
X162795238Y-67152380D01*
X162795238Y-67247619D01*
X163700000Y-68152380D02*
X163700000Y-67152380D01*
X163700000Y-68104761D02*
X163604762Y-68152380D01*
X163414286Y-68152380D01*
X163319048Y-68104761D01*
X163271428Y-68057142D01*
X163223809Y-67961904D01*
X163223809Y-67676190D01*
X163271428Y-67580952D01*
X163319048Y-67533333D01*
X163414286Y-67485714D01*
X163604762Y-67485714D01*
X163700000Y-67533333D01*
X164604762Y-68152380D02*
X164604762Y-67152380D01*
X164604762Y-68104761D02*
X164509524Y-68152380D01*
X164319048Y-68152380D01*
X164223809Y-68104761D01*
X164176190Y-68057142D01*
X164128571Y-67961904D01*
X164128571Y-67676190D01*
X164176190Y-67580952D01*
X164223809Y-67533333D01*
X164319048Y-67485714D01*
X164509524Y-67485714D01*
X164604762Y-67533333D01*
X165223809Y-68152380D02*
X165128571Y-68104761D01*
X165080952Y-68009523D01*
X165080952Y-67152380D01*
X165985714Y-68104761D02*
X165890476Y-68152380D01*
X165700000Y-68152380D01*
X165604762Y-68104761D01*
X165557143Y-68009523D01*
X165557143Y-67628571D01*
X165604762Y-67533333D01*
X165700000Y-67485714D01*
X165890476Y-67485714D01*
X165985714Y-67533333D01*
X166033333Y-67628571D01*
X166033333Y-67723809D01*
X165557143Y-67819047D01*
X118485714Y-70652380D02*
X118485714Y-69652380D01*
X118866666Y-69652380D01*
X118961905Y-69700000D01*
X119009524Y-69747619D01*
X119057143Y-69842857D01*
X119057143Y-69985714D01*
X119009524Y-70080952D01*
X118961905Y-70128571D01*
X118866666Y-70176190D01*
X118485714Y-70176190D01*
X119628571Y-70652380D02*
X119533333Y-70604761D01*
X119485714Y-70557142D01*
X119438095Y-70461904D01*
X119438095Y-70176190D01*
X119485714Y-70080952D01*
X119533333Y-70033333D01*
X119628571Y-69985714D01*
X119771428Y-69985714D01*
X119866666Y-70033333D01*
X119914286Y-70080952D01*
X119961905Y-70176190D01*
X119961905Y-70461904D01*
X119914286Y-70557142D01*
X119866666Y-70604761D01*
X119771428Y-70652380D01*
X119628571Y-70652380D01*
X120390476Y-70652380D02*
X120390476Y-69985714D01*
X120390476Y-69652380D02*
X120342857Y-69700000D01*
X120390476Y-69747619D01*
X120438095Y-69700000D01*
X120390476Y-69652380D01*
X120390476Y-69747619D01*
X120866666Y-69985714D02*
X120866666Y-70652380D01*
X120866666Y-70080952D02*
X120914286Y-70033333D01*
X121009524Y-69985714D01*
X121152381Y-69985714D01*
X121247619Y-70033333D01*
X121295238Y-70128571D01*
X121295238Y-70652380D01*
X121628571Y-69985714D02*
X122009524Y-69985714D01*
X121771428Y-69652380D02*
X121771428Y-70509523D01*
X121819047Y-70604761D01*
X121914286Y-70652380D01*
X122009524Y-70652380D01*
X122723809Y-70604761D02*
X122628571Y-70652380D01*
X122438095Y-70652380D01*
X122342857Y-70604761D01*
X122295238Y-70509523D01*
X122295238Y-70128571D01*
X122342857Y-70033333D01*
X122438095Y-69985714D01*
X122628571Y-69985714D01*
X122723809Y-70033333D01*
X122771428Y-70128571D01*
X122771428Y-70223809D01*
X122295238Y-70319047D01*
X123200000Y-70652380D02*
X123200000Y-69985714D01*
X123200000Y-70176190D02*
X123247619Y-70080952D01*
X123295238Y-70033333D01*
X123390476Y-69985714D01*
X123485714Y-69985714D01*
X119147619Y-86047619D02*
X119100000Y-86000000D01*
X119052380Y-85904761D01*
X119052380Y-85666666D01*
X119100000Y-85571428D01*
X119147619Y-85523809D01*
X119242857Y-85476190D01*
X119338095Y-85476190D01*
X119480952Y-85523809D01*
X120052380Y-86095238D01*
X120052380Y-85476190D01*
X119957142Y-85047619D02*
X120004761Y-85000000D01*
X120052380Y-85047619D01*
X120004761Y-85095238D01*
X119957142Y-85047619D01*
X120052380Y-85047619D01*
X119052380Y-84095238D02*
X119052380Y-84571428D01*
X119528571Y-84619047D01*
X119480952Y-84571428D01*
X119433333Y-84476190D01*
X119433333Y-84238095D01*
X119480952Y-84142857D01*
X119528571Y-84095238D01*
X119623809Y-84047619D01*
X119861904Y-84047619D01*
X119957142Y-84095238D01*
X120004761Y-84142857D01*
X120052380Y-84238095D01*
X120052380Y-84476190D01*
X120004761Y-84571428D01*
X119957142Y-84619047D01*
X119766666Y-83666666D02*
X119766666Y-83190476D01*
X120052380Y-83761904D02*
X119052380Y-83428571D01*
X120052380Y-83095238D01*
X119671428Y-82761904D02*
X119671428Y-82000000D01*
X120052380Y-82380952D02*
X119290476Y-82380952D01*
X165128571Y-74652380D02*
X164652381Y-74652380D01*
X164604762Y-75128571D01*
X164652381Y-75080952D01*
X164747619Y-75033333D01*
X164985714Y-75033333D01*
X165080952Y-75080952D01*
X165128571Y-75128571D01*
X165176190Y-75223809D01*
X165176190Y-75461904D01*
X165128571Y-75557142D01*
X165080952Y-75604761D01*
X164985714Y-75652380D01*
X164747619Y-75652380D01*
X164652381Y-75604761D01*
X164604762Y-75557142D01*
X165461905Y-74652380D02*
X165795238Y-75652380D01*
X166128571Y-74652380D01*
X162509523Y-73152380D02*
X162509523Y-72152380D01*
X162890476Y-72152380D01*
X162985714Y-72200000D01*
X163033333Y-72247619D01*
X163080952Y-72342857D01*
X163080952Y-72485714D01*
X163033333Y-72580952D01*
X162985714Y-72628571D01*
X162890476Y-72676190D01*
X162509523Y-72676190D01*
X163509523Y-73152380D02*
X163509523Y-72485714D01*
X163509523Y-72152380D02*
X163461904Y-72200000D01*
X163509523Y-72247619D01*
X163557142Y-72200000D01*
X163509523Y-72152380D01*
X163509523Y-72247619D01*
X163985714Y-72485714D02*
X163985714Y-73152380D01*
X163985714Y-72580952D02*
X164033333Y-72533333D01*
X164128571Y-72485714D01*
X164271428Y-72485714D01*
X164366666Y-72533333D01*
X164414285Y-72628571D01*
X164414285Y-73152380D01*
X164890476Y-73152380D02*
X164890476Y-72152380D01*
X164985714Y-72771428D02*
X165271428Y-73152380D01*
X165271428Y-72485714D02*
X164890476Y-72866666D01*
X165604761Y-72485714D02*
X165842857Y-73152380D01*
X166080952Y-72485714D02*
X165842857Y-73152380D01*
X165747619Y-73390476D01*
X165699999Y-73438095D01*
X165604761Y-73485714D01*
X163747619Y-70652380D02*
X163414286Y-70176190D01*
X163176191Y-70652380D02*
X163176191Y-69652380D01*
X163557143Y-69652380D01*
X163652381Y-69700000D01*
X163700000Y-69747619D01*
X163747619Y-69842857D01*
X163747619Y-69985714D01*
X163700000Y-70080952D01*
X163652381Y-70128571D01*
X163557143Y-70176190D01*
X163176191Y-70176190D01*
X164176191Y-70652380D02*
X164176191Y-69985714D01*
X164176191Y-69652380D02*
X164128572Y-69700000D01*
X164176191Y-69747619D01*
X164223810Y-69700000D01*
X164176191Y-69652380D01*
X164176191Y-69747619D01*
X164652381Y-69985714D02*
X164652381Y-70652380D01*
X164652381Y-70080952D02*
X164700000Y-70033333D01*
X164795238Y-69985714D01*
X164938095Y-69985714D01*
X165033333Y-70033333D01*
X165080953Y-70128571D01*
X165080953Y-70652380D01*
X165985714Y-69985714D02*
X165985714Y-70795238D01*
X165938095Y-70890476D01*
X165890476Y-70938095D01*
X165795238Y-70985714D01*
X165652381Y-70985714D01*
X165557143Y-70938095D01*
X165985714Y-70604761D02*
X165890476Y-70652380D01*
X165700000Y-70652380D01*
X165604762Y-70604761D01*
X165557143Y-70557142D01*
X165509524Y-70461904D01*
X165509524Y-70176190D01*
X165557143Y-70080952D01*
X165604762Y-70033333D01*
X165700000Y-69985714D01*
X165890476Y-69985714D01*
X165985714Y-70033333D01*
X119009524Y-68152380D02*
X119009524Y-67152380D01*
X119342857Y-67866666D01*
X119676191Y-67152380D01*
X119676191Y-68152380D01*
X120152381Y-68152380D02*
X120152381Y-67485714D01*
X120152381Y-67152380D02*
X120104762Y-67200000D01*
X120152381Y-67247619D01*
X120200000Y-67200000D01*
X120152381Y-67152380D01*
X120152381Y-67247619D01*
X121057143Y-68152380D02*
X121057143Y-67152380D01*
X121057143Y-68104761D02*
X120961905Y-68152380D01*
X120771429Y-68152380D01*
X120676191Y-68104761D01*
X120628571Y-68057142D01*
X120580952Y-67961904D01*
X120580952Y-67676190D01*
X120628571Y-67580952D01*
X120676191Y-67533333D01*
X120771429Y-67485714D01*
X120961905Y-67485714D01*
X121057143Y-67533333D01*
X121961905Y-68152380D02*
X121961905Y-67152380D01*
X121961905Y-68104761D02*
X121866667Y-68152380D01*
X121676191Y-68152380D01*
X121580952Y-68104761D01*
X121533333Y-68057142D01*
X121485714Y-67961904D01*
X121485714Y-67676190D01*
X121533333Y-67580952D01*
X121580952Y-67533333D01*
X121676191Y-67485714D01*
X121866667Y-67485714D01*
X121961905Y-67533333D01*
X122580952Y-68152380D02*
X122485714Y-68104761D01*
X122438095Y-68009523D01*
X122438095Y-67152380D01*
X123342857Y-68104761D02*
X123247619Y-68152380D01*
X123057143Y-68152380D01*
X122961905Y-68104761D01*
X122914286Y-68009523D01*
X122914286Y-67628571D01*
X122961905Y-67533333D01*
X123057143Y-67485714D01*
X123247619Y-67485714D01*
X123342857Y-67533333D01*
X123390476Y-67628571D01*
X123390476Y-67723809D01*
X122914286Y-67819047D01*
X120961904Y-59652380D02*
X121580952Y-59652380D01*
X121247619Y-60033333D01*
X121390476Y-60033333D01*
X121485714Y-60080952D01*
X121533333Y-60128571D01*
X121580952Y-60223809D01*
X121580952Y-60461904D01*
X121533333Y-60557142D01*
X121485714Y-60604761D01*
X121390476Y-60652380D01*
X121104761Y-60652380D01*
X121009523Y-60604761D01*
X120961904Y-60557142D01*
X121866666Y-59652380D02*
X122200000Y-60652380D01*
X122533333Y-59652380D01*
X122771428Y-59652380D02*
X123390476Y-59652380D01*
X123057142Y-60033333D01*
X123200000Y-60033333D01*
X123295238Y-60080952D01*
X123342857Y-60128571D01*
X123390476Y-60223809D01*
X123390476Y-60461904D01*
X123342857Y-60557142D01*
X123295238Y-60604761D01*
X123200000Y-60652380D01*
X122914285Y-60652380D01*
X122819047Y-60604761D01*
X122771428Y-60557142D01*
X118866667Y-72152380D02*
X119438095Y-72152380D01*
X119152381Y-73152380D02*
X119152381Y-72152380D01*
X119771429Y-73152380D02*
X119771429Y-72152380D01*
X120200000Y-73152380D02*
X120200000Y-72628571D01*
X120152381Y-72533333D01*
X120057143Y-72485714D01*
X119914286Y-72485714D01*
X119819048Y-72533333D01*
X119771429Y-72580952D01*
X121104762Y-72485714D02*
X121104762Y-73152380D01*
X120676191Y-72485714D02*
X120676191Y-73009523D01*
X120723810Y-73104761D01*
X120819048Y-73152380D01*
X120961905Y-73152380D01*
X121057143Y-73104761D01*
X121104762Y-73057142D01*
X121580952Y-73152380D02*
X121580952Y-72485714D01*
X121580952Y-72580952D02*
X121628571Y-72533333D01*
X121723810Y-72485714D01*
X121866667Y-72485714D01*
X121961905Y-72533333D01*
X122009524Y-72628571D01*
X122009524Y-73152380D01*
X122009524Y-72628571D02*
X122057143Y-72533333D01*
X122152381Y-72485714D01*
X122295238Y-72485714D01*
X122390476Y-72533333D01*
X122438095Y-72628571D01*
X122438095Y-73152380D01*
X122914286Y-73152380D02*
X122914286Y-72152380D01*
X122914286Y-72533333D02*
X123009524Y-72485714D01*
X123200000Y-72485714D01*
X123295238Y-72533333D01*
X123342857Y-72580952D01*
X123390476Y-72676190D01*
X123390476Y-72961904D01*
X123342857Y-73057142D01*
X123295238Y-73104761D01*
X123200000Y-73152380D01*
X123009524Y-73152380D01*
X122914286Y-73104761D01*
D11*
%TO.C,C3*%
X125561252Y-88265000D02*
X125038748Y-88265000D01*
X125561252Y-89735000D02*
X125038748Y-89735000D01*
%TO.C,C6*%
X117985000Y-94488748D02*
X117985000Y-95011252D01*
X116515000Y-94488748D02*
X116515000Y-95011252D01*
%TO.C,BTN_A1*%
X147844444Y-107175000D02*
X149644444Y-107175000D01*
X149644444Y-106425000D02*
X147844444Y-106425000D01*
X149644444Y-107175000D02*
X149644444Y-106425000D01*
X148594444Y-104925000D02*
X148594444Y-101975000D01*
X147844444Y-104925000D02*
X148594444Y-104925000D01*
X153644444Y-107175000D02*
X155444444Y-107175000D01*
X151144444Y-106425000D02*
X151144444Y-107175000D01*
X147834444Y-107185000D02*
X155454444Y-107185000D01*
X151144444Y-107175000D02*
X152144444Y-107175000D01*
X155444444Y-106425000D02*
X153644444Y-106425000D01*
X155454444Y-101215000D02*
X147834444Y-101215000D01*
X147844444Y-106425000D02*
X147844444Y-107175000D01*
X154694444Y-101975000D02*
X151644444Y-101975000D01*
X154694444Y-104925000D02*
X154694444Y-101975000D01*
X147834444Y-101215000D02*
X147834444Y-107185000D01*
X155454444Y-107185000D02*
X155454444Y-101215000D01*
X152144444Y-107175000D02*
X152144444Y-106425000D01*
X155444444Y-104925000D02*
X154694444Y-104925000D01*
X152144444Y-106425000D02*
X151144444Y-106425000D01*
X155744444Y-107475000D02*
X155744444Y-106225000D01*
X155444444Y-107175000D02*
X155444444Y-106425000D01*
X148594444Y-101975000D02*
X151644444Y-101975000D01*
X154494444Y-107475000D02*
X155744444Y-107475000D01*
X153644444Y-106425000D02*
X153644444Y-107175000D01*
%TO.C,C2*%
X138435000Y-59301248D02*
X138435000Y-59823752D01*
X136965000Y-59301248D02*
X136965000Y-59823752D01*
%TO.C,R3*%
X150822936Y-81985000D02*
X151277064Y-81985000D01*
X150822936Y-80515000D02*
X151277064Y-80515000D01*
%TO.C,J4*%
X127900000Y-57650000D02*
X127900000Y-58400000D01*
X130450000Y-58600000D02*
X130450000Y-57350000D01*
X124190000Y-57640000D02*
X124190000Y-77760000D01*
X127900000Y-77000000D02*
X124950000Y-77000000D01*
X127900000Y-58400000D02*
X124950000Y-58400000D01*
X130150000Y-74450000D02*
X130150000Y-60950000D01*
X130150000Y-57650000D02*
X129400000Y-57650000D01*
X129400000Y-77750000D02*
X130150000Y-77750000D01*
X130150000Y-60950000D02*
X129400000Y-60950000D01*
X130150000Y-77750000D02*
X130150000Y-75950000D01*
X129400000Y-74450000D02*
X130150000Y-74450000D01*
X130150000Y-75950000D02*
X129400000Y-75950000D01*
X124950000Y-77000000D02*
X124950000Y-67700000D01*
X129400000Y-59450000D02*
X130150000Y-59450000D01*
X127900000Y-77750000D02*
X127900000Y-77000000D01*
X130160000Y-77760000D02*
X130160000Y-57640000D01*
X130160000Y-57640000D02*
X124190000Y-57640000D01*
X129400000Y-57650000D02*
X129400000Y-59450000D01*
X129400000Y-75950000D02*
X129400000Y-77750000D01*
X129400000Y-60950000D02*
X129400000Y-74450000D01*
X130150000Y-59450000D02*
X130150000Y-57650000D01*
X124190000Y-77760000D02*
X130160000Y-77760000D01*
X130450000Y-57350000D02*
X129200000Y-57350000D01*
X124950000Y-58400000D02*
X124950000Y-67700000D01*
%TO.C,C1*%
X136235000Y-59301248D02*
X136235000Y-59823752D01*
X134765000Y-59301248D02*
X134765000Y-59823752D01*
%TO.C,R7*%
X165715000Y-83832936D02*
X165715000Y-84287064D01*
X164245000Y-83832936D02*
X164245000Y-84287064D01*
%TO.C,BTN_Trigger1*%
X139550000Y-96725000D02*
X139550000Y-93775000D01*
X138800000Y-96725000D02*
X139550000Y-96725000D01*
X140600000Y-98225000D02*
X138800000Y-98225000D01*
X144600000Y-98975000D02*
X146400000Y-98975000D01*
X146400000Y-96725000D02*
X145650000Y-96725000D01*
X146410000Y-93015000D02*
X138790000Y-93015000D01*
X140600000Y-98975000D02*
X140600000Y-98225000D01*
X146700000Y-99275000D02*
X146700000Y-98025000D01*
X139550000Y-93775000D02*
X142600000Y-93775000D01*
X143100000Y-98975000D02*
X143100000Y-98225000D01*
X142100000Y-98225000D02*
X142100000Y-98975000D01*
X146410000Y-98985000D02*
X146410000Y-93015000D01*
X145650000Y-93775000D02*
X142600000Y-93775000D01*
X138790000Y-98985000D02*
X146410000Y-98985000D01*
X145650000Y-96725000D02*
X145650000Y-93775000D01*
X138800000Y-98975000D02*
X140600000Y-98975000D01*
X142100000Y-98975000D02*
X143100000Y-98975000D01*
X146400000Y-98975000D02*
X146400000Y-98225000D01*
X145450000Y-99275000D02*
X146700000Y-99275000D01*
X144600000Y-98225000D02*
X144600000Y-98975000D01*
X146400000Y-98225000D02*
X144600000Y-98225000D01*
X138800000Y-98225000D02*
X138800000Y-98975000D01*
X138790000Y-93015000D02*
X138790000Y-98985000D01*
X143100000Y-98225000D02*
X142100000Y-98225000D01*
%TO.C,R2*%
X123765000Y-96372936D02*
X123765000Y-96827064D01*
X125235000Y-96372936D02*
X125235000Y-96827064D01*
%TO.C,BTN_B1*%
X168400000Y-106425000D02*
X166600000Y-106425000D01*
X166600000Y-104925000D02*
X167350000Y-104925000D01*
X174210000Y-107185000D02*
X174210000Y-101215000D01*
X166600000Y-106425000D02*
X166600000Y-107175000D01*
X166600000Y-107175000D02*
X168400000Y-107175000D01*
X174200000Y-107175000D02*
X174200000Y-106425000D01*
X174200000Y-104925000D02*
X173450000Y-104925000D01*
X166590000Y-107185000D02*
X174210000Y-107185000D01*
X166590000Y-101215000D02*
X166590000Y-107185000D01*
X173450000Y-101975000D02*
X170400000Y-101975000D01*
X174200000Y-106425000D02*
X172400000Y-106425000D01*
X169900000Y-106425000D02*
X169900000Y-107175000D01*
X170900000Y-107175000D02*
X170900000Y-106425000D01*
X172400000Y-107175000D02*
X174200000Y-107175000D01*
X168400000Y-107175000D02*
X168400000Y-106425000D01*
X170900000Y-106425000D02*
X169900000Y-106425000D01*
X174210000Y-101215000D02*
X166590000Y-101215000D01*
X169900000Y-107175000D02*
X170900000Y-107175000D01*
X167350000Y-101975000D02*
X170400000Y-101975000D01*
X173250000Y-107475000D02*
X174500000Y-107475000D01*
X167350000Y-104925000D02*
X167350000Y-101975000D01*
X174500000Y-107475000D02*
X174500000Y-106225000D01*
X173450000Y-104925000D02*
X173450000Y-101975000D01*
X172400000Y-106425000D02*
X172400000Y-107175000D01*
%TO.C,R6*%
X166785000Y-83852936D02*
X166785000Y-84307064D01*
X168255000Y-83852936D02*
X168255000Y-84307064D01*
%TO.C,U2*%
X141380000Y-75390000D02*
X142380000Y-75390000D01*
X159620000Y-74610000D02*
X159620000Y-75390000D01*
X141380000Y-49645000D02*
X159620000Y-49645000D01*
X141380000Y-56065000D02*
X141000000Y-56065000D01*
X141380000Y-49645000D02*
X141380000Y-56065000D01*
X159620000Y-75390000D02*
X158620000Y-75390000D01*
X159620000Y-49645000D02*
X159620000Y-56065000D01*
X141380000Y-74610000D02*
X141380000Y-75390000D01*
%TO.C,C_Out1*%
X145061252Y-86665000D02*
X144538748Y-86665000D01*
X145061252Y-88135000D02*
X144538748Y-88135000D01*
%TO.C,R4*%
X171765000Y-83872936D02*
X171765000Y-84327064D01*
X173235000Y-83872936D02*
X173235000Y-84327064D01*
%TO.C,J2*%
X134950000Y-101975000D02*
X136750000Y-101975000D01*
X136760000Y-107185000D02*
X136760000Y-101215000D01*
X121650000Y-101225000D02*
X121650000Y-101975000D01*
X123450000Y-101975000D02*
X123450000Y-101225000D01*
X122600000Y-100925000D02*
X121350000Y-100925000D01*
X136750000Y-101975000D02*
X136750000Y-101225000D01*
X136750000Y-103475000D02*
X136000000Y-103475000D01*
X122400000Y-103475000D02*
X122400000Y-106425000D01*
X124950000Y-101225000D02*
X124950000Y-101975000D01*
X121650000Y-101975000D02*
X123450000Y-101975000D01*
X121650000Y-103475000D02*
X122400000Y-103475000D01*
X136000000Y-106425000D02*
X129200000Y-106425000D01*
X133450000Y-101975000D02*
X133450000Y-101225000D01*
X134950000Y-101225000D02*
X134950000Y-101975000D01*
X121350000Y-100925000D02*
X121350000Y-102175000D01*
X121640000Y-107185000D02*
X136760000Y-107185000D01*
X136750000Y-101225000D02*
X134950000Y-101225000D01*
X123450000Y-101225000D02*
X121650000Y-101225000D01*
X122400000Y-106425000D02*
X129200000Y-106425000D01*
X136760000Y-101215000D02*
X121640000Y-101215000D01*
X124950000Y-101975000D02*
X133450000Y-101975000D01*
X133450000Y-101225000D02*
X124950000Y-101225000D01*
X136000000Y-103475000D02*
X136000000Y-106425000D01*
X121640000Y-101215000D02*
X121640000Y-107185000D01*
%TO.C,R5*%
X170735000Y-83872936D02*
X170735000Y-84327064D01*
X169265000Y-83872936D02*
X169265000Y-84327064D01*
%TO.C,BTN_Grab1*%
X138466667Y-106425000D02*
X138466667Y-107175000D01*
X139216667Y-104925000D02*
X139216667Y-101975000D01*
X139216667Y-101975000D02*
X142266667Y-101975000D01*
X142766667Y-106425000D02*
X141766667Y-106425000D01*
X144266667Y-107175000D02*
X146066667Y-107175000D01*
X138466667Y-107175000D02*
X140266667Y-107175000D01*
X138466667Y-104925000D02*
X139216667Y-104925000D01*
X138456667Y-107185000D02*
X146076667Y-107185000D01*
X146366667Y-107475000D02*
X146366667Y-106225000D01*
X141766667Y-107175000D02*
X142766667Y-107175000D01*
X145116667Y-107475000D02*
X146366667Y-107475000D01*
X140266667Y-107175000D02*
X140266667Y-106425000D01*
X146076667Y-101215000D02*
X138456667Y-101215000D01*
X146066667Y-106425000D02*
X144266667Y-106425000D01*
X142766667Y-107175000D02*
X142766667Y-106425000D01*
X145316667Y-104925000D02*
X145316667Y-101975000D01*
X146066667Y-104925000D02*
X145316667Y-104925000D01*
X145316667Y-101975000D02*
X142266667Y-101975000D01*
X146076667Y-107185000D02*
X146076667Y-101215000D01*
X146066667Y-107175000D02*
X146066667Y-106425000D01*
X138456667Y-101215000D02*
X138456667Y-107185000D01*
X144266667Y-106425000D02*
X144266667Y-107175000D01*
X140266667Y-106425000D02*
X138466667Y-106425000D01*
X141766667Y-106425000D02*
X141766667Y-107175000D01*
%TO.C,Q1*%
X150710000Y-78100000D02*
X150710000Y-78750000D01*
X147590000Y-78100000D02*
X147590000Y-79775000D01*
X147590000Y-78100000D02*
X147590000Y-77450000D01*
X150710000Y-78100000D02*
X150710000Y-77450000D01*
%TO.C,R8*%
X150822936Y-84035000D02*
X151277064Y-84035000D01*
X150822936Y-82565000D02*
X151277064Y-82565000D01*
%TO.C,U3*%
X126585000Y-82290000D02*
X127060000Y-82290000D01*
X126585000Y-86510000D02*
X127060000Y-86510000D01*
X123315000Y-86510000D02*
X122840000Y-86510000D01*
X127060000Y-86510000D02*
X127060000Y-86035000D01*
X123315000Y-82290000D02*
X122840000Y-82290000D01*
X127060000Y-82290000D02*
X127060000Y-82765000D01*
X122840000Y-86510000D02*
X122840000Y-86035000D01*
%TO.C,J1*%
X109815000Y-79820000D02*
X111520000Y-79820000D01*
X109815000Y-88980000D02*
X109815000Y-79820000D01*
X111520000Y-88980000D02*
X109815000Y-88980000D01*
X115450000Y-79820000D02*
X113530000Y-79820000D01*
X113530000Y-88980000D02*
X115450000Y-88980000D01*
%TO.C,J3*%
X167600000Y-59450000D02*
X167600000Y-57650000D01*
X167600000Y-74450000D02*
X167600000Y-60950000D01*
X166550000Y-76800000D02*
X166550000Y-78050000D01*
X172810000Y-57640000D02*
X166840000Y-57640000D01*
X166850000Y-74450000D02*
X167600000Y-74450000D01*
X169100000Y-77750000D02*
X169100000Y-77000000D01*
X167600000Y-75950000D02*
X166850000Y-75950000D01*
X167600000Y-57650000D02*
X166850000Y-57650000D01*
X172810000Y-77760000D02*
X172810000Y-57640000D01*
X169100000Y-58400000D02*
X172050000Y-58400000D01*
X166850000Y-77750000D02*
X167600000Y-77750000D01*
X167600000Y-60950000D02*
X166850000Y-60950000D01*
X166850000Y-60950000D02*
X166850000Y-74450000D01*
X172050000Y-58400000D02*
X172050000Y-67700000D01*
X166850000Y-59450000D02*
X167600000Y-59450000D01*
X166550000Y-78050000D02*
X167800000Y-78050000D01*
X169100000Y-57650000D02*
X169100000Y-58400000D01*
X172050000Y-77000000D02*
X172050000Y-67700000D01*
X167600000Y-77750000D02*
X167600000Y-75950000D01*
X166840000Y-57640000D02*
X166840000Y-77760000D01*
X166850000Y-57650000D02*
X166850000Y-59450000D01*
X166840000Y-77760000D02*
X172810000Y-77760000D01*
X166850000Y-75950000D02*
X166850000Y-77750000D01*
X169100000Y-77000000D02*
X172050000Y-77000000D01*
%TO.C,C5*%
X121885000Y-86426248D02*
X121885000Y-86948752D01*
X120415000Y-86426248D02*
X120415000Y-86948752D01*
%TO.C,F1*%
X115810000Y-92213748D02*
X115810000Y-94986252D01*
X112390000Y-92213748D02*
X112390000Y-94986252D01*
%TO.C,C4*%
X121738748Y-79865000D02*
X122261252Y-79865000D01*
X121738748Y-81335000D02*
X122261252Y-81335000D01*
%TO.C,BTN_Pinch1*%
X160522221Y-107175000D02*
X161522221Y-107175000D01*
X164822221Y-107175000D02*
X164822221Y-106425000D01*
X159022221Y-107175000D02*
X159022221Y-106425000D01*
X165122221Y-107475000D02*
X165122221Y-106225000D01*
X164072221Y-101975000D02*
X161022221Y-101975000D01*
X157972221Y-104925000D02*
X157972221Y-101975000D01*
X161522221Y-106425000D02*
X160522221Y-106425000D01*
X164822221Y-106425000D02*
X163022221Y-106425000D01*
X157212221Y-101215000D02*
X157212221Y-107185000D01*
X161522221Y-107175000D02*
X161522221Y-106425000D01*
X159022221Y-106425000D02*
X157222221Y-106425000D01*
X157972221Y-101975000D02*
X161022221Y-101975000D01*
X164822221Y-104925000D02*
X164072221Y-104925000D01*
X160522221Y-106425000D02*
X160522221Y-107175000D01*
X157222221Y-104925000D02*
X157972221Y-104925000D01*
X163022221Y-107175000D02*
X164822221Y-107175000D01*
X164832221Y-101215000D02*
X157212221Y-101215000D01*
X157222221Y-107175000D02*
X159022221Y-107175000D01*
X164072221Y-104925000D02*
X164072221Y-101975000D01*
X164832221Y-107185000D02*
X164832221Y-101215000D01*
X163872221Y-107475000D02*
X165122221Y-107475000D01*
X163022221Y-106425000D02*
X163022221Y-107175000D01*
X157212221Y-107185000D02*
X164832221Y-107185000D01*
X157222221Y-106425000D02*
X157222221Y-107175000D01*
%TO.C,J5*%
X173880000Y-90430000D02*
X161120000Y-90430000D01*
X173880000Y-87770000D02*
X161120000Y-87770000D01*
X175150000Y-87770000D02*
X176480000Y-87770000D01*
X176480000Y-87770000D02*
X176480000Y-89100000D01*
X173880000Y-87770000D02*
X173880000Y-90430000D01*
X161120000Y-87770000D02*
X161120000Y-90430000D01*
%TO.C,R9*%
X129485000Y-91727064D02*
X129485000Y-91272936D01*
X128015000Y-91727064D02*
X128015000Y-91272936D01*
%TO.C,R1*%
X121565000Y-96372936D02*
X121565000Y-96827064D01*
X123035000Y-96372936D02*
X123035000Y-96827064D01*
%TO.C,C_In1*%
X145061252Y-90935000D02*
X144538748Y-90935000D01*
X145061252Y-89465000D02*
X144538748Y-89465000D01*
%TO.C,Q2*%
X151340000Y-78100000D02*
X151340000Y-79775000D01*
X154460000Y-78100000D02*
X154460000Y-77450000D01*
X154460000Y-78100000D02*
X154460000Y-78750000D01*
X151340000Y-78100000D02*
X151340000Y-77450000D01*
%TO.C,U1*%
X148000000Y-84490000D02*
X154010000Y-84490000D01*
X154010000Y-91310000D02*
X154010000Y-90050000D01*
X154010000Y-84490000D02*
X154010000Y-85750000D01*
X150250000Y-91310000D02*
X154010000Y-91310000D01*
%TD*%
M02*
