%TF.GenerationSoftware,KiCad,Pcbnew,6.0.4-1.fc35*%
%TF.CreationDate,2022-04-22T22:18:29+03:00*%
%TF.ProjectId,Glove,476c6f76-652e-46b6-9963-61645f706362,rev?*%
%TF.SameCoordinates,Original*%
%TF.FileFunction,Copper,L2,Bot*%
%TF.FilePolarity,Positive*%
%FSLAX46Y46*%
G04 Gerber Fmt 4.6, Leading zero omitted, Abs format (unit mm)*
G04 Created by KiCad (PCBNEW 6.0.4-1.fc35) date 2022-04-22 22:18:29*
%MOMM*%
%LPD*%
G01*
G04 APERTURE LIST*
G04 Aperture macros list*
%AMRoundRect*
0 Rectangle with rounded corners*
0 $1 Rounding radius*
0 $2 $3 $4 $5 $6 $7 $8 $9 X,Y pos of 4 corners*
0 Add a 4 corners polygon primitive as box body*
4,1,4,$2,$3,$4,$5,$6,$7,$8,$9,$2,$3,0*
0 Add four circle primitives for the rounded corners*
1,1,$1+$1,$2,$3*
1,1,$1+$1,$4,$5*
1,1,$1+$1,$6,$7*
1,1,$1+$1,$8,$9*
0 Add four rect primitives between the rounded corners*
20,1,$1+$1,$2,$3,$4,$5,0*
20,1,$1+$1,$4,$5,$6,$7,0*
20,1,$1+$1,$6,$7,$8,$9,0*
20,1,$1+$1,$8,$9,$2,$3,0*%
G04 Aperture macros list end*
%TA.AperFunction,ComponentPad*%
%ADD10RoundRect,0.250000X0.600000X0.750000X-0.600000X0.750000X-0.600000X-0.750000X0.600000X-0.750000X0*%
%TD*%
%TA.AperFunction,ComponentPad*%
%ADD11O,1.700000X2.000000*%
%TD*%
%TA.AperFunction,ComponentPad*%
%ADD12RoundRect,0.250000X-0.725000X0.600000X-0.725000X-0.600000X0.725000X-0.600000X0.725000X0.600000X0*%
%TD*%
%TA.AperFunction,ComponentPad*%
%ADD13O,1.950000X1.700000*%
%TD*%
%TA.AperFunction,ComponentPad*%
%ADD14RoundRect,0.250000X-0.600000X-0.725000X0.600000X-0.725000X0.600000X0.725000X-0.600000X0.725000X0*%
%TD*%
%TA.AperFunction,ComponentPad*%
%ADD15O,1.700000X1.950000*%
%TD*%
%TA.AperFunction,ComponentPad*%
%ADD16O,1.600000X1.000000*%
%TD*%
%TA.AperFunction,ComponentPad*%
%ADD17O,2.100000X1.000000*%
%TD*%
%TA.AperFunction,ComponentPad*%
%ADD18RoundRect,0.250000X0.725000X-0.600000X0.725000X0.600000X-0.725000X0.600000X-0.725000X-0.600000X0*%
%TD*%
%TA.AperFunction,ComponentPad*%
%ADD19R,1.700000X1.700000*%
%TD*%
%TA.AperFunction,ComponentPad*%
%ADD20O,1.700000X1.700000*%
%TD*%
%TA.AperFunction,ViaPad*%
%ADD21C,0.800000*%
%TD*%
%TA.AperFunction,ViaPad*%
%ADD22C,0.450000*%
%TD*%
%TA.AperFunction,Conductor*%
%ADD23C,0.250000*%
%TD*%
%TA.AperFunction,Conductor*%
%ADD24C,1.000000*%
%TD*%
%TA.AperFunction,Conductor*%
%ADD25C,0.750000*%
%TD*%
G04 APERTURE END LIST*
D10*
%TO.P,BTN_A1,1,1*%
%TO.N,GND*%
X152894444Y-104725000D03*
D11*
%TO.P,BTN_A1,2,2*%
%TO.N,BtnA*%
X150394444Y-104725000D03*
%TD*%
D12*
%TO.P,J4,1,Pin_1*%
%TO.N,+3V3*%
X127700000Y-60200000D03*
D13*
%TO.P,J4,2,Pin_2*%
%TO.N,PinkyPot*%
X127700000Y-62700000D03*
%TO.P,J4,3,Pin_3*%
%TO.N,RingPot*%
X127700000Y-65200000D03*
%TO.P,J4,4,Pin_4*%
%TO.N,MiddlePot*%
X127700000Y-67700000D03*
%TO.P,J4,5,Pin_5*%
%TO.N,PointerPot*%
X127700000Y-70200000D03*
%TO.P,J4,6,Pin_6*%
%TO.N,ThumbPot*%
X127700000Y-72700000D03*
%TO.P,J4,7,Pin_7*%
%TO.N,GND*%
X127700000Y-75200000D03*
%TD*%
D10*
%TO.P,BTN_Trigger1,1,1*%
%TO.N,GND*%
X153000000Y-97750000D03*
D11*
%TO.P,BTN_Trigger1,2,2*%
%TO.N,BtnTrigger*%
X150500000Y-97750000D03*
%TD*%
D10*
%TO.P,BTN_B1,1,1*%
%TO.N,GND*%
X171650000Y-104725000D03*
D11*
%TO.P,BTN_B1,2,2*%
%TO.N,BtnB*%
X169150000Y-104725000D03*
%TD*%
D14*
%TO.P,J2,1,Pin_1*%
%TO.N,+3V3*%
X124200000Y-103675000D03*
D15*
%TO.P,J2,2,Pin_2*%
%TO.N,JoyX*%
X126700000Y-103675000D03*
%TO.P,J2,3,Pin_3*%
%TO.N,JoyY*%
X129200000Y-103675000D03*
%TO.P,J2,4,Pin_4*%
%TO.N,JoyClick*%
X131700000Y-103675000D03*
%TO.P,J2,5,Pin_5*%
%TO.N,GND*%
X134200000Y-103675000D03*
%TD*%
D10*
%TO.P,BTN_Grab1,1,1*%
%TO.N,GND*%
X143516667Y-104725000D03*
D11*
%TO.P,BTN_Grab1,2,2*%
%TO.N,BtnGrab*%
X141016667Y-104725000D03*
%TD*%
D16*
%TO.P,J1,S1,SHIELD*%
%TO.N,GND*%
X112525000Y-80080000D03*
X112525000Y-88720000D03*
D17*
X116705000Y-88720000D03*
X116705000Y-80080000D03*
%TD*%
D18*
%TO.P,J3,1,Pin_1*%
%TO.N,+5V*%
X169300000Y-75200000D03*
D13*
%TO.P,J3,2,Pin_2*%
%TO.N,PinkyPWM*%
X169300000Y-72700000D03*
%TO.P,J3,3,Pin_3*%
%TO.N,RingPWM*%
X169300000Y-70200000D03*
%TO.P,J3,4,Pin_4*%
%TO.N,MiddlePWM*%
X169300000Y-67700000D03*
%TO.P,J3,5,Pin_5*%
%TO.N,PointerPWM*%
X169300000Y-65200000D03*
%TO.P,J3,6,Pin_6*%
%TO.N,ThumbPWM*%
X169300000Y-62700000D03*
%TO.P,J3,7,Pin_7*%
%TO.N,GND*%
X169300000Y-60200000D03*
%TD*%
D10*
%TO.P,BTN_Pinch1,1,1*%
%TO.N,GND*%
X162272221Y-104725000D03*
D11*
%TO.P,BTN_Pinch1,2,2*%
%TO.N,BtnPinch*%
X159772221Y-104725000D03*
%TD*%
D19*
%TO.P,J5,1,Pin_1*%
%TO.N,+3V3*%
X175150000Y-89100000D03*
D20*
%TO.P,J5,2,Pin_2*%
%TO.N,/MTMS*%
X172610000Y-89100000D03*
%TO.P,J5,3,Pin_3*%
%TO.N,/MTDI*%
X170070000Y-89100000D03*
%TO.P,J5,4,Pin_4*%
%TO.N,/MTCK*%
X167530000Y-89100000D03*
%TO.P,J5,5,Pin_5*%
%TO.N,/MTDO*%
X164990000Y-89100000D03*
%TO.P,J5,6,Pin_6*%
%TO.N,GND*%
X162450000Y-89100000D03*
%TD*%
D21*
%TO.N,GND*%
X133250000Y-60500000D03*
X147500000Y-71750000D03*
X146500000Y-85500000D03*
X151500000Y-85500000D03*
X151000000Y-90250000D03*
X123000000Y-78750000D03*
X117250000Y-92500000D03*
X163750000Y-87250000D03*
X161500000Y-82000000D03*
X165250000Y-95000000D03*
X172750000Y-78500000D03*
X161250000Y-62250000D03*
X156750000Y-57500000D03*
X144250000Y-57500000D03*
X149250000Y-60750000D03*
%TO.N,+5V*%
X143250000Y-96000000D03*
X143875000Y-95375000D03*
X144500000Y-94750000D03*
X145125000Y-94125000D03*
X145750000Y-93500000D03*
%TO.N,BtnTrigger*%
X138500000Y-97750000D03*
%TO.N,+5V*%
X118750000Y-96000000D03*
X119750000Y-96000000D03*
X120750000Y-96000000D03*
%TO.N,+3V3*%
X139400000Y-92400000D03*
X140400000Y-92400000D03*
X141400000Y-92400000D03*
%TO.N,BtnA*%
X136750000Y-98600000D03*
%TO.N,GND*%
X139500000Y-60000000D03*
X132250000Y-75250000D03*
X154000000Y-71500000D03*
X161750000Y-57000000D03*
X139250000Y-57250000D03*
X127737701Y-88512299D03*
X153250000Y-68000000D03*
X143750000Y-92000000D03*
X142000000Y-87500000D03*
X122500000Y-82250000D03*
X122750000Y-87000000D03*
X143250000Y-78000000D03*
X129000000Y-87250000D03*
%TO.N,BtnA*%
X139500000Y-71200000D03*
X136750000Y-71750000D03*
%TO.N,BtnB*%
X140000000Y-72500000D03*
X145000000Y-71500000D03*
%TO.N,BtnGrab*%
X146000000Y-76438000D03*
X167500000Y-81000000D03*
X161500000Y-94000000D03*
D22*
X155500000Y-81250000D03*
D21*
%TO.N,BtnPinch*%
X159750000Y-81099503D03*
X159750000Y-95000000D03*
X161600000Y-58525000D03*
X159750000Y-91250000D03*
D22*
%TO.N,BtnTrigger*%
X138500000Y-82250000D03*
X157500000Y-78500000D03*
D21*
%TO.N,+5V*%
X123250000Y-92500000D03*
%TO.N,+3V3*%
X120950000Y-82250000D03*
X121000000Y-78750000D03*
X132200000Y-58500000D03*
X119779584Y-85374500D03*
X126350000Y-93250000D03*
%TO.N,JTAG_MTDO*%
X159750000Y-80100000D03*
X157400000Y-80000000D03*
%TO.N,ThumbPWM*%
X163500000Y-70250000D03*
D22*
%TO.N,/D+*%
X118763081Y-85210270D03*
X118750000Y-84100500D03*
D21*
%TO.N,Net-(Q1-Pad2)*%
X127600000Y-80900000D03*
X148924500Y-80900000D03*
%TO.N,Net-(Q2-Pad2)*%
X153600000Y-83400000D03*
X125300000Y-79700000D03*
%TO.N,IO0*%
X161000000Y-73750000D03*
X154000000Y-76700000D03*
%TO.N,RXD*%
X127600000Y-79800000D03*
X156900000Y-61100000D03*
%TO.N,TXD*%
X127600000Y-78700000D03*
X155900000Y-62300000D03*
%TO.N,Net-(J1-PadA5)*%
X124500000Y-94000000D03*
X118750000Y-83150000D03*
%TD*%
D23*
%TO.N,GND*%
X143750000Y-92000000D02*
X142000000Y-90250000D01*
X142000000Y-90250000D02*
X142000000Y-87500000D01*
D24*
%TO.N,+5V*%
X120750000Y-96000000D02*
X143250000Y-96000000D01*
X143250000Y-96000000D02*
X145750000Y-93500000D01*
X145750000Y-93500000D02*
X152750000Y-93500000D01*
X152750000Y-93500000D02*
X169300000Y-76950000D01*
X169300000Y-76950000D02*
X169300000Y-75200000D01*
D23*
%TO.N,BtnTrigger*%
X156500000Y-81027127D02*
X156500000Y-79500000D01*
X138500000Y-82250000D02*
X155277127Y-82250000D01*
X155277127Y-82250000D02*
X156500000Y-81027127D01*
X156500000Y-79500000D02*
X157500000Y-78500000D01*
X150500000Y-97750000D02*
X138500000Y-97750000D01*
%TO.N,BtnA*%
X136750000Y-71750000D02*
X137250000Y-71250000D01*
X137250000Y-71250000D02*
X139450000Y-71250000D01*
X139450000Y-71250000D02*
X139500000Y-71200000D01*
D24*
%TO.N,+5V*%
X118600000Y-95750000D02*
X118850000Y-96000000D01*
X118850000Y-96000000D02*
X120750000Y-96000000D01*
D23*
X120500000Y-92500000D02*
X123250000Y-92500000D01*
X118600000Y-94400000D02*
X120500000Y-92500000D01*
X118600000Y-95750000D02*
X118600000Y-94400000D01*
D25*
%TO.N,+3V3*%
X141400000Y-92400000D02*
X140400000Y-92400000D01*
X126350000Y-92400000D02*
X140400000Y-92400000D01*
D23*
%TO.N,BtnA*%
X144269444Y-98600000D02*
X137000000Y-98600000D01*
X150394444Y-104725000D02*
X144269444Y-98600000D01*
%TO.N,GND*%
X127737701Y-88512299D02*
X129000000Y-87250000D01*
%TO.N,BtnB*%
X144000000Y-72500000D02*
X140000000Y-72500000D01*
X145000000Y-71500000D02*
X144000000Y-72500000D01*
%TO.N,BtnGrab*%
X161275489Y-87724511D02*
X167500000Y-81500000D01*
X155500000Y-81250000D02*
X155450000Y-81200000D01*
X161500000Y-94000000D02*
X161275489Y-93775489D01*
X167500000Y-81500000D02*
X167500000Y-81000000D01*
X161275489Y-93775489D02*
X161275489Y-87724511D01*
X155450000Y-81200000D02*
X150762000Y-81200000D01*
X150762000Y-81200000D02*
X146000000Y-76438000D01*
%TO.N,BtnPinch*%
X162524511Y-59449511D02*
X161600000Y-58525000D01*
X162524511Y-78350103D02*
X162524511Y-59449511D01*
X159750000Y-95000000D02*
X159750000Y-91250000D01*
X159750000Y-81099503D02*
X160024992Y-80824511D01*
X160024992Y-80824511D02*
X160050103Y-80824511D01*
X160050103Y-80824511D02*
X162524511Y-78350103D01*
D25*
%TO.N,+3V3*%
X124000000Y-81750000D02*
X124000000Y-90050000D01*
X119000000Y-62700000D02*
X123200000Y-58500000D01*
X124000000Y-90050000D02*
X126350000Y-92400000D01*
X119000000Y-76750000D02*
X119000000Y-62700000D01*
X126350000Y-92400000D02*
X126350000Y-93250000D01*
X119750000Y-85344916D02*
X119779584Y-85374500D01*
X121000000Y-78750000D02*
X124000000Y-81750000D01*
X120950000Y-82250000D02*
X119750000Y-83450000D01*
X119750000Y-83450000D02*
X119750000Y-85344916D01*
X121000000Y-78750000D02*
X119000000Y-76750000D01*
X123200000Y-58500000D02*
X132200000Y-58500000D01*
D23*
%TO.N,JTAG_MTDO*%
X159750000Y-80100000D02*
X157500000Y-80100000D01*
X157500000Y-80100000D02*
X157400000Y-80000000D01*
%TO.N,ThumbPWM*%
X163500000Y-67900000D02*
X168700000Y-62700000D01*
X168700000Y-62700000D02*
X169300000Y-62700000D01*
X163500000Y-70250000D02*
X163500000Y-67900000D01*
%TO.N,/D+*%
X118750000Y-85197189D02*
X118763081Y-85210270D01*
X118750000Y-84100500D02*
X118750000Y-85197189D01*
%TO.N,Net-(Q1-Pad2)*%
X148924500Y-80900000D02*
X127600000Y-80900000D01*
%TO.N,Net-(Q2-Pad2)*%
X129000000Y-83400000D02*
X153600000Y-83400000D01*
X125300000Y-79700000D02*
X129000000Y-83400000D01*
%TO.N,IO0*%
X158900000Y-76700000D02*
X154000000Y-76700000D01*
X161000000Y-74600000D02*
X158900000Y-76700000D01*
X161000000Y-73750000D02*
X161000000Y-74600000D01*
%TO.N,RXD*%
X127600000Y-79800000D02*
X138700000Y-79800000D01*
X145500000Y-73000000D02*
X156500000Y-73000000D01*
X138700000Y-79800000D02*
X144000000Y-74500000D01*
X156500000Y-73000000D02*
X156900000Y-72600000D01*
X156900000Y-72600000D02*
X156900000Y-61100000D01*
X144000000Y-74500000D02*
X145500000Y-73000000D01*
%TO.N,TXD*%
X127600000Y-78700000D02*
X138900000Y-78700000D01*
X155300000Y-62300000D02*
X155900000Y-62300000D01*
X144900000Y-72700000D02*
X155300000Y-62300000D01*
X138900000Y-78700000D02*
X144900000Y-72700000D01*
%TO.N,Net-(J1-PadA5)*%
X118200489Y-86200489D02*
X123800000Y-91800000D01*
X124500000Y-92500000D02*
X124500000Y-94000000D01*
X118200489Y-83699511D02*
X118200489Y-86200489D01*
X123800000Y-91800000D02*
X124500000Y-92500000D01*
X118750000Y-83150000D02*
X118200489Y-83699511D01*
%TD*%
%TA.AperFunction,Conductor*%
%TO.N,GND*%
G36*
X123079595Y-82079052D02*
G01*
X123113621Y-82141364D01*
X123116500Y-82168147D01*
X123116500Y-87250000D01*
X121250000Y-87250000D01*
X121250000Y-83199458D01*
X121405545Y-83043913D01*
X121420579Y-83031072D01*
X121509921Y-82966161D01*
X121561253Y-82928866D01*
X121565675Y-82923955D01*
X121684621Y-82791852D01*
X121684622Y-82791851D01*
X121689040Y-82786944D01*
X121784527Y-82621556D01*
X121843542Y-82439928D01*
X121863504Y-82250000D01*
X121843542Y-82060072D01*
X121784527Y-81878444D01*
X121710370Y-81750000D01*
X122750543Y-81750000D01*
X123079595Y-82079052D01*
G37*
%TD.AperFunction*%
%TD*%
%TA.AperFunction,Conductor*%
%TO.N,GND*%
G36*
X181721499Y-56710000D02*
G01*
X181745208Y-56713691D01*
X181754109Y-56712527D01*
X181754116Y-56712527D01*
X181756231Y-56712250D01*
X181784915Y-56711792D01*
X181874042Y-56720568D01*
X181898269Y-56725387D01*
X182004239Y-56757531D01*
X182027059Y-56766983D01*
X182124721Y-56819182D01*
X182145259Y-56832904D01*
X182230864Y-56903156D01*
X182248331Y-56920623D01*
X182318587Y-57006229D01*
X182332309Y-57026765D01*
X182332311Y-57026767D01*
X182384511Y-57124426D01*
X182393963Y-57147246D01*
X182426110Y-57253217D01*
X182430929Y-57277443D01*
X182439031Y-57359699D01*
X182438575Y-57375870D01*
X182439272Y-57375879D01*
X182439162Y-57384852D01*
X182437781Y-57393724D01*
X182438945Y-57402626D01*
X182438945Y-57402628D01*
X182441908Y-57425283D01*
X182442972Y-57441621D01*
X182442972Y-106950633D01*
X182441472Y-106970018D01*
X182437781Y-106993724D01*
X182438945Y-107002624D01*
X182439222Y-107004743D01*
X182439679Y-107033431D01*
X182438761Y-107042754D01*
X182430901Y-107122552D01*
X182426084Y-107146771D01*
X182393936Y-107252750D01*
X182384487Y-107275559D01*
X182332284Y-107373223D01*
X182318560Y-107393762D01*
X182248312Y-107479357D01*
X182230848Y-107496821D01*
X182145242Y-107567075D01*
X182124714Y-107580791D01*
X182027045Y-107632993D01*
X182004229Y-107642443D01*
X181898264Y-107674585D01*
X181874037Y-107679404D01*
X181791562Y-107687525D01*
X181775614Y-107687076D01*
X181775605Y-107687800D01*
X181766631Y-107687690D01*
X181757760Y-107686309D01*
X181743243Y-107688207D01*
X181726185Y-107690437D01*
X181709851Y-107691500D01*
X111449367Y-107691500D01*
X111429982Y-107690000D01*
X111415148Y-107687690D01*
X111415145Y-107687690D01*
X111406276Y-107686309D01*
X111396976Y-107687525D01*
X111395254Y-107687750D01*
X111366569Y-107688207D01*
X111277444Y-107679429D01*
X111253222Y-107674611D01*
X111147248Y-107642464D01*
X111124430Y-107633013D01*
X111026765Y-107580810D01*
X111006230Y-107567088D01*
X110920629Y-107496836D01*
X110903164Y-107479371D01*
X110832912Y-107393770D01*
X110819189Y-107373233D01*
X110766988Y-107275573D01*
X110757536Y-107252752D01*
X110725389Y-107146778D01*
X110720570Y-107122552D01*
X110712711Y-107042754D01*
X110712607Y-107019151D01*
X110712768Y-107017354D01*
X110713576Y-107012552D01*
X110713729Y-107000000D01*
X110709773Y-106972376D01*
X110708500Y-106954514D01*
X110708500Y-104132703D01*
X112390743Y-104132703D01*
X112428268Y-104417734D01*
X112504129Y-104695036D01*
X112505813Y-104698984D01*
X112593427Y-104904390D01*
X112616923Y-104959476D01*
X112654784Y-105022737D01*
X112733014Y-105153449D01*
X112764561Y-105206161D01*
X112944313Y-105430528D01*
X112961397Y-105446740D01*
X113147046Y-105622914D01*
X113152851Y-105628423D01*
X113386317Y-105796186D01*
X113390112Y-105798195D01*
X113390113Y-105798196D01*
X113411869Y-105809715D01*
X113640392Y-105930712D01*
X113910373Y-106029511D01*
X114191264Y-106090755D01*
X114219841Y-106093004D01*
X114414282Y-106108307D01*
X114414291Y-106108307D01*
X114416739Y-106108500D01*
X114572271Y-106108500D01*
X114574407Y-106108354D01*
X114574418Y-106108354D01*
X114782548Y-106094165D01*
X114782554Y-106094164D01*
X114786825Y-106093873D01*
X114791020Y-106093004D01*
X114791022Y-106093004D01*
X114927584Y-106064723D01*
X115068342Y-106035574D01*
X115339343Y-105939607D01*
X115594812Y-105807750D01*
X115598313Y-105805289D01*
X115598317Y-105805287D01*
X115712707Y-105724892D01*
X115830023Y-105642441D01*
X116040622Y-105446740D01*
X116222713Y-105224268D01*
X116372927Y-104979142D01*
X116406956Y-104901623D01*
X116486757Y-104719830D01*
X116488483Y-104715898D01*
X116564112Y-104450400D01*
X122841500Y-104450400D01*
X122841837Y-104453646D01*
X122841837Y-104453650D01*
X122850875Y-104540752D01*
X122852474Y-104556166D01*
X122854655Y-104562702D01*
X122854655Y-104562704D01*
X122886405Y-104657870D01*
X122908450Y-104723946D01*
X123001522Y-104874348D01*
X123126697Y-104999305D01*
X123132927Y-105003145D01*
X123132928Y-105003146D01*
X123270090Y-105087694D01*
X123277262Y-105092115D01*
X123312938Y-105103948D01*
X123438611Y-105145632D01*
X123438613Y-105145632D01*
X123445139Y-105147797D01*
X123451975Y-105148497D01*
X123451978Y-105148498D01*
X123487663Y-105152154D01*
X123549600Y-105158500D01*
X124850400Y-105158500D01*
X124853646Y-105158163D01*
X124853650Y-105158163D01*
X124949308Y-105148238D01*
X124949312Y-105148237D01*
X124956166Y-105147526D01*
X124962702Y-105145345D01*
X124962704Y-105145345D01*
X125100390Y-105099409D01*
X125123946Y-105091550D01*
X125274348Y-104998478D01*
X125309602Y-104963163D01*
X125394134Y-104878483D01*
X125399305Y-104873303D01*
X125489081Y-104727660D01*
X125541852Y-104680168D01*
X125611924Y-104668744D01*
X125677048Y-104697018D01*
X125687510Y-104706805D01*
X125729215Y-104750523D01*
X125796576Y-104821135D01*
X125981542Y-104958754D01*
X125986293Y-104961170D01*
X125986297Y-104961172D01*
X126059673Y-104998478D01*
X126187051Y-105063240D01*
X126192145Y-105064822D01*
X126192148Y-105064823D01*
X126337258Y-105109881D01*
X126407227Y-105131607D01*
X126412516Y-105132308D01*
X126630489Y-105161198D01*
X126630494Y-105161198D01*
X126635774Y-105161898D01*
X126641103Y-105161698D01*
X126641105Y-105161698D01*
X126750966Y-105157574D01*
X126866158Y-105153249D01*
X126888802Y-105148498D01*
X127086572Y-105107002D01*
X127091791Y-105105907D01*
X127096750Y-105103949D01*
X127096752Y-105103948D01*
X127301256Y-105023185D01*
X127301258Y-105023184D01*
X127306221Y-105021224D01*
X127311525Y-105018006D01*
X127498757Y-104904390D01*
X127498756Y-104904390D01*
X127503317Y-104901623D01*
X127543134Y-104867072D01*
X127673412Y-104754023D01*
X127673414Y-104754021D01*
X127677445Y-104750523D01*
X127744500Y-104668744D01*
X127820240Y-104576373D01*
X127820244Y-104576367D01*
X127823624Y-104572245D01*
X127841552Y-104540750D01*
X127892632Y-104491445D01*
X127962262Y-104477583D01*
X128028333Y-104503566D01*
X128055573Y-104532716D01*
X128137441Y-104654319D01*
X128296576Y-104821135D01*
X128481542Y-104958754D01*
X128486293Y-104961170D01*
X128486297Y-104961172D01*
X128559673Y-104998478D01*
X128687051Y-105063240D01*
X128692145Y-105064822D01*
X128692148Y-105064823D01*
X128837258Y-105109881D01*
X128907227Y-105131607D01*
X128912516Y-105132308D01*
X129130489Y-105161198D01*
X129130494Y-105161198D01*
X129135774Y-105161898D01*
X129141103Y-105161698D01*
X129141105Y-105161698D01*
X129250966Y-105157574D01*
X129366158Y-105153249D01*
X129388802Y-105148498D01*
X129586572Y-105107002D01*
X129591791Y-105105907D01*
X129596750Y-105103949D01*
X129596752Y-105103948D01*
X129801256Y-105023185D01*
X129801258Y-105023184D01*
X129806221Y-105021224D01*
X129811525Y-105018006D01*
X129998757Y-104904390D01*
X129998756Y-104904390D01*
X130003317Y-104901623D01*
X130043134Y-104867072D01*
X130173412Y-104754023D01*
X130173414Y-104754021D01*
X130177445Y-104750523D01*
X130244500Y-104668744D01*
X130320240Y-104576373D01*
X130320244Y-104576367D01*
X130323624Y-104572245D01*
X130341552Y-104540750D01*
X130392632Y-104491445D01*
X130462262Y-104477583D01*
X130528333Y-104503566D01*
X130555573Y-104532716D01*
X130637441Y-104654319D01*
X130796576Y-104821135D01*
X130981542Y-104958754D01*
X130986293Y-104961170D01*
X130986297Y-104961172D01*
X131059673Y-104998478D01*
X131187051Y-105063240D01*
X131192145Y-105064822D01*
X131192148Y-105064823D01*
X131337258Y-105109881D01*
X131407227Y-105131607D01*
X131412516Y-105132308D01*
X131630489Y-105161198D01*
X131630494Y-105161198D01*
X131635774Y-105161898D01*
X131641103Y-105161698D01*
X131641105Y-105161698D01*
X131750966Y-105157574D01*
X131866158Y-105153249D01*
X131888802Y-105148498D01*
X132086572Y-105107002D01*
X132091791Y-105105907D01*
X132096750Y-105103949D01*
X132096752Y-105103948D01*
X132301256Y-105023185D01*
X132301258Y-105023184D01*
X132306221Y-105021224D01*
X132311525Y-105018006D01*
X132498757Y-104904390D01*
X132498756Y-104904390D01*
X132503317Y-104901623D01*
X132543134Y-104867072D01*
X132673412Y-104754023D01*
X132673414Y-104754021D01*
X132677445Y-104750523D01*
X132744500Y-104668744D01*
X132820240Y-104576373D01*
X132820244Y-104576367D01*
X132823624Y-104572245D01*
X132836681Y-104549308D01*
X132841829Y-104540265D01*
X132892912Y-104490959D01*
X132962542Y-104477098D01*
X133028613Y-104503082D01*
X133055851Y-104532232D01*
X133134852Y-104649578D01*
X133141519Y-104657870D01*
X133293228Y-104816900D01*
X133301186Y-104823941D01*
X133477525Y-104955141D01*
X133486562Y-104960745D01*
X133682484Y-105060357D01*
X133692335Y-105064357D01*
X133902240Y-105129534D01*
X133912624Y-105131817D01*
X133928043Y-105133861D01*
X133942207Y-105131665D01*
X133946000Y-105118478D01*
X133946000Y-105116192D01*
X134454000Y-105116192D01*
X134457973Y-105129723D01*
X134468580Y-105131248D01*
X134586421Y-105106523D01*
X134596617Y-105103463D01*
X134801029Y-105022737D01*
X134810561Y-105018006D01*
X134950827Y-104932890D01*
X139658167Y-104932890D01*
X139662092Y-104979142D01*
X139671630Y-105091550D01*
X139672747Y-105104720D01*
X139674085Y-105109875D01*
X139674086Y-105109881D01*
X139729324Y-105322703D01*
X139730666Y-105327872D01*
X139825355Y-105538075D01*
X139954108Y-105729319D01*
X140113243Y-105896135D01*
X140298209Y-106033754D01*
X140302960Y-106036170D01*
X140302964Y-106036172D01*
X140365371Y-106067901D01*
X140503718Y-106138240D01*
X140508812Y-106139822D01*
X140508815Y-106139823D01*
X140708687Y-106201885D01*
X140723894Y-106206607D01*
X140729183Y-106207308D01*
X140947156Y-106236198D01*
X140947161Y-106236198D01*
X140952441Y-106236898D01*
X140957770Y-106236698D01*
X140957772Y-106236698D01*
X141067633Y-106232574D01*
X141182825Y-106228249D01*
X141188135Y-106227135D01*
X141403239Y-106182002D01*
X141408458Y-106180907D01*
X141413417Y-106178949D01*
X141413419Y-106178948D01*
X141617923Y-106098185D01*
X141617925Y-106098184D01*
X141622888Y-106096224D01*
X141628195Y-106093004D01*
X141815424Y-105979390D01*
X141815423Y-105979390D01*
X141819984Y-105976623D01*
X141872892Y-105930712D01*
X141990079Y-105829023D01*
X141990081Y-105829021D01*
X141994112Y-105825523D01*
X142018167Y-105796186D01*
X142023673Y-105789471D01*
X142082333Y-105749476D01*
X142153303Y-105747545D01*
X142214051Y-105784290D01*
X142228251Y-105803059D01*
X142314730Y-105942807D01*
X142323766Y-105954208D01*
X142438496Y-106068739D01*
X142449907Y-106077751D01*
X142587910Y-106162816D01*
X142601091Y-106168963D01*
X142755377Y-106220138D01*
X142768753Y-106223005D01*
X142863105Y-106232672D01*
X142869521Y-106233000D01*
X143244552Y-106233000D01*
X143259791Y-106228525D01*
X143260996Y-106227135D01*
X143262667Y-106219452D01*
X143262667Y-106214884D01*
X143770667Y-106214884D01*
X143775142Y-106230123D01*
X143776532Y-106231328D01*
X143784215Y-106232999D01*
X144163762Y-106232999D01*
X144170281Y-106232662D01*
X144265873Y-106222743D01*
X144279267Y-106219851D01*
X144433451Y-106168412D01*
X144446629Y-106162239D01*
X144584474Y-106076937D01*
X144595875Y-106067901D01*
X144710406Y-105953171D01*
X144719418Y-105941760D01*
X144804483Y-105803757D01*
X144810630Y-105790576D01*
X144861805Y-105636290D01*
X144864672Y-105622914D01*
X144874339Y-105528562D01*
X144874667Y-105522146D01*
X144874667Y-104997115D01*
X144870192Y-104981876D01*
X144868802Y-104980671D01*
X144861119Y-104979000D01*
X143788782Y-104979000D01*
X143773543Y-104983475D01*
X143772338Y-104984865D01*
X143770667Y-104992548D01*
X143770667Y-106214884D01*
X143262667Y-106214884D01*
X143262667Y-104452885D01*
X143770667Y-104452885D01*
X143775142Y-104468124D01*
X143776532Y-104469329D01*
X143784215Y-104471000D01*
X144856551Y-104471000D01*
X144871790Y-104466525D01*
X144872995Y-104465135D01*
X144874666Y-104457452D01*
X144874666Y-103927905D01*
X144874329Y-103921386D01*
X144864410Y-103825794D01*
X144861518Y-103812400D01*
X144810079Y-103658216D01*
X144803906Y-103645038D01*
X144718604Y-103507193D01*
X144709568Y-103495792D01*
X144594838Y-103381261D01*
X144583427Y-103372249D01*
X144445424Y-103287184D01*
X144432243Y-103281037D01*
X144277957Y-103229862D01*
X144264581Y-103226995D01*
X144170229Y-103217328D01*
X144163812Y-103217000D01*
X143788782Y-103217000D01*
X143773543Y-103221475D01*
X143772338Y-103222865D01*
X143770667Y-103230548D01*
X143770667Y-104452885D01*
X143262667Y-104452885D01*
X143262667Y-103235116D01*
X143258192Y-103219877D01*
X143256802Y-103218672D01*
X143249119Y-103217001D01*
X142869572Y-103217001D01*
X142863053Y-103217338D01*
X142767461Y-103227257D01*
X142754067Y-103230149D01*
X142599883Y-103281588D01*
X142586705Y-103287761D01*
X142448860Y-103373063D01*
X142437459Y-103382099D01*
X142322928Y-103496829D01*
X142313914Y-103508243D01*
X142227944Y-103647713D01*
X142175172Y-103695207D01*
X142105101Y-103706631D01*
X142039977Y-103678357D01*
X142029514Y-103668570D01*
X142009618Y-103647713D01*
X141920091Y-103553865D01*
X141735125Y-103416246D01*
X141730374Y-103413830D01*
X141730370Y-103413828D01*
X141608398Y-103351815D01*
X141529616Y-103311760D01*
X141524522Y-103310178D01*
X141524519Y-103310177D01*
X141314538Y-103244976D01*
X141309440Y-103243393D01*
X141304151Y-103242692D01*
X141086178Y-103213802D01*
X141086173Y-103213802D01*
X141080893Y-103213102D01*
X141075564Y-103213302D01*
X141075562Y-103213302D01*
X140977035Y-103217001D01*
X140850509Y-103221751D01*
X140845290Y-103222846D01*
X140825516Y-103226995D01*
X140624876Y-103269093D01*
X140619917Y-103271051D01*
X140619915Y-103271052D01*
X140415411Y-103351815D01*
X140415409Y-103351816D01*
X140410446Y-103353776D01*
X140405887Y-103356543D01*
X140405884Y-103356544D01*
X140307499Y-103416246D01*
X140213350Y-103473377D01*
X140209320Y-103476874D01*
X140107947Y-103564841D01*
X140039222Y-103624477D01*
X140035835Y-103628608D01*
X139896427Y-103798627D01*
X139896423Y-103798633D01*
X139893043Y-103802755D01*
X139890404Y-103807391D01*
X139890402Y-103807394D01*
X139853864Y-103871583D01*
X139778992Y-104003114D01*
X139700330Y-104219825D01*
X139699381Y-104225074D01*
X139699380Y-104225077D01*
X139660044Y-104442608D01*
X139660043Y-104442615D01*
X139659306Y-104446692D01*
X139658167Y-104470844D01*
X139658167Y-104932890D01*
X134950827Y-104932890D01*
X134998462Y-104903984D01*
X135007052Y-104897720D01*
X135173052Y-104753673D01*
X135180472Y-104746042D01*
X135319826Y-104576089D01*
X135325850Y-104567322D01*
X135434576Y-104376318D01*
X135439041Y-104366654D01*
X135514031Y-104160059D01*
X135516802Y-104149792D01*
X135553504Y-103946826D01*
X135552085Y-103933586D01*
X135537450Y-103929000D01*
X134472115Y-103929000D01*
X134456876Y-103933475D01*
X134455671Y-103934865D01*
X134454000Y-103942548D01*
X134454000Y-105116192D01*
X133946000Y-105116192D01*
X133946000Y-103402885D01*
X134454000Y-103402885D01*
X134458475Y-103418124D01*
X134459865Y-103419329D01*
X134467548Y-103421000D01*
X135533849Y-103421000D01*
X135548527Y-103416690D01*
X135550590Y-103404807D01*
X135543876Y-103325675D01*
X135542086Y-103315203D01*
X135486870Y-103102465D01*
X135483335Y-103092425D01*
X135393063Y-102892030D01*
X135387894Y-102882744D01*
X135265150Y-102700425D01*
X135258481Y-102692130D01*
X135106772Y-102533100D01*
X135098814Y-102526059D01*
X134922475Y-102394859D01*
X134913438Y-102389255D01*
X134717516Y-102289643D01*
X134707665Y-102285643D01*
X134497760Y-102220466D01*
X134487376Y-102218183D01*
X134471957Y-102216139D01*
X134457793Y-102218335D01*
X134454000Y-102231522D01*
X134454000Y-103402885D01*
X133946000Y-103402885D01*
X133946000Y-102233808D01*
X133942027Y-102220277D01*
X133931420Y-102218752D01*
X133813579Y-102243477D01*
X133803383Y-102246537D01*
X133598971Y-102327263D01*
X133589439Y-102331994D01*
X133401538Y-102446016D01*
X133392948Y-102452280D01*
X133226948Y-102596327D01*
X133219528Y-102603958D01*
X133080174Y-102773911D01*
X133074152Y-102782674D01*
X133058762Y-102809711D01*
X133007680Y-102859018D01*
X132938049Y-102872880D01*
X132871978Y-102846897D01*
X132844739Y-102817747D01*
X132808869Y-102764468D01*
X132762559Y-102695681D01*
X132703918Y-102634209D01*
X132674725Y-102603608D01*
X132603424Y-102528865D01*
X132418458Y-102391246D01*
X132413707Y-102388830D01*
X132413703Y-102388828D01*
X132295588Y-102328776D01*
X132212949Y-102286760D01*
X132207855Y-102285178D01*
X132207852Y-102285177D01*
X131997871Y-102219976D01*
X131992773Y-102218393D01*
X131987484Y-102217692D01*
X131769511Y-102188802D01*
X131769506Y-102188802D01*
X131764226Y-102188102D01*
X131758897Y-102188302D01*
X131758895Y-102188302D01*
X131653735Y-102192250D01*
X131533842Y-102196751D01*
X131528623Y-102197846D01*
X131497539Y-102204368D01*
X131308209Y-102244093D01*
X131303250Y-102246051D01*
X131303248Y-102246052D01*
X131098744Y-102326815D01*
X131098742Y-102326816D01*
X131093779Y-102328776D01*
X131089220Y-102331543D01*
X131089217Y-102331544D01*
X130994113Y-102389255D01*
X130896683Y-102448377D01*
X130892653Y-102451874D01*
X130753282Y-102572814D01*
X130722555Y-102599477D01*
X130719168Y-102603608D01*
X130579760Y-102773627D01*
X130579756Y-102773633D01*
X130576376Y-102777755D01*
X130558448Y-102809250D01*
X130507368Y-102858555D01*
X130437738Y-102872417D01*
X130371667Y-102846434D01*
X130344427Y-102817284D01*
X130328639Y-102793834D01*
X130262559Y-102695681D01*
X130203918Y-102634209D01*
X130174725Y-102603608D01*
X130103424Y-102528865D01*
X129918458Y-102391246D01*
X129913707Y-102388830D01*
X129913703Y-102388828D01*
X129795588Y-102328776D01*
X129712949Y-102286760D01*
X129707855Y-102285178D01*
X129707852Y-102285177D01*
X129497871Y-102219976D01*
X129492773Y-102218393D01*
X129487484Y-102217692D01*
X129269511Y-102188802D01*
X129269506Y-102188802D01*
X129264226Y-102188102D01*
X129258897Y-102188302D01*
X129258895Y-102188302D01*
X129153735Y-102192250D01*
X129033842Y-102196751D01*
X129028623Y-102197846D01*
X128997539Y-102204368D01*
X128808209Y-102244093D01*
X128803250Y-102246051D01*
X128803248Y-102246052D01*
X128598744Y-102326815D01*
X128598742Y-102326816D01*
X128593779Y-102328776D01*
X128589220Y-102331543D01*
X128589217Y-102331544D01*
X128494113Y-102389255D01*
X128396683Y-102448377D01*
X128392653Y-102451874D01*
X128253282Y-102572814D01*
X128222555Y-102599477D01*
X128219168Y-102603608D01*
X128079760Y-102773627D01*
X128079756Y-102773633D01*
X128076376Y-102777755D01*
X128058448Y-102809250D01*
X128007368Y-102858555D01*
X127937738Y-102872417D01*
X127871667Y-102846434D01*
X127844427Y-102817284D01*
X127828639Y-102793834D01*
X127762559Y-102695681D01*
X127703918Y-102634209D01*
X127674725Y-102603608D01*
X127603424Y-102528865D01*
X127418458Y-102391246D01*
X127413707Y-102388830D01*
X127413703Y-102388828D01*
X127295588Y-102328776D01*
X127212949Y-102286760D01*
X127207855Y-102285178D01*
X127207852Y-102285177D01*
X126997871Y-102219976D01*
X126992773Y-102218393D01*
X126987484Y-102217692D01*
X126769511Y-102188802D01*
X126769506Y-102188802D01*
X126764226Y-102188102D01*
X126758897Y-102188302D01*
X126758895Y-102188302D01*
X126653735Y-102192250D01*
X126533842Y-102196751D01*
X126528623Y-102197846D01*
X126497539Y-102204368D01*
X126308209Y-102244093D01*
X126303250Y-102246051D01*
X126303248Y-102246052D01*
X126098744Y-102326815D01*
X126098742Y-102326816D01*
X126093779Y-102328776D01*
X126089220Y-102331543D01*
X126089217Y-102331544D01*
X125994113Y-102389255D01*
X125896683Y-102448377D01*
X125892653Y-102451874D01*
X125753282Y-102572814D01*
X125722555Y-102599477D01*
X125693330Y-102635120D01*
X125634671Y-102675114D01*
X125563701Y-102677046D01*
X125502952Y-102640302D01*
X125488752Y-102621532D01*
X125402332Y-102481880D01*
X125398478Y-102475652D01*
X125273303Y-102350695D01*
X125242965Y-102331994D01*
X125128968Y-102261725D01*
X125128966Y-102261724D01*
X125122738Y-102257885D01*
X125009353Y-102220277D01*
X124961389Y-102204368D01*
X124961387Y-102204368D01*
X124954861Y-102202203D01*
X124948025Y-102201503D01*
X124948022Y-102201502D01*
X124904969Y-102197091D01*
X124850400Y-102191500D01*
X123549600Y-102191500D01*
X123546354Y-102191837D01*
X123546350Y-102191837D01*
X123450692Y-102201762D01*
X123450688Y-102201763D01*
X123443834Y-102202474D01*
X123437298Y-102204655D01*
X123437296Y-102204655D01*
X123305194Y-102248728D01*
X123276054Y-102258450D01*
X123125652Y-102351522D01*
X123120479Y-102356704D01*
X123116712Y-102360478D01*
X123000695Y-102476697D01*
X122996855Y-102482927D01*
X122996854Y-102482928D01*
X122922466Y-102603608D01*
X122907885Y-102627262D01*
X122886472Y-102691822D01*
X122856432Y-102782390D01*
X122852203Y-102795139D01*
X122851503Y-102801975D01*
X122851502Y-102801978D01*
X122849338Y-102823102D01*
X122841500Y-102899600D01*
X122841500Y-104450400D01*
X116564112Y-104450400D01*
X116567244Y-104439406D01*
X116607751Y-104154784D01*
X116607778Y-104149792D01*
X116609235Y-103871583D01*
X116609235Y-103871576D01*
X116609257Y-103867297D01*
X116600217Y-103798627D01*
X116586601Y-103695207D01*
X116571732Y-103582266D01*
X116495871Y-103304964D01*
X116464130Y-103230548D01*
X116384763Y-103044476D01*
X116384761Y-103044472D01*
X116383077Y-103040524D01*
X116267194Y-102846897D01*
X116237643Y-102797521D01*
X116237640Y-102797517D01*
X116235439Y-102793839D01*
X116055687Y-102569472D01*
X115847149Y-102371577D01*
X115613683Y-102203814D01*
X115609808Y-102201762D01*
X115568654Y-102179972D01*
X115359608Y-102069288D01*
X115089627Y-101970489D01*
X114808736Y-101909245D01*
X114777685Y-101906801D01*
X114585718Y-101891693D01*
X114585709Y-101891693D01*
X114583261Y-101891500D01*
X114427729Y-101891500D01*
X114425593Y-101891646D01*
X114425582Y-101891646D01*
X114217452Y-101905835D01*
X114217446Y-101905836D01*
X114213175Y-101906127D01*
X114208980Y-101906996D01*
X114208978Y-101906996D01*
X114072416Y-101935277D01*
X113931658Y-101964426D01*
X113660657Y-102060393D01*
X113405188Y-102192250D01*
X113401687Y-102194711D01*
X113401683Y-102194713D01*
X113346057Y-102233808D01*
X113169977Y-102357559D01*
X113091597Y-102430394D01*
X112981073Y-102533100D01*
X112959378Y-102553260D01*
X112777287Y-102775732D01*
X112627073Y-103020858D01*
X112625347Y-103024791D01*
X112625346Y-103024792D01*
X112540973Y-103217000D01*
X112511517Y-103284102D01*
X112432756Y-103560594D01*
X112392249Y-103845216D01*
X112392227Y-103849505D01*
X112392226Y-103849512D01*
X112390798Y-104122128D01*
X112390743Y-104132703D01*
X110708500Y-104132703D01*
X110708500Y-88985768D01*
X111252425Y-88985768D01*
X111284138Y-89093521D01*
X111288731Y-89104889D01*
X111374607Y-89269154D01*
X111381321Y-89279415D01*
X111497468Y-89423873D01*
X111506046Y-89432632D01*
X111648039Y-89551778D01*
X111658159Y-89558708D01*
X111820585Y-89648002D01*
X111831858Y-89652834D01*
X112008538Y-89708880D01*
X112020532Y-89711430D01*
X112164761Y-89727607D01*
X112171785Y-89728000D01*
X112252885Y-89728000D01*
X112268124Y-89723525D01*
X112269329Y-89722135D01*
X112271000Y-89714452D01*
X112271000Y-89709885D01*
X112779000Y-89709885D01*
X112783475Y-89725124D01*
X112784865Y-89726329D01*
X112792548Y-89728000D01*
X112871657Y-89728000D01*
X112877805Y-89727699D01*
X113015603Y-89714188D01*
X113027638Y-89711805D01*
X113205076Y-89658233D01*
X113216416Y-89653559D01*
X113380077Y-89566540D01*
X113390294Y-89559751D01*
X113533933Y-89442603D01*
X113542637Y-89433959D01*
X113660784Y-89291144D01*
X113667644Y-89280973D01*
X113755804Y-89117924D01*
X113760556Y-89106619D01*
X113796250Y-88991308D01*
X113796331Y-88985768D01*
X115182425Y-88985768D01*
X115214138Y-89093521D01*
X115218731Y-89104889D01*
X115304607Y-89269154D01*
X115311321Y-89279415D01*
X115427468Y-89423873D01*
X115436046Y-89432632D01*
X115578039Y-89551778D01*
X115588159Y-89558708D01*
X115750585Y-89648002D01*
X115761858Y-89652834D01*
X115938538Y-89708880D01*
X115950532Y-89711430D01*
X116094761Y-89727607D01*
X116101785Y-89728000D01*
X116432885Y-89728000D01*
X116448124Y-89723525D01*
X116449329Y-89722135D01*
X116451000Y-89714452D01*
X116451000Y-89709885D01*
X116959000Y-89709885D01*
X116963475Y-89725124D01*
X116964865Y-89726329D01*
X116972548Y-89728000D01*
X117301657Y-89728000D01*
X117307805Y-89727699D01*
X117445603Y-89714188D01*
X117457638Y-89711805D01*
X117635076Y-89658233D01*
X117646416Y-89653559D01*
X117810077Y-89566540D01*
X117820294Y-89559751D01*
X117963933Y-89442603D01*
X117972637Y-89433959D01*
X118090784Y-89291144D01*
X118097644Y-89280973D01*
X118185804Y-89117924D01*
X118190556Y-89106619D01*
X118226250Y-88991308D01*
X118226456Y-88977205D01*
X118219701Y-88974000D01*
X116977115Y-88974000D01*
X116961876Y-88978475D01*
X116960671Y-88979865D01*
X116959000Y-88987548D01*
X116959000Y-89709885D01*
X116451000Y-89709885D01*
X116451000Y-88992115D01*
X116446525Y-88976876D01*
X116445135Y-88975671D01*
X116437452Y-88974000D01*
X115197076Y-88974000D01*
X115183545Y-88977973D01*
X115182425Y-88985768D01*
X113796331Y-88985768D01*
X113796456Y-88977205D01*
X113789701Y-88974000D01*
X112797115Y-88974000D01*
X112781876Y-88978475D01*
X112780671Y-88979865D01*
X112779000Y-88987548D01*
X112779000Y-89709885D01*
X112271000Y-89709885D01*
X112271000Y-88992115D01*
X112266525Y-88976876D01*
X112265135Y-88975671D01*
X112257452Y-88974000D01*
X111267076Y-88974000D01*
X111253545Y-88977973D01*
X111252425Y-88985768D01*
X110708500Y-88985768D01*
X110708500Y-88462795D01*
X111253544Y-88462795D01*
X111260299Y-88466000D01*
X112252885Y-88466000D01*
X112268124Y-88461525D01*
X112269329Y-88460135D01*
X112271000Y-88452452D01*
X112271000Y-88447885D01*
X112779000Y-88447885D01*
X112783475Y-88463124D01*
X112784865Y-88464329D01*
X112792548Y-88466000D01*
X113782924Y-88466000D01*
X113793839Y-88462795D01*
X115183544Y-88462795D01*
X115190299Y-88466000D01*
X118212924Y-88466000D01*
X118226455Y-88462027D01*
X118227575Y-88454232D01*
X118195862Y-88346479D01*
X118191269Y-88335111D01*
X118105393Y-88170846D01*
X118098679Y-88160585D01*
X117982532Y-88016127D01*
X117973954Y-88007368D01*
X117831961Y-87888222D01*
X117821841Y-87881292D01*
X117659415Y-87791998D01*
X117648142Y-87787166D01*
X117471462Y-87731120D01*
X117459468Y-87728570D01*
X117315239Y-87712393D01*
X117308215Y-87712000D01*
X117120023Y-87712000D01*
X117051902Y-87691998D01*
X117005409Y-87638342D01*
X116995305Y-87568068D01*
X117003034Y-87539208D01*
X117009995Y-87521803D01*
X117012530Y-87515466D01*
X117013644Y-87508738D01*
X117013645Y-87508734D01*
X117040993Y-87343539D01*
X117040993Y-87343536D01*
X117042108Y-87336802D01*
X117041069Y-87316960D01*
X117032987Y-87162766D01*
X117032630Y-87155953D01*
X117009304Y-87071266D01*
X116986352Y-86987941D01*
X116984539Y-86981359D01*
X116900078Y-86821164D01*
X116895673Y-86815951D01*
X116895670Y-86815947D01*
X116787594Y-86688057D01*
X116787590Y-86688053D01*
X116783187Y-86682843D01*
X116777762Y-86678695D01*
X116644743Y-86576994D01*
X116644739Y-86576991D01*
X116639322Y-86572850D01*
X116534186Y-86523825D01*
X116481369Y-86499195D01*
X116481366Y-86499194D01*
X116475192Y-86496315D01*
X116468544Y-86494829D01*
X116468541Y-86494828D01*
X116303494Y-86457936D01*
X116303495Y-86457936D01*
X116298457Y-86456810D01*
X116292912Y-86456500D01*
X116159756Y-86456500D01*
X116024963Y-86471143D01*
X115906810Y-86510906D01*
X115859796Y-86526728D01*
X115859794Y-86526729D01*
X115853325Y-86528906D01*
X115698095Y-86622177D01*
X115693138Y-86626865D01*
X115693135Y-86626867D01*
X115638329Y-86678695D01*
X115566515Y-86746607D01*
X115562683Y-86752245D01*
X115562680Y-86752249D01*
X115511740Y-86827205D01*
X115464723Y-86896388D01*
X115397470Y-87064534D01*
X115396356Y-87071262D01*
X115396355Y-87071266D01*
X115369661Y-87232511D01*
X115367892Y-87243198D01*
X115368249Y-87250015D01*
X115368249Y-87250019D01*
X115373144Y-87343411D01*
X115377370Y-87424047D01*
X115379181Y-87430620D01*
X115379181Y-87430623D01*
X115423648Y-87592059D01*
X115425461Y-87598641D01*
X115509922Y-87758836D01*
X115514329Y-87764051D01*
X115514331Y-87764054D01*
X115515120Y-87764987D01*
X115519722Y-87770432D01*
X115520451Y-87771295D01*
X115549145Y-87836235D01*
X115538175Y-87906378D01*
X115503852Y-87950269D01*
X115446067Y-87997397D01*
X115437363Y-88006041D01*
X115319216Y-88148856D01*
X115312356Y-88159027D01*
X115224196Y-88322076D01*
X115219444Y-88333381D01*
X115183750Y-88448692D01*
X115183544Y-88462795D01*
X113793839Y-88462795D01*
X113796455Y-88462027D01*
X113797575Y-88454232D01*
X113765862Y-88346479D01*
X113761269Y-88335111D01*
X113675393Y-88170846D01*
X113668679Y-88160585D01*
X113552532Y-88016127D01*
X113543954Y-88007368D01*
X113401961Y-87888222D01*
X113391841Y-87881292D01*
X113229415Y-87791998D01*
X113218142Y-87787166D01*
X113041462Y-87731120D01*
X113029468Y-87728570D01*
X112885239Y-87712393D01*
X112878215Y-87712000D01*
X112797115Y-87712000D01*
X112781876Y-87716475D01*
X112780671Y-87717865D01*
X112779000Y-87725548D01*
X112779000Y-88447885D01*
X112271000Y-88447885D01*
X112271000Y-87730115D01*
X112266525Y-87714876D01*
X112265135Y-87713671D01*
X112257452Y-87712000D01*
X112178343Y-87712000D01*
X112172195Y-87712301D01*
X112034397Y-87725812D01*
X112022362Y-87728195D01*
X111844924Y-87781767D01*
X111833584Y-87786441D01*
X111669923Y-87873460D01*
X111659706Y-87880249D01*
X111516067Y-87997397D01*
X111507363Y-88006041D01*
X111389216Y-88148856D01*
X111382356Y-88159027D01*
X111294196Y-88322076D01*
X111289444Y-88333381D01*
X111253750Y-88448692D01*
X111253544Y-88462795D01*
X110708500Y-88462795D01*
X110708500Y-83679454D01*
X117562269Y-83679454D01*
X117563015Y-83687346D01*
X117566430Y-83723472D01*
X117566989Y-83735330D01*
X117566989Y-86121722D01*
X117566462Y-86132905D01*
X117564787Y-86140398D01*
X117565036Y-86148324D01*
X117565036Y-86148325D01*
X117566927Y-86208475D01*
X117566989Y-86212434D01*
X117566989Y-86240345D01*
X117567486Y-86244279D01*
X117567486Y-86244280D01*
X117567494Y-86244345D01*
X117568427Y-86256182D01*
X117569816Y-86300378D01*
X117575467Y-86319828D01*
X117579476Y-86339189D01*
X117582015Y-86359286D01*
X117584934Y-86366657D01*
X117584934Y-86366659D01*
X117598293Y-86400401D01*
X117602138Y-86411631D01*
X117614471Y-86454082D01*
X117618504Y-86460901D01*
X117618506Y-86460906D01*
X117624782Y-86471517D01*
X117633477Y-86489265D01*
X117640937Y-86508106D01*
X117645599Y-86514522D01*
X117645599Y-86514523D01*
X117666925Y-86543876D01*
X117673441Y-86553796D01*
X117684710Y-86572850D01*
X117695947Y-86591851D01*
X117710268Y-86606172D01*
X117723108Y-86621205D01*
X117735017Y-86637596D01*
X117741123Y-86642647D01*
X117769094Y-86665787D01*
X117777873Y-86673777D01*
X122700358Y-91596262D01*
X122734384Y-91658574D01*
X122729319Y-91729389D01*
X122685325Y-91787292D01*
X122644088Y-91817253D01*
X122644085Y-91817256D01*
X122638747Y-91821134D01*
X122634332Y-91826037D01*
X122629420Y-91830460D01*
X122628295Y-91829211D01*
X122574986Y-91862051D01*
X122541800Y-91866500D01*
X120578768Y-91866500D01*
X120567585Y-91865973D01*
X120560092Y-91864298D01*
X120552166Y-91864547D01*
X120552165Y-91864547D01*
X120492002Y-91866438D01*
X120488044Y-91866500D01*
X120460144Y-91866500D01*
X120456154Y-91867004D01*
X120444320Y-91867936D01*
X120400111Y-91869326D01*
X120392497Y-91871538D01*
X120392492Y-91871539D01*
X120380659Y-91874977D01*
X120361296Y-91878988D01*
X120341203Y-91881526D01*
X120333836Y-91884443D01*
X120333831Y-91884444D01*
X120300092Y-91897802D01*
X120288865Y-91901646D01*
X120246407Y-91913982D01*
X120239581Y-91918019D01*
X120228972Y-91924293D01*
X120211224Y-91932988D01*
X120192383Y-91940448D01*
X120185967Y-91945110D01*
X120185966Y-91945110D01*
X120156613Y-91966436D01*
X120146693Y-91972952D01*
X120115465Y-91991420D01*
X120115462Y-91991422D01*
X120108638Y-91995458D01*
X120094317Y-92009779D01*
X120079284Y-92022619D01*
X120062893Y-92034528D01*
X120057842Y-92040634D01*
X120034702Y-92068605D01*
X120026712Y-92077384D01*
X118207747Y-93896348D01*
X118199461Y-93903888D01*
X118192982Y-93908000D01*
X118187557Y-93913777D01*
X118146357Y-93957651D01*
X118143602Y-93960493D01*
X118123865Y-93980230D01*
X118121385Y-93983427D01*
X118113682Y-93992447D01*
X118083414Y-94024679D01*
X118079595Y-94031625D01*
X118079593Y-94031628D01*
X118073652Y-94042434D01*
X118062801Y-94058953D01*
X118050386Y-94074959D01*
X118047241Y-94082228D01*
X118047238Y-94082232D01*
X118032826Y-94115537D01*
X118027609Y-94126187D01*
X118006305Y-94164940D01*
X118001479Y-94183738D01*
X118001267Y-94184562D01*
X117994863Y-94203266D01*
X117986819Y-94221855D01*
X117985580Y-94229678D01*
X117985577Y-94229688D01*
X117979901Y-94265524D01*
X117977495Y-94277144D01*
X117975402Y-94285296D01*
X117966500Y-94319970D01*
X117966500Y-94340224D01*
X117964949Y-94359934D01*
X117961780Y-94379943D01*
X117962526Y-94387835D01*
X117965941Y-94423961D01*
X117966500Y-94435819D01*
X117966500Y-94905147D01*
X117946498Y-94973268D01*
X117919795Y-95003067D01*
X117888453Y-95028447D01*
X117761854Y-95180396D01*
X117667178Y-95354041D01*
X117608035Y-95542768D01*
X117607370Y-95548891D01*
X117607369Y-95548895D01*
X117587341Y-95733263D01*
X117586676Y-95739388D01*
X117603913Y-95936413D01*
X117605632Y-95942330D01*
X117605633Y-95942335D01*
X117643614Y-96073064D01*
X117659091Y-96126336D01*
X117750108Y-96301926D01*
X117846738Y-96422973D01*
X117849231Y-96425466D01*
X118093150Y-96669384D01*
X118102252Y-96679527D01*
X118125968Y-96709025D01*
X118164456Y-96741320D01*
X118168075Y-96744478D01*
X118169890Y-96746124D01*
X118172075Y-96748309D01*
X118174455Y-96750264D01*
X118174465Y-96750273D01*
X118205236Y-96775549D01*
X118206251Y-96776391D01*
X118216393Y-96784901D01*
X118277474Y-96836154D01*
X118282148Y-96838723D01*
X118286261Y-96842102D01*
X118291698Y-96845017D01*
X118291699Y-96845018D01*
X118368047Y-96885955D01*
X118369177Y-96886568D01*
X118450787Y-96931433D01*
X118455869Y-96933045D01*
X118460563Y-96935562D01*
X118549531Y-96962762D01*
X118550559Y-96963082D01*
X118639306Y-96991235D01*
X118644602Y-96991829D01*
X118649698Y-96993387D01*
X118742257Y-97002790D01*
X118743393Y-97002911D01*
X118777008Y-97006681D01*
X118789730Y-97008108D01*
X118789734Y-97008108D01*
X118793227Y-97008500D01*
X118796754Y-97008500D01*
X118797739Y-97008555D01*
X118803419Y-97009002D01*
X118832825Y-97011989D01*
X118840337Y-97012752D01*
X118840339Y-97012752D01*
X118846462Y-97013374D01*
X118892108Y-97009059D01*
X118903967Y-97008500D01*
X137663143Y-97008500D01*
X137731264Y-97028502D01*
X137777757Y-97082158D01*
X137787861Y-97152432D01*
X137765138Y-97208416D01*
X137760960Y-97213056D01*
X137665473Y-97378444D01*
X137606458Y-97560072D01*
X137605768Y-97566633D01*
X137605768Y-97566635D01*
X137588471Y-97731206D01*
X137586496Y-97750000D01*
X137592403Y-97806197D01*
X137594624Y-97827329D01*
X137581852Y-97897167D01*
X137533350Y-97949014D01*
X137469314Y-97966500D01*
X137458200Y-97966500D01*
X137390079Y-97946498D01*
X137370853Y-97930157D01*
X137370580Y-97930460D01*
X137365668Y-97926037D01*
X137361253Y-97921134D01*
X137206752Y-97808882D01*
X137200724Y-97806198D01*
X137200722Y-97806197D01*
X137038319Y-97733891D01*
X137038318Y-97733891D01*
X137032288Y-97731206D01*
X136938887Y-97711353D01*
X136851944Y-97692872D01*
X136851939Y-97692872D01*
X136845487Y-97691500D01*
X136654513Y-97691500D01*
X136648061Y-97692872D01*
X136648056Y-97692872D01*
X136561113Y-97711353D01*
X136467712Y-97731206D01*
X136461682Y-97733891D01*
X136461681Y-97733891D01*
X136299278Y-97806197D01*
X136299276Y-97806198D01*
X136293248Y-97808882D01*
X136138747Y-97921134D01*
X136134326Y-97926044D01*
X136134325Y-97926045D01*
X136051936Y-98017548D01*
X136010960Y-98063056D01*
X135915473Y-98228444D01*
X135856458Y-98410072D01*
X135836496Y-98600000D01*
X135856458Y-98789928D01*
X135915473Y-98971556D01*
X136010960Y-99136944D01*
X136015378Y-99141851D01*
X136015379Y-99141852D01*
X136108120Y-99244851D01*
X136138747Y-99278866D01*
X136293248Y-99391118D01*
X136299276Y-99393802D01*
X136299278Y-99393803D01*
X136461681Y-99466109D01*
X136467712Y-99468794D01*
X136561112Y-99488647D01*
X136648056Y-99507128D01*
X136648061Y-99507128D01*
X136654513Y-99508500D01*
X136845487Y-99508500D01*
X136851939Y-99507128D01*
X136851944Y-99507128D01*
X136938888Y-99488647D01*
X137032288Y-99468794D01*
X137038319Y-99466109D01*
X137200722Y-99393803D01*
X137200724Y-99393802D01*
X137206752Y-99391118D01*
X137361253Y-99278866D01*
X137365668Y-99273963D01*
X137370580Y-99269540D01*
X137371705Y-99270789D01*
X137425014Y-99237949D01*
X137458200Y-99233500D01*
X143954850Y-99233500D01*
X144022971Y-99253502D01*
X144043945Y-99270405D01*
X149018502Y-104244963D01*
X149052528Y-104307275D01*
X149053396Y-104356479D01*
X149037821Y-104442608D01*
X149037820Y-104442616D01*
X149037083Y-104446692D01*
X149035944Y-104470844D01*
X149035944Y-104932890D01*
X149039869Y-104979142D01*
X149049407Y-105091550D01*
X149050524Y-105104720D01*
X149051862Y-105109875D01*
X149051863Y-105109881D01*
X149107101Y-105322703D01*
X149108443Y-105327872D01*
X149203132Y-105538075D01*
X149331885Y-105729319D01*
X149491020Y-105896135D01*
X149675986Y-106033754D01*
X149680737Y-106036170D01*
X149680741Y-106036172D01*
X149743148Y-106067901D01*
X149881495Y-106138240D01*
X149886589Y-106139822D01*
X149886592Y-106139823D01*
X150086464Y-106201885D01*
X150101671Y-106206607D01*
X150106960Y-106207308D01*
X150324933Y-106236198D01*
X150324938Y-106236198D01*
X150330218Y-106236898D01*
X150335547Y-106236698D01*
X150335549Y-106236698D01*
X150445410Y-106232574D01*
X150560602Y-106228249D01*
X150565912Y-106227135D01*
X150781016Y-106182002D01*
X150786235Y-106180907D01*
X150791194Y-106178949D01*
X150791196Y-106178948D01*
X150995700Y-106098185D01*
X150995702Y-106098184D01*
X151000665Y-106096224D01*
X151005972Y-106093004D01*
X151193201Y-105979390D01*
X151193200Y-105979390D01*
X151197761Y-105976623D01*
X151250669Y-105930712D01*
X151367856Y-105829023D01*
X151367858Y-105829021D01*
X151371889Y-105825523D01*
X151395944Y-105796186D01*
X151401450Y-105789471D01*
X151460110Y-105749476D01*
X151531080Y-105747545D01*
X151591828Y-105784290D01*
X151606028Y-105803059D01*
X151692507Y-105942807D01*
X151701543Y-105954208D01*
X151816273Y-106068739D01*
X151827684Y-106077751D01*
X151965687Y-106162816D01*
X151978868Y-106168963D01*
X152133154Y-106220138D01*
X152146530Y-106223005D01*
X152240882Y-106232672D01*
X152247298Y-106233000D01*
X152622329Y-106233000D01*
X152637568Y-106228525D01*
X152638773Y-106227135D01*
X152640444Y-106219452D01*
X152640444Y-106214884D01*
X153148444Y-106214884D01*
X153152919Y-106230123D01*
X153154309Y-106231328D01*
X153161992Y-106232999D01*
X153541539Y-106232999D01*
X153548058Y-106232662D01*
X153643650Y-106222743D01*
X153657044Y-106219851D01*
X153811228Y-106168412D01*
X153824406Y-106162239D01*
X153962251Y-106076937D01*
X153973652Y-106067901D01*
X154088183Y-105953171D01*
X154097195Y-105941760D01*
X154182260Y-105803757D01*
X154188407Y-105790576D01*
X154239582Y-105636290D01*
X154242449Y-105622914D01*
X154252116Y-105528562D01*
X154252444Y-105522146D01*
X154252444Y-104997115D01*
X154247969Y-104981876D01*
X154246579Y-104980671D01*
X154238896Y-104979000D01*
X153166559Y-104979000D01*
X153151320Y-104983475D01*
X153150115Y-104984865D01*
X153148444Y-104992548D01*
X153148444Y-106214884D01*
X152640444Y-106214884D01*
X152640444Y-104932890D01*
X158413721Y-104932890D01*
X158417646Y-104979142D01*
X158427184Y-105091550D01*
X158428301Y-105104720D01*
X158429639Y-105109875D01*
X158429640Y-105109881D01*
X158484878Y-105322703D01*
X158486220Y-105327872D01*
X158580909Y-105538075D01*
X158709662Y-105729319D01*
X158868797Y-105896135D01*
X159053763Y-106033754D01*
X159058514Y-106036170D01*
X159058518Y-106036172D01*
X159120925Y-106067901D01*
X159259272Y-106138240D01*
X159264366Y-106139822D01*
X159264369Y-106139823D01*
X159464241Y-106201885D01*
X159479448Y-106206607D01*
X159484737Y-106207308D01*
X159702710Y-106236198D01*
X159702715Y-106236198D01*
X159707995Y-106236898D01*
X159713324Y-106236698D01*
X159713326Y-106236698D01*
X159823187Y-106232574D01*
X159938379Y-106228249D01*
X159943689Y-106227135D01*
X160158793Y-106182002D01*
X160164012Y-106180907D01*
X160168971Y-106178949D01*
X160168973Y-106178948D01*
X160373477Y-106098185D01*
X160373479Y-106098184D01*
X160378442Y-106096224D01*
X160383749Y-106093004D01*
X160570978Y-105979390D01*
X160570977Y-105979390D01*
X160575538Y-105976623D01*
X160628446Y-105930712D01*
X160745633Y-105829023D01*
X160745635Y-105829021D01*
X160749666Y-105825523D01*
X160773721Y-105796186D01*
X160779227Y-105789471D01*
X160837887Y-105749476D01*
X160908857Y-105747545D01*
X160969605Y-105784290D01*
X160983805Y-105803059D01*
X161070284Y-105942807D01*
X161079320Y-105954208D01*
X161194050Y-106068739D01*
X161205461Y-106077751D01*
X161343464Y-106162816D01*
X161356645Y-106168963D01*
X161510931Y-106220138D01*
X161524307Y-106223005D01*
X161618659Y-106232672D01*
X161625075Y-106233000D01*
X162000106Y-106233000D01*
X162015345Y-106228525D01*
X162016550Y-106227135D01*
X162018221Y-106219452D01*
X162018221Y-106214884D01*
X162526221Y-106214884D01*
X162530696Y-106230123D01*
X162532086Y-106231328D01*
X162539769Y-106232999D01*
X162919316Y-106232999D01*
X162925835Y-106232662D01*
X163021427Y-106222743D01*
X163034821Y-106219851D01*
X163189005Y-106168412D01*
X163202183Y-106162239D01*
X163340028Y-106076937D01*
X163351429Y-106067901D01*
X163465960Y-105953171D01*
X163474972Y-105941760D01*
X163560037Y-105803757D01*
X163566184Y-105790576D01*
X163617359Y-105636290D01*
X163620226Y-105622914D01*
X163629893Y-105528562D01*
X163630221Y-105522146D01*
X163630221Y-104997115D01*
X163625746Y-104981876D01*
X163624356Y-104980671D01*
X163616673Y-104979000D01*
X162544336Y-104979000D01*
X162529097Y-104983475D01*
X162527892Y-104984865D01*
X162526221Y-104992548D01*
X162526221Y-106214884D01*
X162018221Y-106214884D01*
X162018221Y-104932890D01*
X167791500Y-104932890D01*
X167795425Y-104979142D01*
X167804963Y-105091550D01*
X167806080Y-105104720D01*
X167807418Y-105109875D01*
X167807419Y-105109881D01*
X167862657Y-105322703D01*
X167863999Y-105327872D01*
X167958688Y-105538075D01*
X168087441Y-105729319D01*
X168246576Y-105896135D01*
X168431542Y-106033754D01*
X168436293Y-106036170D01*
X168436297Y-106036172D01*
X168498704Y-106067901D01*
X168637051Y-106138240D01*
X168642145Y-106139822D01*
X168642148Y-106139823D01*
X168842020Y-106201885D01*
X168857227Y-106206607D01*
X168862516Y-106207308D01*
X169080489Y-106236198D01*
X169080494Y-106236198D01*
X169085774Y-106236898D01*
X169091103Y-106236698D01*
X169091105Y-106236698D01*
X169200966Y-106232574D01*
X169316158Y-106228249D01*
X169321468Y-106227135D01*
X169536572Y-106182002D01*
X169541791Y-106180907D01*
X169546750Y-106178949D01*
X169546752Y-106178948D01*
X169751256Y-106098185D01*
X169751258Y-106098184D01*
X169756221Y-106096224D01*
X169761528Y-106093004D01*
X169948757Y-105979390D01*
X169948756Y-105979390D01*
X169953317Y-105976623D01*
X170006225Y-105930712D01*
X170123412Y-105829023D01*
X170123414Y-105829021D01*
X170127445Y-105825523D01*
X170151500Y-105796186D01*
X170157006Y-105789471D01*
X170215666Y-105749476D01*
X170286636Y-105747545D01*
X170347384Y-105784290D01*
X170361584Y-105803059D01*
X170448063Y-105942807D01*
X170457099Y-105954208D01*
X170571829Y-106068739D01*
X170583240Y-106077751D01*
X170721243Y-106162816D01*
X170734424Y-106168963D01*
X170888710Y-106220138D01*
X170902086Y-106223005D01*
X170996438Y-106232672D01*
X171002854Y-106233000D01*
X171377885Y-106233000D01*
X171393124Y-106228525D01*
X171394329Y-106227135D01*
X171396000Y-106219452D01*
X171396000Y-106214884D01*
X171904000Y-106214884D01*
X171908475Y-106230123D01*
X171909865Y-106231328D01*
X171917548Y-106232999D01*
X172297095Y-106232999D01*
X172303614Y-106232662D01*
X172399206Y-106222743D01*
X172412600Y-106219851D01*
X172566784Y-106168412D01*
X172579962Y-106162239D01*
X172717807Y-106076937D01*
X172729208Y-106067901D01*
X172843739Y-105953171D01*
X172852751Y-105941760D01*
X172937816Y-105803757D01*
X172943963Y-105790576D01*
X172995138Y-105636290D01*
X172998005Y-105622914D01*
X173007672Y-105528562D01*
X173008000Y-105522146D01*
X173008000Y-104997115D01*
X173003525Y-104981876D01*
X173002135Y-104980671D01*
X172994452Y-104979000D01*
X171922115Y-104979000D01*
X171906876Y-104983475D01*
X171905671Y-104984865D01*
X171904000Y-104992548D01*
X171904000Y-106214884D01*
X171396000Y-106214884D01*
X171396000Y-104452885D01*
X171904000Y-104452885D01*
X171908475Y-104468124D01*
X171909865Y-104469329D01*
X171917548Y-104471000D01*
X172989884Y-104471000D01*
X173005123Y-104466525D01*
X173006328Y-104465135D01*
X173007999Y-104457452D01*
X173007999Y-104132703D01*
X176690743Y-104132703D01*
X176728268Y-104417734D01*
X176804129Y-104695036D01*
X176805813Y-104698984D01*
X176893427Y-104904390D01*
X176916923Y-104959476D01*
X176954784Y-105022737D01*
X177033014Y-105153449D01*
X177064561Y-105206161D01*
X177244313Y-105430528D01*
X177261397Y-105446740D01*
X177447046Y-105622914D01*
X177452851Y-105628423D01*
X177686317Y-105796186D01*
X177690112Y-105798195D01*
X177690113Y-105798196D01*
X177711869Y-105809715D01*
X177940392Y-105930712D01*
X178210373Y-106029511D01*
X178491264Y-106090755D01*
X178519841Y-106093004D01*
X178714282Y-106108307D01*
X178714291Y-106108307D01*
X178716739Y-106108500D01*
X178872271Y-106108500D01*
X178874407Y-106108354D01*
X178874418Y-106108354D01*
X179082548Y-106094165D01*
X179082554Y-106094164D01*
X179086825Y-106093873D01*
X179091020Y-106093004D01*
X179091022Y-106093004D01*
X179227584Y-106064723D01*
X179368342Y-106035574D01*
X179639343Y-105939607D01*
X179894812Y-105807750D01*
X179898313Y-105805289D01*
X179898317Y-105805287D01*
X180012707Y-105724892D01*
X180130023Y-105642441D01*
X180340622Y-105446740D01*
X180522713Y-105224268D01*
X180672927Y-104979142D01*
X180706956Y-104901623D01*
X180786757Y-104719830D01*
X180788483Y-104715898D01*
X180867244Y-104439406D01*
X180907751Y-104154784D01*
X180907778Y-104149792D01*
X180909235Y-103871583D01*
X180909235Y-103871576D01*
X180909257Y-103867297D01*
X180900217Y-103798627D01*
X180886601Y-103695207D01*
X180871732Y-103582266D01*
X180795871Y-103304964D01*
X180764130Y-103230548D01*
X180684763Y-103044476D01*
X180684761Y-103044472D01*
X180683077Y-103040524D01*
X180567194Y-102846897D01*
X180537643Y-102797521D01*
X180537640Y-102797517D01*
X180535439Y-102793839D01*
X180355687Y-102569472D01*
X180147149Y-102371577D01*
X179913683Y-102203814D01*
X179909808Y-102201762D01*
X179868654Y-102179972D01*
X179659608Y-102069288D01*
X179389627Y-101970489D01*
X179108736Y-101909245D01*
X179077685Y-101906801D01*
X178885718Y-101891693D01*
X178885709Y-101891693D01*
X178883261Y-101891500D01*
X178727729Y-101891500D01*
X178725593Y-101891646D01*
X178725582Y-101891646D01*
X178517452Y-101905835D01*
X178517446Y-101905836D01*
X178513175Y-101906127D01*
X178508980Y-101906996D01*
X178508978Y-101906996D01*
X178372416Y-101935277D01*
X178231658Y-101964426D01*
X177960657Y-102060393D01*
X177705188Y-102192250D01*
X177701687Y-102194711D01*
X177701683Y-102194713D01*
X177646057Y-102233808D01*
X177469977Y-102357559D01*
X177391597Y-102430394D01*
X177281073Y-102533100D01*
X177259378Y-102553260D01*
X177077287Y-102775732D01*
X176927073Y-103020858D01*
X176925347Y-103024791D01*
X176925346Y-103024792D01*
X176840973Y-103217000D01*
X176811517Y-103284102D01*
X176732756Y-103560594D01*
X176692249Y-103845216D01*
X176692227Y-103849505D01*
X176692226Y-103849512D01*
X176690798Y-104122128D01*
X176690743Y-104132703D01*
X173007999Y-104132703D01*
X173007999Y-103927905D01*
X173007662Y-103921386D01*
X172997743Y-103825794D01*
X172994851Y-103812400D01*
X172943412Y-103658216D01*
X172937239Y-103645038D01*
X172851937Y-103507193D01*
X172842901Y-103495792D01*
X172728171Y-103381261D01*
X172716760Y-103372249D01*
X172578757Y-103287184D01*
X172565576Y-103281037D01*
X172411290Y-103229862D01*
X172397914Y-103226995D01*
X172303562Y-103217328D01*
X172297145Y-103217000D01*
X171922115Y-103217000D01*
X171906876Y-103221475D01*
X171905671Y-103222865D01*
X171904000Y-103230548D01*
X171904000Y-104452885D01*
X171396000Y-104452885D01*
X171396000Y-103235116D01*
X171391525Y-103219877D01*
X171390135Y-103218672D01*
X171382452Y-103217001D01*
X171002905Y-103217001D01*
X170996386Y-103217338D01*
X170900794Y-103227257D01*
X170887400Y-103230149D01*
X170733216Y-103281588D01*
X170720038Y-103287761D01*
X170582193Y-103373063D01*
X170570792Y-103382099D01*
X170456261Y-103496829D01*
X170447247Y-103508243D01*
X170361277Y-103647713D01*
X170308505Y-103695207D01*
X170238434Y-103706631D01*
X170173310Y-103678357D01*
X170162847Y-103668570D01*
X170142951Y-103647713D01*
X170053424Y-103553865D01*
X169868458Y-103416246D01*
X169863707Y-103413830D01*
X169863703Y-103413828D01*
X169741731Y-103351815D01*
X169662949Y-103311760D01*
X169657855Y-103310178D01*
X169657852Y-103310177D01*
X169447871Y-103244976D01*
X169442773Y-103243393D01*
X169437484Y-103242692D01*
X169219511Y-103213802D01*
X169219506Y-103213802D01*
X169214226Y-103213102D01*
X169208897Y-103213302D01*
X169208895Y-103213302D01*
X169110368Y-103217001D01*
X168983842Y-103221751D01*
X168978623Y-103222846D01*
X168958849Y-103226995D01*
X168758209Y-103269093D01*
X168753250Y-103271051D01*
X168753248Y-103271052D01*
X168548744Y-103351815D01*
X168548742Y-103351816D01*
X168543779Y-103353776D01*
X168539220Y-103356543D01*
X168539217Y-103356544D01*
X168440832Y-103416246D01*
X168346683Y-103473377D01*
X168342653Y-103476874D01*
X168241280Y-103564841D01*
X168172555Y-103624477D01*
X168169168Y-103628608D01*
X168029760Y-103798627D01*
X168029756Y-103798633D01*
X168026376Y-103802755D01*
X168023737Y-103807391D01*
X168023735Y-103807394D01*
X167987197Y-103871583D01*
X167912325Y-104003114D01*
X167833663Y-104219825D01*
X167832714Y-104225074D01*
X167832713Y-104225077D01*
X167793377Y-104442608D01*
X167793376Y-104442615D01*
X167792639Y-104446692D01*
X167791500Y-104470844D01*
X167791500Y-104932890D01*
X162018221Y-104932890D01*
X162018221Y-104452885D01*
X162526221Y-104452885D01*
X162530696Y-104468124D01*
X162532086Y-104469329D01*
X162539769Y-104471000D01*
X163612105Y-104471000D01*
X163627344Y-104466525D01*
X163628549Y-104465135D01*
X163630220Y-104457452D01*
X163630220Y-103927905D01*
X163629883Y-103921386D01*
X163619964Y-103825794D01*
X163617072Y-103812400D01*
X163565633Y-103658216D01*
X163559460Y-103645038D01*
X163474158Y-103507193D01*
X163465122Y-103495792D01*
X163350392Y-103381261D01*
X163338981Y-103372249D01*
X163200978Y-103287184D01*
X163187797Y-103281037D01*
X163033511Y-103229862D01*
X163020135Y-103226995D01*
X162925783Y-103217328D01*
X162919366Y-103217000D01*
X162544336Y-103217000D01*
X162529097Y-103221475D01*
X162527892Y-103222865D01*
X162526221Y-103230548D01*
X162526221Y-104452885D01*
X162018221Y-104452885D01*
X162018221Y-103235116D01*
X162013746Y-103219877D01*
X162012356Y-103218672D01*
X162004673Y-103217001D01*
X161625126Y-103217001D01*
X161618607Y-103217338D01*
X161523015Y-103227257D01*
X161509621Y-103230149D01*
X161355437Y-103281588D01*
X161342259Y-103287761D01*
X161204414Y-103373063D01*
X161193013Y-103382099D01*
X161078482Y-103496829D01*
X161069468Y-103508243D01*
X160983498Y-103647713D01*
X160930726Y-103695207D01*
X160860655Y-103706631D01*
X160795531Y-103678357D01*
X160785068Y-103668570D01*
X160765172Y-103647713D01*
X160675645Y-103553865D01*
X160490679Y-103416246D01*
X160485928Y-103413830D01*
X160485924Y-103413828D01*
X160363952Y-103351815D01*
X160285170Y-103311760D01*
X160280076Y-103310178D01*
X160280073Y-103310177D01*
X160070092Y-103244976D01*
X160064994Y-103243393D01*
X160059705Y-103242692D01*
X159841732Y-103213802D01*
X159841727Y-103213802D01*
X159836447Y-103213102D01*
X159831118Y-103213302D01*
X159831116Y-103213302D01*
X159732589Y-103217001D01*
X159606063Y-103221751D01*
X159600844Y-103222846D01*
X159581070Y-103226995D01*
X159380430Y-103269093D01*
X159375471Y-103271051D01*
X159375469Y-103271052D01*
X159170965Y-103351815D01*
X159170963Y-103351816D01*
X159166000Y-103353776D01*
X159161441Y-103356543D01*
X159161438Y-103356544D01*
X159063053Y-103416246D01*
X158968904Y-103473377D01*
X158964874Y-103476874D01*
X158863501Y-103564841D01*
X158794776Y-103624477D01*
X158791389Y-103628608D01*
X158651981Y-103798627D01*
X158651977Y-103798633D01*
X158648597Y-103802755D01*
X158645958Y-103807391D01*
X158645956Y-103807394D01*
X158609418Y-103871583D01*
X158534546Y-104003114D01*
X158455884Y-104219825D01*
X158454935Y-104225074D01*
X158454934Y-104225077D01*
X158415598Y-104442608D01*
X158415597Y-104442615D01*
X158414860Y-104446692D01*
X158413721Y-104470844D01*
X158413721Y-104932890D01*
X152640444Y-104932890D01*
X152640444Y-104452885D01*
X153148444Y-104452885D01*
X153152919Y-104468124D01*
X153154309Y-104469329D01*
X153161992Y-104471000D01*
X154234328Y-104471000D01*
X154249567Y-104466525D01*
X154250772Y-104465135D01*
X154252443Y-104457452D01*
X154252443Y-103927905D01*
X154252106Y-103921386D01*
X154242187Y-103825794D01*
X154239295Y-103812400D01*
X154187856Y-103658216D01*
X154181683Y-103645038D01*
X154096381Y-103507193D01*
X154087345Y-103495792D01*
X153972615Y-103381261D01*
X153961204Y-103372249D01*
X153823201Y-103287184D01*
X153810020Y-103281037D01*
X153655734Y-103229862D01*
X153642358Y-103226995D01*
X153548006Y-103217328D01*
X153541589Y-103217000D01*
X153166559Y-103217000D01*
X153151320Y-103221475D01*
X153150115Y-103222865D01*
X153148444Y-103230548D01*
X153148444Y-104452885D01*
X152640444Y-104452885D01*
X152640444Y-103235116D01*
X152635969Y-103219877D01*
X152634579Y-103218672D01*
X152626896Y-103217001D01*
X152247349Y-103217001D01*
X152240830Y-103217338D01*
X152145238Y-103227257D01*
X152131844Y-103230149D01*
X151977660Y-103281588D01*
X151964482Y-103287761D01*
X151826637Y-103373063D01*
X151815236Y-103382099D01*
X151700705Y-103496829D01*
X151691691Y-103508243D01*
X151605721Y-103647713D01*
X151552949Y-103695207D01*
X151482878Y-103706631D01*
X151417754Y-103678357D01*
X151407291Y-103668570D01*
X151387395Y-103647713D01*
X151297868Y-103553865D01*
X151112902Y-103416246D01*
X151108151Y-103413830D01*
X151108147Y-103413828D01*
X150986175Y-103351815D01*
X150907393Y-103311760D01*
X150902299Y-103310178D01*
X150902296Y-103310177D01*
X150692315Y-103244976D01*
X150687217Y-103243393D01*
X150681928Y-103242692D01*
X150463955Y-103213802D01*
X150463950Y-103213802D01*
X150458670Y-103213102D01*
X150453341Y-103213302D01*
X150453339Y-103213302D01*
X150354812Y-103217001D01*
X150228286Y-103221751D01*
X150223067Y-103222846D01*
X150203293Y-103226995D01*
X150002653Y-103269093D01*
X149958970Y-103286344D01*
X149888267Y-103292762D01*
X149823595Y-103258247D01*
X145163944Y-98598595D01*
X145129918Y-98536283D01*
X145134983Y-98465468D01*
X145177530Y-98408632D01*
X145244050Y-98383821D01*
X145253039Y-98383500D01*
X149146361Y-98383500D01*
X149214482Y-98403502D01*
X149261243Y-98457750D01*
X149308688Y-98563075D01*
X149437441Y-98754319D01*
X149441120Y-98758176D01*
X149441122Y-98758178D01*
X149471410Y-98789928D01*
X149596576Y-98921135D01*
X149781542Y-99058754D01*
X149786293Y-99061170D01*
X149786297Y-99061172D01*
X149848704Y-99092901D01*
X149987051Y-99163240D01*
X149992145Y-99164822D01*
X149992148Y-99164823D01*
X150192020Y-99226885D01*
X150207227Y-99231607D01*
X150212516Y-99232308D01*
X150430489Y-99261198D01*
X150430494Y-99261198D01*
X150435774Y-99261898D01*
X150441103Y-99261698D01*
X150441105Y-99261698D01*
X150550966Y-99257573D01*
X150666158Y-99253249D01*
X150671468Y-99252135D01*
X150886572Y-99207002D01*
X150891791Y-99205907D01*
X150896750Y-99203949D01*
X150896752Y-99203948D01*
X151101256Y-99123185D01*
X151101258Y-99123184D01*
X151106221Y-99121224D01*
X151205184Y-99061172D01*
X151298757Y-99004390D01*
X151298756Y-99004390D01*
X151303317Y-99001623D01*
X151345209Y-98965271D01*
X151473412Y-98854023D01*
X151473414Y-98854021D01*
X151477445Y-98850523D01*
X151507006Y-98814471D01*
X151565666Y-98774476D01*
X151636636Y-98772545D01*
X151697384Y-98809290D01*
X151711584Y-98828059D01*
X151798063Y-98967807D01*
X151807099Y-98979208D01*
X151921829Y-99093739D01*
X151933240Y-99102751D01*
X152071243Y-99187816D01*
X152084424Y-99193963D01*
X152238710Y-99245138D01*
X152252086Y-99248005D01*
X152346438Y-99257672D01*
X152352854Y-99258000D01*
X152727885Y-99258000D01*
X152743124Y-99253525D01*
X152744329Y-99252135D01*
X152746000Y-99244452D01*
X152746000Y-99239884D01*
X153254000Y-99239884D01*
X153258475Y-99255123D01*
X153259865Y-99256328D01*
X153267548Y-99257999D01*
X153647095Y-99257999D01*
X153653614Y-99257662D01*
X153749206Y-99247743D01*
X153762600Y-99244851D01*
X153916784Y-99193412D01*
X153929962Y-99187239D01*
X154067807Y-99101937D01*
X154079208Y-99092901D01*
X154193739Y-98978171D01*
X154202751Y-98966760D01*
X154287816Y-98828757D01*
X154293963Y-98815576D01*
X154345138Y-98661290D01*
X154348005Y-98647914D01*
X154357672Y-98553562D01*
X154358000Y-98547146D01*
X154358000Y-98022115D01*
X154353525Y-98006876D01*
X154352135Y-98005671D01*
X154344452Y-98004000D01*
X153272115Y-98004000D01*
X153256876Y-98008475D01*
X153255671Y-98009865D01*
X153254000Y-98017548D01*
X153254000Y-99239884D01*
X152746000Y-99239884D01*
X152746000Y-97477885D01*
X153254000Y-97477885D01*
X153258475Y-97493124D01*
X153259865Y-97494329D01*
X153267548Y-97496000D01*
X154339884Y-97496000D01*
X154355123Y-97491525D01*
X154356328Y-97490135D01*
X154357999Y-97482452D01*
X154357999Y-96952905D01*
X154357662Y-96946386D01*
X154347743Y-96850794D01*
X154344851Y-96837400D01*
X154293412Y-96683216D01*
X154287239Y-96670038D01*
X154201937Y-96532193D01*
X154192901Y-96520792D01*
X154078171Y-96406261D01*
X154066760Y-96397249D01*
X153928757Y-96312184D01*
X153915576Y-96306037D01*
X153761290Y-96254862D01*
X153747914Y-96251995D01*
X153653562Y-96242328D01*
X153647145Y-96242000D01*
X153272115Y-96242000D01*
X153256876Y-96246475D01*
X153255671Y-96247865D01*
X153254000Y-96255548D01*
X153254000Y-97477885D01*
X152746000Y-97477885D01*
X152746000Y-96260116D01*
X152741525Y-96244877D01*
X152740135Y-96243672D01*
X152732452Y-96242001D01*
X152352905Y-96242001D01*
X152346386Y-96242338D01*
X152250794Y-96252257D01*
X152237400Y-96255149D01*
X152083216Y-96306588D01*
X152070038Y-96312761D01*
X151932193Y-96398063D01*
X151920792Y-96407099D01*
X151806261Y-96521829D01*
X151797247Y-96533243D01*
X151711277Y-96672713D01*
X151658505Y-96720207D01*
X151588434Y-96731631D01*
X151523310Y-96703357D01*
X151512847Y-96693570D01*
X151499105Y-96679164D01*
X151403424Y-96578865D01*
X151218458Y-96441246D01*
X151213707Y-96438830D01*
X151213703Y-96438828D01*
X151091731Y-96376815D01*
X151012949Y-96336760D01*
X151007855Y-96335178D01*
X151007852Y-96335177D01*
X150797871Y-96269976D01*
X150792773Y-96268393D01*
X150787484Y-96267692D01*
X150569511Y-96238802D01*
X150569506Y-96238802D01*
X150564226Y-96238102D01*
X150558897Y-96238302D01*
X150558895Y-96238302D01*
X150460368Y-96242001D01*
X150333842Y-96246751D01*
X150328623Y-96247846D01*
X150308849Y-96251995D01*
X150108209Y-96294093D01*
X150103250Y-96296051D01*
X150103248Y-96296052D01*
X149898744Y-96376815D01*
X149898742Y-96376816D01*
X149893779Y-96378776D01*
X149889220Y-96381543D01*
X149889217Y-96381544D01*
X149790832Y-96441246D01*
X149696683Y-96498377D01*
X149692653Y-96501874D01*
X149599484Y-96582722D01*
X149522555Y-96649477D01*
X149519168Y-96653608D01*
X149379760Y-96823627D01*
X149379756Y-96823633D01*
X149376376Y-96827755D01*
X149373737Y-96832391D01*
X149373735Y-96832394D01*
X149315076Y-96935444D01*
X149262325Y-97028114D01*
X149260501Y-97033139D01*
X149260371Y-97033496D01*
X149260276Y-97033626D01*
X149258266Y-97037975D01*
X149257380Y-97037566D01*
X149218324Y-97090702D01*
X149152024Y-97116095D01*
X149141934Y-97116500D01*
X143804460Y-97116500D01*
X143736339Y-97096498D01*
X143689846Y-97042842D01*
X143679742Y-96972568D01*
X143709236Y-96907988D01*
X143746474Y-96878636D01*
X143796453Y-96852729D01*
X143801926Y-96849892D01*
X143806089Y-96846569D01*
X143810796Y-96844066D01*
X143882918Y-96785245D01*
X143883774Y-96784554D01*
X143922973Y-96753262D01*
X143925477Y-96750758D01*
X143926195Y-96750116D01*
X143930528Y-96746415D01*
X143964062Y-96719065D01*
X143993288Y-96683737D01*
X144001277Y-96674958D01*
X146130829Y-94545405D01*
X146193141Y-94511380D01*
X146219924Y-94508500D01*
X152688157Y-94508500D01*
X152701764Y-94509237D01*
X152733262Y-94512659D01*
X152733267Y-94512659D01*
X152739388Y-94513324D01*
X152765638Y-94511027D01*
X152789388Y-94508950D01*
X152794214Y-94508621D01*
X152796686Y-94508500D01*
X152799769Y-94508500D01*
X152811738Y-94507326D01*
X152842506Y-94504310D01*
X152843819Y-94504188D01*
X152888084Y-94500315D01*
X152936413Y-94496087D01*
X152941532Y-94494600D01*
X152946833Y-94494080D01*
X153035834Y-94467209D01*
X153036967Y-94466874D01*
X153120414Y-94442630D01*
X153120418Y-94442628D01*
X153126336Y-94440909D01*
X153131068Y-94438456D01*
X153136169Y-94436916D01*
X153149412Y-94429875D01*
X153218260Y-94393269D01*
X153219426Y-94392657D01*
X153296453Y-94352729D01*
X153301926Y-94349892D01*
X153306089Y-94346569D01*
X153310796Y-94344066D01*
X153382918Y-94285245D01*
X153383774Y-94284554D01*
X153422973Y-94253262D01*
X153425477Y-94250758D01*
X153426195Y-94250116D01*
X153430528Y-94246415D01*
X153464062Y-94219065D01*
X153493288Y-94183737D01*
X153501277Y-94174958D01*
X166431602Y-81244633D01*
X166493914Y-81210607D01*
X166564729Y-81215672D01*
X166621565Y-81258219D01*
X166640530Y-81294791D01*
X166658060Y-81348742D01*
X166660088Y-81419710D01*
X166627322Y-81476774D01*
X160883236Y-87220859D01*
X160874950Y-87228399D01*
X160868471Y-87232511D01*
X160863046Y-87238288D01*
X160821846Y-87282162D01*
X160819091Y-87285004D01*
X160799354Y-87304741D01*
X160796874Y-87307938D01*
X160789171Y-87316958D01*
X160758903Y-87349190D01*
X160755084Y-87356136D01*
X160755082Y-87356139D01*
X160749141Y-87366945D01*
X160738290Y-87383464D01*
X160725875Y-87399470D01*
X160722730Y-87406739D01*
X160722727Y-87406743D01*
X160708315Y-87440048D01*
X160703098Y-87450698D01*
X160681794Y-87489451D01*
X160679823Y-87497126D01*
X160679823Y-87497127D01*
X160676756Y-87509073D01*
X160670352Y-87527777D01*
X160662308Y-87546366D01*
X160661069Y-87554189D01*
X160661066Y-87554199D01*
X160655390Y-87590035D01*
X160652984Y-87601655D01*
X160643961Y-87636800D01*
X160641989Y-87644481D01*
X160641989Y-87664735D01*
X160640438Y-87684445D01*
X160637269Y-87704454D01*
X160638015Y-87712346D01*
X160641430Y-87748472D01*
X160641989Y-87760330D01*
X160641989Y-90554683D01*
X160621987Y-90622804D01*
X160568331Y-90669297D01*
X160498057Y-90679401D01*
X160433477Y-90649907D01*
X160422364Y-90639005D01*
X160361253Y-90571134D01*
X160206752Y-90458882D01*
X160200724Y-90456198D01*
X160200722Y-90456197D01*
X160038319Y-90383891D01*
X160038318Y-90383891D01*
X160032288Y-90381206D01*
X159938888Y-90361353D01*
X159851944Y-90342872D01*
X159851939Y-90342872D01*
X159845487Y-90341500D01*
X159654513Y-90341500D01*
X159648061Y-90342872D01*
X159648056Y-90342872D01*
X159561113Y-90361353D01*
X159467712Y-90381206D01*
X159461682Y-90383891D01*
X159461681Y-90383891D01*
X159299278Y-90456197D01*
X159299276Y-90456198D01*
X159293248Y-90458882D01*
X159138747Y-90571134D01*
X159134326Y-90576044D01*
X159134325Y-90576045D01*
X159067820Y-90649907D01*
X159010960Y-90713056D01*
X158915473Y-90878444D01*
X158856458Y-91060072D01*
X158836496Y-91250000D01*
X158856458Y-91439928D01*
X158915473Y-91621556D01*
X159010960Y-91786944D01*
X159084137Y-91868215D01*
X159114853Y-91932221D01*
X159116500Y-91952524D01*
X159116500Y-94297476D01*
X159096498Y-94365597D01*
X159084142Y-94381779D01*
X159010960Y-94463056D01*
X158983060Y-94511380D01*
X158920796Y-94619225D01*
X158915473Y-94628444D01*
X158856458Y-94810072D01*
X158836496Y-95000000D01*
X158837186Y-95006565D01*
X158854959Y-95175662D01*
X158856458Y-95189928D01*
X158915473Y-95371556D01*
X159010960Y-95536944D01*
X159138747Y-95678866D01*
X159293248Y-95791118D01*
X159299276Y-95793802D01*
X159299278Y-95793803D01*
X159461681Y-95866109D01*
X159467712Y-95868794D01*
X159561113Y-95888647D01*
X159648056Y-95907128D01*
X159648061Y-95907128D01*
X159654513Y-95908500D01*
X159845487Y-95908500D01*
X159851939Y-95907128D01*
X159851944Y-95907128D01*
X159938887Y-95888647D01*
X160032288Y-95868794D01*
X160038319Y-95866109D01*
X160200722Y-95793803D01*
X160200724Y-95793802D01*
X160206752Y-95791118D01*
X160361253Y-95678866D01*
X160489040Y-95536944D01*
X160584527Y-95371556D01*
X160643542Y-95189928D01*
X160645042Y-95175662D01*
X160662814Y-95006565D01*
X160663504Y-95000000D01*
X160643542Y-94810072D01*
X160621577Y-94742471D01*
X160619549Y-94671504D01*
X160656212Y-94610706D01*
X160719924Y-94579380D01*
X160790458Y-94587473D01*
X160835046Y-94619225D01*
X160873925Y-94662404D01*
X160888747Y-94678866D01*
X161043248Y-94791118D01*
X161049276Y-94793802D01*
X161049278Y-94793803D01*
X161211681Y-94866109D01*
X161217712Y-94868794D01*
X161311112Y-94888647D01*
X161398056Y-94907128D01*
X161398061Y-94907128D01*
X161404513Y-94908500D01*
X161595487Y-94908500D01*
X161601939Y-94907128D01*
X161601944Y-94907128D01*
X161688887Y-94888647D01*
X161782288Y-94868794D01*
X161788319Y-94866109D01*
X161950722Y-94793803D01*
X161950724Y-94793802D01*
X161956752Y-94791118D01*
X162111253Y-94678866D01*
X162117882Y-94671504D01*
X162234621Y-94541852D01*
X162234622Y-94541851D01*
X162239040Y-94536944D01*
X162334527Y-94371556D01*
X162393542Y-94189928D01*
X162394674Y-94179164D01*
X162412814Y-94006565D01*
X162413504Y-94000000D01*
X162406028Y-93928866D01*
X162394232Y-93816635D01*
X162394232Y-93816633D01*
X162393542Y-93810072D01*
X162334527Y-93628444D01*
X162239040Y-93463056D01*
X162218216Y-93439928D01*
X162115675Y-93326045D01*
X162115674Y-93326044D01*
X162111253Y-93321134D01*
X161960928Y-93211916D01*
X161917574Y-93155694D01*
X161908989Y-93109980D01*
X161908989Y-90529194D01*
X161928991Y-90461073D01*
X161982647Y-90414580D01*
X162052921Y-90404476D01*
X162070144Y-90408198D01*
X162074891Y-90409577D01*
X162178250Y-90430606D01*
X162192299Y-90429410D01*
X162196000Y-90419065D01*
X162196000Y-90418517D01*
X162704000Y-90418517D01*
X162708064Y-90432359D01*
X162721478Y-90434393D01*
X162728184Y-90433534D01*
X162738262Y-90431392D01*
X162942255Y-90370191D01*
X162951842Y-90366433D01*
X163143095Y-90272739D01*
X163151945Y-90267464D01*
X163325328Y-90143792D01*
X163333200Y-90137139D01*
X163484052Y-89986812D01*
X163490730Y-89978965D01*
X163618022Y-89801819D01*
X163619279Y-89802722D01*
X163666373Y-89759362D01*
X163736311Y-89747145D01*
X163801751Y-89774678D01*
X163829579Y-89806511D01*
X163889987Y-89905088D01*
X164036250Y-90073938D01*
X164208126Y-90216632D01*
X164401000Y-90329338D01*
X164609692Y-90409030D01*
X164614760Y-90410061D01*
X164614763Y-90410062D01*
X164709862Y-90429410D01*
X164828597Y-90453567D01*
X164833772Y-90453757D01*
X164833774Y-90453757D01*
X165046673Y-90461564D01*
X165046677Y-90461564D01*
X165051837Y-90461753D01*
X165056957Y-90461097D01*
X165056959Y-90461097D01*
X165268288Y-90434025D01*
X165268289Y-90434025D01*
X165273416Y-90433368D01*
X165278366Y-90431883D01*
X165482429Y-90370661D01*
X165482434Y-90370659D01*
X165487384Y-90369174D01*
X165687994Y-90270896D01*
X165869860Y-90141173D01*
X165891775Y-90119335D01*
X165970260Y-90041123D01*
X166028096Y-89983489D01*
X166076301Y-89916405D01*
X166158453Y-89802077D01*
X166159776Y-89803028D01*
X166206645Y-89759857D01*
X166276580Y-89747625D01*
X166342026Y-89775144D01*
X166369875Y-89806994D01*
X166429987Y-89905088D01*
X166576250Y-90073938D01*
X166748126Y-90216632D01*
X166941000Y-90329338D01*
X167149692Y-90409030D01*
X167154760Y-90410061D01*
X167154763Y-90410062D01*
X167249862Y-90429410D01*
X167368597Y-90453567D01*
X167373772Y-90453757D01*
X167373774Y-90453757D01*
X167586673Y-90461564D01*
X167586677Y-90461564D01*
X167591837Y-90461753D01*
X167596957Y-90461097D01*
X167596959Y-90461097D01*
X167808288Y-90434025D01*
X167808289Y-90434025D01*
X167813416Y-90433368D01*
X167818366Y-90431883D01*
X168022429Y-90370661D01*
X168022434Y-90370659D01*
X168027384Y-90369174D01*
X168227994Y-90270896D01*
X168409860Y-90141173D01*
X168431775Y-90119335D01*
X168510260Y-90041123D01*
X168568096Y-89983489D01*
X168616301Y-89916405D01*
X168698453Y-89802077D01*
X168699776Y-89803028D01*
X168746645Y-89759857D01*
X168816580Y-89747625D01*
X168882026Y-89775144D01*
X168909875Y-89806994D01*
X168969987Y-89905088D01*
X169116250Y-90073938D01*
X169288126Y-90216632D01*
X169481000Y-90329338D01*
X169689692Y-90409030D01*
X169694760Y-90410061D01*
X169694763Y-90410062D01*
X169789862Y-90429410D01*
X169908597Y-90453567D01*
X169913772Y-90453757D01*
X169913774Y-90453757D01*
X170126673Y-90461564D01*
X170126677Y-90461564D01*
X170131837Y-90461753D01*
X170136957Y-90461097D01*
X170136959Y-90461097D01*
X170348288Y-90434025D01*
X170348289Y-90434025D01*
X170353416Y-90433368D01*
X170358366Y-90431883D01*
X170562429Y-90370661D01*
X170562434Y-90370659D01*
X170567384Y-90369174D01*
X170767994Y-90270896D01*
X170949860Y-90141173D01*
X170971775Y-90119335D01*
X171050260Y-90041123D01*
X171108096Y-89983489D01*
X171156301Y-89916405D01*
X171238453Y-89802077D01*
X171239776Y-89803028D01*
X171286645Y-89759857D01*
X171356580Y-89747625D01*
X171422026Y-89775144D01*
X171449875Y-89806994D01*
X171509987Y-89905088D01*
X171656250Y-90073938D01*
X171828126Y-90216632D01*
X172021000Y-90329338D01*
X172229692Y-90409030D01*
X172234760Y-90410061D01*
X172234763Y-90410062D01*
X172329862Y-90429410D01*
X172448597Y-90453567D01*
X172453772Y-90453757D01*
X172453774Y-90453757D01*
X172666673Y-90461564D01*
X172666677Y-90461564D01*
X172671837Y-90461753D01*
X172676957Y-90461097D01*
X172676959Y-90461097D01*
X172888288Y-90434025D01*
X172888289Y-90434025D01*
X172893416Y-90433368D01*
X172898366Y-90431883D01*
X173102429Y-90370661D01*
X173102434Y-90370659D01*
X173107384Y-90369174D01*
X173307994Y-90270896D01*
X173489860Y-90141173D01*
X173598091Y-90033319D01*
X173660462Y-89999404D01*
X173731268Y-90004592D01*
X173788030Y-90047238D01*
X173805012Y-90078341D01*
X173849385Y-90196705D01*
X173936739Y-90313261D01*
X174053295Y-90400615D01*
X174189684Y-90451745D01*
X174251866Y-90458500D01*
X176048134Y-90458500D01*
X176110316Y-90451745D01*
X176246705Y-90400615D01*
X176363261Y-90313261D01*
X176450615Y-90196705D01*
X176501745Y-90060316D01*
X176508500Y-89998134D01*
X176508500Y-88201866D01*
X176501745Y-88139684D01*
X176450615Y-88003295D01*
X176363261Y-87886739D01*
X176246705Y-87799385D01*
X176110316Y-87748255D01*
X176048134Y-87741500D01*
X174251866Y-87741500D01*
X174189684Y-87748255D01*
X174053295Y-87799385D01*
X173936739Y-87886739D01*
X173849385Y-88003295D01*
X173843537Y-88018894D01*
X173804919Y-88121907D01*
X173762277Y-88178671D01*
X173695716Y-88203371D01*
X173626367Y-88188163D01*
X173593743Y-88162476D01*
X173543151Y-88106875D01*
X173543142Y-88106866D01*
X173539670Y-88103051D01*
X173535619Y-88099852D01*
X173535615Y-88099848D01*
X173368414Y-87967800D01*
X173368410Y-87967798D01*
X173364359Y-87964598D01*
X173168789Y-87856638D01*
X173163920Y-87854914D01*
X173163916Y-87854912D01*
X172963087Y-87783795D01*
X172963083Y-87783794D01*
X172958212Y-87782069D01*
X172953119Y-87781162D01*
X172953116Y-87781161D01*
X172743373Y-87743800D01*
X172743367Y-87743799D01*
X172738284Y-87742894D01*
X172664452Y-87741992D01*
X172520081Y-87740228D01*
X172520079Y-87740228D01*
X172514911Y-87740165D01*
X172294091Y-87773955D01*
X172081756Y-87843357D01*
X171883607Y-87946507D01*
X171879474Y-87949610D01*
X171879471Y-87949612D01*
X171709100Y-88077530D01*
X171704965Y-88080635D01*
X171664002Y-88123500D01*
X171611280Y-88178671D01*
X171550629Y-88242138D01*
X171443201Y-88399621D01*
X171388293Y-88444621D01*
X171317768Y-88452792D01*
X171254021Y-88421538D01*
X171233324Y-88397054D01*
X171152822Y-88272617D01*
X171152820Y-88272614D01*
X171150014Y-88268277D01*
X170999670Y-88103051D01*
X170995619Y-88099852D01*
X170995615Y-88099848D01*
X170828414Y-87967800D01*
X170828410Y-87967798D01*
X170824359Y-87964598D01*
X170628789Y-87856638D01*
X170623920Y-87854914D01*
X170623916Y-87854912D01*
X170423087Y-87783795D01*
X170423083Y-87783794D01*
X170418212Y-87782069D01*
X170413119Y-87781162D01*
X170413116Y-87781161D01*
X170203373Y-87743800D01*
X170203367Y-87743799D01*
X170198284Y-87742894D01*
X170124452Y-87741992D01*
X169980081Y-87740228D01*
X169980079Y-87740228D01*
X169974911Y-87740165D01*
X169754091Y-87773955D01*
X169541756Y-87843357D01*
X169343607Y-87946507D01*
X169339474Y-87949610D01*
X169339471Y-87949612D01*
X169169100Y-88077530D01*
X169164965Y-88080635D01*
X169124002Y-88123500D01*
X169071280Y-88178671D01*
X169010629Y-88242138D01*
X168903201Y-88399621D01*
X168848293Y-88444621D01*
X168777768Y-88452792D01*
X168714021Y-88421538D01*
X168693324Y-88397054D01*
X168612822Y-88272617D01*
X168612820Y-88272614D01*
X168610014Y-88268277D01*
X168459670Y-88103051D01*
X168455619Y-88099852D01*
X168455615Y-88099848D01*
X168288414Y-87967800D01*
X168288410Y-87967798D01*
X168284359Y-87964598D01*
X168088789Y-87856638D01*
X168083920Y-87854914D01*
X168083916Y-87854912D01*
X167883087Y-87783795D01*
X167883083Y-87783794D01*
X167878212Y-87782069D01*
X167873119Y-87781162D01*
X167873116Y-87781161D01*
X167663373Y-87743800D01*
X167663367Y-87743799D01*
X167658284Y-87742894D01*
X167584452Y-87741992D01*
X167440081Y-87740228D01*
X167440079Y-87740228D01*
X167434911Y-87740165D01*
X167214091Y-87773955D01*
X167001756Y-87843357D01*
X166803607Y-87946507D01*
X166799474Y-87949610D01*
X166799471Y-87949612D01*
X166629100Y-88077530D01*
X166624965Y-88080635D01*
X166584002Y-88123500D01*
X166531280Y-88178671D01*
X166470629Y-88242138D01*
X166363201Y-88399621D01*
X166308293Y-88444621D01*
X166237768Y-88452792D01*
X166174021Y-88421538D01*
X166153324Y-88397054D01*
X166072822Y-88272617D01*
X166072820Y-88272614D01*
X166070014Y-88268277D01*
X165919670Y-88103051D01*
X165915619Y-88099852D01*
X165915615Y-88099848D01*
X165748414Y-87967800D01*
X165748410Y-87967798D01*
X165744359Y-87964598D01*
X165548789Y-87856638D01*
X165543920Y-87854914D01*
X165543916Y-87854912D01*
X165343087Y-87783795D01*
X165343083Y-87783794D01*
X165338212Y-87782069D01*
X165333119Y-87781162D01*
X165333116Y-87781161D01*
X165123373Y-87743800D01*
X165123367Y-87743799D01*
X165118284Y-87742894D01*
X165044452Y-87741992D01*
X164900081Y-87740228D01*
X164900079Y-87740228D01*
X164894911Y-87740165D01*
X164674091Y-87773955D01*
X164461756Y-87843357D01*
X164263607Y-87946507D01*
X164259474Y-87949610D01*
X164259471Y-87949612D01*
X164089100Y-88077530D01*
X164084965Y-88080635D01*
X164044002Y-88123500D01*
X163991280Y-88178671D01*
X163930629Y-88242138D01*
X163823204Y-88399618D01*
X163822898Y-88400066D01*
X163767987Y-88445069D01*
X163697462Y-88453240D01*
X163633715Y-88421986D01*
X163613018Y-88397502D01*
X163532426Y-88272926D01*
X163526136Y-88264757D01*
X163382806Y-88107240D01*
X163375273Y-88100215D01*
X163208139Y-87968222D01*
X163199552Y-87962517D01*
X163013117Y-87859599D01*
X163003705Y-87855369D01*
X162802959Y-87784280D01*
X162792988Y-87781646D01*
X162721837Y-87768972D01*
X162708540Y-87770432D01*
X162704000Y-87784989D01*
X162704000Y-90418517D01*
X162196000Y-90418517D01*
X162196000Y-87764987D01*
X162198177Y-87764987D01*
X162198180Y-87719515D01*
X162229979Y-87665925D01*
X167892253Y-82003652D01*
X167900539Y-81996112D01*
X167907018Y-81992000D01*
X167953644Y-81942348D01*
X167956398Y-81939507D01*
X167976135Y-81919770D01*
X167978615Y-81916573D01*
X167986320Y-81907551D01*
X168011159Y-81881100D01*
X168016586Y-81875321D01*
X168020405Y-81868375D01*
X168020407Y-81868372D01*
X168026348Y-81857566D01*
X168037199Y-81841047D01*
X168044758Y-81831301D01*
X168049614Y-81825041D01*
X168052759Y-81817772D01*
X168052762Y-81817768D01*
X168067174Y-81784463D01*
X168072391Y-81773813D01*
X168093695Y-81735060D01*
X168098733Y-81715437D01*
X168105138Y-81696731D01*
X168106171Y-81694344D01*
X168128171Y-81660077D01*
X168234621Y-81541852D01*
X168234622Y-81541851D01*
X168239040Y-81536944D01*
X168313355Y-81408227D01*
X168331223Y-81377279D01*
X168331224Y-81377278D01*
X168334527Y-81371556D01*
X168393542Y-81189928D01*
X168397136Y-81155738D01*
X168412814Y-81006565D01*
X168413504Y-81000000D01*
X168403293Y-80902843D01*
X168394232Y-80816635D01*
X168394232Y-80816633D01*
X168393542Y-80810072D01*
X168334527Y-80628444D01*
X168239040Y-80463056D01*
X168139149Y-80352115D01*
X168115675Y-80326045D01*
X168115674Y-80326044D01*
X168111253Y-80321134D01*
X167987506Y-80231226D01*
X167962094Y-80212763D01*
X167962093Y-80212762D01*
X167956752Y-80208882D01*
X167950724Y-80206198D01*
X167950722Y-80206197D01*
X167785602Y-80132681D01*
X167731506Y-80086701D01*
X167710857Y-80018773D01*
X167730209Y-79950465D01*
X167747756Y-79928479D01*
X169969384Y-77706851D01*
X169979527Y-77697749D01*
X170004218Y-77677897D01*
X170009025Y-77674032D01*
X170041312Y-77635554D01*
X170044467Y-77631938D01*
X170046123Y-77630112D01*
X170048309Y-77627926D01*
X170050264Y-77625546D01*
X170050273Y-77625536D01*
X170075576Y-77594732D01*
X170076418Y-77593717D01*
X170132194Y-77527245D01*
X170136154Y-77522526D01*
X170138723Y-77517852D01*
X170142102Y-77513739D01*
X170185975Y-77431915D01*
X170186584Y-77430793D01*
X170197914Y-77410185D01*
X170231433Y-77349213D01*
X170233045Y-77344131D01*
X170235562Y-77339437D01*
X170262762Y-77250469D01*
X170263108Y-77249358D01*
X170265490Y-77241852D01*
X170291235Y-77160694D01*
X170291829Y-77155398D01*
X170293387Y-77150302D01*
X170302785Y-77057778D01*
X170302905Y-77056658D01*
X170308500Y-77006773D01*
X170308500Y-77003246D01*
X170308556Y-77002243D01*
X170309003Y-76996559D01*
X170313373Y-76953538D01*
X170309059Y-76907899D01*
X170308500Y-76896043D01*
X170308500Y-76586781D01*
X170328502Y-76518660D01*
X170368197Y-76479637D01*
X170424873Y-76444565D01*
X170499348Y-76398478D01*
X170624305Y-76273303D01*
X170629331Y-76265150D01*
X170713275Y-76128968D01*
X170713276Y-76128966D01*
X170717115Y-76122738D01*
X170748009Y-76029595D01*
X170770632Y-75961389D01*
X170770632Y-75961387D01*
X170772797Y-75954861D01*
X170783500Y-75850400D01*
X170783500Y-74549600D01*
X170783163Y-74546350D01*
X170773238Y-74450692D01*
X170773237Y-74450688D01*
X170772526Y-74443834D01*
X170747296Y-74368209D01*
X170718868Y-74283002D01*
X170716550Y-74276054D01*
X170623478Y-74125652D01*
X170498303Y-74000695D01*
X170352660Y-73910919D01*
X170305168Y-73858148D01*
X170293744Y-73788076D01*
X170322018Y-73722952D01*
X170331805Y-73712490D01*
X170415128Y-73633003D01*
X170446135Y-73603424D01*
X170459086Y-73586018D01*
X170517619Y-73507347D01*
X170583754Y-73418458D01*
X170589515Y-73407128D01*
X170685822Y-73217704D01*
X170688240Y-73212949D01*
X170697618Y-73182749D01*
X170755024Y-72997871D01*
X170756607Y-72992773D01*
X170759841Y-72968372D01*
X170786198Y-72769511D01*
X170786198Y-72769506D01*
X170786898Y-72764226D01*
X170784026Y-72687711D01*
X170778449Y-72539173D01*
X170778249Y-72533842D01*
X170730907Y-72308209D01*
X170659454Y-72127279D01*
X170648185Y-72098744D01*
X170648184Y-72098742D01*
X170646224Y-72093779D01*
X170627238Y-72062490D01*
X170529390Y-71901243D01*
X170526623Y-71896683D01*
X170439755Y-71796576D01*
X170379023Y-71726588D01*
X170379021Y-71726586D01*
X170375523Y-71722555D01*
X170279903Y-71644151D01*
X170201373Y-71579760D01*
X170201367Y-71579756D01*
X170197245Y-71576376D01*
X170165750Y-71558448D01*
X170116445Y-71507368D01*
X170102583Y-71437738D01*
X170128566Y-71371667D01*
X170157716Y-71344427D01*
X170218070Y-71303794D01*
X170279319Y-71262559D01*
X170325218Y-71218774D01*
X170372769Y-71173412D01*
X170446135Y-71103424D01*
X170583754Y-70918458D01*
X170590980Y-70904247D01*
X170668859Y-70751069D01*
X170688240Y-70712949D01*
X170693780Y-70695110D01*
X170755024Y-70497871D01*
X170756607Y-70492773D01*
X170768082Y-70406197D01*
X170786198Y-70269511D01*
X170786198Y-70269506D01*
X170786898Y-70264226D01*
X170786611Y-70256565D01*
X170778449Y-70039173D01*
X170778249Y-70033842D01*
X170730907Y-69808209D01*
X170646224Y-69593779D01*
X170526623Y-69396683D01*
X170439755Y-69296576D01*
X170379023Y-69226588D01*
X170379021Y-69226586D01*
X170375523Y-69222555D01*
X170333970Y-69188484D01*
X170201373Y-69079760D01*
X170201367Y-69079756D01*
X170197245Y-69076376D01*
X170165750Y-69058448D01*
X170116445Y-69007368D01*
X170102583Y-68937738D01*
X170128566Y-68871667D01*
X170157716Y-68844427D01*
X170193642Y-68820240D01*
X170279319Y-68762559D01*
X170446135Y-68603424D01*
X170583754Y-68418458D01*
X170688240Y-68212949D01*
X170724321Y-68096752D01*
X170755024Y-67997871D01*
X170756607Y-67992773D01*
X170757308Y-67987484D01*
X170786198Y-67769511D01*
X170786198Y-67769506D01*
X170786898Y-67764226D01*
X170778249Y-67533842D01*
X170730907Y-67308209D01*
X170674357Y-67165015D01*
X170648185Y-67098744D01*
X170648184Y-67098742D01*
X170646224Y-67093779D01*
X170614740Y-67041894D01*
X170529390Y-66901243D01*
X170526623Y-66896683D01*
X170439755Y-66796576D01*
X170379023Y-66726588D01*
X170379021Y-66726586D01*
X170375523Y-66722555D01*
X170333970Y-66688484D01*
X170201373Y-66579760D01*
X170201367Y-66579756D01*
X170197245Y-66576376D01*
X170165750Y-66558448D01*
X170116445Y-66507368D01*
X170102583Y-66437738D01*
X170128566Y-66371667D01*
X170157716Y-66344427D01*
X170193642Y-66320240D01*
X170279319Y-66262559D01*
X170446135Y-66103424D01*
X170583754Y-65918458D01*
X170688240Y-65712949D01*
X170724321Y-65596752D01*
X170755024Y-65497871D01*
X170756607Y-65492773D01*
X170757308Y-65487484D01*
X170786198Y-65269511D01*
X170786198Y-65269506D01*
X170786898Y-65264226D01*
X170778249Y-65033842D01*
X170730907Y-64808209D01*
X170646224Y-64593779D01*
X170634464Y-64574398D01*
X170529390Y-64401243D01*
X170526623Y-64396683D01*
X170439755Y-64296576D01*
X170379023Y-64226588D01*
X170379021Y-64226586D01*
X170375523Y-64222555D01*
X170333970Y-64188484D01*
X170201373Y-64079760D01*
X170201367Y-64079756D01*
X170197245Y-64076376D01*
X170165750Y-64058448D01*
X170116445Y-64007368D01*
X170102583Y-63937738D01*
X170128566Y-63871667D01*
X170157716Y-63844427D01*
X170193642Y-63820240D01*
X170279319Y-63762559D01*
X170446135Y-63603424D01*
X170583754Y-63418458D01*
X170688240Y-63212949D01*
X170690048Y-63207128D01*
X170755024Y-62997871D01*
X170756607Y-62992773D01*
X170757308Y-62987484D01*
X170786198Y-62769511D01*
X170786198Y-62769506D01*
X170786898Y-62764226D01*
X170778249Y-62533842D01*
X170730907Y-62308209D01*
X170679418Y-62177831D01*
X170648185Y-62098744D01*
X170648184Y-62098742D01*
X170646224Y-62093779D01*
X170608693Y-62031929D01*
X170529390Y-61901243D01*
X170526623Y-61896683D01*
X170451212Y-61809779D01*
X170379023Y-61726588D01*
X170379021Y-61726586D01*
X170375523Y-61722555D01*
X170310356Y-61669121D01*
X170201373Y-61579760D01*
X170201367Y-61579756D01*
X170197245Y-61576376D01*
X170192602Y-61573733D01*
X170165265Y-61558171D01*
X170115959Y-61507088D01*
X170102098Y-61437458D01*
X170128082Y-61371387D01*
X170157232Y-61344149D01*
X170274578Y-61265148D01*
X170282870Y-61258481D01*
X170441900Y-61106772D01*
X170448941Y-61098814D01*
X170580141Y-60922475D01*
X170585745Y-60913438D01*
X170685357Y-60717516D01*
X170689357Y-60707665D01*
X170712633Y-60632703D01*
X176740743Y-60632703D01*
X176741302Y-60636947D01*
X176741302Y-60636951D01*
X176754175Y-60734729D01*
X176778268Y-60917734D01*
X176854129Y-61195036D01*
X176855813Y-61198984D01*
X176954865Y-61431206D01*
X176966923Y-61459476D01*
X177021575Y-61550793D01*
X177111861Y-61701649D01*
X177114561Y-61706161D01*
X177294313Y-61930528D01*
X177502851Y-62128423D01*
X177736317Y-62296186D01*
X177740112Y-62298195D01*
X177740113Y-62298196D01*
X177759024Y-62308209D01*
X177990392Y-62430712D01*
X178260373Y-62529511D01*
X178541264Y-62590755D01*
X178569841Y-62593004D01*
X178764282Y-62608307D01*
X178764291Y-62608307D01*
X178766739Y-62608500D01*
X178922271Y-62608500D01*
X178924407Y-62608354D01*
X178924418Y-62608354D01*
X179132548Y-62594165D01*
X179132554Y-62594164D01*
X179136825Y-62593873D01*
X179141020Y-62593004D01*
X179141022Y-62593004D01*
X179326198Y-62554656D01*
X179418342Y-62535574D01*
X179689343Y-62439607D01*
X179884907Y-62338669D01*
X179941005Y-62309715D01*
X179941006Y-62309715D01*
X179944812Y-62307750D01*
X179948313Y-62305289D01*
X179948317Y-62305287D01*
X180116549Y-62187051D01*
X180180023Y-62142441D01*
X180298948Y-62031929D01*
X180387479Y-61949661D01*
X180387481Y-61949658D01*
X180390622Y-61946740D01*
X180572713Y-61724268D01*
X180722927Y-61479142D01*
X180743970Y-61431206D01*
X180836757Y-61219830D01*
X180838483Y-61215898D01*
X180866656Y-61116998D01*
X180912470Y-60956166D01*
X180917244Y-60939406D01*
X180957751Y-60654784D01*
X180957845Y-60636951D01*
X180959235Y-60371583D01*
X180959235Y-60371576D01*
X180959257Y-60367297D01*
X180952078Y-60312763D01*
X180941160Y-60229834D01*
X180921732Y-60082266D01*
X180845871Y-59804964D01*
X180828443Y-59764106D01*
X180734763Y-59544476D01*
X180734761Y-59544472D01*
X180733077Y-59540524D01*
X180623564Y-59357541D01*
X180587643Y-59297521D01*
X180587640Y-59297517D01*
X180585439Y-59293839D01*
X180405687Y-59069472D01*
X180229502Y-58902279D01*
X180200258Y-58874527D01*
X180200255Y-58874525D01*
X180197149Y-58871577D01*
X180007064Y-58734987D01*
X179967172Y-58706321D01*
X179967171Y-58706320D01*
X179963683Y-58703814D01*
X179941843Y-58692250D01*
X179918654Y-58679972D01*
X179709608Y-58569288D01*
X179439627Y-58470489D01*
X179158736Y-58409245D01*
X179127685Y-58406801D01*
X178935718Y-58391693D01*
X178935709Y-58391693D01*
X178933261Y-58391500D01*
X178777729Y-58391500D01*
X178775593Y-58391646D01*
X178775582Y-58391646D01*
X178567452Y-58405835D01*
X178567446Y-58405836D01*
X178563175Y-58406127D01*
X178558980Y-58406996D01*
X178558978Y-58406996D01*
X178422417Y-58435276D01*
X178281658Y-58464426D01*
X178010657Y-58560393D01*
X177755188Y-58692250D01*
X177751687Y-58694711D01*
X177751683Y-58694713D01*
X177637583Y-58774904D01*
X177519977Y-58857559D01*
X177441597Y-58930394D01*
X177335707Y-59028794D01*
X177309378Y-59053260D01*
X177127287Y-59275732D01*
X176977073Y-59520858D01*
X176861517Y-59784102D01*
X176782756Y-60060594D01*
X176742249Y-60345216D01*
X176742227Y-60349505D01*
X176742226Y-60349512D01*
X176740985Y-60586421D01*
X176740743Y-60632703D01*
X170712633Y-60632703D01*
X170754534Y-60497760D01*
X170756817Y-60487376D01*
X170758861Y-60471957D01*
X170756665Y-60457793D01*
X170743478Y-60454000D01*
X167858808Y-60454000D01*
X167845277Y-60457973D01*
X167843752Y-60468580D01*
X167868477Y-60586421D01*
X167871537Y-60596617D01*
X167952263Y-60801029D01*
X167956994Y-60810561D01*
X168071016Y-60998462D01*
X168077280Y-61007052D01*
X168221327Y-61173052D01*
X168228958Y-61180472D01*
X168398911Y-61319826D01*
X168407674Y-61325848D01*
X168434711Y-61341238D01*
X168484018Y-61392320D01*
X168497880Y-61461951D01*
X168471897Y-61528022D01*
X168442747Y-61555261D01*
X168438425Y-61558171D01*
X168320681Y-61637441D01*
X168316824Y-61641120D01*
X168316822Y-61641122D01*
X168287472Y-61669121D01*
X168153865Y-61796576D01*
X168150682Y-61800854D01*
X168144042Y-61809779D01*
X168016246Y-61981542D01*
X168013830Y-61986293D01*
X168013828Y-61986297D01*
X167964003Y-62084297D01*
X167911760Y-62187051D01*
X167910178Y-62192145D01*
X167910177Y-62192148D01*
X167860721Y-62351421D01*
X167843393Y-62407227D01*
X167842692Y-62412516D01*
X167816717Y-62608500D01*
X167813102Y-62635774D01*
X167813302Y-62641101D01*
X167813139Y-62644561D01*
X167789951Y-62711664D01*
X167776374Y-62727722D01*
X163373106Y-67130989D01*
X163310794Y-67165015D01*
X163239978Y-67159950D01*
X163183143Y-67117403D01*
X163158332Y-67050883D01*
X163158011Y-67041894D01*
X163158011Y-59928043D01*
X167841139Y-59928043D01*
X167843335Y-59942207D01*
X167856522Y-59946000D01*
X169027885Y-59946000D01*
X169043124Y-59941525D01*
X169044329Y-59940135D01*
X169046000Y-59932452D01*
X169046000Y-59927885D01*
X169554000Y-59927885D01*
X169558475Y-59943124D01*
X169559865Y-59944329D01*
X169567548Y-59946000D01*
X170741192Y-59946000D01*
X170754723Y-59942027D01*
X170756248Y-59931420D01*
X170731523Y-59813579D01*
X170728463Y-59803383D01*
X170647737Y-59598971D01*
X170643006Y-59589439D01*
X170528984Y-59401538D01*
X170522720Y-59392948D01*
X170378673Y-59226948D01*
X170371042Y-59219528D01*
X170201089Y-59080174D01*
X170192322Y-59074150D01*
X170001318Y-58965424D01*
X169991654Y-58960959D01*
X169785059Y-58885969D01*
X169774792Y-58883198D01*
X169571826Y-58846496D01*
X169558586Y-58847915D01*
X169554000Y-58862550D01*
X169554000Y-59927885D01*
X169046000Y-59927885D01*
X169046000Y-58866151D01*
X169041690Y-58851473D01*
X169029807Y-58849410D01*
X168950675Y-58856124D01*
X168940203Y-58857914D01*
X168727465Y-58913130D01*
X168717425Y-58916665D01*
X168517030Y-59006937D01*
X168507744Y-59012106D01*
X168325425Y-59134850D01*
X168317130Y-59141519D01*
X168158100Y-59293228D01*
X168151059Y-59301186D01*
X168019859Y-59477525D01*
X168014255Y-59486562D01*
X167914643Y-59682484D01*
X167910643Y-59692335D01*
X167845466Y-59902240D01*
X167843183Y-59912624D01*
X167841139Y-59928043D01*
X163158011Y-59928043D01*
X163158011Y-59528278D01*
X163158538Y-59517095D01*
X163160213Y-59509602D01*
X163158450Y-59453502D01*
X163158073Y-59441525D01*
X163158011Y-59437566D01*
X163158011Y-59409655D01*
X163157506Y-59405655D01*
X163156573Y-59393812D01*
X163156573Y-59393794D01*
X163155184Y-59349622D01*
X163149532Y-59330168D01*
X163145524Y-59310811D01*
X163143979Y-59298581D01*
X163143979Y-59298580D01*
X163142985Y-59290714D01*
X163137053Y-59275732D01*
X163126707Y-59249599D01*
X163122862Y-59238369D01*
X163112740Y-59203528D01*
X163112740Y-59203527D01*
X163110529Y-59195918D01*
X163106496Y-59189099D01*
X163106494Y-59189094D01*
X163100218Y-59178483D01*
X163091523Y-59160735D01*
X163084063Y-59141894D01*
X163058075Y-59106124D01*
X163051559Y-59096204D01*
X163033091Y-59064976D01*
X163033089Y-59064973D01*
X163029053Y-59058149D01*
X163014732Y-59043828D01*
X163001891Y-59028794D01*
X162994642Y-59018817D01*
X162989983Y-59012404D01*
X162983878Y-59007353D01*
X162983873Y-59007348D01*
X162955913Y-58984217D01*
X162947135Y-58976230D01*
X162547122Y-58576218D01*
X162513097Y-58513905D01*
X162510907Y-58500292D01*
X162494232Y-58341635D01*
X162494232Y-58341633D01*
X162493542Y-58335072D01*
X162434527Y-58153444D01*
X162339040Y-57988056D01*
X162321679Y-57968774D01*
X162215675Y-57851045D01*
X162215674Y-57851044D01*
X162211253Y-57846134D01*
X162105957Y-57769632D01*
X162062094Y-57737763D01*
X162062093Y-57737762D01*
X162056752Y-57733882D01*
X162050724Y-57731198D01*
X162050722Y-57731197D01*
X161888319Y-57658891D01*
X161888318Y-57658891D01*
X161882288Y-57656206D01*
X161773513Y-57633085D01*
X161701944Y-57617872D01*
X161701939Y-57617872D01*
X161695487Y-57616500D01*
X161504513Y-57616500D01*
X161498061Y-57617872D01*
X161498056Y-57617872D01*
X161426487Y-57633085D01*
X161317712Y-57656206D01*
X161311682Y-57658891D01*
X161311681Y-57658891D01*
X161149278Y-57731197D01*
X161149276Y-57731198D01*
X161143248Y-57733882D01*
X161137907Y-57737762D01*
X161137906Y-57737763D01*
X161094043Y-57769632D01*
X160988747Y-57846134D01*
X160984326Y-57851044D01*
X160984325Y-57851045D01*
X160878322Y-57968774D01*
X160860960Y-57988056D01*
X160765473Y-58153444D01*
X160706458Y-58335072D01*
X160705768Y-58341633D01*
X160705768Y-58341635D01*
X160692712Y-58465856D01*
X160686496Y-58525000D01*
X160687186Y-58531565D01*
X160705079Y-58701804D01*
X160706458Y-58714928D01*
X160765473Y-58896556D01*
X160860960Y-59061944D01*
X160865378Y-59066851D01*
X160865379Y-59066852D01*
X160984325Y-59198955D01*
X160988747Y-59203866D01*
X161010304Y-59219528D01*
X161135944Y-59310811D01*
X161143248Y-59316118D01*
X161149276Y-59318802D01*
X161149278Y-59318803D01*
X161311681Y-59391109D01*
X161317712Y-59393794D01*
X161392332Y-59409655D01*
X161498056Y-59432128D01*
X161498061Y-59432128D01*
X161504513Y-59433500D01*
X161560405Y-59433500D01*
X161628526Y-59453502D01*
X161649500Y-59470405D01*
X161854106Y-59675011D01*
X161888132Y-59737323D01*
X161891011Y-59764106D01*
X161891011Y-73053596D01*
X161871009Y-73121717D01*
X161817353Y-73168210D01*
X161747079Y-73178314D01*
X161682499Y-73148820D01*
X161671380Y-73137912D01*
X161611253Y-73071134D01*
X161456752Y-72958882D01*
X161450724Y-72956198D01*
X161450722Y-72956197D01*
X161288319Y-72883891D01*
X161288318Y-72883891D01*
X161282288Y-72881206D01*
X161186413Y-72860827D01*
X161101944Y-72842872D01*
X161101939Y-72842872D01*
X161095487Y-72841500D01*
X160904513Y-72841500D01*
X160898061Y-72842872D01*
X160898056Y-72842872D01*
X160813587Y-72860827D01*
X160717712Y-72881206D01*
X160711682Y-72883891D01*
X160711681Y-72883891D01*
X160549278Y-72956197D01*
X160549276Y-72956198D01*
X160543248Y-72958882D01*
X160388747Y-73071134D01*
X160384329Y-73076041D01*
X160384325Y-73076045D01*
X160266271Y-73207158D01*
X160260960Y-73213056D01*
X160215891Y-73291118D01*
X160172595Y-73366109D01*
X160165473Y-73378444D01*
X160106458Y-73560072D01*
X160105768Y-73566633D01*
X160105768Y-73566635D01*
X160098793Y-73633003D01*
X160086496Y-73750000D01*
X160087186Y-73756565D01*
X160103444Y-73911248D01*
X160106458Y-73939928D01*
X160165473Y-74121556D01*
X160168776Y-74127278D01*
X160168777Y-74127279D01*
X160173149Y-74134852D01*
X160260960Y-74286944D01*
X160264154Y-74290491D01*
X160287785Y-74356720D01*
X160271706Y-74425871D01*
X160251086Y-74453009D01*
X158674500Y-76029595D01*
X158612188Y-76063621D01*
X158585405Y-76066500D01*
X154708200Y-76066500D01*
X154640079Y-76046498D01*
X154620853Y-76030157D01*
X154620580Y-76030460D01*
X154615668Y-76026037D01*
X154611253Y-76021134D01*
X154530831Y-75962704D01*
X154462094Y-75912763D01*
X154462093Y-75912762D01*
X154456752Y-75908882D01*
X154450724Y-75906198D01*
X154450722Y-75906197D01*
X154288319Y-75833891D01*
X154288318Y-75833891D01*
X154282288Y-75831206D01*
X154188887Y-75811353D01*
X154101944Y-75792872D01*
X154101939Y-75792872D01*
X154095487Y-75791500D01*
X153904513Y-75791500D01*
X153898061Y-75792872D01*
X153898056Y-75792872D01*
X153811113Y-75811353D01*
X153717712Y-75831206D01*
X153711682Y-75833891D01*
X153711681Y-75833891D01*
X153549278Y-75906197D01*
X153549276Y-75906198D01*
X153543248Y-75908882D01*
X153388747Y-76021134D01*
X153384326Y-76026044D01*
X153384325Y-76026045D01*
X153303518Y-76115791D01*
X153260960Y-76163056D01*
X153257659Y-76168774D01*
X153170449Y-76319826D01*
X153165473Y-76328444D01*
X153106458Y-76510072D01*
X153105768Y-76516633D01*
X153105768Y-76516635D01*
X153105555Y-76518660D01*
X153086496Y-76700000D01*
X153106458Y-76889928D01*
X153165473Y-77071556D01*
X153260960Y-77236944D01*
X153265378Y-77241851D01*
X153265379Y-77241852D01*
X153361764Y-77348898D01*
X153388747Y-77378866D01*
X153543248Y-77491118D01*
X153549276Y-77493802D01*
X153549278Y-77493803D01*
X153711681Y-77566109D01*
X153717712Y-77568794D01*
X153811112Y-77588647D01*
X153898056Y-77607128D01*
X153898061Y-77607128D01*
X153904513Y-77608500D01*
X154095487Y-77608500D01*
X154101939Y-77607128D01*
X154101944Y-77607128D01*
X154188888Y-77588647D01*
X154282288Y-77568794D01*
X154288319Y-77566109D01*
X154450722Y-77493803D01*
X154450724Y-77493802D01*
X154456752Y-77491118D01*
X154611253Y-77378866D01*
X154615668Y-77373963D01*
X154620580Y-77369540D01*
X154621705Y-77370789D01*
X154675014Y-77337949D01*
X154708200Y-77333500D01*
X158821233Y-77333500D01*
X158832416Y-77334027D01*
X158839909Y-77335702D01*
X158847835Y-77335453D01*
X158847836Y-77335453D01*
X158907986Y-77333562D01*
X158911945Y-77333500D01*
X158939856Y-77333500D01*
X158943791Y-77333003D01*
X158943856Y-77332995D01*
X158955693Y-77332062D01*
X158987951Y-77331048D01*
X158991970Y-77330922D01*
X158999889Y-77330673D01*
X159019343Y-77325021D01*
X159038700Y-77321013D01*
X159050930Y-77319468D01*
X159050931Y-77319468D01*
X159058797Y-77318474D01*
X159066168Y-77315555D01*
X159066170Y-77315555D01*
X159099912Y-77302196D01*
X159111142Y-77298351D01*
X159145983Y-77288229D01*
X159145984Y-77288229D01*
X159153593Y-77286018D01*
X159160412Y-77281985D01*
X159160417Y-77281983D01*
X159171028Y-77275707D01*
X159188776Y-77267012D01*
X159207617Y-77259552D01*
X159218059Y-77251966D01*
X159243387Y-77233564D01*
X159253307Y-77227048D01*
X159284535Y-77208580D01*
X159284538Y-77208578D01*
X159291362Y-77204542D01*
X159305683Y-77190221D01*
X159320717Y-77177380D01*
X159330694Y-77170131D01*
X159337107Y-77165472D01*
X159365298Y-77131395D01*
X159373288Y-77122616D01*
X161392247Y-75103657D01*
X161400537Y-75096113D01*
X161407018Y-75092000D01*
X161453659Y-75042332D01*
X161456413Y-75039491D01*
X161476134Y-75019770D01*
X161478612Y-75016575D01*
X161486318Y-75007553D01*
X161511158Y-74981101D01*
X161516586Y-74975321D01*
X161526346Y-74957568D01*
X161537199Y-74941045D01*
X161544753Y-74931306D01*
X161549613Y-74925041D01*
X161567176Y-74884457D01*
X161572383Y-74873827D01*
X161593695Y-74835060D01*
X161595666Y-74827383D01*
X161595668Y-74827378D01*
X161598732Y-74815442D01*
X161605138Y-74796730D01*
X161610034Y-74785417D01*
X161613181Y-74778145D01*
X161620097Y-74734481D01*
X161622504Y-74722860D01*
X161631528Y-74687711D01*
X161631528Y-74687710D01*
X161633500Y-74680030D01*
X161633500Y-74659769D01*
X161635051Y-74640058D01*
X161636979Y-74627885D01*
X161638219Y-74620057D01*
X161634059Y-74576046D01*
X161633500Y-74564189D01*
X161633500Y-74452524D01*
X161653502Y-74384403D01*
X161665864Y-74368214D01*
X161671379Y-74362089D01*
X161731827Y-74324852D01*
X161802810Y-74326207D01*
X161861793Y-74365724D01*
X161890048Y-74430856D01*
X161891011Y-74446404D01*
X161891011Y-78035508D01*
X161871009Y-78103629D01*
X161854106Y-78124603D01*
X160548157Y-79430552D01*
X160485845Y-79464578D01*
X160415030Y-79459513D01*
X160371241Y-79429726D01*
X160370580Y-79430460D01*
X160365668Y-79426037D01*
X160361253Y-79421134D01*
X160300706Y-79377144D01*
X160212094Y-79312763D01*
X160212093Y-79312762D01*
X160206752Y-79308882D01*
X160200724Y-79306198D01*
X160200722Y-79306197D01*
X160038319Y-79233891D01*
X160038318Y-79233891D01*
X160032288Y-79231206D01*
X159938888Y-79211353D01*
X159851944Y-79192872D01*
X159851939Y-79192872D01*
X159845487Y-79191500D01*
X159654513Y-79191500D01*
X159648061Y-79192872D01*
X159648056Y-79192872D01*
X159561112Y-79211353D01*
X159467712Y-79231206D01*
X159461682Y-79233891D01*
X159461681Y-79233891D01*
X159299278Y-79306197D01*
X159299276Y-79306198D01*
X159293248Y-79308882D01*
X159287907Y-79312762D01*
X159287906Y-79312763D01*
X159199294Y-79377144D01*
X159138747Y-79421134D01*
X159134332Y-79426037D01*
X159129420Y-79430460D01*
X159128295Y-79429211D01*
X159074986Y-79462051D01*
X159041800Y-79466500D01*
X158198239Y-79466500D01*
X158130118Y-79446498D01*
X158104603Y-79424810D01*
X158097801Y-79417255D01*
X158011253Y-79321134D01*
X157957684Y-79282214D01*
X157914331Y-79225993D01*
X157908255Y-79155257D01*
X157941387Y-79092465D01*
X157946374Y-79088051D01*
X157946279Y-79087951D01*
X157963496Y-79071556D01*
X158065449Y-78974468D01*
X158106446Y-78912763D01*
X158152614Y-78843275D01*
X158152615Y-78843273D01*
X158156515Y-78837403D01*
X158214951Y-78683568D01*
X158228781Y-78585163D01*
X158237302Y-78524534D01*
X158237303Y-78524527D01*
X158237853Y-78520610D01*
X158238141Y-78500000D01*
X158219798Y-78336466D01*
X158217005Y-78328444D01*
X158176822Y-78213056D01*
X158165680Y-78181060D01*
X158078476Y-78041505D01*
X158006404Y-77968928D01*
X157967486Y-77929737D01*
X157967482Y-77929734D01*
X157962522Y-77924739D01*
X157823580Y-77836563D01*
X157697029Y-77791500D01*
X157675189Y-77783723D01*
X157675187Y-77783722D01*
X157668555Y-77781361D01*
X157661569Y-77780528D01*
X157661565Y-77780527D01*
X157547071Y-77766875D01*
X157505153Y-77761877D01*
X157498150Y-77762613D01*
X157498149Y-77762613D01*
X157454935Y-77767155D01*
X157341495Y-77779078D01*
X157334827Y-77781348D01*
X157192382Y-77829840D01*
X157192379Y-77829841D01*
X157185715Y-77832110D01*
X157045555Y-77918337D01*
X156927982Y-78033473D01*
X156838838Y-78171797D01*
X156836427Y-78178420D01*
X156836426Y-78178423D01*
X156794910Y-78292490D01*
X156765604Y-78338492D01*
X156107742Y-78996353D01*
X156099463Y-79003887D01*
X156092982Y-79008000D01*
X156076037Y-79026045D01*
X156046357Y-79057651D01*
X156043602Y-79060493D01*
X156023865Y-79080230D01*
X156021385Y-79083427D01*
X156013682Y-79092447D01*
X155983414Y-79124679D01*
X155979595Y-79131625D01*
X155979593Y-79131628D01*
X155973652Y-79142434D01*
X155962801Y-79158953D01*
X155950386Y-79174959D01*
X155947241Y-79182228D01*
X155947238Y-79182232D01*
X155932826Y-79215537D01*
X155927609Y-79226187D01*
X155906305Y-79264940D01*
X155904334Y-79272615D01*
X155904334Y-79272616D01*
X155901267Y-79284562D01*
X155894863Y-79303266D01*
X155886819Y-79321855D01*
X155885580Y-79329678D01*
X155885577Y-79329688D01*
X155879901Y-79365524D01*
X155877495Y-79377144D01*
X155866500Y-79419970D01*
X155866500Y-79440224D01*
X155864949Y-79459934D01*
X155861780Y-79479943D01*
X155862526Y-79487835D01*
X155865941Y-79523961D01*
X155866500Y-79535819D01*
X155866500Y-80423230D01*
X155846498Y-80491351D01*
X155792842Y-80537844D01*
X155722568Y-80547948D01*
X155698233Y-80541929D01*
X155675189Y-80533723D01*
X155675187Y-80533722D01*
X155668555Y-80531361D01*
X155661569Y-80530528D01*
X155661565Y-80530527D01*
X155547071Y-80516875D01*
X155505153Y-80511877D01*
X155498150Y-80512613D01*
X155498149Y-80512613D01*
X155454935Y-80517155D01*
X155341495Y-80529078D01*
X155327851Y-80533723D01*
X155251315Y-80559778D01*
X155210709Y-80566500D01*
X151076594Y-80566500D01*
X151008473Y-80546498D01*
X150987499Y-80529595D01*
X148967977Y-78510072D01*
X146947122Y-76489217D01*
X146913096Y-76426905D01*
X146910907Y-76413292D01*
X146908894Y-76394134D01*
X146901084Y-76319826D01*
X146894232Y-76254635D01*
X146894232Y-76254633D01*
X146893542Y-76248072D01*
X146834527Y-76066444D01*
X146739040Y-75901056D01*
X146696356Y-75853650D01*
X146615675Y-75764045D01*
X146615674Y-75764044D01*
X146611253Y-75759134D01*
X146456752Y-75646882D01*
X146450724Y-75644198D01*
X146450722Y-75644197D01*
X146288319Y-75571891D01*
X146288318Y-75571891D01*
X146282288Y-75569206D01*
X146188888Y-75549353D01*
X146101944Y-75530872D01*
X146101939Y-75530872D01*
X146095487Y-75529500D01*
X145904513Y-75529500D01*
X145898061Y-75530872D01*
X145898056Y-75530872D01*
X145811112Y-75549353D01*
X145717712Y-75569206D01*
X145711682Y-75571891D01*
X145711681Y-75571891D01*
X145549278Y-75644197D01*
X145549276Y-75644198D01*
X145543248Y-75646882D01*
X145388747Y-75759134D01*
X145384326Y-75764044D01*
X145384325Y-75764045D01*
X145303645Y-75853650D01*
X145260960Y-75901056D01*
X145165473Y-76066444D01*
X145106458Y-76248072D01*
X145105768Y-76254633D01*
X145105768Y-76254635D01*
X145091106Y-76394134D01*
X145086496Y-76438000D01*
X145087186Y-76444565D01*
X145098330Y-76550590D01*
X145106458Y-76627928D01*
X145165473Y-76809556D01*
X145168776Y-76815278D01*
X145168777Y-76815279D01*
X145171119Y-76819335D01*
X145260960Y-76974944D01*
X145265378Y-76979851D01*
X145265379Y-76979852D01*
X145383763Y-77111331D01*
X145388747Y-77116866D01*
X145543248Y-77229118D01*
X145549276Y-77231802D01*
X145549278Y-77231803D01*
X145711681Y-77304109D01*
X145717712Y-77306794D01*
X145784607Y-77321013D01*
X145898056Y-77345128D01*
X145898061Y-77345128D01*
X145904513Y-77346500D01*
X145960406Y-77346500D01*
X146028527Y-77366502D01*
X146049501Y-77383405D01*
X148550695Y-79884600D01*
X148584721Y-79946912D01*
X148579656Y-80017728D01*
X148537109Y-80074563D01*
X148512848Y-80088802D01*
X148473781Y-80106195D01*
X148473774Y-80106199D01*
X148467748Y-80108882D01*
X148462407Y-80112762D01*
X148462406Y-80112763D01*
X148381485Y-80171556D01*
X148313247Y-80221134D01*
X148308832Y-80226037D01*
X148303920Y-80230460D01*
X148302795Y-80229211D01*
X148249486Y-80262051D01*
X148216300Y-80266500D01*
X139433594Y-80266500D01*
X139365473Y-80246498D01*
X139318980Y-80192842D01*
X139308876Y-80122568D01*
X139338370Y-80057988D01*
X139344499Y-80051405D01*
X141825739Y-77570166D01*
X144476135Y-74919770D01*
X144476138Y-74919766D01*
X145725499Y-73670405D01*
X145787811Y-73636379D01*
X145814594Y-73633500D01*
X156421233Y-73633500D01*
X156432416Y-73634027D01*
X156439909Y-73635702D01*
X156447835Y-73635453D01*
X156447836Y-73635453D01*
X156507986Y-73633562D01*
X156511945Y-73633500D01*
X156539856Y-73633500D01*
X156543791Y-73633003D01*
X156543856Y-73632995D01*
X156555693Y-73632062D01*
X156587951Y-73631048D01*
X156591970Y-73630922D01*
X156599889Y-73630673D01*
X156619343Y-73625021D01*
X156638700Y-73621013D01*
X156650930Y-73619468D01*
X156650931Y-73619468D01*
X156658797Y-73618474D01*
X156666168Y-73615555D01*
X156666170Y-73615555D01*
X156699912Y-73602196D01*
X156711142Y-73598351D01*
X156745983Y-73588229D01*
X156745984Y-73588229D01*
X156753593Y-73586018D01*
X156760412Y-73581985D01*
X156760417Y-73581983D01*
X156771028Y-73575707D01*
X156788776Y-73567012D01*
X156807617Y-73559552D01*
X156815543Y-73553794D01*
X156843387Y-73533564D01*
X156853307Y-73527048D01*
X156884535Y-73508580D01*
X156884538Y-73508578D01*
X156891362Y-73504542D01*
X156905683Y-73490221D01*
X156920717Y-73477380D01*
X156930694Y-73470131D01*
X156937107Y-73465472D01*
X156965298Y-73431395D01*
X156973288Y-73422616D01*
X157292247Y-73103657D01*
X157300537Y-73096113D01*
X157307018Y-73092000D01*
X157353659Y-73042332D01*
X157356413Y-73039491D01*
X157376134Y-73019770D01*
X157378612Y-73016575D01*
X157386318Y-73007553D01*
X157411158Y-72981101D01*
X157416586Y-72975321D01*
X157423490Y-72962763D01*
X157426346Y-72957568D01*
X157437199Y-72941045D01*
X157444753Y-72931306D01*
X157449613Y-72925041D01*
X157467176Y-72884457D01*
X157472383Y-72873827D01*
X157493695Y-72835060D01*
X157495666Y-72827383D01*
X157495668Y-72827378D01*
X157498732Y-72815442D01*
X157505138Y-72796730D01*
X157510034Y-72785417D01*
X157513181Y-72778145D01*
X157520097Y-72734481D01*
X157522504Y-72722860D01*
X157531528Y-72687711D01*
X157531528Y-72687710D01*
X157533500Y-72680030D01*
X157533500Y-72659769D01*
X157535051Y-72640058D01*
X157536979Y-72627885D01*
X157538219Y-72620057D01*
X157534059Y-72576046D01*
X157533500Y-72564189D01*
X157533500Y-61802524D01*
X157553502Y-61734403D01*
X157565858Y-61718221D01*
X157639040Y-61636944D01*
X157714527Y-61506197D01*
X157731223Y-61477279D01*
X157731224Y-61477278D01*
X157734527Y-61471556D01*
X157793542Y-61289928D01*
X157795290Y-61273303D01*
X157812814Y-61106565D01*
X157813504Y-61100000D01*
X157798387Y-60956166D01*
X157794232Y-60916635D01*
X157794232Y-60916633D01*
X157793542Y-60910072D01*
X157734527Y-60728444D01*
X157639040Y-60563056D01*
X157570898Y-60487376D01*
X157515675Y-60426045D01*
X157515674Y-60426044D01*
X157511253Y-60421134D01*
X157356752Y-60308882D01*
X157350724Y-60306198D01*
X157350722Y-60306197D01*
X157188319Y-60233891D01*
X157188318Y-60233891D01*
X157182288Y-60231206D01*
X157088887Y-60211353D01*
X157001944Y-60192872D01*
X157001939Y-60192872D01*
X156995487Y-60191500D01*
X156804513Y-60191500D01*
X156798061Y-60192872D01*
X156798056Y-60192872D01*
X156711113Y-60211353D01*
X156617712Y-60231206D01*
X156611682Y-60233891D01*
X156611681Y-60233891D01*
X156449278Y-60306197D01*
X156449276Y-60306198D01*
X156443248Y-60308882D01*
X156288747Y-60421134D01*
X156284326Y-60426044D01*
X156284325Y-60426045D01*
X156229103Y-60487376D01*
X156160960Y-60563056D01*
X156065473Y-60728444D01*
X156006458Y-60910072D01*
X156005768Y-60916633D01*
X156005768Y-60916635D01*
X156001613Y-60956166D01*
X155986496Y-61100000D01*
X155987186Y-61106565D01*
X156002506Y-61252330D01*
X155989734Y-61322168D01*
X155941232Y-61374015D01*
X155877196Y-61391500D01*
X155804513Y-61391500D01*
X155798061Y-61392872D01*
X155798056Y-61392872D01*
X155711113Y-61411353D01*
X155617712Y-61431206D01*
X155611682Y-61433891D01*
X155611681Y-61433891D01*
X155449278Y-61506197D01*
X155449276Y-61506198D01*
X155443248Y-61508882D01*
X155288747Y-61621134D01*
X155282209Y-61628396D01*
X155281675Y-61628988D01*
X155279717Y-61630194D01*
X155279423Y-61630459D01*
X155279375Y-61630405D01*
X155221227Y-61666225D01*
X155207946Y-61669081D01*
X155200111Y-61669327D01*
X155180657Y-61674979D01*
X155161300Y-61678987D01*
X155149070Y-61680532D01*
X155149069Y-61680532D01*
X155141203Y-61681526D01*
X155133832Y-61684445D01*
X155133830Y-61684445D01*
X155100088Y-61697804D01*
X155088858Y-61701649D01*
X155054017Y-61711771D01*
X155054016Y-61711771D01*
X155046407Y-61713982D01*
X155039588Y-61718015D01*
X155039583Y-61718017D01*
X155028972Y-61724293D01*
X155011224Y-61732988D01*
X154992383Y-61740448D01*
X154985967Y-61745110D01*
X154985966Y-61745110D01*
X154956613Y-61766436D01*
X154946693Y-61772952D01*
X154915465Y-61791420D01*
X154915462Y-61791422D01*
X154908638Y-61795458D01*
X154894317Y-61809779D01*
X154879284Y-61822619D01*
X154862893Y-61834528D01*
X154857842Y-61840634D01*
X154834702Y-61868605D01*
X154826712Y-61877384D01*
X145833874Y-70870221D01*
X145771562Y-70904247D01*
X145700747Y-70899182D01*
X145651144Y-70865438D01*
X145611253Y-70821134D01*
X145471954Y-70719927D01*
X145462094Y-70712763D01*
X145462093Y-70712762D01*
X145456752Y-70708882D01*
X145450724Y-70706198D01*
X145450722Y-70706197D01*
X145288319Y-70633891D01*
X145288318Y-70633891D01*
X145282288Y-70631206D01*
X145188887Y-70611353D01*
X145101944Y-70592872D01*
X145101939Y-70592872D01*
X145095487Y-70591500D01*
X144904513Y-70591500D01*
X144898061Y-70592872D01*
X144898056Y-70592872D01*
X144811113Y-70611353D01*
X144717712Y-70631206D01*
X144711682Y-70633891D01*
X144711681Y-70633891D01*
X144549278Y-70706197D01*
X144549276Y-70706198D01*
X144543248Y-70708882D01*
X144537907Y-70712762D01*
X144537906Y-70712763D01*
X144528046Y-70719927D01*
X144388747Y-70821134D01*
X144384329Y-70826041D01*
X144384325Y-70826045D01*
X144288249Y-70932749D01*
X144260960Y-70963056D01*
X144215891Y-71041118D01*
X144172595Y-71116109D01*
X144165473Y-71128444D01*
X144106458Y-71310072D01*
X144105768Y-71316633D01*
X144105768Y-71316635D01*
X144089093Y-71475292D01*
X144062080Y-71540949D01*
X144052878Y-71551218D01*
X143774499Y-71829596D01*
X143712187Y-71863621D01*
X143685404Y-71866500D01*
X140708200Y-71866500D01*
X140640079Y-71846498D01*
X140620853Y-71830157D01*
X140620580Y-71830460D01*
X140615668Y-71826037D01*
X140611253Y-71821134D01*
X140475571Y-71722555D01*
X140462094Y-71712763D01*
X140462093Y-71712762D01*
X140456752Y-71708882D01*
X140450726Y-71706199D01*
X140450719Y-71706195D01*
X140414637Y-71690131D01*
X140360541Y-71644151D01*
X140339891Y-71576224D01*
X140346052Y-71536088D01*
X140391502Y-71396206D01*
X140393542Y-71389928D01*
X140400234Y-71326262D01*
X140412814Y-71206565D01*
X140413504Y-71200000D01*
X140407943Y-71147088D01*
X140394232Y-71016635D01*
X140394232Y-71016633D01*
X140393542Y-71010072D01*
X140334527Y-70828444D01*
X140324331Y-70810783D01*
X140286615Y-70745458D01*
X140239040Y-70663056D01*
X140228767Y-70651646D01*
X140115675Y-70526045D01*
X140115674Y-70526044D01*
X140111253Y-70521134D01*
X139956752Y-70408882D01*
X139950724Y-70406198D01*
X139950722Y-70406197D01*
X139788319Y-70333891D01*
X139788318Y-70333891D01*
X139782288Y-70331206D01*
X139688887Y-70311353D01*
X139601944Y-70292872D01*
X139601939Y-70292872D01*
X139595487Y-70291500D01*
X139404513Y-70291500D01*
X139398061Y-70292872D01*
X139398056Y-70292872D01*
X139311113Y-70311353D01*
X139217712Y-70331206D01*
X139211682Y-70333891D01*
X139211681Y-70333891D01*
X139049278Y-70406197D01*
X139049276Y-70406198D01*
X139043248Y-70408882D01*
X138888747Y-70521134D01*
X138884326Y-70526044D01*
X138884325Y-70526045D01*
X138840417Y-70574810D01*
X138779971Y-70612050D01*
X138746781Y-70616500D01*
X137328768Y-70616500D01*
X137317585Y-70615973D01*
X137310092Y-70614298D01*
X137302166Y-70614547D01*
X137302165Y-70614547D01*
X137242002Y-70616438D01*
X137238044Y-70616500D01*
X137210144Y-70616500D01*
X137206154Y-70617004D01*
X137194320Y-70617936D01*
X137150111Y-70619326D01*
X137142497Y-70621538D01*
X137142492Y-70621539D01*
X137130659Y-70624977D01*
X137111296Y-70628988D01*
X137091203Y-70631526D01*
X137083836Y-70634443D01*
X137083831Y-70634444D01*
X137050092Y-70647802D01*
X137038865Y-70651646D01*
X136996407Y-70663982D01*
X136989581Y-70668019D01*
X136978972Y-70674293D01*
X136961224Y-70682988D01*
X136942383Y-70690448D01*
X136935967Y-70695110D01*
X136935966Y-70695110D01*
X136906613Y-70716436D01*
X136896693Y-70722952D01*
X136865465Y-70741420D01*
X136865462Y-70741422D01*
X136858638Y-70745458D01*
X136844317Y-70759779D01*
X136829284Y-70772619D01*
X136812893Y-70784528D01*
X136807840Y-70790636D01*
X136807838Y-70790638D01*
X136803557Y-70795813D01*
X136744725Y-70835553D01*
X136706471Y-70841500D01*
X136654513Y-70841500D01*
X136648061Y-70842872D01*
X136648056Y-70842872D01*
X136561113Y-70861353D01*
X136467712Y-70881206D01*
X136461682Y-70883891D01*
X136461681Y-70883891D01*
X136299278Y-70956197D01*
X136299276Y-70956198D01*
X136293248Y-70958882D01*
X136138747Y-71071134D01*
X136134326Y-71076044D01*
X136134325Y-71076045D01*
X136016805Y-71206565D01*
X136010960Y-71213056D01*
X135915473Y-71378444D01*
X135856458Y-71560072D01*
X135855768Y-71566633D01*
X135855768Y-71566635D01*
X135854760Y-71576224D01*
X135836496Y-71750000D01*
X135837186Y-71756565D01*
X135852630Y-71903502D01*
X135856458Y-71939928D01*
X135915473Y-72121556D01*
X136010960Y-72286944D01*
X136015378Y-72291851D01*
X136015379Y-72291852D01*
X136072340Y-72355114D01*
X136138747Y-72428866D01*
X136293248Y-72541118D01*
X136299276Y-72543802D01*
X136299278Y-72543803D01*
X136452823Y-72612165D01*
X136467712Y-72618794D01*
X136561112Y-72638647D01*
X136648056Y-72657128D01*
X136648061Y-72657128D01*
X136654513Y-72658500D01*
X136845487Y-72658500D01*
X136851939Y-72657128D01*
X136851944Y-72657128D01*
X136938888Y-72638647D01*
X137032288Y-72618794D01*
X137047177Y-72612165D01*
X137200722Y-72543803D01*
X137200724Y-72543802D01*
X137206752Y-72541118D01*
X137361253Y-72428866D01*
X137427660Y-72355114D01*
X137484621Y-72291852D01*
X137484622Y-72291851D01*
X137489040Y-72286944D01*
X137584527Y-72121556D01*
X137633588Y-71970563D01*
X137673662Y-71911958D01*
X137739059Y-71884321D01*
X137753421Y-71883500D01*
X138854185Y-71883500D01*
X138922306Y-71903502D01*
X138928246Y-71907564D01*
X139014957Y-71970563D01*
X139043248Y-71991118D01*
X139049274Y-71993801D01*
X139049281Y-71993805D01*
X139085363Y-72009869D01*
X139139459Y-72055849D01*
X139160109Y-72123776D01*
X139153948Y-72163912D01*
X139147975Y-72182296D01*
X139106458Y-72310072D01*
X139105768Y-72316633D01*
X139105768Y-72316635D01*
X139093972Y-72428866D01*
X139086496Y-72500000D01*
X139087186Y-72506565D01*
X139105418Y-72680030D01*
X139106458Y-72689928D01*
X139165473Y-72871556D01*
X139168776Y-72877278D01*
X139168777Y-72877279D01*
X139192152Y-72917765D01*
X139260960Y-73036944D01*
X139265378Y-73041851D01*
X139265379Y-73041852D01*
X139337290Y-73121717D01*
X139388747Y-73178866D01*
X139543248Y-73291118D01*
X139549276Y-73293802D01*
X139549278Y-73293803D01*
X139657558Y-73342012D01*
X139717712Y-73368794D01*
X139792680Y-73384729D01*
X139898056Y-73407128D01*
X139898061Y-73407128D01*
X139904513Y-73408500D01*
X140095487Y-73408500D01*
X140101939Y-73407128D01*
X140101944Y-73407128D01*
X140207320Y-73384729D01*
X140282288Y-73368794D01*
X140342442Y-73342012D01*
X140450722Y-73293803D01*
X140450724Y-73293802D01*
X140456752Y-73291118D01*
X140611253Y-73178866D01*
X140615668Y-73173963D01*
X140620580Y-73169540D01*
X140621705Y-73170789D01*
X140675014Y-73137949D01*
X140708200Y-73133500D01*
X143266405Y-73133500D01*
X143334526Y-73153502D01*
X143381019Y-73207158D01*
X143391123Y-73277432D01*
X143361629Y-73342012D01*
X143355500Y-73348595D01*
X138674500Y-78029595D01*
X138612188Y-78063621D01*
X138585405Y-78066500D01*
X128308200Y-78066500D01*
X128240079Y-78046498D01*
X128220853Y-78030157D01*
X128220580Y-78030460D01*
X128215668Y-78026037D01*
X128211253Y-78021134D01*
X128121724Y-77956087D01*
X128062094Y-77912763D01*
X128062093Y-77912762D01*
X128056752Y-77908882D01*
X128050724Y-77906198D01*
X128050722Y-77906197D01*
X127888319Y-77833891D01*
X127888318Y-77833891D01*
X127882288Y-77831206D01*
X127788888Y-77811353D01*
X127701944Y-77792872D01*
X127701939Y-77792872D01*
X127695487Y-77791500D01*
X127504513Y-77791500D01*
X127498061Y-77792872D01*
X127498056Y-77792872D01*
X127411112Y-77811353D01*
X127317712Y-77831206D01*
X127311682Y-77833891D01*
X127311681Y-77833891D01*
X127149278Y-77906197D01*
X127149276Y-77906198D01*
X127143248Y-77908882D01*
X126988747Y-78021134D01*
X126984326Y-78026044D01*
X126984325Y-78026045D01*
X126928813Y-78087698D01*
X126860960Y-78163056D01*
X126804150Y-78261454D01*
X126771076Y-78318740D01*
X126765473Y-78328444D01*
X126706458Y-78510072D01*
X126705768Y-78516633D01*
X126705768Y-78516635D01*
X126699373Y-78577481D01*
X126686496Y-78700000D01*
X126687186Y-78706565D01*
X126702657Y-78853760D01*
X126706458Y-78889928D01*
X126765473Y-79071556D01*
X126768776Y-79077278D01*
X126768777Y-79077279D01*
X126777545Y-79092465D01*
X126823588Y-79172213D01*
X126832125Y-79187000D01*
X126848863Y-79255995D01*
X126832125Y-79312999D01*
X126765473Y-79428444D01*
X126706458Y-79610072D01*
X126705768Y-79616633D01*
X126705768Y-79616635D01*
X126691623Y-79751217D01*
X126686496Y-79800000D01*
X126688927Y-79823124D01*
X126695178Y-79882602D01*
X126682406Y-79952441D01*
X126633904Y-80004287D01*
X126565071Y-80021682D01*
X126497761Y-79999101D01*
X126480773Y-79984868D01*
X126247122Y-79751217D01*
X126213096Y-79688905D01*
X126210907Y-79675292D01*
X126194232Y-79516635D01*
X126194232Y-79516633D01*
X126193542Y-79510072D01*
X126134527Y-79328444D01*
X126125611Y-79313000D01*
X126079688Y-79233460D01*
X126039040Y-79163056D01*
X126029084Y-79151998D01*
X125915675Y-79026045D01*
X125915674Y-79026044D01*
X125911253Y-79021134D01*
X125756752Y-78908882D01*
X125750724Y-78906198D01*
X125750722Y-78906197D01*
X125588319Y-78833891D01*
X125588318Y-78833891D01*
X125582288Y-78831206D01*
X125488888Y-78811353D01*
X125401944Y-78792872D01*
X125401939Y-78792872D01*
X125395487Y-78791500D01*
X125204513Y-78791500D01*
X125198061Y-78792872D01*
X125198056Y-78792872D01*
X125111112Y-78811353D01*
X125017712Y-78831206D01*
X125011682Y-78833891D01*
X125011681Y-78833891D01*
X124849278Y-78906197D01*
X124849276Y-78906198D01*
X124843248Y-78908882D01*
X124688747Y-79021134D01*
X124684326Y-79026044D01*
X124684325Y-79026045D01*
X124570917Y-79151998D01*
X124560960Y-79163056D01*
X124520312Y-79233460D01*
X124474390Y-79313000D01*
X124465473Y-79328444D01*
X124406458Y-79510072D01*
X124405768Y-79516633D01*
X124405768Y-79516635D01*
X124395948Y-79610072D01*
X124386496Y-79700000D01*
X124387186Y-79706565D01*
X124399123Y-79820135D01*
X124406458Y-79889928D01*
X124465473Y-80071556D01*
X124560960Y-80236944D01*
X124565378Y-80241851D01*
X124565379Y-80241852D01*
X124649854Y-80335671D01*
X124688747Y-80378866D01*
X124843248Y-80491118D01*
X124849276Y-80493802D01*
X124849278Y-80493803D01*
X125011681Y-80566109D01*
X125017712Y-80568794D01*
X125101308Y-80586563D01*
X125198056Y-80607128D01*
X125198061Y-80607128D01*
X125204513Y-80608500D01*
X125260406Y-80608500D01*
X125328527Y-80628502D01*
X125349501Y-80645405D01*
X128496343Y-83792247D01*
X128503887Y-83800537D01*
X128508000Y-83807018D01*
X128513777Y-83812443D01*
X128557667Y-83853658D01*
X128560509Y-83856413D01*
X128580230Y-83876134D01*
X128583425Y-83878612D01*
X128592447Y-83886318D01*
X128624679Y-83916586D01*
X128631628Y-83920406D01*
X128642432Y-83926346D01*
X128658956Y-83937199D01*
X128674959Y-83949613D01*
X128715543Y-83967176D01*
X128726173Y-83972383D01*
X128764940Y-83993695D01*
X128772617Y-83995666D01*
X128772622Y-83995668D01*
X128784558Y-83998732D01*
X128803266Y-84005137D01*
X128821855Y-84013181D01*
X128829683Y-84014421D01*
X128829690Y-84014423D01*
X128865524Y-84020099D01*
X128877144Y-84022505D01*
X128912289Y-84031528D01*
X128919970Y-84033500D01*
X128940224Y-84033500D01*
X128959934Y-84035051D01*
X128979943Y-84038220D01*
X128987835Y-84037474D01*
X129023961Y-84034059D01*
X129035819Y-84033500D01*
X152891800Y-84033500D01*
X152959921Y-84053502D01*
X152979147Y-84069843D01*
X152979420Y-84069540D01*
X152984332Y-84073963D01*
X152988747Y-84078866D01*
X153143248Y-84191118D01*
X153149276Y-84193802D01*
X153149278Y-84193803D01*
X153311681Y-84266109D01*
X153317712Y-84268794D01*
X153411113Y-84288647D01*
X153498056Y-84307128D01*
X153498061Y-84307128D01*
X153504513Y-84308500D01*
X153695487Y-84308500D01*
X153701939Y-84307128D01*
X153701944Y-84307128D01*
X153788887Y-84288647D01*
X153882288Y-84268794D01*
X153888319Y-84266109D01*
X154050722Y-84193803D01*
X154050724Y-84193802D01*
X154056752Y-84191118D01*
X154211253Y-84078866D01*
X154247851Y-84038220D01*
X154334621Y-83941852D01*
X154334622Y-83941851D01*
X154339040Y-83936944D01*
X154397314Y-83836010D01*
X154431223Y-83777279D01*
X154431224Y-83777278D01*
X154434527Y-83771556D01*
X154493542Y-83589928D01*
X154496159Y-83565035D01*
X154512814Y-83406565D01*
X154513504Y-83400000D01*
X154501193Y-83282867D01*
X154494232Y-83216635D01*
X154494232Y-83216633D01*
X154493542Y-83210072D01*
X154441023Y-83048436D01*
X154438995Y-82977469D01*
X154475658Y-82916671D01*
X154539370Y-82885345D01*
X154560856Y-82883500D01*
X155198360Y-82883500D01*
X155209543Y-82884027D01*
X155217036Y-82885702D01*
X155224962Y-82885453D01*
X155224963Y-82885453D01*
X155285113Y-82883562D01*
X155289072Y-82883500D01*
X155316983Y-82883500D01*
X155320918Y-82883003D01*
X155320983Y-82882995D01*
X155332820Y-82882062D01*
X155365078Y-82881048D01*
X155369097Y-82880922D01*
X155377016Y-82880673D01*
X155396470Y-82875021D01*
X155415827Y-82871013D01*
X155428057Y-82869468D01*
X155428058Y-82869468D01*
X155435924Y-82868474D01*
X155443295Y-82865555D01*
X155443297Y-82865555D01*
X155477039Y-82852196D01*
X155488269Y-82848351D01*
X155523110Y-82838229D01*
X155523111Y-82838229D01*
X155530720Y-82836018D01*
X155537539Y-82831985D01*
X155537544Y-82831983D01*
X155548155Y-82825707D01*
X155565903Y-82817012D01*
X155584744Y-82809552D01*
X155620514Y-82783564D01*
X155630434Y-82777048D01*
X155661662Y-82758580D01*
X155661665Y-82758578D01*
X155668489Y-82754542D01*
X155682810Y-82740221D01*
X155697844Y-82727380D01*
X155707821Y-82720131D01*
X155714234Y-82715472D01*
X155742425Y-82681395D01*
X155750415Y-82672616D01*
X156892247Y-81530784D01*
X156900537Y-81523240D01*
X156907018Y-81519127D01*
X156953659Y-81469459D01*
X156956413Y-81466618D01*
X156976135Y-81446896D01*
X156978612Y-81443703D01*
X156986317Y-81434682D01*
X157000376Y-81419710D01*
X157016586Y-81402448D01*
X157020407Y-81395498D01*
X157026346Y-81384695D01*
X157037202Y-81368168D01*
X157044757Y-81358429D01*
X157044758Y-81358427D01*
X157049614Y-81352167D01*
X157067174Y-81311587D01*
X157072391Y-81300939D01*
X157089875Y-81269136D01*
X157089876Y-81269134D01*
X157093695Y-81262187D01*
X157096433Y-81251526D01*
X157098733Y-81242565D01*
X157105137Y-81223861D01*
X157110033Y-81212547D01*
X157110033Y-81212546D01*
X157113181Y-81205272D01*
X157114420Y-81197449D01*
X157114423Y-81197439D01*
X157120099Y-81161603D01*
X157122505Y-81149983D01*
X157131528Y-81114838D01*
X157131528Y-81114837D01*
X157133500Y-81107157D01*
X157133500Y-81086903D01*
X157135051Y-81067192D01*
X157136980Y-81055013D01*
X157138220Y-81047184D01*
X157137474Y-81039292D01*
X157137723Y-81031369D01*
X157139306Y-81031419D01*
X157151074Y-80970656D01*
X157200114Y-80919318D01*
X157269125Y-80902643D01*
X157289209Y-80905248D01*
X157298049Y-80907127D01*
X157298058Y-80907128D01*
X157304513Y-80908500D01*
X157495487Y-80908500D01*
X157501939Y-80907128D01*
X157501944Y-80907128D01*
X157588888Y-80888647D01*
X157682288Y-80868794D01*
X157719222Y-80852350D01*
X157850722Y-80793803D01*
X157850724Y-80793802D01*
X157856752Y-80791118D01*
X157902935Y-80757564D01*
X157969803Y-80733706D01*
X157976996Y-80733500D01*
X158740244Y-80733500D01*
X158808365Y-80753502D01*
X158854858Y-80807158D01*
X158864962Y-80877432D01*
X158860077Y-80898437D01*
X158856458Y-80909575D01*
X158855768Y-80916141D01*
X158855767Y-80916145D01*
X158839407Y-81071805D01*
X158836496Y-81099503D01*
X158837186Y-81106068D01*
X158853595Y-81262187D01*
X158856458Y-81289431D01*
X158915473Y-81471059D01*
X158918773Y-81476774D01*
X158918777Y-81476782D01*
X158951523Y-81533500D01*
X159010960Y-81636447D01*
X159015378Y-81641354D01*
X159015379Y-81641355D01*
X159075520Y-81708148D01*
X159138747Y-81778369D01*
X159225016Y-81841047D01*
X159280144Y-81881100D01*
X159293248Y-81890621D01*
X159299276Y-81893305D01*
X159299278Y-81893306D01*
X159461681Y-81965612D01*
X159467712Y-81968297D01*
X159541838Y-81984053D01*
X159648056Y-82006631D01*
X159648061Y-82006631D01*
X159654513Y-82008003D01*
X159845487Y-82008003D01*
X159851939Y-82006631D01*
X159851944Y-82006631D01*
X159958162Y-81984053D01*
X160032288Y-81968297D01*
X160038319Y-81965612D01*
X160200722Y-81893306D01*
X160200724Y-81893305D01*
X160206752Y-81890621D01*
X160219857Y-81881100D01*
X160274984Y-81841047D01*
X160361253Y-81778369D01*
X160424480Y-81708148D01*
X160484621Y-81641355D01*
X160484622Y-81641354D01*
X160489040Y-81636447D01*
X160548477Y-81533500D01*
X160581223Y-81476782D01*
X160581227Y-81476774D01*
X160584527Y-81471059D01*
X160643542Y-81289431D01*
X160657958Y-81152270D01*
X160684971Y-81086613D01*
X160694173Y-81076345D01*
X162916758Y-78853760D01*
X162925048Y-78846216D01*
X162931529Y-78842103D01*
X162978170Y-78792435D01*
X162980924Y-78789594D01*
X163000645Y-78769873D01*
X163003123Y-78766678D01*
X163010829Y-78757656D01*
X163035669Y-78731204D01*
X163041097Y-78725424D01*
X163050857Y-78707671D01*
X163061710Y-78691148D01*
X163062867Y-78689656D01*
X163074124Y-78675144D01*
X163091687Y-78634560D01*
X163096894Y-78623930D01*
X163118206Y-78585163D01*
X163120177Y-78577486D01*
X163120179Y-78577481D01*
X163123243Y-78565545D01*
X163129649Y-78546833D01*
X163134545Y-78535520D01*
X163137692Y-78528248D01*
X163139532Y-78516635D01*
X163144608Y-78484584D01*
X163147015Y-78472963D01*
X163156039Y-78437814D01*
X163156039Y-78437813D01*
X163158011Y-78430133D01*
X163158011Y-78409872D01*
X163159562Y-78390161D01*
X163161490Y-78377988D01*
X163162730Y-78370160D01*
X163158570Y-78326149D01*
X163158011Y-78314292D01*
X163158011Y-71261702D01*
X163178013Y-71193581D01*
X163231669Y-71147088D01*
X163301943Y-71136984D01*
X163310208Y-71138455D01*
X163398056Y-71157128D01*
X163398061Y-71157128D01*
X163404513Y-71158500D01*
X163595487Y-71158500D01*
X163601939Y-71157128D01*
X163601944Y-71157128D01*
X163707320Y-71134729D01*
X163782288Y-71118794D01*
X163816810Y-71103424D01*
X163950722Y-71043803D01*
X163950724Y-71043802D01*
X163956752Y-71041118D01*
X164111253Y-70928866D01*
X164116769Y-70922740D01*
X164234621Y-70791852D01*
X164234622Y-70791851D01*
X164239040Y-70786944D01*
X164313401Y-70658148D01*
X164331223Y-70627279D01*
X164331224Y-70627278D01*
X164334527Y-70621556D01*
X164393542Y-70439928D01*
X164401296Y-70366158D01*
X164412814Y-70256565D01*
X164413504Y-70250000D01*
X164393542Y-70060072D01*
X164334527Y-69878444D01*
X164239040Y-69713056D01*
X164165863Y-69631785D01*
X164135147Y-69567779D01*
X164133500Y-69547476D01*
X164133500Y-68214594D01*
X164153502Y-68146473D01*
X164170405Y-68125499D01*
X167687480Y-64608424D01*
X167749792Y-64574398D01*
X167820607Y-64579463D01*
X167877443Y-64622010D01*
X167902254Y-64688530D01*
X167896907Y-64734883D01*
X167844977Y-64902125D01*
X167843393Y-64907227D01*
X167842692Y-64912516D01*
X167827304Y-65028623D01*
X167813102Y-65135774D01*
X167821751Y-65366158D01*
X167869093Y-65591791D01*
X167953776Y-65806221D01*
X168073377Y-66003317D01*
X168076874Y-66007347D01*
X168163438Y-66107103D01*
X168224477Y-66177445D01*
X168228608Y-66180832D01*
X168398627Y-66320240D01*
X168398633Y-66320244D01*
X168402755Y-66323624D01*
X168434250Y-66341552D01*
X168483555Y-66392632D01*
X168497417Y-66462262D01*
X168471434Y-66528333D01*
X168442284Y-66555573D01*
X168320681Y-66637441D01*
X168153865Y-66796576D01*
X168016246Y-66981542D01*
X168013830Y-66986293D01*
X168013828Y-66986297D01*
X167980991Y-67050883D01*
X167911760Y-67187051D01*
X167910178Y-67192145D01*
X167910177Y-67192148D01*
X167848115Y-67392020D01*
X167843393Y-67407227D01*
X167842692Y-67412516D01*
X167827304Y-67528623D01*
X167813102Y-67635774D01*
X167821751Y-67866158D01*
X167869093Y-68091791D01*
X167871051Y-68096750D01*
X167871052Y-68096752D01*
X167917591Y-68214594D01*
X167953776Y-68306221D01*
X168073377Y-68503317D01*
X168076874Y-68507347D01*
X168163438Y-68607103D01*
X168224477Y-68677445D01*
X168228608Y-68680832D01*
X168398627Y-68820240D01*
X168398633Y-68820244D01*
X168402755Y-68823624D01*
X168434250Y-68841552D01*
X168483555Y-68892632D01*
X168497417Y-68962262D01*
X168471434Y-69028333D01*
X168442284Y-69055573D01*
X168320681Y-69137441D01*
X168153865Y-69296576D01*
X168016246Y-69481542D01*
X167911760Y-69687051D01*
X167910178Y-69692145D01*
X167910177Y-69692148D01*
X167854107Y-69872721D01*
X167843393Y-69907227D01*
X167842692Y-69912516D01*
X167827304Y-70028623D01*
X167813102Y-70135774D01*
X167821751Y-70366158D01*
X167869093Y-70591791D01*
X167871051Y-70596750D01*
X167871052Y-70596752D01*
X167949666Y-70795813D01*
X167953776Y-70806221D01*
X167956543Y-70810780D01*
X167956544Y-70810783D01*
X167999278Y-70881206D01*
X168073377Y-71003317D01*
X168076874Y-71007347D01*
X168198135Y-71147088D01*
X168224477Y-71177445D01*
X168228608Y-71180832D01*
X168398627Y-71320240D01*
X168398633Y-71320244D01*
X168402755Y-71323624D01*
X168434250Y-71341552D01*
X168483555Y-71392632D01*
X168497417Y-71462262D01*
X168471434Y-71528333D01*
X168442284Y-71555573D01*
X168320681Y-71637441D01*
X168153865Y-71796576D01*
X168150682Y-71800854D01*
X168116722Y-71846498D01*
X168016246Y-71981542D01*
X168013830Y-71986293D01*
X168013828Y-71986297D01*
X168011377Y-71991118D01*
X167911760Y-72187051D01*
X167910178Y-72192145D01*
X167910177Y-72192148D01*
X167871523Y-72316635D01*
X167843393Y-72407227D01*
X167842692Y-72412516D01*
X167814148Y-72627885D01*
X167813102Y-72635774D01*
X167813302Y-72641103D01*
X167813302Y-72641105D01*
X167813904Y-72657128D01*
X167821751Y-72866158D01*
X167869093Y-73091791D01*
X167871051Y-73096750D01*
X167871052Y-73096752D01*
X167947812Y-73291118D01*
X167953776Y-73306221D01*
X167956543Y-73310780D01*
X167956544Y-73310783D01*
X168018998Y-73413703D01*
X168073377Y-73503317D01*
X168076874Y-73507347D01*
X168186829Y-73634059D01*
X168224477Y-73677445D01*
X168260120Y-73706670D01*
X168300114Y-73765329D01*
X168302046Y-73836299D01*
X168265302Y-73897048D01*
X168246532Y-73911248D01*
X168200186Y-73939928D01*
X168100652Y-74001522D01*
X167975695Y-74126697D01*
X167971855Y-74132927D01*
X167971854Y-74132928D01*
X167966559Y-74141519D01*
X167882885Y-74277262D01*
X167827203Y-74445139D01*
X167826503Y-74451975D01*
X167826502Y-74451978D01*
X167823885Y-74477525D01*
X167816500Y-74549600D01*
X167816500Y-75850400D01*
X167816837Y-75853646D01*
X167816837Y-75853650D01*
X167823041Y-75913438D01*
X167827474Y-75956166D01*
X167829655Y-75962702D01*
X167829655Y-75962704D01*
X167857611Y-76046498D01*
X167883450Y-76123946D01*
X167976522Y-76274348D01*
X168101697Y-76399305D01*
X168107929Y-76403147D01*
X168107931Y-76403148D01*
X168165685Y-76438749D01*
X168213178Y-76491521D01*
X168224600Y-76561593D01*
X168196326Y-76626717D01*
X168188663Y-76635103D01*
X152369171Y-92454595D01*
X152306859Y-92488621D01*
X152280076Y-92491500D01*
X145811843Y-92491500D01*
X145798236Y-92490763D01*
X145766738Y-92487341D01*
X145766733Y-92487341D01*
X145760612Y-92486676D01*
X145734362Y-92488973D01*
X145710612Y-92491050D01*
X145705786Y-92491379D01*
X145703314Y-92491500D01*
X145700231Y-92491500D01*
X145688262Y-92492674D01*
X145657494Y-92495690D01*
X145656181Y-92495812D01*
X145611916Y-92499685D01*
X145563587Y-92503913D01*
X145558468Y-92505400D01*
X145553167Y-92505920D01*
X145464166Y-92532791D01*
X145463033Y-92533126D01*
X145379586Y-92557370D01*
X145379582Y-92557372D01*
X145373664Y-92559091D01*
X145368932Y-92561544D01*
X145363831Y-92563084D01*
X145358388Y-92565978D01*
X145281740Y-92606731D01*
X145280574Y-92607343D01*
X145213864Y-92641923D01*
X145198074Y-92650108D01*
X145193911Y-92653431D01*
X145189204Y-92655934D01*
X145117082Y-92714755D01*
X145116226Y-92715446D01*
X145077027Y-92746738D01*
X145074523Y-92749242D01*
X145073805Y-92749884D01*
X145069472Y-92753585D01*
X145035938Y-92780935D01*
X145032011Y-92785682D01*
X145032009Y-92785684D01*
X145006713Y-92816262D01*
X144998723Y-92825042D01*
X143919429Y-93904337D01*
X142869171Y-94954595D01*
X142806859Y-94988620D01*
X142780076Y-94991500D01*
X125068738Y-94991500D01*
X125000617Y-94971498D01*
X124954124Y-94917842D01*
X124944020Y-94847568D01*
X124973514Y-94782988D01*
X124994677Y-94763564D01*
X125062078Y-94714594D01*
X125111253Y-94678866D01*
X125117882Y-94671504D01*
X125234621Y-94541852D01*
X125234622Y-94541851D01*
X125239040Y-94536944D01*
X125334527Y-94371556D01*
X125393542Y-94189928D01*
X125394674Y-94179164D01*
X125412814Y-94006565D01*
X125413504Y-94000000D01*
X125402591Y-93896171D01*
X125415363Y-93826333D01*
X125463865Y-93774487D01*
X125532698Y-93757092D01*
X125600008Y-93779673D01*
X125621537Y-93798691D01*
X125631785Y-93810072D01*
X125738747Y-93928866D01*
X125893248Y-94041118D01*
X125899276Y-94043802D01*
X125899278Y-94043803D01*
X126061681Y-94116109D01*
X126067712Y-94118794D01*
X126161112Y-94138647D01*
X126248056Y-94157128D01*
X126248061Y-94157128D01*
X126254513Y-94158500D01*
X126445487Y-94158500D01*
X126451939Y-94157128D01*
X126451944Y-94157128D01*
X126538888Y-94138647D01*
X126632288Y-94118794D01*
X126638319Y-94116109D01*
X126800722Y-94043803D01*
X126800724Y-94043802D01*
X126806752Y-94041118D01*
X126961253Y-93928866D01*
X127062306Y-93816635D01*
X127084621Y-93791852D01*
X127084622Y-93791851D01*
X127089040Y-93786944D01*
X127184527Y-93621556D01*
X127243542Y-93439928D01*
X127248124Y-93396329D01*
X127275137Y-93330673D01*
X127333358Y-93290043D01*
X127373434Y-93283500D01*
X139173653Y-93283500D01*
X139199850Y-93286253D01*
X139298056Y-93307128D01*
X139298061Y-93307128D01*
X139304513Y-93308500D01*
X139495487Y-93308500D01*
X139501939Y-93307128D01*
X139501944Y-93307128D01*
X139600150Y-93286253D01*
X139626347Y-93283500D01*
X140173653Y-93283500D01*
X140199850Y-93286253D01*
X140298056Y-93307128D01*
X140298061Y-93307128D01*
X140304513Y-93308500D01*
X140495487Y-93308500D01*
X140501939Y-93307128D01*
X140501944Y-93307128D01*
X140600150Y-93286253D01*
X140626347Y-93283500D01*
X141173653Y-93283500D01*
X141199850Y-93286253D01*
X141298056Y-93307128D01*
X141298061Y-93307128D01*
X141304513Y-93308500D01*
X141495487Y-93308500D01*
X141501939Y-93307128D01*
X141501944Y-93307128D01*
X141600150Y-93286253D01*
X141682288Y-93268794D01*
X141688319Y-93266109D01*
X141850722Y-93193803D01*
X141850724Y-93193802D01*
X141856752Y-93191118D01*
X141868277Y-93182745D01*
X141968428Y-93109980D01*
X142011253Y-93078866D01*
X142033828Y-93053794D01*
X142134621Y-92941852D01*
X142134622Y-92941851D01*
X142139040Y-92936944D01*
X142234527Y-92771556D01*
X142293542Y-92589928D01*
X142296364Y-92563084D01*
X142312814Y-92406565D01*
X142313504Y-92400000D01*
X142293542Y-92210072D01*
X142234527Y-92028444D01*
X142215483Y-91995458D01*
X142190694Y-91952524D01*
X142139040Y-91863056D01*
X142109691Y-91830460D01*
X142015675Y-91726045D01*
X142015674Y-91726044D01*
X142011253Y-91721134D01*
X141856752Y-91608882D01*
X141850724Y-91606198D01*
X141850722Y-91606197D01*
X141688319Y-91533891D01*
X141688318Y-91533891D01*
X141682288Y-91531206D01*
X141588887Y-91511353D01*
X141501944Y-91492872D01*
X141501939Y-91492872D01*
X141495487Y-91491500D01*
X141304513Y-91491500D01*
X141298061Y-91492872D01*
X141298056Y-91492872D01*
X141199850Y-91513747D01*
X141173653Y-91516500D01*
X140626347Y-91516500D01*
X140600150Y-91513747D01*
X140501944Y-91492872D01*
X140501939Y-91492872D01*
X140495487Y-91491500D01*
X140304513Y-91491500D01*
X140298061Y-91492872D01*
X140298056Y-91492872D01*
X140199850Y-91513747D01*
X140173653Y-91516500D01*
X139626347Y-91516500D01*
X139600150Y-91513747D01*
X139501944Y-91492872D01*
X139501939Y-91492872D01*
X139495487Y-91491500D01*
X139304513Y-91491500D01*
X139298061Y-91492872D01*
X139298056Y-91492872D01*
X139199850Y-91513747D01*
X139173653Y-91516500D01*
X126768147Y-91516500D01*
X126700026Y-91496498D01*
X126679052Y-91479595D01*
X124920405Y-89720947D01*
X124886379Y-89658635D01*
X124883500Y-89631852D01*
X124883500Y-81829457D01*
X124885051Y-81809745D01*
X124886118Y-81803008D01*
X124887150Y-81796493D01*
X124886682Y-81787548D01*
X124883673Y-81730150D01*
X124883500Y-81723555D01*
X124883500Y-81703694D01*
X124881423Y-81683931D01*
X124880907Y-81677367D01*
X124880858Y-81676422D01*
X124878804Y-81637234D01*
X124877776Y-81617623D01*
X124877775Y-81617619D01*
X124877430Y-81611029D01*
X124873958Y-81598071D01*
X124870355Y-81578628D01*
X124870311Y-81578205D01*
X124868954Y-81565298D01*
X124848422Y-81502106D01*
X124846556Y-81495804D01*
X124831071Y-81438015D01*
X124829362Y-81431637D01*
X124826366Y-81425758D01*
X124826363Y-81425749D01*
X124823272Y-81419683D01*
X124815708Y-81401421D01*
X124813608Y-81394958D01*
X124813606Y-81394953D01*
X124811564Y-81388669D01*
X124778337Y-81331119D01*
X124775214Y-81325366D01*
X124745048Y-81266161D01*
X124736607Y-81255737D01*
X124725412Y-81239449D01*
X124722005Y-81233548D01*
X124722004Y-81233547D01*
X124718704Y-81227831D01*
X124714287Y-81222925D01*
X124714283Y-81222920D01*
X124674253Y-81178462D01*
X124669969Y-81173447D01*
X124659548Y-81160579D01*
X124657472Y-81158015D01*
X124643436Y-81143979D01*
X124638895Y-81139194D01*
X124598856Y-81094726D01*
X124598855Y-81094725D01*
X124594434Y-81089815D01*
X124589094Y-81085935D01*
X124589086Y-81085928D01*
X124583578Y-81081927D01*
X124568543Y-81069086D01*
X121787007Y-78287550D01*
X121766982Y-78261454D01*
X121742343Y-78218777D01*
X121739040Y-78213056D01*
X121611253Y-78071134D01*
X121470578Y-77968927D01*
X121455545Y-77956087D01*
X119920405Y-76420947D01*
X119886379Y-76358635D01*
X119883500Y-76331852D01*
X119883500Y-75468580D01*
X126243752Y-75468580D01*
X126268477Y-75586421D01*
X126271537Y-75596617D01*
X126352263Y-75801029D01*
X126356994Y-75810561D01*
X126471016Y-75998462D01*
X126477280Y-76007052D01*
X126621327Y-76173052D01*
X126628958Y-76180472D01*
X126798911Y-76319826D01*
X126807678Y-76325850D01*
X126998682Y-76434576D01*
X127008346Y-76439041D01*
X127214941Y-76514031D01*
X127225208Y-76516802D01*
X127428174Y-76553504D01*
X127441414Y-76552085D01*
X127446000Y-76537450D01*
X127446000Y-76533849D01*
X127954000Y-76533849D01*
X127958310Y-76548527D01*
X127970193Y-76550590D01*
X128049325Y-76543876D01*
X128059797Y-76542086D01*
X128272535Y-76486870D01*
X128282575Y-76483335D01*
X128482970Y-76393063D01*
X128492256Y-76387894D01*
X128674575Y-76265150D01*
X128682870Y-76258481D01*
X128841900Y-76106772D01*
X128848941Y-76098814D01*
X128980141Y-75922475D01*
X128985745Y-75913438D01*
X129085357Y-75717516D01*
X129089357Y-75707665D01*
X129154534Y-75497760D01*
X129156817Y-75487376D01*
X129158861Y-75471957D01*
X129156665Y-75457793D01*
X129143478Y-75454000D01*
X127972115Y-75454000D01*
X127956876Y-75458475D01*
X127955671Y-75459865D01*
X127954000Y-75467548D01*
X127954000Y-76533849D01*
X127446000Y-76533849D01*
X127446000Y-75472115D01*
X127441525Y-75456876D01*
X127440135Y-75455671D01*
X127432452Y-75454000D01*
X126258808Y-75454000D01*
X126245277Y-75457973D01*
X126243752Y-75468580D01*
X119883500Y-75468580D01*
X119883500Y-63118148D01*
X119903502Y-63050027D01*
X119920405Y-63029053D01*
X123529053Y-59420405D01*
X123591365Y-59386379D01*
X123618148Y-59383500D01*
X126093949Y-59383500D01*
X126162070Y-59403502D01*
X126208563Y-59457158D01*
X126219293Y-59522343D01*
X126216500Y-59549600D01*
X126216500Y-60850400D01*
X126216837Y-60853646D01*
X126216837Y-60853650D01*
X126223045Y-60913478D01*
X126227474Y-60956166D01*
X126283450Y-61123946D01*
X126376522Y-61274348D01*
X126501697Y-61399305D01*
X126647340Y-61489081D01*
X126694832Y-61541852D01*
X126706256Y-61611924D01*
X126677982Y-61677048D01*
X126668195Y-61687510D01*
X126636216Y-61718017D01*
X126553865Y-61796576D01*
X126550682Y-61800854D01*
X126544042Y-61809779D01*
X126416246Y-61981542D01*
X126413830Y-61986293D01*
X126413828Y-61986297D01*
X126364003Y-62084297D01*
X126311760Y-62187051D01*
X126310178Y-62192145D01*
X126310177Y-62192148D01*
X126260721Y-62351421D01*
X126243393Y-62407227D01*
X126242692Y-62412516D01*
X126216717Y-62608500D01*
X126213102Y-62635774D01*
X126221751Y-62866158D01*
X126269093Y-63091791D01*
X126271051Y-63096750D01*
X126271052Y-63096752D01*
X126350570Y-63298102D01*
X126353776Y-63306221D01*
X126473377Y-63503317D01*
X126476874Y-63507347D01*
X126563438Y-63607103D01*
X126624477Y-63677445D01*
X126628608Y-63680832D01*
X126798627Y-63820240D01*
X126798633Y-63820244D01*
X126802755Y-63823624D01*
X126834250Y-63841552D01*
X126883555Y-63892632D01*
X126897417Y-63962262D01*
X126871434Y-64028333D01*
X126842284Y-64055573D01*
X126720681Y-64137441D01*
X126553865Y-64296576D01*
X126416246Y-64481542D01*
X126311760Y-64687051D01*
X126310178Y-64692145D01*
X126310177Y-64692148D01*
X126248115Y-64892020D01*
X126243393Y-64907227D01*
X126242692Y-64912516D01*
X126227304Y-65028623D01*
X126213102Y-65135774D01*
X126221751Y-65366158D01*
X126269093Y-65591791D01*
X126353776Y-65806221D01*
X126473377Y-66003317D01*
X126476874Y-66007347D01*
X126563438Y-66107103D01*
X126624477Y-66177445D01*
X126628608Y-66180832D01*
X126798627Y-66320240D01*
X126798633Y-66320244D01*
X126802755Y-66323624D01*
X126834250Y-66341552D01*
X126883555Y-66392632D01*
X126897417Y-66462262D01*
X126871434Y-66528333D01*
X126842284Y-66555573D01*
X126720681Y-66637441D01*
X126553865Y-66796576D01*
X126416246Y-66981542D01*
X126413830Y-66986293D01*
X126413828Y-66986297D01*
X126380991Y-67050883D01*
X126311760Y-67187051D01*
X126310178Y-67192145D01*
X126310177Y-67192148D01*
X126248115Y-67392020D01*
X126243393Y-67407227D01*
X126242692Y-67412516D01*
X126227304Y-67528623D01*
X126213102Y-67635774D01*
X126221751Y-67866158D01*
X126269093Y-68091791D01*
X126271051Y-68096750D01*
X126271052Y-68096752D01*
X126317591Y-68214594D01*
X126353776Y-68306221D01*
X126473377Y-68503317D01*
X126476874Y-68507347D01*
X126563438Y-68607103D01*
X126624477Y-68677445D01*
X126628608Y-68680832D01*
X126798627Y-68820240D01*
X126798633Y-68820244D01*
X126802755Y-68823624D01*
X126834250Y-68841552D01*
X126883555Y-68892632D01*
X126897417Y-68962262D01*
X126871434Y-69028333D01*
X126842284Y-69055573D01*
X126720681Y-69137441D01*
X126553865Y-69296576D01*
X126416246Y-69481542D01*
X126311760Y-69687051D01*
X126310178Y-69692145D01*
X126310177Y-69692148D01*
X126254107Y-69872721D01*
X126243393Y-69907227D01*
X126242692Y-69912516D01*
X126227304Y-70028623D01*
X126213102Y-70135774D01*
X126221751Y-70366158D01*
X126269093Y-70591791D01*
X126271051Y-70596750D01*
X126271052Y-70596752D01*
X126349666Y-70795813D01*
X126353776Y-70806221D01*
X126356543Y-70810780D01*
X126356544Y-70810783D01*
X126399278Y-70881206D01*
X126473377Y-71003317D01*
X126476874Y-71007347D01*
X126598135Y-71147088D01*
X126624477Y-71177445D01*
X126628608Y-71180832D01*
X126798627Y-71320240D01*
X126798633Y-71320244D01*
X126802755Y-71323624D01*
X126834250Y-71341552D01*
X126883555Y-71392632D01*
X126897417Y-71462262D01*
X126871434Y-71528333D01*
X126842284Y-71555573D01*
X126720681Y-71637441D01*
X126553865Y-71796576D01*
X126550682Y-71800854D01*
X126516722Y-71846498D01*
X126416246Y-71981542D01*
X126413830Y-71986293D01*
X126413828Y-71986297D01*
X126411377Y-71991118D01*
X126311760Y-72187051D01*
X126310178Y-72192145D01*
X126310177Y-72192148D01*
X126271523Y-72316635D01*
X126243393Y-72407227D01*
X126242692Y-72412516D01*
X126214148Y-72627885D01*
X126213102Y-72635774D01*
X126213302Y-72641103D01*
X126213302Y-72641105D01*
X126213904Y-72657128D01*
X126221751Y-72866158D01*
X126269093Y-73091791D01*
X126271051Y-73096750D01*
X126271052Y-73096752D01*
X126347812Y-73291118D01*
X126353776Y-73306221D01*
X126356543Y-73310780D01*
X126356544Y-73310783D01*
X126418998Y-73413703D01*
X126473377Y-73503317D01*
X126476874Y-73507347D01*
X126586829Y-73634059D01*
X126624477Y-73677445D01*
X126628608Y-73680832D01*
X126798627Y-73820240D01*
X126798633Y-73820244D01*
X126802755Y-73823624D01*
X126807398Y-73826267D01*
X126834735Y-73841829D01*
X126884041Y-73892912D01*
X126897902Y-73962542D01*
X126871918Y-74028613D01*
X126842768Y-74055851D01*
X126725422Y-74134852D01*
X126717130Y-74141519D01*
X126558100Y-74293228D01*
X126551059Y-74301186D01*
X126419859Y-74477525D01*
X126414255Y-74486562D01*
X126314643Y-74682484D01*
X126310643Y-74692335D01*
X126245466Y-74902240D01*
X126243183Y-74912624D01*
X126241139Y-74928043D01*
X126243335Y-74942207D01*
X126256522Y-74946000D01*
X129141192Y-74946000D01*
X129154723Y-74942027D01*
X129156248Y-74931420D01*
X129131523Y-74813579D01*
X129128463Y-74803383D01*
X129047737Y-74598971D01*
X129043006Y-74589439D01*
X128928984Y-74401538D01*
X128922720Y-74392948D01*
X128778673Y-74226948D01*
X128771042Y-74219528D01*
X128601089Y-74080174D01*
X128592326Y-74074152D01*
X128565289Y-74058762D01*
X128515982Y-74007680D01*
X128502120Y-73938049D01*
X128528103Y-73871978D01*
X128557253Y-73844739D01*
X128641417Y-73788076D01*
X128679319Y-73762559D01*
X128685603Y-73756565D01*
X128815128Y-73633003D01*
X128846135Y-73603424D01*
X128859086Y-73586018D01*
X128917619Y-73507347D01*
X128983754Y-73418458D01*
X128989515Y-73407128D01*
X129085822Y-73217704D01*
X129088240Y-73212949D01*
X129097618Y-73182749D01*
X129155024Y-72997871D01*
X129156607Y-72992773D01*
X129159841Y-72968372D01*
X129186198Y-72769511D01*
X129186198Y-72769506D01*
X129186898Y-72764226D01*
X129184026Y-72687711D01*
X129178449Y-72539173D01*
X129178249Y-72533842D01*
X129130907Y-72308209D01*
X129059454Y-72127279D01*
X129048185Y-72098744D01*
X129048184Y-72098742D01*
X129046224Y-72093779D01*
X129027238Y-72062490D01*
X128929390Y-71901243D01*
X128926623Y-71896683D01*
X128839755Y-71796576D01*
X128779023Y-71726588D01*
X128779021Y-71726586D01*
X128775523Y-71722555D01*
X128679903Y-71644151D01*
X128601373Y-71579760D01*
X128601367Y-71579756D01*
X128597245Y-71576376D01*
X128565750Y-71558448D01*
X128516445Y-71507368D01*
X128502583Y-71437738D01*
X128528566Y-71371667D01*
X128557716Y-71344427D01*
X128618070Y-71303794D01*
X128679319Y-71262559D01*
X128725218Y-71218774D01*
X128772769Y-71173412D01*
X128846135Y-71103424D01*
X128983754Y-70918458D01*
X128990980Y-70904247D01*
X129068859Y-70751069D01*
X129088240Y-70712949D01*
X129093780Y-70695110D01*
X129155024Y-70497871D01*
X129156607Y-70492773D01*
X129168082Y-70406197D01*
X129186198Y-70269511D01*
X129186198Y-70269506D01*
X129186898Y-70264226D01*
X129186611Y-70256565D01*
X129178449Y-70039173D01*
X129178249Y-70033842D01*
X129130907Y-69808209D01*
X129046224Y-69593779D01*
X128926623Y-69396683D01*
X128839755Y-69296576D01*
X128779023Y-69226588D01*
X128779021Y-69226586D01*
X128775523Y-69222555D01*
X128733970Y-69188484D01*
X128601373Y-69079760D01*
X128601367Y-69079756D01*
X128597245Y-69076376D01*
X128565750Y-69058448D01*
X128516445Y-69007368D01*
X128502583Y-68937738D01*
X128528566Y-68871667D01*
X128557716Y-68844427D01*
X128593642Y-68820240D01*
X128679319Y-68762559D01*
X128846135Y-68603424D01*
X128983754Y-68418458D01*
X129088240Y-68212949D01*
X129124321Y-68096752D01*
X129155024Y-67997871D01*
X129156607Y-67992773D01*
X129157308Y-67987484D01*
X129186198Y-67769511D01*
X129186198Y-67769506D01*
X129186898Y-67764226D01*
X129178249Y-67533842D01*
X129130907Y-67308209D01*
X129074357Y-67165015D01*
X129048185Y-67098744D01*
X129048184Y-67098742D01*
X129046224Y-67093779D01*
X129014740Y-67041894D01*
X128929390Y-66901243D01*
X128926623Y-66896683D01*
X128839755Y-66796576D01*
X128779023Y-66726588D01*
X128779021Y-66726586D01*
X128775523Y-66722555D01*
X128733970Y-66688484D01*
X128601373Y-66579760D01*
X128601367Y-66579756D01*
X128597245Y-66576376D01*
X128565750Y-66558448D01*
X128516445Y-66507368D01*
X128502583Y-66437738D01*
X128528566Y-66371667D01*
X128557716Y-66344427D01*
X128593642Y-66320240D01*
X128679319Y-66262559D01*
X128846135Y-66103424D01*
X128983754Y-65918458D01*
X129088240Y-65712949D01*
X129124321Y-65596752D01*
X129155024Y-65497871D01*
X129156607Y-65492773D01*
X129157308Y-65487484D01*
X129186198Y-65269511D01*
X129186198Y-65269506D01*
X129186898Y-65264226D01*
X129178249Y-65033842D01*
X129130907Y-64808209D01*
X129046224Y-64593779D01*
X129034464Y-64574398D01*
X128929390Y-64401243D01*
X128926623Y-64396683D01*
X128839755Y-64296576D01*
X128779023Y-64226588D01*
X128779021Y-64226586D01*
X128775523Y-64222555D01*
X128733970Y-64188484D01*
X128601373Y-64079760D01*
X128601367Y-64079756D01*
X128597245Y-64076376D01*
X128565750Y-64058448D01*
X128516445Y-64007368D01*
X128502583Y-63937738D01*
X128528566Y-63871667D01*
X128557716Y-63844427D01*
X128593642Y-63820240D01*
X128679319Y-63762559D01*
X128846135Y-63603424D01*
X128983754Y-63418458D01*
X129088240Y-63212949D01*
X129090048Y-63207128D01*
X129155024Y-62997871D01*
X129156607Y-62992773D01*
X129157308Y-62987484D01*
X129186198Y-62769511D01*
X129186198Y-62769506D01*
X129186898Y-62764226D01*
X129178249Y-62533842D01*
X129130907Y-62308209D01*
X129079418Y-62177831D01*
X129048185Y-62098744D01*
X129048184Y-62098742D01*
X129046224Y-62093779D01*
X129008693Y-62031929D01*
X128929390Y-61901243D01*
X128926623Y-61896683D01*
X128851212Y-61809779D01*
X128779023Y-61726588D01*
X128779021Y-61726586D01*
X128775523Y-61722555D01*
X128739880Y-61693330D01*
X128699886Y-61634671D01*
X128697954Y-61563701D01*
X128734698Y-61502952D01*
X128753468Y-61488752D01*
X128893120Y-61402332D01*
X128899348Y-61398478D01*
X129024305Y-61273303D01*
X129029332Y-61265148D01*
X129113275Y-61128968D01*
X129113276Y-61128966D01*
X129117115Y-61122738D01*
X129172797Y-60954861D01*
X129183500Y-60850400D01*
X129183500Y-59549600D01*
X129183164Y-59546359D01*
X129183163Y-59546345D01*
X129180689Y-59522502D01*
X129193555Y-59452681D01*
X129242126Y-59400899D01*
X129306016Y-59383500D01*
X131973653Y-59383500D01*
X131999850Y-59386253D01*
X132098056Y-59407128D01*
X132098061Y-59407128D01*
X132104513Y-59408500D01*
X132295487Y-59408500D01*
X132301939Y-59407128D01*
X132301944Y-59407128D01*
X132388888Y-59388647D01*
X132482288Y-59368794D01*
X132507563Y-59357541D01*
X132650722Y-59293803D01*
X132650724Y-59293802D01*
X132656752Y-59291118D01*
X132811253Y-59178866D01*
X132921361Y-59056579D01*
X132934621Y-59041852D01*
X132934622Y-59041851D01*
X132939040Y-59036944D01*
X133026206Y-58885969D01*
X133031223Y-58877279D01*
X133031224Y-58877278D01*
X133034527Y-58871556D01*
X133093542Y-58689928D01*
X133113504Y-58500000D01*
X133102100Y-58391500D01*
X133094232Y-58316635D01*
X133094232Y-58316633D01*
X133093542Y-58310072D01*
X133034527Y-58128444D01*
X132939040Y-57963056D01*
X132910586Y-57931454D01*
X132815675Y-57826045D01*
X132815674Y-57826044D01*
X132811253Y-57821134D01*
X132696503Y-57737763D01*
X132662094Y-57712763D01*
X132662093Y-57712762D01*
X132656752Y-57708882D01*
X132650724Y-57706198D01*
X132650722Y-57706197D01*
X132488319Y-57633891D01*
X132488318Y-57633891D01*
X132482288Y-57631206D01*
X132388887Y-57611353D01*
X132301944Y-57592872D01*
X132301939Y-57592872D01*
X132295487Y-57591500D01*
X132104513Y-57591500D01*
X132098061Y-57592872D01*
X132098056Y-57592872D01*
X131999850Y-57613747D01*
X131973653Y-57616500D01*
X123279457Y-57616500D01*
X123259745Y-57614949D01*
X123253008Y-57613882D01*
X123253009Y-57613882D01*
X123246493Y-57612850D01*
X123239906Y-57613195D01*
X123239902Y-57613195D01*
X123180150Y-57616327D01*
X123173555Y-57616500D01*
X123153694Y-57616500D01*
X123133931Y-57618577D01*
X123127372Y-57619093D01*
X123111573Y-57619921D01*
X123067623Y-57622224D01*
X123067619Y-57622225D01*
X123061029Y-57622570D01*
X123048071Y-57626042D01*
X123028628Y-57629645D01*
X123015298Y-57631046D01*
X122952106Y-57651578D01*
X122945804Y-57653444D01*
X122892328Y-57667773D01*
X122881637Y-57670638D01*
X122875758Y-57673634D01*
X122875749Y-57673637D01*
X122869683Y-57676728D01*
X122851421Y-57684292D01*
X122844957Y-57686392D01*
X122844949Y-57686395D01*
X122838669Y-57688436D01*
X122832950Y-57691738D01*
X122832945Y-57691740D01*
X122781133Y-57721654D01*
X122775363Y-57724787D01*
X122716161Y-57754953D01*
X122711029Y-57759109D01*
X122705741Y-57763391D01*
X122689448Y-57774589D01*
X122677831Y-57781296D01*
X122672925Y-57785713D01*
X122672920Y-57785717D01*
X122628462Y-57825747D01*
X122623446Y-57830031D01*
X122610591Y-57840441D01*
X122608014Y-57842528D01*
X122593969Y-57856573D01*
X122589184Y-57861114D01*
X122539815Y-57905566D01*
X122531925Y-57916426D01*
X122519088Y-57931454D01*
X118431454Y-62019088D01*
X118416426Y-62031925D01*
X118405566Y-62039815D01*
X118401145Y-62044725D01*
X118401144Y-62044726D01*
X118361114Y-62089184D01*
X118356573Y-62093969D01*
X118342528Y-62108014D01*
X118340444Y-62110588D01*
X118340441Y-62110591D01*
X118330031Y-62123446D01*
X118325747Y-62128462D01*
X118285717Y-62172920D01*
X118285713Y-62172925D01*
X118281296Y-62177831D01*
X118275973Y-62187051D01*
X118274589Y-62189448D01*
X118263391Y-62205741D01*
X118254953Y-62216161D01*
X118224787Y-62275363D01*
X118221654Y-62281133D01*
X118191740Y-62332945D01*
X118191738Y-62332950D01*
X118188436Y-62338669D01*
X118186395Y-62344949D01*
X118186392Y-62344957D01*
X118184292Y-62351421D01*
X118176728Y-62369683D01*
X118173637Y-62375749D01*
X118173634Y-62375758D01*
X118170638Y-62381637D01*
X118168929Y-62388015D01*
X118153444Y-62445804D01*
X118151578Y-62452106D01*
X118131046Y-62515298D01*
X118130356Y-62521866D01*
X118129645Y-62528628D01*
X118126042Y-62548071D01*
X118122570Y-62561029D01*
X118122225Y-62567619D01*
X118122224Y-62567623D01*
X118119093Y-62627367D01*
X118118577Y-62633931D01*
X118116500Y-62653694D01*
X118116500Y-62673555D01*
X118116327Y-62680150D01*
X118113834Y-62727722D01*
X118112850Y-62746493D01*
X118114949Y-62759744D01*
X118116500Y-62779456D01*
X118116500Y-76670543D01*
X118114949Y-76690255D01*
X118112850Y-76703507D01*
X118113195Y-76710094D01*
X118113195Y-76710098D01*
X118116327Y-76769850D01*
X118116500Y-76776445D01*
X118116500Y-76796306D01*
X118118494Y-76815279D01*
X118118576Y-76816059D01*
X118119093Y-76822628D01*
X118122570Y-76888971D01*
X118126042Y-76901929D01*
X118129645Y-76921372D01*
X118131046Y-76934702D01*
X118151578Y-76997894D01*
X118153444Y-77004196D01*
X118170638Y-77068363D01*
X118173634Y-77074242D01*
X118173637Y-77074251D01*
X118176728Y-77080317D01*
X118184292Y-77098579D01*
X118186392Y-77105043D01*
X118186395Y-77105051D01*
X118188436Y-77111331D01*
X118191738Y-77117050D01*
X118191740Y-77117055D01*
X118221654Y-77168867D01*
X118224787Y-77174637D01*
X118254953Y-77233839D01*
X118259109Y-77238971D01*
X118263391Y-77244259D01*
X118274589Y-77260552D01*
X118281296Y-77272169D01*
X118285713Y-77277075D01*
X118285717Y-77277080D01*
X118325747Y-77321538D01*
X118330031Y-77326554D01*
X118339259Y-77337949D01*
X118342528Y-77341986D01*
X118356573Y-77356031D01*
X118361114Y-77360816D01*
X118380863Y-77382749D01*
X118405566Y-77410185D01*
X118416426Y-77418075D01*
X118431454Y-77430912D01*
X120212994Y-79212452D01*
X120233018Y-79238547D01*
X120260960Y-79286944D01*
X120265378Y-79291851D01*
X120265379Y-79291852D01*
X120341261Y-79376127D01*
X120388747Y-79428866D01*
X120527773Y-79529875D01*
X120529421Y-79531072D01*
X120544455Y-79543913D01*
X121817178Y-80816635D01*
X123079595Y-82079052D01*
X123113620Y-82141364D01*
X123116500Y-82168147D01*
X123116500Y-89916405D01*
X123096498Y-89984526D01*
X123042842Y-90031019D01*
X122972568Y-90041123D01*
X122907988Y-90011629D01*
X122901405Y-90005500D01*
X119332526Y-86436621D01*
X119298500Y-86374309D01*
X119303565Y-86303494D01*
X119346112Y-86246658D01*
X119412632Y-86221847D01*
X119472869Y-86232419D01*
X119491261Y-86240608D01*
X119491269Y-86240611D01*
X119497296Y-86243294D01*
X119590696Y-86263147D01*
X119677640Y-86281628D01*
X119677645Y-86281628D01*
X119684097Y-86283000D01*
X119875071Y-86283000D01*
X119881523Y-86281628D01*
X119881528Y-86281628D01*
X119968472Y-86263147D01*
X120061872Y-86243294D01*
X120110043Y-86221847D01*
X120230306Y-86168303D01*
X120230308Y-86168302D01*
X120236336Y-86165618D01*
X120390837Y-86053366D01*
X120518624Y-85911444D01*
X120614111Y-85746056D01*
X120673126Y-85564428D01*
X120693088Y-85374500D01*
X120673126Y-85184572D01*
X120639667Y-85081597D01*
X120633500Y-85042660D01*
X120633500Y-83868148D01*
X120653502Y-83800027D01*
X120670405Y-83779053D01*
X121405545Y-83043913D01*
X121420579Y-83031072D01*
X121509270Y-82966634D01*
X121561253Y-82928866D01*
X121565675Y-82923955D01*
X121684621Y-82791852D01*
X121684622Y-82791851D01*
X121689040Y-82786944D01*
X121784527Y-82621556D01*
X121843542Y-82439928D01*
X121846672Y-82410153D01*
X121862814Y-82256565D01*
X121863504Y-82250000D01*
X121848994Y-82111943D01*
X121844232Y-82066635D01*
X121844232Y-82066633D01*
X121843542Y-82060072D01*
X121784527Y-81878444D01*
X121689040Y-81713056D01*
X121680611Y-81703694D01*
X121565675Y-81576045D01*
X121565674Y-81576044D01*
X121561253Y-81571134D01*
X121422081Y-81470019D01*
X121412094Y-81462763D01*
X121412093Y-81462762D01*
X121406752Y-81458882D01*
X121400724Y-81456198D01*
X121400722Y-81456197D01*
X121238319Y-81383891D01*
X121238318Y-81383891D01*
X121232288Y-81381206D01*
X121138887Y-81361353D01*
X121051944Y-81342872D01*
X121051939Y-81342872D01*
X121045487Y-81341500D01*
X120854513Y-81341500D01*
X120848061Y-81342872D01*
X120848056Y-81342872D01*
X120761113Y-81361353D01*
X120667712Y-81381206D01*
X120661682Y-81383891D01*
X120661681Y-81383891D01*
X120499278Y-81456197D01*
X120499276Y-81456198D01*
X120493248Y-81458882D01*
X120487907Y-81462762D01*
X120487906Y-81462763D01*
X120477919Y-81470019D01*
X120338747Y-81571134D01*
X120334326Y-81576044D01*
X120334325Y-81576045D01*
X120219390Y-81703694D01*
X120210960Y-81713056D01*
X120201091Y-81730150D01*
X120183018Y-81761453D01*
X120162994Y-81787548D01*
X119505782Y-82444760D01*
X119443470Y-82478786D01*
X119372655Y-82473721D01*
X119342626Y-82457601D01*
X119326943Y-82446206D01*
X119206752Y-82358882D01*
X119200724Y-82356198D01*
X119200722Y-82356197D01*
X119038319Y-82283891D01*
X119038318Y-82283891D01*
X119032288Y-82281206D01*
X118916362Y-82256565D01*
X118851944Y-82242872D01*
X118851939Y-82242872D01*
X118845487Y-82241500D01*
X118654513Y-82241500D01*
X118648061Y-82242872D01*
X118648056Y-82242872D01*
X118583638Y-82256565D01*
X118467712Y-82281206D01*
X118461682Y-82283891D01*
X118461681Y-82283891D01*
X118299278Y-82356197D01*
X118299276Y-82356198D01*
X118293248Y-82358882D01*
X118138747Y-82471134D01*
X118134326Y-82476044D01*
X118134325Y-82476045D01*
X118065099Y-82552929D01*
X118010960Y-82613056D01*
X117993178Y-82643856D01*
X117926942Y-82758580D01*
X117915473Y-82778444D01*
X117856458Y-82960072D01*
X117855769Y-82966631D01*
X117855768Y-82966634D01*
X117839199Y-83124280D01*
X117812186Y-83189936D01*
X117797222Y-83205131D01*
X117793471Y-83207511D01*
X117788043Y-83213292D01*
X117788041Y-83213293D01*
X117746846Y-83257162D01*
X117744091Y-83260004D01*
X117724354Y-83279741D01*
X117721874Y-83282938D01*
X117714171Y-83291958D01*
X117683903Y-83324190D01*
X117680084Y-83331136D01*
X117680082Y-83331139D01*
X117674141Y-83341945D01*
X117663290Y-83358464D01*
X117650875Y-83374470D01*
X117647730Y-83381739D01*
X117647727Y-83381743D01*
X117633315Y-83415048D01*
X117628098Y-83425698D01*
X117606794Y-83464451D01*
X117604823Y-83472126D01*
X117604823Y-83472127D01*
X117601756Y-83484073D01*
X117595352Y-83502777D01*
X117587308Y-83521366D01*
X117586069Y-83529189D01*
X117586066Y-83529199D01*
X117580390Y-83565035D01*
X117577984Y-83576655D01*
X117572965Y-83596206D01*
X117566989Y-83619481D01*
X117566989Y-83639735D01*
X117565438Y-83659445D01*
X117562269Y-83679454D01*
X110708500Y-83679454D01*
X110708500Y-80345768D01*
X111252425Y-80345768D01*
X111284138Y-80453521D01*
X111288731Y-80464889D01*
X111374607Y-80629154D01*
X111381321Y-80639415D01*
X111497468Y-80783873D01*
X111506046Y-80792632D01*
X111648039Y-80911778D01*
X111658159Y-80918708D01*
X111820585Y-81008002D01*
X111831858Y-81012834D01*
X112008538Y-81068880D01*
X112020532Y-81071430D01*
X112164761Y-81087607D01*
X112171785Y-81088000D01*
X112252885Y-81088000D01*
X112268124Y-81083525D01*
X112269329Y-81082135D01*
X112271000Y-81074452D01*
X112271000Y-81069885D01*
X112779000Y-81069885D01*
X112783475Y-81085124D01*
X112784865Y-81086329D01*
X112792548Y-81088000D01*
X112871657Y-81088000D01*
X112877805Y-81087699D01*
X113015603Y-81074188D01*
X113027638Y-81071805D01*
X113205076Y-81018233D01*
X113216416Y-81013559D01*
X113380077Y-80926540D01*
X113390294Y-80919751D01*
X113533933Y-80802603D01*
X113542637Y-80793959D01*
X113660784Y-80651144D01*
X113667644Y-80640973D01*
X113755804Y-80477924D01*
X113760556Y-80466619D01*
X113796250Y-80351308D01*
X113796331Y-80345768D01*
X115182425Y-80345768D01*
X115214138Y-80453521D01*
X115218731Y-80464889D01*
X115304607Y-80629154D01*
X115311321Y-80639415D01*
X115427468Y-80783873D01*
X115436046Y-80792632D01*
X115507215Y-80852350D01*
X115546542Y-80911459D01*
X115547668Y-80982447D01*
X115530436Y-81019695D01*
X115487057Y-81083525D01*
X115464723Y-81116388D01*
X115397470Y-81284534D01*
X115396356Y-81291262D01*
X115396355Y-81291266D01*
X115369051Y-81456197D01*
X115367892Y-81463198D01*
X115368249Y-81470015D01*
X115368249Y-81470019D01*
X115372914Y-81559025D01*
X115377370Y-81644047D01*
X115379181Y-81650620D01*
X115379181Y-81650623D01*
X115413110Y-81773802D01*
X115425461Y-81818641D01*
X115509922Y-81978836D01*
X115514327Y-81984049D01*
X115514330Y-81984053D01*
X115622406Y-82111943D01*
X115622410Y-82111947D01*
X115626813Y-82117157D01*
X115632237Y-82121304D01*
X115632238Y-82121305D01*
X115765257Y-82223006D01*
X115765261Y-82223009D01*
X115770678Y-82227150D01*
X115833759Y-82256565D01*
X115928631Y-82300805D01*
X115928634Y-82300806D01*
X115934808Y-82303685D01*
X115941456Y-82305171D01*
X115941459Y-82305172D01*
X116047421Y-82328857D01*
X116111543Y-82343190D01*
X116117088Y-82343500D01*
X116250244Y-82343500D01*
X116385037Y-82328857D01*
X116530705Y-82279834D01*
X116550204Y-82273272D01*
X116550206Y-82273271D01*
X116556675Y-82271094D01*
X116711905Y-82177823D01*
X116716862Y-82173135D01*
X116716865Y-82173133D01*
X116838527Y-82058082D01*
X116838529Y-82058080D01*
X116843485Y-82053393D01*
X116847317Y-82047755D01*
X116847320Y-82047751D01*
X116941442Y-81909255D01*
X116945277Y-81903612D01*
X117012530Y-81735466D01*
X117013644Y-81728738D01*
X117013645Y-81728734D01*
X117040993Y-81563539D01*
X117040993Y-81563536D01*
X117042108Y-81556802D01*
X117041377Y-81542842D01*
X117032987Y-81382766D01*
X117032630Y-81375953D01*
X117026079Y-81352167D01*
X117006990Y-81282866D01*
X116997237Y-81247459D01*
X116998431Y-81176474D01*
X117037814Y-81117401D01*
X117102881Y-81088999D01*
X117118713Y-81088000D01*
X117301657Y-81088000D01*
X117307805Y-81087699D01*
X117445603Y-81074188D01*
X117457638Y-81071805D01*
X117635076Y-81018233D01*
X117646416Y-81013559D01*
X117810077Y-80926540D01*
X117820294Y-80919751D01*
X117963933Y-80802603D01*
X117972637Y-80793959D01*
X118090784Y-80651144D01*
X118097644Y-80640973D01*
X118185804Y-80477924D01*
X118190556Y-80466619D01*
X118226250Y-80351308D01*
X118226456Y-80337205D01*
X118219701Y-80334000D01*
X115197076Y-80334000D01*
X115183545Y-80337973D01*
X115182425Y-80345768D01*
X113796331Y-80345768D01*
X113796456Y-80337205D01*
X113789701Y-80334000D01*
X112797115Y-80334000D01*
X112781876Y-80338475D01*
X112780671Y-80339865D01*
X112779000Y-80347548D01*
X112779000Y-81069885D01*
X112271000Y-81069885D01*
X112271000Y-80352115D01*
X112266525Y-80336876D01*
X112265135Y-80335671D01*
X112257452Y-80334000D01*
X111267076Y-80334000D01*
X111253545Y-80337973D01*
X111252425Y-80345768D01*
X110708500Y-80345768D01*
X110708500Y-79822795D01*
X111253544Y-79822795D01*
X111260299Y-79826000D01*
X112252885Y-79826000D01*
X112268124Y-79821525D01*
X112269329Y-79820135D01*
X112271000Y-79812452D01*
X112271000Y-79807885D01*
X112779000Y-79807885D01*
X112783475Y-79823124D01*
X112784865Y-79824329D01*
X112792548Y-79826000D01*
X113782924Y-79826000D01*
X113793839Y-79822795D01*
X115183544Y-79822795D01*
X115190299Y-79826000D01*
X116432885Y-79826000D01*
X116448124Y-79821525D01*
X116449329Y-79820135D01*
X116451000Y-79812452D01*
X116451000Y-79807885D01*
X116959000Y-79807885D01*
X116963475Y-79823124D01*
X116964865Y-79824329D01*
X116972548Y-79826000D01*
X118212924Y-79826000D01*
X118226455Y-79822027D01*
X118227575Y-79814232D01*
X118195862Y-79706479D01*
X118191269Y-79695111D01*
X118105393Y-79530846D01*
X118098679Y-79520585D01*
X117982532Y-79376127D01*
X117973954Y-79367368D01*
X117831961Y-79248222D01*
X117821841Y-79241292D01*
X117659415Y-79151998D01*
X117648142Y-79147166D01*
X117471462Y-79091120D01*
X117459468Y-79088570D01*
X117315239Y-79072393D01*
X117308215Y-79072000D01*
X116977115Y-79072000D01*
X116961876Y-79076475D01*
X116960671Y-79077865D01*
X116959000Y-79085548D01*
X116959000Y-79807885D01*
X116451000Y-79807885D01*
X116451000Y-79090115D01*
X116446525Y-79074876D01*
X116445135Y-79073671D01*
X116437452Y-79072000D01*
X116108343Y-79072000D01*
X116102195Y-79072301D01*
X115964397Y-79085812D01*
X115952362Y-79088195D01*
X115774924Y-79141767D01*
X115763584Y-79146441D01*
X115599923Y-79233460D01*
X115589706Y-79240249D01*
X115446067Y-79357397D01*
X115437363Y-79366041D01*
X115319216Y-79508856D01*
X115312356Y-79519027D01*
X115224196Y-79682076D01*
X115219444Y-79693381D01*
X115183750Y-79808692D01*
X115183544Y-79822795D01*
X113793839Y-79822795D01*
X113796455Y-79822027D01*
X113797575Y-79814232D01*
X113765862Y-79706479D01*
X113761269Y-79695111D01*
X113675393Y-79530846D01*
X113668679Y-79520585D01*
X113552532Y-79376127D01*
X113543954Y-79367368D01*
X113401961Y-79248222D01*
X113391841Y-79241292D01*
X113229415Y-79151998D01*
X113218142Y-79147166D01*
X113041462Y-79091120D01*
X113029468Y-79088570D01*
X112885239Y-79072393D01*
X112878215Y-79072000D01*
X112797115Y-79072000D01*
X112781876Y-79076475D01*
X112780671Y-79077865D01*
X112779000Y-79085548D01*
X112779000Y-79807885D01*
X112271000Y-79807885D01*
X112271000Y-79090115D01*
X112266525Y-79074876D01*
X112265135Y-79073671D01*
X112257452Y-79072000D01*
X112178343Y-79072000D01*
X112172195Y-79072301D01*
X112034397Y-79085812D01*
X112022362Y-79088195D01*
X111844924Y-79141767D01*
X111833584Y-79146441D01*
X111669923Y-79233460D01*
X111659706Y-79240249D01*
X111516067Y-79357397D01*
X111507363Y-79366041D01*
X111389216Y-79508856D01*
X111382356Y-79519027D01*
X111294196Y-79682076D01*
X111289444Y-79693381D01*
X111253750Y-79808692D01*
X111253544Y-79822795D01*
X110708500Y-79822795D01*
X110708500Y-60632703D01*
X112390743Y-60632703D01*
X112391302Y-60636947D01*
X112391302Y-60636951D01*
X112404175Y-60734729D01*
X112428268Y-60917734D01*
X112504129Y-61195036D01*
X112505813Y-61198984D01*
X112604865Y-61431206D01*
X112616923Y-61459476D01*
X112671575Y-61550793D01*
X112761861Y-61701649D01*
X112764561Y-61706161D01*
X112944313Y-61930528D01*
X113152851Y-62128423D01*
X113386317Y-62296186D01*
X113390112Y-62298195D01*
X113390113Y-62298196D01*
X113409024Y-62308209D01*
X113640392Y-62430712D01*
X113910373Y-62529511D01*
X114191264Y-62590755D01*
X114219841Y-62593004D01*
X114414282Y-62608307D01*
X114414291Y-62608307D01*
X114416739Y-62608500D01*
X114572271Y-62608500D01*
X114574407Y-62608354D01*
X114574418Y-62608354D01*
X114782548Y-62594165D01*
X114782554Y-62594164D01*
X114786825Y-62593873D01*
X114791020Y-62593004D01*
X114791022Y-62593004D01*
X114976198Y-62554656D01*
X115068342Y-62535574D01*
X115339343Y-62439607D01*
X115534907Y-62338669D01*
X115591005Y-62309715D01*
X115591006Y-62309715D01*
X115594812Y-62307750D01*
X115598313Y-62305289D01*
X115598317Y-62305287D01*
X115766549Y-62187051D01*
X115830023Y-62142441D01*
X115948948Y-62031929D01*
X116037479Y-61949661D01*
X116037481Y-61949658D01*
X116040622Y-61946740D01*
X116222713Y-61724268D01*
X116372927Y-61479142D01*
X116393970Y-61431206D01*
X116486757Y-61219830D01*
X116488483Y-61215898D01*
X116516656Y-61116998D01*
X116562470Y-60956166D01*
X116567244Y-60939406D01*
X116607751Y-60654784D01*
X116607845Y-60636951D01*
X116609235Y-60371583D01*
X116609235Y-60371576D01*
X116609257Y-60367297D01*
X116602078Y-60312763D01*
X116591160Y-60229834D01*
X116571732Y-60082266D01*
X116495871Y-59804964D01*
X116478443Y-59764106D01*
X116384763Y-59544476D01*
X116384761Y-59544472D01*
X116383077Y-59540524D01*
X116273564Y-59357541D01*
X116237643Y-59297521D01*
X116237640Y-59297517D01*
X116235439Y-59293839D01*
X116055687Y-59069472D01*
X115879502Y-58902279D01*
X115850258Y-58874527D01*
X115850255Y-58874525D01*
X115847149Y-58871577D01*
X115657064Y-58734987D01*
X115617172Y-58706321D01*
X115617171Y-58706320D01*
X115613683Y-58703814D01*
X115591843Y-58692250D01*
X115568654Y-58679972D01*
X115359608Y-58569288D01*
X115089627Y-58470489D01*
X114808736Y-58409245D01*
X114777685Y-58406801D01*
X114585718Y-58391693D01*
X114585709Y-58391693D01*
X114583261Y-58391500D01*
X114427729Y-58391500D01*
X114425593Y-58391646D01*
X114425582Y-58391646D01*
X114217452Y-58405835D01*
X114217446Y-58405836D01*
X114213175Y-58406127D01*
X114208980Y-58406996D01*
X114208978Y-58406996D01*
X114072417Y-58435276D01*
X113931658Y-58464426D01*
X113660657Y-58560393D01*
X113405188Y-58692250D01*
X113401687Y-58694711D01*
X113401683Y-58694713D01*
X113287583Y-58774904D01*
X113169977Y-58857559D01*
X113091597Y-58930394D01*
X112985707Y-59028794D01*
X112959378Y-59053260D01*
X112777287Y-59275732D01*
X112627073Y-59520858D01*
X112511517Y-59784102D01*
X112432756Y-60060594D01*
X112392249Y-60345216D01*
X112392227Y-60349505D01*
X112392226Y-60349512D01*
X112390985Y-60586421D01*
X112390743Y-60632703D01*
X110708500Y-60632703D01*
X110708500Y-57453250D01*
X110710246Y-57432345D01*
X110712770Y-57417344D01*
X110712770Y-57417341D01*
X110713576Y-57412552D01*
X110713729Y-57400000D01*
X110712788Y-57393429D01*
X110712123Y-57363219D01*
X110720570Y-57277449D01*
X110725389Y-57253222D01*
X110757536Y-57147248D01*
X110766988Y-57124427D01*
X110819189Y-57026767D01*
X110832912Y-57006230D01*
X110903164Y-56920629D01*
X110920629Y-56903164D01*
X111006230Y-56832912D01*
X111026767Y-56819189D01*
X111124430Y-56766987D01*
X111147248Y-56757536D01*
X111253222Y-56725389D01*
X111277447Y-56720570D01*
X111303400Y-56718014D01*
X111359810Y-56712459D01*
X111375868Y-56712909D01*
X111375877Y-56712200D01*
X111384853Y-56712310D01*
X111393724Y-56713691D01*
X111402626Y-56712527D01*
X111402628Y-56712527D01*
X111419067Y-56710377D01*
X111425286Y-56709564D01*
X111441621Y-56708500D01*
X181702117Y-56708500D01*
X181721499Y-56710000D01*
G37*
%TD.AperFunction*%
%TA.AperFunction,Conductor*%
G36*
X155488529Y-63111542D02*
G01*
X155495732Y-63114485D01*
X155617712Y-63168794D01*
X155711112Y-63188647D01*
X155798056Y-63207128D01*
X155798061Y-63207128D01*
X155804513Y-63208500D01*
X155995487Y-63208500D01*
X156001939Y-63207128D01*
X156001944Y-63207128D01*
X156114303Y-63183245D01*
X156185094Y-63188647D01*
X156241727Y-63231464D01*
X156266220Y-63298102D01*
X156266500Y-63306492D01*
X156266500Y-72240500D01*
X156246498Y-72308621D01*
X156192842Y-72355114D01*
X156140500Y-72366500D01*
X146433594Y-72366500D01*
X146365473Y-72346498D01*
X146318980Y-72292842D01*
X146308876Y-72222568D01*
X146338370Y-72157988D01*
X146344499Y-72151405D01*
X155355402Y-63140503D01*
X155417714Y-63106477D01*
X155488529Y-63111542D01*
G37*
%TD.AperFunction*%
%TD*%
M02*
