%TF.GenerationSoftware,KiCad,Pcbnew,6.0.4-1.fc35*%
%TF.CreationDate,2022-04-18T23:22:51+03:00*%
%TF.ProjectId,Glove,476c6f76-652e-46b6-9963-61645f706362,rev?*%
%TF.SameCoordinates,Original*%
%TF.FileFunction,Copper,L2,Bot*%
%TF.FilePolarity,Positive*%
%FSLAX46Y46*%
G04 Gerber Fmt 4.6, Leading zero omitted, Abs format (unit mm)*
G04 Created by KiCad (PCBNEW 6.0.4-1.fc35) date 2022-04-18 23:22:51*
%MOMM*%
%LPD*%
G01*
G04 APERTURE LIST*
G04 Aperture macros list*
%AMRoundRect*
0 Rectangle with rounded corners*
0 $1 Rounding radius*
0 $2 $3 $4 $5 $6 $7 $8 $9 X,Y pos of 4 corners*
0 Add a 4 corners polygon primitive as box body*
4,1,4,$2,$3,$4,$5,$6,$7,$8,$9,$2,$3,0*
0 Add four circle primitives for the rounded corners*
1,1,$1+$1,$2,$3*
1,1,$1+$1,$4,$5*
1,1,$1+$1,$6,$7*
1,1,$1+$1,$8,$9*
0 Add four rect primitives between the rounded corners*
20,1,$1+$1,$2,$3,$4,$5,0*
20,1,$1+$1,$4,$5,$6,$7,0*
20,1,$1+$1,$6,$7,$8,$9,0*
20,1,$1+$1,$8,$9,$2,$3,0*%
G04 Aperture macros list end*
%TA.AperFunction,ComponentPad*%
%ADD10RoundRect,0.250000X0.600000X0.750000X-0.600000X0.750000X-0.600000X-0.750000X0.600000X-0.750000X0*%
%TD*%
%TA.AperFunction,ComponentPad*%
%ADD11O,1.700000X2.000000*%
%TD*%
%TA.AperFunction,ComponentPad*%
%ADD12RoundRect,0.250000X-0.725000X0.600000X-0.725000X-0.600000X0.725000X-0.600000X0.725000X0.600000X0*%
%TD*%
%TA.AperFunction,ComponentPad*%
%ADD13O,1.950000X1.700000*%
%TD*%
%TA.AperFunction,ComponentPad*%
%ADD14RoundRect,0.250000X-0.600000X-0.725000X0.600000X-0.725000X0.600000X0.725000X-0.600000X0.725000X0*%
%TD*%
%TA.AperFunction,ComponentPad*%
%ADD15O,1.700000X1.950000*%
%TD*%
%TA.AperFunction,ComponentPad*%
%ADD16O,2.100000X1.000000*%
%TD*%
%TA.AperFunction,ComponentPad*%
%ADD17O,1.600000X1.000000*%
%TD*%
%TA.AperFunction,ComponentPad*%
%ADD18RoundRect,0.250000X0.725000X-0.600000X0.725000X0.600000X-0.725000X0.600000X-0.725000X-0.600000X0*%
%TD*%
%TA.AperFunction,ComponentPad*%
%ADD19R,1.700000X1.700000*%
%TD*%
%TA.AperFunction,ComponentPad*%
%ADD20O,1.700000X1.700000*%
%TD*%
%TA.AperFunction,ViaPad*%
%ADD21C,0.800000*%
%TD*%
%TA.AperFunction,ViaPad*%
%ADD22C,0.450000*%
%TD*%
%TA.AperFunction,ViaPad*%
%ADD23C,2.000000*%
%TD*%
%TA.AperFunction,Conductor*%
%ADD24C,0.250000*%
%TD*%
%TA.AperFunction,Conductor*%
%ADD25C,1.000000*%
%TD*%
%TA.AperFunction,Conductor*%
%ADD26C,0.750000*%
%TD*%
%TA.AperFunction,Conductor*%
%ADD27C,0.500000*%
%TD*%
G04 APERTURE END LIST*
D10*
%TO.P,BTN_A1,1,1*%
%TO.N,GND*%
X152894444Y-104725000D03*
D11*
%TO.P,BTN_A1,2,2*%
%TO.N,BtnA*%
X150394444Y-104725000D03*
%TD*%
D12*
%TO.P,J4,1,Pin_1*%
%TO.N,+3V3*%
X127700000Y-60200000D03*
D13*
%TO.P,J4,2,Pin_2*%
%TO.N,PinkyPot*%
X127700000Y-62700000D03*
%TO.P,J4,3,Pin_3*%
%TO.N,RingPot*%
X127700000Y-65200000D03*
%TO.P,J4,4,Pin_4*%
%TO.N,MiddlePot*%
X127700000Y-67700000D03*
%TO.P,J4,5,Pin_5*%
%TO.N,PointerPot*%
X127700000Y-70200000D03*
%TO.P,J4,6,Pin_6*%
%TO.N,ThumbPot*%
X127700000Y-72700000D03*
%TO.P,J4,7,Pin_7*%
%TO.N,GND*%
X127700000Y-75200000D03*
%TD*%
D10*
%TO.P,BTN_Trigger1,1,1*%
%TO.N,GND*%
X143850000Y-96525000D03*
D11*
%TO.P,BTN_Trigger1,2,2*%
%TO.N,BtnTrigger*%
X141350000Y-96525000D03*
%TD*%
D10*
%TO.P,BTN_B1,1,1*%
%TO.N,GND*%
X171650000Y-104725000D03*
D11*
%TO.P,BTN_B1,2,2*%
%TO.N,BtnB*%
X169150000Y-104725000D03*
%TD*%
D14*
%TO.P,J2,1,Pin_1*%
%TO.N,+3V3*%
X124200000Y-103675000D03*
D15*
%TO.P,J2,2,Pin_2*%
%TO.N,JoyX*%
X126700000Y-103675000D03*
%TO.P,J2,3,Pin_3*%
%TO.N,JoyY*%
X129200000Y-103675000D03*
%TO.P,J2,4,Pin_4*%
%TO.N,JoyClick*%
X131700000Y-103675000D03*
%TO.P,J2,5,Pin_5*%
%TO.N,GND*%
X134200000Y-103675000D03*
%TD*%
D10*
%TO.P,BTN_Grab1,1,1*%
%TO.N,GND*%
X143516667Y-104725000D03*
D11*
%TO.P,BTN_Grab1,2,2*%
%TO.N,BtnGrab*%
X141016667Y-104725000D03*
%TD*%
D16*
%TO.P,J1,S1,SHIELD*%
%TO.N,GND*%
X116705000Y-80080000D03*
X116705000Y-88720000D03*
D17*
X112525000Y-88720000D03*
X112525000Y-80080000D03*
%TD*%
D18*
%TO.P,J3,1,Pin_1*%
%TO.N,+5V*%
X169300000Y-75200000D03*
D13*
%TO.P,J3,2,Pin_2*%
%TO.N,PinkyPWM*%
X169300000Y-72700000D03*
%TO.P,J3,3,Pin_3*%
%TO.N,RingPWM*%
X169300000Y-70200000D03*
%TO.P,J3,4,Pin_4*%
%TO.N,MiddlePWM*%
X169300000Y-67700000D03*
%TO.P,J3,5,Pin_5*%
%TO.N,PointerPWM*%
X169300000Y-65200000D03*
%TO.P,J3,6,Pin_6*%
%TO.N,ThumbPWM*%
X169300000Y-62700000D03*
%TO.P,J3,7,Pin_7*%
%TO.N,GND*%
X169300000Y-60200000D03*
%TD*%
D10*
%TO.P,BTN_Pinch1,1,1*%
%TO.N,GND*%
X162272221Y-104725000D03*
D11*
%TO.P,BTN_Pinch1,2,2*%
%TO.N,BtnPinch*%
X159772221Y-104725000D03*
%TD*%
D19*
%TO.P,J5,1,Pin_1*%
%TO.N,+3V3*%
X175150000Y-89100000D03*
D20*
%TO.P,J5,2,Pin_2*%
%TO.N,/MTMS*%
X172610000Y-89100000D03*
%TO.P,J5,3,Pin_3*%
%TO.N,/MTDI*%
X170070000Y-89100000D03*
%TO.P,J5,4,Pin_4*%
%TO.N,/MTCK*%
X167530000Y-89100000D03*
%TO.P,J5,5,Pin_5*%
%TO.N,/MTDO*%
X164990000Y-89100000D03*
%TO.P,J5,6,Pin_6*%
%TO.N,GND*%
X162450000Y-89100000D03*
%TD*%
D21*
%TO.N,GND*%
X142750000Y-91750000D03*
X132250000Y-75250000D03*
X161750000Y-57000000D03*
X129000000Y-87250000D03*
X127737701Y-88512299D03*
X139500000Y-60000000D03*
X154500000Y-72250000D03*
X139250000Y-57250000D03*
X154750000Y-68250000D03*
X142000000Y-87500000D03*
X122500000Y-82250000D03*
X122750000Y-87000000D03*
X143250000Y-78000000D03*
%TO.N,BtnA*%
X127750000Y-97750000D03*
X130500000Y-94250000D03*
X137000000Y-84500000D03*
X139500000Y-71200000D03*
X137000000Y-71750000D03*
%TO.N,BtnB*%
X140000000Y-72500000D03*
X145000000Y-71500000D03*
%TO.N,BtnGrab*%
X146000000Y-76438000D03*
X167500000Y-81000000D03*
X161500000Y-94000000D03*
D22*
X155500000Y-81250000D03*
D21*
%TO.N,BtnPinch*%
X159750000Y-81099503D03*
X159750000Y-95000000D03*
X161600000Y-58525000D03*
X159750000Y-91250000D03*
D22*
%TO.N,BtnTrigger*%
X140000000Y-82250000D03*
X137500000Y-94049500D03*
X136750000Y-91250000D03*
X157500000Y-78500000D03*
D21*
%TO.N,+5V*%
X123250000Y-92500000D03*
D23*
X152500000Y-90250000D03*
D21*
X145750000Y-92250000D03*
D23*
X119750000Y-95750000D03*
D21*
%TO.N,+3V3*%
X120950000Y-82250000D03*
X121000000Y-78750000D03*
X132200000Y-58500000D03*
X119779584Y-85374500D03*
X126350000Y-93250000D03*
%TO.N,JoyX*%
X132500000Y-94250000D03*
X133000000Y-90750000D03*
%TO.N,JoyY*%
X134500000Y-94250000D03*
X135750000Y-91000000D03*
%TO.N,JoyClick*%
X136000000Y-94650500D03*
X138400000Y-84600000D03*
%TO.N,JTAG_MTDO*%
X159750000Y-80100000D03*
X157400000Y-80000000D03*
%TO.N,ThumbPWM*%
X163500000Y-70250000D03*
D22*
%TO.N,/D+*%
X118763081Y-85210270D03*
X118750000Y-84100500D03*
D21*
%TO.N,Net-(Q1-Pad2)*%
X127600000Y-80900000D03*
X148924500Y-80900000D03*
%TO.N,Net-(Q2-Pad2)*%
X153600000Y-83400000D03*
X125300000Y-79700000D03*
%TO.N,IO0*%
X161000000Y-73750000D03*
X154000000Y-76700000D03*
%TO.N,RXD*%
X127600000Y-79800000D03*
X156900000Y-61100000D03*
%TO.N,TXD*%
X127600000Y-78700000D03*
X155900000Y-62300000D03*
%TO.N,Net-(J1-PadA5)*%
X124500000Y-94000000D03*
X118750000Y-83150000D03*
%TD*%
D24*
%TO.N,BtnPinch*%
X159750000Y-95000000D02*
X159750000Y-91250000D01*
%TO.N,BtnGrab*%
X161275489Y-93775489D02*
X161275489Y-87724511D01*
X161500000Y-94000000D02*
X161275489Y-93775489D01*
X161275489Y-87724511D02*
X167500000Y-81500000D01*
X167500000Y-81500000D02*
X167500000Y-81000000D01*
%TO.N,JoyX*%
X132500000Y-94250000D02*
X133000000Y-93750000D01*
X133000000Y-93750000D02*
X133000000Y-90750000D01*
%TO.N,BtnA*%
X130500000Y-94250000D02*
X130500000Y-91000000D01*
X130500000Y-91000000D02*
X137000000Y-84500000D01*
%TO.N,JoyClick*%
X137849500Y-94650500D02*
X138400000Y-94100000D01*
X136000000Y-94650500D02*
X137849500Y-94650500D01*
X138400000Y-94100000D02*
X138400000Y-84600000D01*
%TO.N,BtnTrigger*%
X137500000Y-94049500D02*
X136750000Y-93299500D01*
X136750000Y-93299500D02*
X136750000Y-91250000D01*
D25*
%TO.N,+5V*%
X145750000Y-93500000D02*
X141000000Y-93500000D01*
X141000000Y-93500000D02*
X138750000Y-95750000D01*
X138750000Y-95750000D02*
X119750000Y-95750000D01*
D26*
%TO.N,+3V3*%
X121000000Y-78750000D02*
X124000000Y-81750000D01*
X124000000Y-81750000D02*
X124000000Y-90050000D01*
X124000000Y-90050000D02*
X126350000Y-92400000D01*
X126350000Y-92400000D02*
X126350000Y-93250000D01*
X121000000Y-78750000D02*
X119000000Y-76750000D01*
X119000000Y-76750000D02*
X119000000Y-62700000D01*
X119000000Y-62700000D02*
X123200000Y-58500000D01*
X123200000Y-58500000D02*
X132200000Y-58500000D01*
X120950000Y-82250000D02*
X119750000Y-83450000D01*
X119750000Y-83450000D02*
X119750000Y-85344916D01*
X119750000Y-85344916D02*
X119779584Y-85374500D01*
D24*
%TO.N,GND*%
X142750000Y-91750000D02*
X142000000Y-91000000D01*
X142000000Y-91000000D02*
X142000000Y-87500000D01*
D25*
%TO.N,+5V*%
X152750000Y-93500000D02*
X169300000Y-76950000D01*
X169300000Y-76950000D02*
X169300000Y-75200000D01*
D24*
%TO.N,BtnPinch*%
X159750000Y-81099503D02*
X160024992Y-80824511D01*
X160024992Y-80824511D02*
X160050103Y-80824511D01*
X160050103Y-80824511D02*
X162524511Y-78350103D01*
X162524511Y-78350103D02*
X162524511Y-59449511D01*
X162524511Y-59449511D02*
X161600000Y-58525000D01*
%TO.N,JTAG_MTDO*%
X159750000Y-80100000D02*
X157500000Y-80100000D01*
X157500000Y-80100000D02*
X157400000Y-80000000D01*
%TO.N,GND*%
X127737701Y-88512299D02*
X129000000Y-87250000D01*
%TO.N,BtnA*%
X150394444Y-101644444D02*
X147250000Y-98500000D01*
X137000000Y-71750000D02*
X137500000Y-71250000D01*
X137500000Y-71250000D02*
X139450000Y-71250000D01*
X128500000Y-98500000D02*
X127750000Y-97750000D01*
X147250000Y-98500000D02*
X128500000Y-98500000D01*
X150394444Y-104725000D02*
X150394444Y-101644444D01*
X139450000Y-71250000D02*
X139500000Y-71200000D01*
%TO.N,BtnB*%
X144000000Y-72500000D02*
X140000000Y-72500000D01*
X145000000Y-71500000D02*
X144000000Y-72500000D01*
%TO.N,BtnGrab*%
X155500000Y-81250000D02*
X155450000Y-81200000D01*
X155450000Y-81200000D02*
X150762000Y-81200000D01*
X150762000Y-81200000D02*
X146000000Y-76438000D01*
%TO.N,BtnTrigger*%
X156500000Y-79500000D02*
X156500000Y-81027127D01*
X157500000Y-78500000D02*
X156500000Y-79500000D01*
X156500000Y-81027127D02*
X155277127Y-82250000D01*
X155277127Y-82250000D02*
X140000000Y-82250000D01*
D27*
%TO.N,+5V*%
X145750000Y-93500000D02*
X145750000Y-92250000D01*
D24*
X119750000Y-93250000D02*
X120500000Y-92500000D01*
D25*
X152500000Y-90750000D02*
X152500000Y-90250000D01*
X152500000Y-93500000D02*
X152500000Y-90750000D01*
D24*
X120500000Y-92500000D02*
X123250000Y-92500000D01*
X119750000Y-95750000D02*
X119750000Y-93250000D01*
D25*
X145750000Y-93500000D02*
X152500000Y-93500000D01*
D24*
%TO.N,JoyY*%
X135750000Y-93000000D02*
X135750000Y-91000000D01*
X134500000Y-94250000D02*
X135750000Y-93000000D01*
%TO.N,ThumbPWM*%
X163500000Y-67900000D02*
X168700000Y-62700000D01*
X168700000Y-62700000D02*
X169300000Y-62700000D01*
X163500000Y-70250000D02*
X163500000Y-67900000D01*
%TO.N,/D+*%
X118750000Y-85197189D02*
X118763081Y-85210270D01*
X118750000Y-84100500D02*
X118750000Y-85197189D01*
%TO.N,Net-(Q1-Pad2)*%
X148924500Y-80900000D02*
X127600000Y-80900000D01*
%TO.N,Net-(Q2-Pad2)*%
X129000000Y-83400000D02*
X153600000Y-83400000D01*
X125300000Y-79700000D02*
X129000000Y-83400000D01*
%TO.N,IO0*%
X158900000Y-76700000D02*
X154000000Y-76700000D01*
X161000000Y-74600000D02*
X158900000Y-76700000D01*
X161000000Y-73750000D02*
X161000000Y-74600000D01*
%TO.N,RXD*%
X127600000Y-79800000D02*
X138700000Y-79800000D01*
X145500000Y-73000000D02*
X156500000Y-73000000D01*
X138700000Y-79800000D02*
X144000000Y-74500000D01*
X156500000Y-73000000D02*
X156900000Y-72600000D01*
X156900000Y-72600000D02*
X156900000Y-61100000D01*
X144000000Y-74500000D02*
X145500000Y-73000000D01*
%TO.N,TXD*%
X127600000Y-78700000D02*
X138900000Y-78700000D01*
X155300000Y-62300000D02*
X155900000Y-62300000D01*
X144900000Y-72700000D02*
X155300000Y-62300000D01*
X138900000Y-78700000D02*
X144900000Y-72700000D01*
%TO.N,Net-(J1-PadA5)*%
X118200489Y-86200489D02*
X123800000Y-91800000D01*
X124500000Y-92500000D02*
X124500000Y-94000000D01*
X118200489Y-83699511D02*
X118200489Y-86200489D01*
X123800000Y-91800000D02*
X124500000Y-92500000D01*
X118750000Y-83150000D02*
X118200489Y-83699511D01*
%TD*%
%TA.AperFunction,Conductor*%
%TO.N,GND*%
G36*
X162692121Y-56728502D02*
G01*
X162738614Y-56782158D01*
X162750000Y-56834500D01*
X162750000Y-58370883D01*
X162729998Y-58439004D01*
X162676342Y-58485497D01*
X162606068Y-58495601D01*
X162541488Y-58466107D01*
X162503104Y-58406381D01*
X162498690Y-58384053D01*
X162494232Y-58341635D01*
X162494232Y-58341633D01*
X162493542Y-58335072D01*
X162434527Y-58153444D01*
X162339040Y-57988056D01*
X162321679Y-57968774D01*
X162215675Y-57851045D01*
X162215674Y-57851044D01*
X162211253Y-57846134D01*
X162056752Y-57733882D01*
X162050724Y-57731198D01*
X162050722Y-57731197D01*
X161888319Y-57658891D01*
X161888318Y-57658891D01*
X161882288Y-57656206D01*
X161777305Y-57633891D01*
X161701944Y-57617872D01*
X161701939Y-57617872D01*
X161695487Y-57616500D01*
X161504513Y-57616500D01*
X161498061Y-57617872D01*
X161498056Y-57617872D01*
X161422695Y-57633891D01*
X161317712Y-57656206D01*
X161311682Y-57658891D01*
X161311681Y-57658891D01*
X161149278Y-57731197D01*
X161149276Y-57731198D01*
X161143248Y-57733882D01*
X160988747Y-57846134D01*
X160984326Y-57851044D01*
X160984325Y-57851045D01*
X160878322Y-57968774D01*
X160860960Y-57988056D01*
X160765473Y-58153444D01*
X160706458Y-58335072D01*
X160686496Y-58525000D01*
X160687186Y-58531565D01*
X160703141Y-58683365D01*
X160706458Y-58714928D01*
X160765473Y-58896556D01*
X160768776Y-58902278D01*
X160768777Y-58902279D01*
X160802686Y-58961010D01*
X160860960Y-59061944D01*
X160865378Y-59066851D01*
X160865379Y-59066852D01*
X160984325Y-59198955D01*
X160988747Y-59203866D01*
X161009170Y-59218704D01*
X161108839Y-59291118D01*
X161143248Y-59316118D01*
X161149276Y-59318802D01*
X161149278Y-59318803D01*
X161311681Y-59391109D01*
X161317712Y-59393794D01*
X161392332Y-59409655D01*
X161498056Y-59432128D01*
X161498061Y-59432128D01*
X161504513Y-59433500D01*
X161560405Y-59433500D01*
X161628526Y-59453502D01*
X161649500Y-59470405D01*
X161854106Y-59675011D01*
X161888132Y-59737323D01*
X161891011Y-59764106D01*
X161891011Y-73053596D01*
X161871009Y-73121717D01*
X161817353Y-73168210D01*
X161747079Y-73178314D01*
X161682499Y-73148820D01*
X161671380Y-73137912D01*
X161611253Y-73071134D01*
X161456752Y-72958882D01*
X161450724Y-72956198D01*
X161450722Y-72956197D01*
X161288319Y-72883891D01*
X161288318Y-72883891D01*
X161282288Y-72881206D01*
X161188887Y-72861353D01*
X161101944Y-72842872D01*
X161101939Y-72842872D01*
X161095487Y-72841500D01*
X160904513Y-72841500D01*
X160898061Y-72842872D01*
X160898056Y-72842872D01*
X160811113Y-72861353D01*
X160717712Y-72881206D01*
X160711682Y-72883891D01*
X160711681Y-72883891D01*
X160549278Y-72956197D01*
X160549276Y-72956198D01*
X160543248Y-72958882D01*
X160388747Y-73071134D01*
X160384329Y-73076041D01*
X160384325Y-73076045D01*
X160266271Y-73207158D01*
X160260960Y-73213056D01*
X160215891Y-73291118D01*
X160172595Y-73366109D01*
X160165473Y-73378444D01*
X160106458Y-73560072D01*
X160105768Y-73566633D01*
X160105768Y-73566635D01*
X160098793Y-73633003D01*
X160086496Y-73750000D01*
X160106458Y-73939928D01*
X160165473Y-74121556D01*
X160260960Y-74286944D01*
X160264154Y-74290491D01*
X160287785Y-74356720D01*
X160271706Y-74425871D01*
X160251086Y-74453009D01*
X158674500Y-76029595D01*
X158612188Y-76063621D01*
X158585405Y-76066500D01*
X154708200Y-76066500D01*
X154640079Y-76046498D01*
X154620853Y-76030157D01*
X154620580Y-76030460D01*
X154615668Y-76026037D01*
X154611253Y-76021134D01*
X154589671Y-76005454D01*
X154462094Y-75912763D01*
X154462093Y-75912762D01*
X154456752Y-75908882D01*
X154450724Y-75906198D01*
X154450722Y-75906197D01*
X154288319Y-75833891D01*
X154288318Y-75833891D01*
X154282288Y-75831206D01*
X154188887Y-75811353D01*
X154101944Y-75792872D01*
X154101939Y-75792872D01*
X154095487Y-75791500D01*
X153904513Y-75791500D01*
X153898061Y-75792872D01*
X153898056Y-75792872D01*
X153811113Y-75811353D01*
X153717712Y-75831206D01*
X153711682Y-75833891D01*
X153711681Y-75833891D01*
X153549278Y-75906197D01*
X153549276Y-75906198D01*
X153543248Y-75908882D01*
X153388747Y-76021134D01*
X153384326Y-76026044D01*
X153384325Y-76026045D01*
X153317639Y-76100108D01*
X153260960Y-76163056D01*
X153165473Y-76328444D01*
X153106458Y-76510072D01*
X153086496Y-76700000D01*
X153106458Y-76889928D01*
X153165473Y-77071556D01*
X153260960Y-77236944D01*
X153265378Y-77241851D01*
X153265379Y-77241852D01*
X153377614Y-77366502D01*
X153388747Y-77378866D01*
X153543248Y-77491118D01*
X153549276Y-77493802D01*
X153549278Y-77493803D01*
X153711681Y-77566109D01*
X153717712Y-77568794D01*
X153811112Y-77588647D01*
X153898056Y-77607128D01*
X153898061Y-77607128D01*
X153904513Y-77608500D01*
X154095487Y-77608500D01*
X154101939Y-77607128D01*
X154101944Y-77607128D01*
X154188888Y-77588647D01*
X154282288Y-77568794D01*
X154288319Y-77566109D01*
X154450722Y-77493803D01*
X154450724Y-77493802D01*
X154456752Y-77491118D01*
X154611253Y-77378866D01*
X154615668Y-77373963D01*
X154620580Y-77369540D01*
X154621705Y-77370789D01*
X154675014Y-77337949D01*
X154708200Y-77333500D01*
X158821233Y-77333500D01*
X158832416Y-77334027D01*
X158839909Y-77335702D01*
X158847835Y-77335453D01*
X158847836Y-77335453D01*
X158907986Y-77333562D01*
X158911945Y-77333500D01*
X158939856Y-77333500D01*
X158943791Y-77333003D01*
X158943856Y-77332995D01*
X158955693Y-77332062D01*
X158987951Y-77331048D01*
X158991970Y-77330922D01*
X158999889Y-77330673D01*
X159019343Y-77325021D01*
X159038700Y-77321013D01*
X159050930Y-77319468D01*
X159050931Y-77319468D01*
X159058797Y-77318474D01*
X159066168Y-77315555D01*
X159066170Y-77315555D01*
X159099912Y-77302196D01*
X159111142Y-77298351D01*
X159145983Y-77288229D01*
X159145984Y-77288229D01*
X159153593Y-77286018D01*
X159160412Y-77281985D01*
X159160417Y-77281983D01*
X159171028Y-77275707D01*
X159188776Y-77267012D01*
X159207617Y-77259552D01*
X159243387Y-77233564D01*
X159253307Y-77227048D01*
X159284535Y-77208580D01*
X159284538Y-77208578D01*
X159291362Y-77204542D01*
X159305683Y-77190221D01*
X159320717Y-77177380D01*
X159330694Y-77170131D01*
X159337107Y-77165472D01*
X159365298Y-77131395D01*
X159373288Y-77122616D01*
X161392247Y-75103657D01*
X161400537Y-75096113D01*
X161407018Y-75092000D01*
X161453659Y-75042332D01*
X161456413Y-75039491D01*
X161476134Y-75019770D01*
X161478612Y-75016575D01*
X161486318Y-75007553D01*
X161511158Y-74981101D01*
X161516586Y-74975321D01*
X161526346Y-74957568D01*
X161537199Y-74941045D01*
X161544753Y-74931306D01*
X161549613Y-74925041D01*
X161567176Y-74884457D01*
X161572383Y-74873827D01*
X161593695Y-74835060D01*
X161595666Y-74827383D01*
X161595668Y-74827378D01*
X161598732Y-74815442D01*
X161605138Y-74796730D01*
X161610034Y-74785417D01*
X161613181Y-74778145D01*
X161620097Y-74734481D01*
X161622504Y-74722860D01*
X161631528Y-74687711D01*
X161631528Y-74687710D01*
X161633500Y-74680030D01*
X161633500Y-74659769D01*
X161635051Y-74640058D01*
X161636979Y-74627885D01*
X161638219Y-74620057D01*
X161634059Y-74576046D01*
X161633500Y-74564189D01*
X161633500Y-74452524D01*
X161653502Y-74384403D01*
X161665864Y-74368214D01*
X161671379Y-74362089D01*
X161731827Y-74324852D01*
X161802810Y-74326207D01*
X161861793Y-74365724D01*
X161890048Y-74430856D01*
X161891011Y-74446404D01*
X161891011Y-78035508D01*
X161871009Y-78103629D01*
X161854106Y-78124603D01*
X161265614Y-78713095D01*
X161203302Y-78747121D01*
X161176519Y-78750000D01*
X158350561Y-78750000D01*
X158282440Y-78729998D01*
X158235947Y-78676342D01*
X158225787Y-78606464D01*
X158237302Y-78524534D01*
X158237303Y-78524527D01*
X158237853Y-78520610D01*
X158238141Y-78500000D01*
X158219798Y-78336466D01*
X158165680Y-78181060D01*
X158078476Y-78041505D01*
X158020499Y-77983122D01*
X157967486Y-77929737D01*
X157967482Y-77929734D01*
X157962522Y-77924739D01*
X157823580Y-77836563D01*
X157774447Y-77819068D01*
X157675189Y-77783723D01*
X157675187Y-77783722D01*
X157668555Y-77781361D01*
X157661569Y-77780528D01*
X157661565Y-77780527D01*
X157547071Y-77766875D01*
X157505153Y-77761877D01*
X157498150Y-77762613D01*
X157498149Y-77762613D01*
X157454935Y-77767155D01*
X157341495Y-77779078D01*
X157334827Y-77781348D01*
X157192382Y-77829840D01*
X157192379Y-77829841D01*
X157185715Y-77832110D01*
X157045555Y-77918337D01*
X156927982Y-78033473D01*
X156838838Y-78171797D01*
X156836427Y-78178420D01*
X156836426Y-78178423D01*
X156794910Y-78292490D01*
X156765604Y-78338492D01*
X156390999Y-78713096D01*
X156328687Y-78747121D01*
X156301904Y-78750000D01*
X149260094Y-78750000D01*
X149191973Y-78729998D01*
X149170999Y-78713095D01*
X149087025Y-78629120D01*
X146947122Y-76489217D01*
X146913096Y-76426905D01*
X146910907Y-76413292D01*
X146894232Y-76254635D01*
X146894232Y-76254633D01*
X146893542Y-76248072D01*
X146834527Y-76066444D01*
X146739040Y-75901056D01*
X146678565Y-75833891D01*
X146615675Y-75764045D01*
X146615674Y-75764044D01*
X146611253Y-75759134D01*
X146456752Y-75646882D01*
X146450724Y-75644198D01*
X146450722Y-75644197D01*
X146288319Y-75571891D01*
X146288318Y-75571891D01*
X146282288Y-75569206D01*
X146188888Y-75549353D01*
X146101944Y-75530872D01*
X146101939Y-75530872D01*
X146095487Y-75529500D01*
X145904513Y-75529500D01*
X145898061Y-75530872D01*
X145898056Y-75530872D01*
X145811112Y-75549353D01*
X145717712Y-75569206D01*
X145711682Y-75571891D01*
X145711681Y-75571891D01*
X145549278Y-75644197D01*
X145549276Y-75644198D01*
X145543248Y-75646882D01*
X145388747Y-75759134D01*
X145384326Y-75764044D01*
X145384325Y-75764045D01*
X145321436Y-75833891D01*
X145260960Y-75901056D01*
X145165473Y-76066444D01*
X145106458Y-76248072D01*
X145086496Y-76438000D01*
X145106458Y-76627928D01*
X145165473Y-76809556D01*
X145260960Y-76974944D01*
X145388747Y-77116866D01*
X145543248Y-77229118D01*
X145549276Y-77231802D01*
X145549278Y-77231803D01*
X145711681Y-77304109D01*
X145717712Y-77306794D01*
X145784607Y-77321013D01*
X145898056Y-77345128D01*
X145898061Y-77345128D01*
X145904513Y-77346500D01*
X145960406Y-77346500D01*
X146028527Y-77366502D01*
X146049501Y-77383405D01*
X147201001Y-78534905D01*
X147235027Y-78597217D01*
X147229962Y-78668032D01*
X147187415Y-78724868D01*
X147120895Y-78749679D01*
X147111906Y-78750000D01*
X140950094Y-78750000D01*
X140881973Y-78729998D01*
X140835480Y-78676342D01*
X140825376Y-78606068D01*
X140854870Y-78541488D01*
X140860999Y-78534905D01*
X141787405Y-77608500D01*
X144476135Y-74919770D01*
X144476138Y-74919766D01*
X145725499Y-73670405D01*
X145787811Y-73636379D01*
X145814594Y-73633500D01*
X156421233Y-73633500D01*
X156432416Y-73634027D01*
X156439909Y-73635702D01*
X156447835Y-73635453D01*
X156447836Y-73635453D01*
X156507986Y-73633562D01*
X156511945Y-73633500D01*
X156539856Y-73633500D01*
X156543791Y-73633003D01*
X156543856Y-73632995D01*
X156555693Y-73632062D01*
X156587951Y-73631048D01*
X156591970Y-73630922D01*
X156599889Y-73630673D01*
X156619343Y-73625021D01*
X156638700Y-73621013D01*
X156650930Y-73619468D01*
X156650931Y-73619468D01*
X156658797Y-73618474D01*
X156666168Y-73615555D01*
X156666170Y-73615555D01*
X156699912Y-73602196D01*
X156711142Y-73598351D01*
X156745983Y-73588229D01*
X156745984Y-73588229D01*
X156753593Y-73586018D01*
X156760412Y-73581985D01*
X156760417Y-73581983D01*
X156771028Y-73575707D01*
X156788776Y-73567012D01*
X156807617Y-73559552D01*
X156815543Y-73553794D01*
X156843387Y-73533564D01*
X156853307Y-73527048D01*
X156884535Y-73508580D01*
X156884538Y-73508578D01*
X156891362Y-73504542D01*
X156905683Y-73490221D01*
X156920717Y-73477380D01*
X156930694Y-73470131D01*
X156937107Y-73465472D01*
X156965298Y-73431395D01*
X156973288Y-73422616D01*
X157292247Y-73103657D01*
X157300537Y-73096113D01*
X157307018Y-73092000D01*
X157353659Y-73042332D01*
X157356413Y-73039491D01*
X157376134Y-73019770D01*
X157378612Y-73016575D01*
X157386318Y-73007553D01*
X157411158Y-72981101D01*
X157416586Y-72975321D01*
X157423490Y-72962763D01*
X157426346Y-72957568D01*
X157437199Y-72941045D01*
X157444753Y-72931306D01*
X157449613Y-72925041D01*
X157467176Y-72884457D01*
X157472383Y-72873827D01*
X157493695Y-72835060D01*
X157495666Y-72827383D01*
X157495668Y-72827378D01*
X157498732Y-72815442D01*
X157505138Y-72796730D01*
X157510034Y-72785417D01*
X157513181Y-72778145D01*
X157520097Y-72734481D01*
X157522504Y-72722860D01*
X157531528Y-72687711D01*
X157531528Y-72687710D01*
X157533500Y-72680030D01*
X157533500Y-72659769D01*
X157535051Y-72640058D01*
X157536979Y-72627885D01*
X157538219Y-72620057D01*
X157534059Y-72576046D01*
X157533500Y-72564189D01*
X157533500Y-61802524D01*
X157553502Y-61734403D01*
X157565858Y-61718221D01*
X157639040Y-61636944D01*
X157734527Y-61471556D01*
X157793542Y-61289928D01*
X157813504Y-61100000D01*
X157793542Y-60910072D01*
X157734527Y-60728444D01*
X157639040Y-60563056D01*
X157511253Y-60421134D01*
X157356752Y-60308882D01*
X157350724Y-60306198D01*
X157350722Y-60306197D01*
X157188319Y-60233891D01*
X157188318Y-60233891D01*
X157182288Y-60231206D01*
X157088887Y-60211353D01*
X157001944Y-60192872D01*
X157001939Y-60192872D01*
X156995487Y-60191500D01*
X156804513Y-60191500D01*
X156798061Y-60192872D01*
X156798056Y-60192872D01*
X156711113Y-60211353D01*
X156617712Y-60231206D01*
X156611682Y-60233891D01*
X156611681Y-60233891D01*
X156449278Y-60306197D01*
X156449276Y-60306198D01*
X156443248Y-60308882D01*
X156288747Y-60421134D01*
X156160960Y-60563056D01*
X156065473Y-60728444D01*
X156006458Y-60910072D01*
X155986496Y-61100000D01*
X155987186Y-61106565D01*
X156002506Y-61252330D01*
X155989734Y-61322168D01*
X155941232Y-61374015D01*
X155877196Y-61391500D01*
X155804513Y-61391500D01*
X155798061Y-61392872D01*
X155798056Y-61392872D01*
X155711113Y-61411353D01*
X155617712Y-61431206D01*
X155611682Y-61433891D01*
X155611681Y-61433891D01*
X155449278Y-61506197D01*
X155449276Y-61506198D01*
X155443248Y-61508882D01*
X155288747Y-61621134D01*
X155282209Y-61628396D01*
X155281675Y-61628988D01*
X155279717Y-61630194D01*
X155279423Y-61630459D01*
X155279375Y-61630405D01*
X155221227Y-61666225D01*
X155207946Y-61669081D01*
X155200111Y-61669327D01*
X155180657Y-61674979D01*
X155161300Y-61678987D01*
X155149070Y-61680532D01*
X155149069Y-61680532D01*
X155141203Y-61681526D01*
X155133832Y-61684445D01*
X155133830Y-61684445D01*
X155100088Y-61697804D01*
X155088858Y-61701649D01*
X155054017Y-61711771D01*
X155054016Y-61711771D01*
X155046407Y-61713982D01*
X155039588Y-61718015D01*
X155039583Y-61718017D01*
X155028972Y-61724293D01*
X155011224Y-61732988D01*
X154992383Y-61740448D01*
X154985967Y-61745110D01*
X154985966Y-61745110D01*
X154956613Y-61766436D01*
X154946693Y-61772952D01*
X154915465Y-61791420D01*
X154915462Y-61791422D01*
X154908638Y-61795458D01*
X154894317Y-61809779D01*
X154879284Y-61822619D01*
X154862893Y-61834528D01*
X154857842Y-61840634D01*
X154834702Y-61868605D01*
X154826712Y-61877384D01*
X145833874Y-70870221D01*
X145771562Y-70904247D01*
X145700747Y-70899182D01*
X145651144Y-70865438D01*
X145611253Y-70821134D01*
X145456752Y-70708882D01*
X145450724Y-70706198D01*
X145450722Y-70706197D01*
X145288319Y-70633891D01*
X145288318Y-70633891D01*
X145282288Y-70631206D01*
X145188887Y-70611353D01*
X145101944Y-70592872D01*
X145101939Y-70592872D01*
X145095487Y-70591500D01*
X144904513Y-70591500D01*
X144898061Y-70592872D01*
X144898056Y-70592872D01*
X144811113Y-70611353D01*
X144717712Y-70631206D01*
X144711682Y-70633891D01*
X144711681Y-70633891D01*
X144549278Y-70706197D01*
X144549276Y-70706198D01*
X144543248Y-70708882D01*
X144388747Y-70821134D01*
X144260960Y-70963056D01*
X144165473Y-71128444D01*
X144106458Y-71310072D01*
X144105768Y-71316633D01*
X144105768Y-71316635D01*
X144089093Y-71475292D01*
X144062080Y-71540949D01*
X144052878Y-71551218D01*
X143774499Y-71829596D01*
X143712187Y-71863621D01*
X143685404Y-71866500D01*
X140708200Y-71866500D01*
X140640079Y-71846498D01*
X140620853Y-71830157D01*
X140620580Y-71830460D01*
X140615668Y-71826037D01*
X140611253Y-71821134D01*
X140456752Y-71708882D01*
X140450726Y-71706199D01*
X140450719Y-71706195D01*
X140414637Y-71690131D01*
X140360541Y-71644151D01*
X140339891Y-71576224D01*
X140346052Y-71536088D01*
X140391502Y-71396206D01*
X140393542Y-71389928D01*
X140413504Y-71200000D01*
X140393542Y-71010072D01*
X140334527Y-70828444D01*
X140315688Y-70795813D01*
X140286615Y-70745458D01*
X140239040Y-70663056D01*
X140228767Y-70651646D01*
X140115675Y-70526045D01*
X140115674Y-70526044D01*
X140111253Y-70521134D01*
X139956752Y-70408882D01*
X139950724Y-70406198D01*
X139950722Y-70406197D01*
X139788319Y-70333891D01*
X139788318Y-70333891D01*
X139782288Y-70331206D01*
X139688887Y-70311353D01*
X139601944Y-70292872D01*
X139601939Y-70292872D01*
X139595487Y-70291500D01*
X139404513Y-70291500D01*
X139398061Y-70292872D01*
X139398056Y-70292872D01*
X139311113Y-70311353D01*
X139217712Y-70331206D01*
X139211682Y-70333891D01*
X139211681Y-70333891D01*
X139049278Y-70406197D01*
X139049276Y-70406198D01*
X139043248Y-70408882D01*
X138888747Y-70521134D01*
X138884326Y-70526044D01*
X138884325Y-70526045D01*
X138840417Y-70574810D01*
X138779971Y-70612050D01*
X138746781Y-70616500D01*
X137578768Y-70616500D01*
X137567585Y-70615973D01*
X137560092Y-70614298D01*
X137552166Y-70614547D01*
X137552165Y-70614547D01*
X137492002Y-70616438D01*
X137488044Y-70616500D01*
X137460144Y-70616500D01*
X137456154Y-70617004D01*
X137444320Y-70617936D01*
X137400111Y-70619326D01*
X137392497Y-70621538D01*
X137392492Y-70621539D01*
X137380659Y-70624977D01*
X137361296Y-70628988D01*
X137341203Y-70631526D01*
X137333836Y-70634443D01*
X137333831Y-70634444D01*
X137300092Y-70647802D01*
X137288865Y-70651646D01*
X137246407Y-70663982D01*
X137239581Y-70668019D01*
X137228972Y-70674293D01*
X137211224Y-70682988D01*
X137192383Y-70690448D01*
X137185967Y-70695110D01*
X137185966Y-70695110D01*
X137156613Y-70716436D01*
X137146693Y-70722952D01*
X137115465Y-70741420D01*
X137115462Y-70741422D01*
X137108638Y-70745458D01*
X137094317Y-70759779D01*
X137079284Y-70772619D01*
X137062893Y-70784528D01*
X137057840Y-70790636D01*
X137057838Y-70790638D01*
X137053557Y-70795813D01*
X136994725Y-70835553D01*
X136956471Y-70841500D01*
X136904513Y-70841500D01*
X136898061Y-70842872D01*
X136898056Y-70842872D01*
X136811113Y-70861353D01*
X136717712Y-70881206D01*
X136711682Y-70883891D01*
X136711681Y-70883891D01*
X136549278Y-70956197D01*
X136549276Y-70956198D01*
X136543248Y-70958882D01*
X136388747Y-71071134D01*
X136384326Y-71076044D01*
X136384325Y-71076045D01*
X136266805Y-71206565D01*
X136260960Y-71213056D01*
X136165473Y-71378444D01*
X136106458Y-71560072D01*
X136086496Y-71750000D01*
X136087186Y-71756565D01*
X136102630Y-71903502D01*
X136106458Y-71939928D01*
X136165473Y-72121556D01*
X136260960Y-72286944D01*
X136265378Y-72291851D01*
X136265379Y-72291852D01*
X136322340Y-72355114D01*
X136388747Y-72428866D01*
X136543248Y-72541118D01*
X136549276Y-72543802D01*
X136549278Y-72543803D01*
X136702823Y-72612165D01*
X136717712Y-72618794D01*
X136811112Y-72638647D01*
X136898056Y-72657128D01*
X136898061Y-72657128D01*
X136904513Y-72658500D01*
X137095487Y-72658500D01*
X137101939Y-72657128D01*
X137101944Y-72657128D01*
X137188888Y-72638647D01*
X137282288Y-72618794D01*
X137297177Y-72612165D01*
X137450722Y-72543803D01*
X137450724Y-72543802D01*
X137456752Y-72541118D01*
X137611253Y-72428866D01*
X137677660Y-72355114D01*
X137734621Y-72291852D01*
X137734622Y-72291851D01*
X137739040Y-72286944D01*
X137834527Y-72121556D01*
X137883588Y-71970563D01*
X137923662Y-71911958D01*
X137989059Y-71884321D01*
X138003421Y-71883500D01*
X138854185Y-71883500D01*
X138922306Y-71903502D01*
X138928246Y-71907564D01*
X139014957Y-71970563D01*
X139043248Y-71991118D01*
X139049274Y-71993801D01*
X139049281Y-71993805D01*
X139085363Y-72009869D01*
X139139459Y-72055849D01*
X139160109Y-72123776D01*
X139153948Y-72163912D01*
X139134890Y-72222568D01*
X139106458Y-72310072D01*
X139105768Y-72316633D01*
X139105768Y-72316635D01*
X139093972Y-72428866D01*
X139086496Y-72500000D01*
X139087186Y-72506565D01*
X139105418Y-72680030D01*
X139106458Y-72689928D01*
X139165473Y-72871556D01*
X139168776Y-72877278D01*
X139168777Y-72877279D01*
X139192152Y-72917765D01*
X139260960Y-73036944D01*
X139265378Y-73041851D01*
X139265379Y-73041852D01*
X139337290Y-73121717D01*
X139388747Y-73178866D01*
X139543248Y-73291118D01*
X139549276Y-73293802D01*
X139549278Y-73293803D01*
X139657558Y-73342012D01*
X139717712Y-73368794D01*
X139792680Y-73384729D01*
X139898056Y-73407128D01*
X139898061Y-73407128D01*
X139904513Y-73408500D01*
X140095487Y-73408500D01*
X140101939Y-73407128D01*
X140101944Y-73407128D01*
X140207320Y-73384729D01*
X140282288Y-73368794D01*
X140342442Y-73342012D01*
X140450722Y-73293803D01*
X140450724Y-73293802D01*
X140456752Y-73291118D01*
X140611253Y-73178866D01*
X140615668Y-73173963D01*
X140620580Y-73169540D01*
X140621705Y-73170789D01*
X140675014Y-73137949D01*
X140708200Y-73133500D01*
X143266405Y-73133500D01*
X143334526Y-73153502D01*
X143381019Y-73207158D01*
X143391123Y-73277432D01*
X143361629Y-73342012D01*
X143355500Y-73348595D01*
X138674500Y-78029595D01*
X138612188Y-78063621D01*
X138585405Y-78066500D01*
X131126000Y-78066500D01*
X131057879Y-78046498D01*
X131011386Y-77992842D01*
X131000000Y-77940500D01*
X131000000Y-59509500D01*
X131020002Y-59441379D01*
X131073658Y-59394886D01*
X131126000Y-59383500D01*
X131973653Y-59383500D01*
X131999850Y-59386253D01*
X132098056Y-59407128D01*
X132098061Y-59407128D01*
X132104513Y-59408500D01*
X132295487Y-59408500D01*
X132301939Y-59407128D01*
X132301944Y-59407128D01*
X132400150Y-59386253D01*
X132482288Y-59368794D01*
X132488319Y-59366109D01*
X132650722Y-59293803D01*
X132650724Y-59293802D01*
X132656752Y-59291118D01*
X132811253Y-59178866D01*
X132919947Y-59058149D01*
X132934621Y-59041852D01*
X132934622Y-59041851D01*
X132939040Y-59036944D01*
X133034527Y-58871556D01*
X133093542Y-58689928D01*
X133113504Y-58500000D01*
X133101318Y-58384053D01*
X133094232Y-58316635D01*
X133094232Y-58316633D01*
X133093542Y-58310072D01*
X133034527Y-58128444D01*
X132939040Y-57963056D01*
X132811253Y-57821134D01*
X132696503Y-57737763D01*
X132662094Y-57712763D01*
X132662093Y-57712762D01*
X132656752Y-57708882D01*
X132650724Y-57706198D01*
X132650722Y-57706197D01*
X132488319Y-57633891D01*
X132488318Y-57633891D01*
X132482288Y-57631206D01*
X132388887Y-57611353D01*
X132301944Y-57592872D01*
X132301939Y-57592872D01*
X132295487Y-57591500D01*
X132104513Y-57591500D01*
X132098061Y-57592872D01*
X132098056Y-57592872D01*
X131999850Y-57613747D01*
X131973653Y-57616500D01*
X131126000Y-57616500D01*
X131057879Y-57596498D01*
X131011386Y-57542842D01*
X131000000Y-57490500D01*
X131000000Y-56834500D01*
X131020002Y-56766379D01*
X131073658Y-56719886D01*
X131126000Y-56708500D01*
X162624000Y-56708500D01*
X162692121Y-56728502D01*
G37*
%TD.AperFunction*%
%TA.AperFunction,Conductor*%
G36*
X155488529Y-63111542D02*
G01*
X155495732Y-63114485D01*
X155617712Y-63168794D01*
X155711112Y-63188647D01*
X155798056Y-63207128D01*
X155798061Y-63207128D01*
X155804513Y-63208500D01*
X155995487Y-63208500D01*
X156001939Y-63207128D01*
X156001944Y-63207128D01*
X156114303Y-63183245D01*
X156185094Y-63188647D01*
X156241727Y-63231464D01*
X156266220Y-63298102D01*
X156266500Y-63306492D01*
X156266500Y-72240500D01*
X156246498Y-72308621D01*
X156192842Y-72355114D01*
X156140500Y-72366500D01*
X146433594Y-72366500D01*
X146365473Y-72346498D01*
X146318980Y-72292842D01*
X146308876Y-72222568D01*
X146338370Y-72157988D01*
X146344499Y-72151405D01*
X155355402Y-63140503D01*
X155417714Y-63106477D01*
X155488529Y-63111542D01*
G37*
%TD.AperFunction*%
%TD*%
%TA.AperFunction,Conductor*%
%TO.N,GND*%
G36*
X122766474Y-81770002D02*
G01*
X122787448Y-81786905D01*
X123079595Y-82079052D01*
X123113621Y-82141364D01*
X123116500Y-82168147D01*
X123116500Y-87124000D01*
X123096498Y-87192121D01*
X123042842Y-87238614D01*
X122990500Y-87250000D01*
X121376000Y-87250000D01*
X121307879Y-87229998D01*
X121261386Y-87176342D01*
X121250000Y-87124000D01*
X121250000Y-83251648D01*
X121270002Y-83183527D01*
X121286905Y-83162553D01*
X121405545Y-83043913D01*
X121420579Y-83031072D01*
X121509921Y-82966161D01*
X121561253Y-82928866D01*
X121565675Y-82923955D01*
X121684621Y-82791852D01*
X121684622Y-82791851D01*
X121689040Y-82786944D01*
X121784527Y-82621556D01*
X121843542Y-82439928D01*
X121863504Y-82250000D01*
X121843542Y-82060072D01*
X121796384Y-81914936D01*
X121794356Y-81843969D01*
X121831019Y-81783171D01*
X121894731Y-81751845D01*
X121916217Y-81750000D01*
X122698353Y-81750000D01*
X122766474Y-81770002D01*
G37*
%TD.AperFunction*%
%TD*%
%TA.AperFunction,Conductor*%
%TO.N,GND*%
G36*
X163692121Y-86770002D02*
G01*
X163738614Y-86823658D01*
X163750000Y-86876000D01*
X163750000Y-88185328D01*
X163729998Y-88253449D01*
X163676342Y-88299942D01*
X163606068Y-88310046D01*
X163541488Y-88280552D01*
X163529925Y-88268303D01*
X163529617Y-88268583D01*
X163382806Y-88107240D01*
X163375273Y-88100215D01*
X163208139Y-87968222D01*
X163199552Y-87962517D01*
X163013117Y-87859599D01*
X163003705Y-87855369D01*
X162802959Y-87784280D01*
X162792988Y-87781646D01*
X162721837Y-87768972D01*
X162708540Y-87770432D01*
X162704000Y-87784989D01*
X162704000Y-90418517D01*
X162708064Y-90432359D01*
X162721478Y-90434393D01*
X162728184Y-90433534D01*
X162738262Y-90431392D01*
X162942255Y-90370191D01*
X162951842Y-90366433D01*
X163143095Y-90272739D01*
X163151945Y-90267464D01*
X163325328Y-90143792D01*
X163333200Y-90137139D01*
X163484052Y-89986812D01*
X163490730Y-89978965D01*
X163521678Y-89935896D01*
X163577672Y-89892248D01*
X163648376Y-89885802D01*
X163711340Y-89918605D01*
X163746574Y-89980242D01*
X163750000Y-90009422D01*
X163750000Y-100750000D01*
X174374000Y-100750000D01*
X174442121Y-100770002D01*
X174488614Y-100823658D01*
X174500000Y-100876000D01*
X174500000Y-106624000D01*
X174479998Y-106692121D01*
X174426342Y-106738614D01*
X174374000Y-106750000D01*
X147626000Y-106750000D01*
X147557879Y-106729998D01*
X147511386Y-106676342D01*
X147500000Y-106624000D01*
X147500000Y-100876000D01*
X147520002Y-100807879D01*
X147573658Y-100761386D01*
X147626000Y-100750000D01*
X148551906Y-100750000D01*
X148620027Y-100770002D01*
X148641001Y-100786905D01*
X149724039Y-101869943D01*
X149758065Y-101932255D01*
X149760944Y-101959038D01*
X149760944Y-103299404D01*
X149740942Y-103367525D01*
X149700311Y-103407122D01*
X149591127Y-103473377D01*
X149587097Y-103476874D01*
X149493928Y-103557722D01*
X149416999Y-103624477D01*
X149413612Y-103628608D01*
X149274204Y-103798627D01*
X149274200Y-103798633D01*
X149270820Y-103802755D01*
X149268181Y-103807391D01*
X149268179Y-103807394D01*
X149257705Y-103825794D01*
X149156769Y-104003114D01*
X149078107Y-104219825D01*
X149077158Y-104225074D01*
X149077157Y-104225077D01*
X149037821Y-104442608D01*
X149037820Y-104442615D01*
X149037083Y-104446692D01*
X149035944Y-104470844D01*
X149035944Y-104932890D01*
X149050524Y-105104720D01*
X149051862Y-105109875D01*
X149051863Y-105109881D01*
X149107101Y-105322703D01*
X149108443Y-105327872D01*
X149203132Y-105538075D01*
X149331885Y-105729319D01*
X149491020Y-105896135D01*
X149675986Y-106033754D01*
X149680737Y-106036170D01*
X149680741Y-106036172D01*
X149743148Y-106067901D01*
X149881495Y-106138240D01*
X149886589Y-106139822D01*
X149886592Y-106139823D01*
X150086464Y-106201885D01*
X150101671Y-106206607D01*
X150106960Y-106207308D01*
X150324933Y-106236198D01*
X150324938Y-106236198D01*
X150330218Y-106236898D01*
X150335547Y-106236698D01*
X150335549Y-106236698D01*
X150445410Y-106232574D01*
X150560602Y-106228249D01*
X150565912Y-106227135D01*
X150781016Y-106182002D01*
X150786235Y-106180907D01*
X150791194Y-106178949D01*
X150791196Y-106178948D01*
X150995700Y-106098185D01*
X150995702Y-106098184D01*
X151000665Y-106096224D01*
X151099628Y-106036172D01*
X151193201Y-105979390D01*
X151193200Y-105979390D01*
X151197761Y-105976623D01*
X151237937Y-105941760D01*
X151367856Y-105829023D01*
X151367858Y-105829021D01*
X151371889Y-105825523D01*
X151401450Y-105789471D01*
X151460110Y-105749476D01*
X151531080Y-105747545D01*
X151591828Y-105784290D01*
X151606028Y-105803059D01*
X151692507Y-105942807D01*
X151701543Y-105954208D01*
X151816273Y-106068739D01*
X151827684Y-106077751D01*
X151965687Y-106162816D01*
X151978868Y-106168963D01*
X152133154Y-106220138D01*
X152146530Y-106223005D01*
X152240882Y-106232672D01*
X152247298Y-106233000D01*
X152622329Y-106233000D01*
X152637568Y-106228525D01*
X152638773Y-106227135D01*
X152640444Y-106219452D01*
X152640444Y-106214884D01*
X153148444Y-106214884D01*
X153152919Y-106230123D01*
X153154309Y-106231328D01*
X153161992Y-106232999D01*
X153541539Y-106232999D01*
X153548058Y-106232662D01*
X153643650Y-106222743D01*
X153657044Y-106219851D01*
X153811228Y-106168412D01*
X153824406Y-106162239D01*
X153962251Y-106076937D01*
X153973652Y-106067901D01*
X154088183Y-105953171D01*
X154097195Y-105941760D01*
X154182260Y-105803757D01*
X154188407Y-105790576D01*
X154239582Y-105636290D01*
X154242449Y-105622914D01*
X154252116Y-105528562D01*
X154252444Y-105522146D01*
X154252444Y-104997115D01*
X154247969Y-104981876D01*
X154246579Y-104980671D01*
X154238896Y-104979000D01*
X153166559Y-104979000D01*
X153151320Y-104983475D01*
X153150115Y-104984865D01*
X153148444Y-104992548D01*
X153148444Y-106214884D01*
X152640444Y-106214884D01*
X152640444Y-104932890D01*
X158413721Y-104932890D01*
X158428301Y-105104720D01*
X158429639Y-105109875D01*
X158429640Y-105109881D01*
X158484878Y-105322703D01*
X158486220Y-105327872D01*
X158580909Y-105538075D01*
X158709662Y-105729319D01*
X158868797Y-105896135D01*
X159053763Y-106033754D01*
X159058514Y-106036170D01*
X159058518Y-106036172D01*
X159120925Y-106067901D01*
X159259272Y-106138240D01*
X159264366Y-106139822D01*
X159264369Y-106139823D01*
X159464241Y-106201885D01*
X159479448Y-106206607D01*
X159484737Y-106207308D01*
X159702710Y-106236198D01*
X159702715Y-106236198D01*
X159707995Y-106236898D01*
X159713324Y-106236698D01*
X159713326Y-106236698D01*
X159823187Y-106232574D01*
X159938379Y-106228249D01*
X159943689Y-106227135D01*
X160158793Y-106182002D01*
X160164012Y-106180907D01*
X160168971Y-106178949D01*
X160168973Y-106178948D01*
X160373477Y-106098185D01*
X160373479Y-106098184D01*
X160378442Y-106096224D01*
X160477405Y-106036172D01*
X160570978Y-105979390D01*
X160570977Y-105979390D01*
X160575538Y-105976623D01*
X160615714Y-105941760D01*
X160745633Y-105829023D01*
X160745635Y-105829021D01*
X160749666Y-105825523D01*
X160779227Y-105789471D01*
X160837887Y-105749476D01*
X160908857Y-105747545D01*
X160969605Y-105784290D01*
X160983805Y-105803059D01*
X161070284Y-105942807D01*
X161079320Y-105954208D01*
X161194050Y-106068739D01*
X161205461Y-106077751D01*
X161343464Y-106162816D01*
X161356645Y-106168963D01*
X161510931Y-106220138D01*
X161524307Y-106223005D01*
X161618659Y-106232672D01*
X161625075Y-106233000D01*
X162000106Y-106233000D01*
X162015345Y-106228525D01*
X162016550Y-106227135D01*
X162018221Y-106219452D01*
X162018221Y-106214884D01*
X162526221Y-106214884D01*
X162530696Y-106230123D01*
X162532086Y-106231328D01*
X162539769Y-106232999D01*
X162919316Y-106232999D01*
X162925835Y-106232662D01*
X163021427Y-106222743D01*
X163034821Y-106219851D01*
X163189005Y-106168412D01*
X163202183Y-106162239D01*
X163340028Y-106076937D01*
X163351429Y-106067901D01*
X163465960Y-105953171D01*
X163474972Y-105941760D01*
X163560037Y-105803757D01*
X163566184Y-105790576D01*
X163617359Y-105636290D01*
X163620226Y-105622914D01*
X163629893Y-105528562D01*
X163630221Y-105522146D01*
X163630221Y-104997115D01*
X163625746Y-104981876D01*
X163624356Y-104980671D01*
X163616673Y-104979000D01*
X162544336Y-104979000D01*
X162529097Y-104983475D01*
X162527892Y-104984865D01*
X162526221Y-104992548D01*
X162526221Y-106214884D01*
X162018221Y-106214884D01*
X162018221Y-104932890D01*
X167791500Y-104932890D01*
X167806080Y-105104720D01*
X167807418Y-105109875D01*
X167807419Y-105109881D01*
X167862657Y-105322703D01*
X167863999Y-105327872D01*
X167958688Y-105538075D01*
X168087441Y-105729319D01*
X168246576Y-105896135D01*
X168431542Y-106033754D01*
X168436293Y-106036170D01*
X168436297Y-106036172D01*
X168498704Y-106067901D01*
X168637051Y-106138240D01*
X168642145Y-106139822D01*
X168642148Y-106139823D01*
X168842020Y-106201885D01*
X168857227Y-106206607D01*
X168862516Y-106207308D01*
X169080489Y-106236198D01*
X169080494Y-106236198D01*
X169085774Y-106236898D01*
X169091103Y-106236698D01*
X169091105Y-106236698D01*
X169200966Y-106232574D01*
X169316158Y-106228249D01*
X169321468Y-106227135D01*
X169536572Y-106182002D01*
X169541791Y-106180907D01*
X169546750Y-106178949D01*
X169546752Y-106178948D01*
X169751256Y-106098185D01*
X169751258Y-106098184D01*
X169756221Y-106096224D01*
X169855184Y-106036172D01*
X169948757Y-105979390D01*
X169948756Y-105979390D01*
X169953317Y-105976623D01*
X169993493Y-105941760D01*
X170123412Y-105829023D01*
X170123414Y-105829021D01*
X170127445Y-105825523D01*
X170157006Y-105789471D01*
X170215666Y-105749476D01*
X170286636Y-105747545D01*
X170347384Y-105784290D01*
X170361584Y-105803059D01*
X170448063Y-105942807D01*
X170457099Y-105954208D01*
X170571829Y-106068739D01*
X170583240Y-106077751D01*
X170721243Y-106162816D01*
X170734424Y-106168963D01*
X170888710Y-106220138D01*
X170902086Y-106223005D01*
X170996438Y-106232672D01*
X171002854Y-106233000D01*
X171377885Y-106233000D01*
X171393124Y-106228525D01*
X171394329Y-106227135D01*
X171396000Y-106219452D01*
X171396000Y-106214884D01*
X171904000Y-106214884D01*
X171908475Y-106230123D01*
X171909865Y-106231328D01*
X171917548Y-106232999D01*
X172297095Y-106232999D01*
X172303614Y-106232662D01*
X172399206Y-106222743D01*
X172412600Y-106219851D01*
X172566784Y-106168412D01*
X172579962Y-106162239D01*
X172717807Y-106076937D01*
X172729208Y-106067901D01*
X172843739Y-105953171D01*
X172852751Y-105941760D01*
X172937816Y-105803757D01*
X172943963Y-105790576D01*
X172995138Y-105636290D01*
X172998005Y-105622914D01*
X173007672Y-105528562D01*
X173008000Y-105522146D01*
X173008000Y-104997115D01*
X173003525Y-104981876D01*
X173002135Y-104980671D01*
X172994452Y-104979000D01*
X171922115Y-104979000D01*
X171906876Y-104983475D01*
X171905671Y-104984865D01*
X171904000Y-104992548D01*
X171904000Y-106214884D01*
X171396000Y-106214884D01*
X171396000Y-104452885D01*
X171904000Y-104452885D01*
X171908475Y-104468124D01*
X171909865Y-104469329D01*
X171917548Y-104471000D01*
X172989884Y-104471000D01*
X173005123Y-104466525D01*
X173006328Y-104465135D01*
X173007999Y-104457452D01*
X173007999Y-103927905D01*
X173007662Y-103921386D01*
X172997743Y-103825794D01*
X172994851Y-103812400D01*
X172943412Y-103658216D01*
X172937239Y-103645038D01*
X172851937Y-103507193D01*
X172842901Y-103495792D01*
X172728171Y-103381261D01*
X172716760Y-103372249D01*
X172578757Y-103287184D01*
X172565576Y-103281037D01*
X172411290Y-103229862D01*
X172397914Y-103226995D01*
X172303562Y-103217328D01*
X172297145Y-103217000D01*
X171922115Y-103217000D01*
X171906876Y-103221475D01*
X171905671Y-103222865D01*
X171904000Y-103230548D01*
X171904000Y-104452885D01*
X171396000Y-104452885D01*
X171396000Y-103235116D01*
X171391525Y-103219877D01*
X171390135Y-103218672D01*
X171382452Y-103217001D01*
X171002905Y-103217001D01*
X170996386Y-103217338D01*
X170900794Y-103227257D01*
X170887400Y-103230149D01*
X170733216Y-103281588D01*
X170720038Y-103287761D01*
X170582193Y-103373063D01*
X170570792Y-103382099D01*
X170456261Y-103496829D01*
X170447247Y-103508243D01*
X170361277Y-103647713D01*
X170308505Y-103695207D01*
X170238434Y-103706631D01*
X170173310Y-103678357D01*
X170162847Y-103668570D01*
X170142951Y-103647713D01*
X170053424Y-103553865D01*
X169868458Y-103416246D01*
X169863707Y-103413830D01*
X169863703Y-103413828D01*
X169741731Y-103351815D01*
X169662949Y-103311760D01*
X169657855Y-103310178D01*
X169657852Y-103310177D01*
X169447871Y-103244976D01*
X169442773Y-103243393D01*
X169437484Y-103242692D01*
X169219511Y-103213802D01*
X169219506Y-103213802D01*
X169214226Y-103213102D01*
X169208897Y-103213302D01*
X169208895Y-103213302D01*
X169110368Y-103217001D01*
X168983842Y-103221751D01*
X168978623Y-103222846D01*
X168958849Y-103226995D01*
X168758209Y-103269093D01*
X168753250Y-103271051D01*
X168753248Y-103271052D01*
X168548744Y-103351815D01*
X168548742Y-103351816D01*
X168543779Y-103353776D01*
X168539220Y-103356543D01*
X168539217Y-103356544D01*
X168440832Y-103416246D01*
X168346683Y-103473377D01*
X168342653Y-103476874D01*
X168249484Y-103557722D01*
X168172555Y-103624477D01*
X168169168Y-103628608D01*
X168029760Y-103798627D01*
X168029756Y-103798633D01*
X168026376Y-103802755D01*
X168023737Y-103807391D01*
X168023735Y-103807394D01*
X168013261Y-103825794D01*
X167912325Y-104003114D01*
X167833663Y-104219825D01*
X167832714Y-104225074D01*
X167832713Y-104225077D01*
X167793377Y-104442608D01*
X167793376Y-104442615D01*
X167792639Y-104446692D01*
X167791500Y-104470844D01*
X167791500Y-104932890D01*
X162018221Y-104932890D01*
X162018221Y-104452885D01*
X162526221Y-104452885D01*
X162530696Y-104468124D01*
X162532086Y-104469329D01*
X162539769Y-104471000D01*
X163612105Y-104471000D01*
X163627344Y-104466525D01*
X163628549Y-104465135D01*
X163630220Y-104457452D01*
X163630220Y-103927905D01*
X163629883Y-103921386D01*
X163619964Y-103825794D01*
X163617072Y-103812400D01*
X163565633Y-103658216D01*
X163559460Y-103645038D01*
X163474158Y-103507193D01*
X163465122Y-103495792D01*
X163350392Y-103381261D01*
X163338981Y-103372249D01*
X163200978Y-103287184D01*
X163187797Y-103281037D01*
X163033511Y-103229862D01*
X163020135Y-103226995D01*
X162925783Y-103217328D01*
X162919366Y-103217000D01*
X162544336Y-103217000D01*
X162529097Y-103221475D01*
X162527892Y-103222865D01*
X162526221Y-103230548D01*
X162526221Y-104452885D01*
X162018221Y-104452885D01*
X162018221Y-103235116D01*
X162013746Y-103219877D01*
X162012356Y-103218672D01*
X162004673Y-103217001D01*
X161625126Y-103217001D01*
X161618607Y-103217338D01*
X161523015Y-103227257D01*
X161509621Y-103230149D01*
X161355437Y-103281588D01*
X161342259Y-103287761D01*
X161204414Y-103373063D01*
X161193013Y-103382099D01*
X161078482Y-103496829D01*
X161069468Y-103508243D01*
X160983498Y-103647713D01*
X160930726Y-103695207D01*
X160860655Y-103706631D01*
X160795531Y-103678357D01*
X160785068Y-103668570D01*
X160765172Y-103647713D01*
X160675645Y-103553865D01*
X160490679Y-103416246D01*
X160485928Y-103413830D01*
X160485924Y-103413828D01*
X160363952Y-103351815D01*
X160285170Y-103311760D01*
X160280076Y-103310178D01*
X160280073Y-103310177D01*
X160070092Y-103244976D01*
X160064994Y-103243393D01*
X160059705Y-103242692D01*
X159841732Y-103213802D01*
X159841727Y-103213802D01*
X159836447Y-103213102D01*
X159831118Y-103213302D01*
X159831116Y-103213302D01*
X159732589Y-103217001D01*
X159606063Y-103221751D01*
X159600844Y-103222846D01*
X159581070Y-103226995D01*
X159380430Y-103269093D01*
X159375471Y-103271051D01*
X159375469Y-103271052D01*
X159170965Y-103351815D01*
X159170963Y-103351816D01*
X159166000Y-103353776D01*
X159161441Y-103356543D01*
X159161438Y-103356544D01*
X159063053Y-103416246D01*
X158968904Y-103473377D01*
X158964874Y-103476874D01*
X158871705Y-103557722D01*
X158794776Y-103624477D01*
X158791389Y-103628608D01*
X158651981Y-103798627D01*
X158651977Y-103798633D01*
X158648597Y-103802755D01*
X158645958Y-103807391D01*
X158645956Y-103807394D01*
X158635482Y-103825794D01*
X158534546Y-104003114D01*
X158455884Y-104219825D01*
X158454935Y-104225074D01*
X158454934Y-104225077D01*
X158415598Y-104442608D01*
X158415597Y-104442615D01*
X158414860Y-104446692D01*
X158413721Y-104470844D01*
X158413721Y-104932890D01*
X152640444Y-104932890D01*
X152640444Y-104452885D01*
X153148444Y-104452885D01*
X153152919Y-104468124D01*
X153154309Y-104469329D01*
X153161992Y-104471000D01*
X154234328Y-104471000D01*
X154249567Y-104466525D01*
X154250772Y-104465135D01*
X154252443Y-104457452D01*
X154252443Y-103927905D01*
X154252106Y-103921386D01*
X154242187Y-103825794D01*
X154239295Y-103812400D01*
X154187856Y-103658216D01*
X154181683Y-103645038D01*
X154096381Y-103507193D01*
X154087345Y-103495792D01*
X153972615Y-103381261D01*
X153961204Y-103372249D01*
X153823201Y-103287184D01*
X153810020Y-103281037D01*
X153655734Y-103229862D01*
X153642358Y-103226995D01*
X153548006Y-103217328D01*
X153541589Y-103217000D01*
X153166559Y-103217000D01*
X153151320Y-103221475D01*
X153150115Y-103222865D01*
X153148444Y-103230548D01*
X153148444Y-104452885D01*
X152640444Y-104452885D01*
X152640444Y-103235116D01*
X152635969Y-103219877D01*
X152634579Y-103218672D01*
X152626896Y-103217001D01*
X152247349Y-103217001D01*
X152240830Y-103217338D01*
X152145238Y-103227257D01*
X152131844Y-103230149D01*
X151977660Y-103281588D01*
X151964482Y-103287761D01*
X151826637Y-103373063D01*
X151815236Y-103382099D01*
X151700705Y-103496829D01*
X151691691Y-103508243D01*
X151605721Y-103647713D01*
X151552949Y-103695207D01*
X151482878Y-103706631D01*
X151417754Y-103678357D01*
X151407291Y-103668570D01*
X151387395Y-103647713D01*
X151297868Y-103553865D01*
X151112902Y-103416246D01*
X151108150Y-103413830D01*
X151108142Y-103413825D01*
X151096838Y-103408078D01*
X151045181Y-103359375D01*
X151027944Y-103295762D01*
X151027944Y-101723207D01*
X151028471Y-101712023D01*
X151030145Y-101704535D01*
X151028006Y-101636476D01*
X151027944Y-101632519D01*
X151027944Y-101604588D01*
X151027438Y-101600582D01*
X151026505Y-101588736D01*
X151025366Y-101552481D01*
X151025117Y-101544554D01*
X151019466Y-101525102D01*
X151015458Y-101505750D01*
X151013911Y-101493507D01*
X151012918Y-101485647D01*
X151010000Y-101478276D01*
X150996644Y-101444541D01*
X150992799Y-101433314D01*
X150992165Y-101431131D01*
X150980462Y-101390851D01*
X150976428Y-101384029D01*
X150976425Y-101384023D01*
X150970150Y-101373412D01*
X150961454Y-101355662D01*
X150956916Y-101344200D01*
X150956913Y-101344195D01*
X150953996Y-101336827D01*
X150928017Y-101301069D01*
X150921501Y-101291151D01*
X150903019Y-101259901D01*
X150898986Y-101253081D01*
X150884662Y-101238757D01*
X150871820Y-101223722D01*
X150859916Y-101207337D01*
X150825850Y-101179155D01*
X150817071Y-101171166D01*
X150611000Y-100965095D01*
X150576974Y-100902783D01*
X150582039Y-100831968D01*
X150624586Y-100775132D01*
X150691106Y-100750321D01*
X150700095Y-100750000D01*
X160500000Y-100750000D01*
X160500000Y-95551722D01*
X160516881Y-95488722D01*
X160581223Y-95377279D01*
X160581224Y-95377278D01*
X160584527Y-95371556D01*
X160643542Y-95189928D01*
X160663504Y-95000000D01*
X160643542Y-94810072D01*
X160621577Y-94742471D01*
X160619549Y-94671504D01*
X160656212Y-94610706D01*
X160719924Y-94579380D01*
X160790458Y-94587473D01*
X160835046Y-94619225D01*
X160888747Y-94678866D01*
X161043248Y-94791118D01*
X161049276Y-94793802D01*
X161049278Y-94793803D01*
X161100560Y-94816635D01*
X161217712Y-94868794D01*
X161311112Y-94888647D01*
X161398056Y-94907128D01*
X161398061Y-94907128D01*
X161404513Y-94908500D01*
X161595487Y-94908500D01*
X161601939Y-94907128D01*
X161601944Y-94907128D01*
X161688887Y-94888647D01*
X161782288Y-94868794D01*
X161899440Y-94816635D01*
X161950722Y-94793803D01*
X161950724Y-94793802D01*
X161956752Y-94791118D01*
X162111253Y-94678866D01*
X162164954Y-94619225D01*
X162234621Y-94541852D01*
X162234622Y-94541851D01*
X162239040Y-94536944D01*
X162334527Y-94371556D01*
X162393542Y-94189928D01*
X162413504Y-94000000D01*
X162393542Y-93810072D01*
X162334527Y-93628444D01*
X162239040Y-93463056D01*
X162111253Y-93321134D01*
X161960928Y-93211916D01*
X161917574Y-93155694D01*
X161908989Y-93109980D01*
X161908989Y-90529194D01*
X161928991Y-90461073D01*
X161982647Y-90414580D01*
X162052921Y-90404476D01*
X162070144Y-90408198D01*
X162074891Y-90409577D01*
X162178250Y-90430606D01*
X162192299Y-90429410D01*
X162196000Y-90419065D01*
X162196000Y-87764987D01*
X162198177Y-87764987D01*
X162198180Y-87719515D01*
X162229979Y-87665925D01*
X163108999Y-86786905D01*
X163171311Y-86752879D01*
X163198094Y-86750000D01*
X163624000Y-86750000D01*
X163692121Y-86770002D01*
G37*
%TD.AperFunction*%
%TD*%
M02*
