M48
; DRILL file {KiCad 6.0.4-1.fc35} date 2022-04-08T19:50:54 IDT
; FORMAT={-:-/ absolute / inch / decimal}
; #@! TF.CreationDate,2022-04-08T19:50:54+03:00
; #@! TF.GenerationSoftware,Kicad,Pcbnew,6.0.4-1.fc35
; #@! TF.FileFunction,Plated,1,4,PTH
FMAT,2
INCH
; #@! TA.AperFunction,Plated,PTH,ViaDrill
T1C0.0079
; #@! TA.AperFunction,Plated,PTH,ViaDrill
T2C0.0157
; #@! TA.AperFunction,Plated,PTH,ComponentDrill
T3C0.0236
; #@! TA.AperFunction,Plated,PTH,ComponentDrill
T4C0.0374
; #@! TA.AperFunction,Plated,PTH,ComponentDrill
T5C0.0394
%
G90
G05
T1
X4.6752Y-3.311
X4.6757Y-3.3547
X4.9287Y-3.1928
X4.9606Y-2.9685
X4.9665Y-3.1831
X4.9764Y-2.3858
X5.1732Y-2.9843
X5.1969Y-2.4961
X5.3228Y-3.1339
X5.6083Y-3.0846
X5.7343Y-3.0295
T2
X4.6752Y-3.2736
X4.685Y-3.002
X4.685Y-3.3858
X4.7047Y-2.4606
X4.7157Y-3.3612
X4.7618Y-3.2382
X4.815Y-3.6142
X4.8583Y-2.4567
X4.8824Y-2.7751
X4.8976Y-3.6043
X4.9016Y-2.8258
X4.9301Y-2.9134
X4.9409Y-3.4587
X4.9409Y-3.5354
X4.9744Y-3.6378
X4.9961Y-3.2106
X5.0049Y-2.9208
X5.126Y-2.9764
X5.1358Y-2.879
X5.1378Y-2.685
X5.1378Y-2.7362
X5.1476Y-2.5787
X5.1476Y-2.628
X5.1476Y-2.4203
X5.1535Y-3.3012
X5.1575Y-2.5295
X5.1575Y-2.8346
X5.2205Y-2.8976
X5.2557Y-3.034
X5.2638Y-3.2106
X5.2835Y-2.874
X5.313Y-3.4528
X5.3465Y-2.874
X5.4173Y-2.7874
X5.5039Y-2.6693
X5.5039Y-2.7795
X5.5256Y-3.2736
X5.5276Y-3.437
X5.575Y-3.0423
X5.5984Y-2.6063
X5.6457Y-2.4803
X5.8046Y-2.8609
X5.8071Y-2.6378
X5.8071Y-2.685
X5.8071Y-2.7323
X5.814Y-2.5394
X5.814Y-3.0157
X5.8425Y-2.8504
X5.8465Y-2.3327
X6.0827Y-2.5394
T4
X4.8898Y-4.0817
X4.9882Y-4.0817
X5.0866Y-4.0817
X5.185Y-4.0817
X5.2835Y-4.0817
X6.0433Y-2.4222
X6.0433Y-2.7667
X6.0433Y-3.1112
X6.0433Y-3.4557
X6.0433Y-3.8002
X6.1417Y-2.4222
X6.1417Y-2.7667
X6.1417Y-3.1112
X6.1417Y-3.4557
X6.1417Y-3.8002
X6.2402Y-2.4222
X6.2402Y-2.7667
X6.2402Y-3.1112
X6.2402Y-3.4557
X6.2402Y-3.8002
X6.5551Y-2.4222
X6.5551Y-2.7667
X6.5551Y-3.1112
X6.5551Y-3.4557
X6.5551Y-3.8002
X6.6535Y-2.4222
X6.6535Y-2.7667
X6.6535Y-3.1112
X6.6535Y-3.4557
X6.6535Y-3.8002
X6.752Y-2.4222
X6.752Y-2.7667
X6.752Y-3.1112
X6.752Y-3.4557
X6.752Y-3.8002
T5
X4.5866Y-2.6567
X4.5866Y-2.7567
X4.5866Y-2.8567
X4.5866Y-2.9567
X5.5518Y-4.123
X5.565Y-3.8002
X5.6503Y-4.123
X5.6634Y-3.8002
X5.921Y-4.123
X6.0195Y-4.123
X6.2902Y-4.123
X6.3887Y-4.123
X6.6594Y-4.123
X6.7579Y-4.123
T3
G00X4.4419Y-3.1528
M15
G01X4.4183Y-3.1528
M16
G05
G00X4.4419Y-3.4929
M15
G01X4.4183Y-3.4929
M16
G05
G00X4.6163Y-3.1528
M15
G01X4.573Y-3.1528
M16
G05
G00X4.6163Y-3.4929
M15
G01X4.573Y-3.4929
M16
G05
T0
M30
