M48
; DRILL file {KiCad 6.0.4-1.fc35} date 2022-04-09T00:49:28 IDT
; FORMAT={-:-/ absolute / inch / decimal}
; #@! TF.CreationDate,2022-04-09T00:49:28+03:00
; #@! TF.GenerationSoftware,Kicad,Pcbnew,6.0.4-1.fc35
; #@! TF.FileFunction,Plated,1,4,PTH
FMAT,2
INCH
; #@! TA.AperFunction,Plated,PTH,ViaDrill
T1C0.0079
; #@! TA.AperFunction,Plated,PTH,ViaDrill
T2C0.0157
; #@! TA.AperFunction,Plated,PTH,ComponentDrill
T3C0.0236
; #@! TA.AperFunction,Plated,PTH,ComponentDrill
T4C0.0374
; #@! TA.AperFunction,Plated,PTH,ComponentDrill
T5C0.0394
%
G90
G05
T1
X4.6752Y-3.311
X4.6757Y-3.3547
X5.1969Y-2.4961
T2
X4.6752Y-3.2736
X4.685Y-3.002
X4.685Y-3.3858
X4.7157Y-3.3612
X4.7618Y-3.2382
X4.815Y-3.6142
X4.8583Y-2.4567
X4.8976Y-3.6043
X4.9331Y-3.1378
X4.9409Y-3.4587
X4.9409Y-3.5354
X4.9744Y-3.6378
X5.0236Y-3.0984
X5.0236Y-3.1417
X5.0236Y-3.185
X5.1969Y-2.3976
X5.2047Y-2.3031
X5.4488Y-2.6535
X5.4488Y-2.7047
X5.4488Y-2.752
X5.4921Y-2.8031
X5.497Y-3.937
X5.5Y-2.8543
X5.5079Y-2.9055
X5.5256Y-3.3976
X5.5276Y-3.5512
X5.748Y-3.0094
X5.8632Y-3.185
X6.0472Y-3.2835
X6.063Y-3.0197
X6.1378Y-2.4528
X6.1772Y-2.4055
X6.1969Y-3.1496
X6.3504Y-3.1535
X6.3543Y-2.752
X6.3622Y-2.3041
X6.3701Y-2.9055
X6.5945Y-3.1969
X6.6929Y-3.1614
X6.7913Y-3.1535
T4
X4.8898Y-4.0817
X4.9882Y-4.0817
X5.0276Y-2.3701
X5.0276Y-2.4685
X5.0276Y-2.5669
X5.0276Y-2.6654
X5.0276Y-2.7638
X5.0276Y-2.8622
X5.0276Y-2.9606
X5.0866Y-4.0817
X5.185Y-4.0817
X5.2835Y-4.0817
X6.6654Y-2.3701
X6.6654Y-2.4685
X6.6654Y-2.5669
X6.6654Y-2.6654
X6.6654Y-2.7638
X6.6654Y-2.8622
X6.6654Y-2.9606
T5
X5.5518Y-4.123
X5.565Y-3.8002
X5.6503Y-4.123
X5.6634Y-3.8002
X5.921Y-4.123
X6.0195Y-4.123
X6.2902Y-4.123
X6.3887Y-4.123
X6.3957Y-3.5079
X6.4957Y-3.5079
X6.5957Y-3.5079
X6.6594Y-4.123
X6.6957Y-3.5079
X6.7579Y-4.123
X6.7957Y-3.5079
X6.8957Y-3.5079
T3
G00X4.4419Y-3.1528
M15
G01X4.4183Y-3.1528
M16
G05
G00X4.4419Y-3.4929
M15
G01X4.4183Y-3.4929
M16
G05
G00X4.6163Y-3.1528
M15
G01X4.573Y-3.1528
M16
G05
G00X4.6163Y-3.4929
M15
G01X4.573Y-3.4929
M16
G05
T0
M30
