%TF.GenerationSoftware,KiCad,Pcbnew,6.0.4-1.fc35*%
%TF.CreationDate,2022-04-09T00:49:22+03:00*%
%TF.ProjectId,Glove,476c6f76-652e-46b6-9963-61645f706362,rev?*%
%TF.SameCoordinates,Original*%
%TF.FileFunction,Copper,L3,Inr*%
%TF.FilePolarity,Positive*%
%FSLAX46Y46*%
G04 Gerber Fmt 4.6, Leading zero omitted, Abs format (unit mm)*
G04 Created by KiCad (PCBNEW 6.0.4-1.fc35) date 2022-04-09 00:49:22*
%MOMM*%
%LPD*%
G01*
G04 APERTURE LIST*
G04 Aperture macros list*
%AMRoundRect*
0 Rectangle with rounded corners*
0 $1 Rounding radius*
0 $2 $3 $4 $5 $6 $7 $8 $9 X,Y pos of 4 corners*
0 Add a 4 corners polygon primitive as box body*
4,1,4,$2,$3,$4,$5,$6,$7,$8,$9,$2,$3,0*
0 Add four circle primitives for the rounded corners*
1,1,$1+$1,$2,$3*
1,1,$1+$1,$4,$5*
1,1,$1+$1,$6,$7*
1,1,$1+$1,$8,$9*
0 Add four rect primitives between the rounded corners*
20,1,$1+$1,$2,$3,$4,$5,0*
20,1,$1+$1,$4,$5,$6,$7,0*
20,1,$1+$1,$6,$7,$8,$9,0*
20,1,$1+$1,$8,$9,$2,$3,0*%
G04 Aperture macros list end*
%TA.AperFunction,ComponentPad*%
%ADD10RoundRect,0.250000X-0.600000X-0.725000X0.600000X-0.725000X0.600000X0.725000X-0.600000X0.725000X0*%
%TD*%
%TA.AperFunction,ComponentPad*%
%ADD11O,1.700000X1.950000*%
%TD*%
%TA.AperFunction,ComponentPad*%
%ADD12O,1.700000X1.700000*%
%TD*%
%TA.AperFunction,ComponentPad*%
%ADD13R,1.700000X1.700000*%
%TD*%
%TA.AperFunction,ComponentPad*%
%ADD14RoundRect,0.250000X-0.725000X0.600000X-0.725000X-0.600000X0.725000X-0.600000X0.725000X0.600000X0*%
%TD*%
%TA.AperFunction,ComponentPad*%
%ADD15O,1.950000X1.700000*%
%TD*%
%TA.AperFunction,ComponentPad*%
%ADD16RoundRect,0.250000X0.725000X-0.600000X0.725000X0.600000X-0.725000X0.600000X-0.725000X-0.600000X0*%
%TD*%
%TA.AperFunction,ComponentPad*%
%ADD17RoundRect,0.250000X0.600000X0.750000X-0.600000X0.750000X-0.600000X-0.750000X0.600000X-0.750000X0*%
%TD*%
%TA.AperFunction,ComponentPad*%
%ADD18O,1.700000X2.000000*%
%TD*%
%TA.AperFunction,ComponentPad*%
%ADD19O,1.600000X1.000000*%
%TD*%
%TA.AperFunction,ComponentPad*%
%ADD20O,2.100000X1.000000*%
%TD*%
%TA.AperFunction,ViaPad*%
%ADD21C,0.800000*%
%TD*%
%TA.AperFunction,ViaPad*%
%ADD22C,0.450000*%
%TD*%
%TA.AperFunction,Conductor*%
%ADD23C,0.250000*%
%TD*%
G04 APERTURE END LIST*
D10*
%TO.N,+3V3*%
%TO.C,J2*%
X124200000Y-103675000D03*
D11*
%TO.N,JoyX*%
X126700000Y-103675000D03*
%TO.N,JoyY*%
X129200000Y-103675000D03*
%TO.N,JoyClick*%
X131700000Y-103675000D03*
%TO.N,GND*%
X134200000Y-103675000D03*
%TD*%
D12*
%TO.N,GND*%
%TO.C,J5*%
X162450000Y-89100000D03*
%TO.N,/MTDO*%
X164990000Y-89100000D03*
%TO.N,/MTCK*%
X167530000Y-89100000D03*
%TO.N,/MTDI*%
X170070000Y-89100000D03*
%TO.N,/MTMS*%
X172610000Y-89100000D03*
D13*
%TO.N,+3V3*%
X175150000Y-89100000D03*
%TD*%
D14*
%TO.N,+3V3*%
%TO.C,J4*%
X127700000Y-60200000D03*
D15*
%TO.N,PinkyPot*%
X127700000Y-62700000D03*
%TO.N,RingPot*%
X127700000Y-65200000D03*
%TO.N,MiddlePot*%
X127700000Y-67700000D03*
%TO.N,PointerPot*%
X127700000Y-70200000D03*
%TO.N,ThumbPot*%
X127700000Y-72700000D03*
%TO.N,GND*%
X127700000Y-75200000D03*
%TD*%
D16*
%TO.N,+5V*%
%TO.C,J3*%
X169300000Y-75200000D03*
D15*
%TO.N,PinkyPWM*%
X169300000Y-72700000D03*
%TO.N,RingPWM*%
X169300000Y-70200000D03*
%TO.N,MiddlePWM*%
X169300000Y-67700000D03*
%TO.N,PointerPWM*%
X169300000Y-65200000D03*
%TO.N,ThumbPWM*%
X169300000Y-62700000D03*
%TO.N,GND*%
X169300000Y-60200000D03*
%TD*%
D17*
%TO.N,GND*%
%TO.C,BTN_A1*%
X152894444Y-104725000D03*
D18*
%TO.N,BtnA*%
X150394444Y-104725000D03*
%TD*%
D17*
%TO.N,GND*%
%TO.C,BTN_Trigger1*%
X143850000Y-96525000D03*
D18*
%TO.N,BtnTrigger*%
X141350000Y-96525000D03*
%TD*%
D17*
%TO.N,GND*%
%TO.C,BTN_B1*%
X171650000Y-104725000D03*
D18*
%TO.N,BtnB*%
X169150000Y-104725000D03*
%TD*%
D17*
%TO.N,GND*%
%TO.C,BTN_Grab1*%
X143516667Y-104725000D03*
D18*
%TO.N,BtnGrab*%
X141016667Y-104725000D03*
%TD*%
D19*
%TO.N,GND*%
%TO.C,J1*%
X112525000Y-80080000D03*
X112525000Y-88720000D03*
D20*
X116705000Y-88720000D03*
X116705000Y-80080000D03*
%TD*%
D17*
%TO.N,GND*%
%TO.C,BTN_Pinch1*%
X162272221Y-104725000D03*
D18*
%TO.N,BtnPinch*%
X159772221Y-104725000D03*
%TD*%
D21*
%TO.N,BtnPinch*%
X161600000Y-58525000D03*
%TO.N,GND*%
X132000000Y-60900000D03*
%TO.N,BtnA*%
X139500000Y-71200000D03*
X139624500Y-100000000D03*
%TO.N,JoyClick*%
X138400000Y-69900000D03*
%TO.N,JoyY*%
X138400000Y-68700000D03*
%TO.N,JoyX*%
X138400000Y-67400000D03*
%TO.N,IO0*%
X161800000Y-73800000D03*
X154000000Y-76700000D03*
%TO.N,JTAG_MTDO*%
X157400000Y-80000000D03*
X161300000Y-80100000D03*
%TO.N,BtnGrab*%
X146000000Y-76438000D03*
X167500000Y-81200000D03*
%TO.N,BtnTrigger*%
X139900000Y-73800000D03*
X170000000Y-80300000D03*
%TO.N,BtnB*%
X139700000Y-72500000D03*
X172500000Y-80100000D03*
%TO.N,Net-(Q2-Pad2)*%
X153600000Y-83400000D03*
X125300000Y-79700000D03*
%TO.N,TXD*%
X155900000Y-62300000D03*
X127600000Y-78700000D03*
%TO.N,RXD*%
X156900000Y-61100000D03*
X127600000Y-79800000D03*
%TO.N,Net-(Q1-Pad2)*%
X148924500Y-80900000D03*
X127600000Y-80900000D03*
%TO.N,ThumbPWM*%
X161400000Y-69900000D03*
%TO.N,GND*%
X123400000Y-62400000D03*
D22*
X132000000Y-63400000D03*
D21*
%TO.N,+3V3*%
X140350000Y-86300000D03*
X140400000Y-90200000D03*
X120950000Y-82250000D03*
X119000000Y-76250000D03*
X132200000Y-58500000D03*
X119779584Y-85374500D03*
X126350000Y-92400000D03*
D22*
%TO.N,/D+*%
X118763081Y-85210270D03*
X118750000Y-84100500D03*
D21*
%TO.N,Net-(J1-PadB5)*%
X122300000Y-91800000D03*
X119000000Y-86000000D03*
%TO.N,Net-(J1-PadA5)*%
X124400000Y-91550000D03*
X118750000Y-83150000D03*
%TO.N,Net-(R9-Pad2)*%
X125500000Y-87850000D03*
X125500000Y-89800000D03*
%TD*%
D23*
%TO.N,BtnPinch*%
X161600000Y-58500000D02*
X163300000Y-60200000D01*
X163300000Y-60200000D02*
X163300000Y-82200000D01*
X163300000Y-82200000D02*
X159772221Y-85727779D01*
X159772221Y-85727779D02*
X159772221Y-104725000D01*
%TO.N,BtnA*%
X145669444Y-100000000D02*
X139624500Y-100000000D01*
X150394444Y-104725000D02*
X145669444Y-100000000D01*
%TO.N,BtnGrab*%
X138900000Y-102758333D02*
X138900000Y-80100000D01*
X140866667Y-104725000D02*
X138900000Y-102758333D01*
X138900000Y-80100000D02*
X142562000Y-76438000D01*
X142562000Y-76438000D02*
X146000000Y-76438000D01*
X141016667Y-104725000D02*
X140866667Y-104725000D01*
%TO.N,/D+*%
X118750000Y-85197189D02*
X118763081Y-85210270D01*
X118750000Y-84100500D02*
X118750000Y-85197189D01*
%TD*%
M02*
