%TF.GenerationSoftware,KiCad,Pcbnew,(6.0.4)*%
%TF.CreationDate,2022-04-07T08:52:43+03:00*%
%TF.ProjectId,Glove,476c6f76-652e-46b6-9963-61645f706362,rev?*%
%TF.SameCoordinates,Original*%
%TF.FileFunction,Soldermask,Top*%
%TF.FilePolarity,Negative*%
%FSLAX46Y46*%
G04 Gerber Fmt 4.6, Leading zero omitted, Abs format (unit mm)*
G04 Created by KiCad (PCBNEW (6.0.4)) date 2022-04-07 08:52:43*
%MOMM*%
%LPD*%
G01*
G04 APERTURE LIST*
G04 Aperture macros list*
%AMRoundRect*
0 Rectangle with rounded corners*
0 $1 Rounding radius*
0 $2 $3 $4 $5 $6 $7 $8 $9 X,Y pos of 4 corners*
0 Add a 4 corners polygon primitive as box body*
4,1,4,$2,$3,$4,$5,$6,$7,$8,$9,$2,$3,0*
0 Add four circle primitives for the rounded corners*
1,1,$1+$1,$2,$3*
1,1,$1+$1,$4,$5*
1,1,$1+$1,$6,$7*
1,1,$1+$1,$8,$9*
0 Add four rect primitives between the rounded corners*
20,1,$1+$1,$2,$3,$4,$5,0*
20,1,$1+$1,$4,$5,$6,$7,0*
20,1,$1+$1,$6,$7,$8,$9,0*
20,1,$1+$1,$8,$9,$2,$3,0*%
G04 Aperture macros list end*
%ADD10C,3.200000*%
%ADD11RoundRect,0.250000X0.600000X0.725000X-0.600000X0.725000X-0.600000X-0.725000X0.600000X-0.725000X0*%
%ADD12O,1.700000X1.950000*%
%ADD13RoundRect,0.250000X0.475000X-0.337500X0.475000X0.337500X-0.475000X0.337500X-0.475000X-0.337500X0*%
%ADD14RoundRect,0.250000X0.600000X0.750000X-0.600000X0.750000X-0.600000X-0.750000X0.600000X-0.750000X0*%
%ADD15O,1.700000X2.000000*%
%ADD16RoundRect,0.250000X0.450000X-0.350000X0.450000X0.350000X-0.450000X0.350000X-0.450000X-0.350000X0*%
%ADD17RoundRect,0.250000X0.350000X0.450000X-0.350000X0.450000X-0.350000X-0.450000X0.350000X-0.450000X0*%
%ADD18RoundRect,0.250000X-0.350000X-0.450000X0.350000X-0.450000X0.350000X0.450000X-0.350000X0.450000X0*%
%ADD19R,2.000000X0.900000*%
%ADD20R,0.900000X2.000000*%
%ADD21R,5.000000X5.000000*%
%ADD22RoundRect,0.250000X-0.337500X-0.475000X0.337500X-0.475000X0.337500X0.475000X-0.337500X0.475000X0*%
%ADD23RoundRect,0.250000X-0.600000X-0.725000X0.600000X-0.725000X0.600000X0.725000X-0.600000X0.725000X0*%
%ADD24RoundRect,0.150000X-0.587500X-0.150000X0.587500X-0.150000X0.587500X0.150000X-0.587500X0.150000X0*%
%ADD25RoundRect,0.062500X-0.350000X-0.062500X0.350000X-0.062500X0.350000X0.062500X-0.350000X0.062500X0*%
%ADD26RoundRect,0.062500X-0.062500X-0.350000X0.062500X-0.350000X0.062500X0.350000X-0.062500X0.350000X0*%
%ADD27R,2.600000X2.600000*%
%ADD28C,0.650000*%
%ADD29R,1.150000X0.300000*%
%ADD30O,1.600000X1.000000*%
%ADD31O,2.100000X1.000000*%
%ADD32RoundRect,0.250000X-0.475000X0.337500X-0.475000X-0.337500X0.475000X-0.337500X0.475000X0.337500X0*%
%ADD33R,1.700000X1.700000*%
%ADD34O,1.700000X1.700000*%
%ADD35R,1.500000X2.000000*%
%ADD36R,3.800000X2.000000*%
G04 APERTURE END LIST*
D10*
%TO.C,REF\u002A\u002A*%
X114500000Y-60500000D03*
%TD*%
%TO.C,REF\u002A\u002A*%
X178800000Y-60500000D03*
%TD*%
D11*
%TO.C,RV_Pinky1*%
X171500000Y-96525000D03*
D12*
X169000000Y-96525000D03*
X166500000Y-96525000D03*
%TD*%
D13*
%TO.C,C3*%
X117200000Y-92837500D03*
X117200000Y-90762500D03*
%TD*%
D14*
%TO.C,BTN_A1*%
X152894444Y-104725000D03*
D15*
X150394444Y-104725000D03*
%TD*%
D13*
%TO.C,C2*%
X124000000Y-60037500D03*
X124000000Y-57962500D03*
%TD*%
D11*
%TO.C,Ring_Servo1*%
X158500000Y-87775000D03*
D12*
X156000000Y-87775000D03*
X153500000Y-87775000D03*
%TD*%
D16*
%TO.C,R3*%
X133800000Y-83800000D03*
X133800000Y-81800000D03*
%TD*%
D13*
%TO.C,C1*%
X121000000Y-60075000D03*
X121000000Y-58000000D03*
%TD*%
D17*
%TO.C,R7*%
X122540000Y-67480000D03*
X120540000Y-67480000D03*
%TD*%
D11*
%TO.C,RV_Pointer1*%
X171500000Y-87775000D03*
D12*
X169000000Y-87775000D03*
X166500000Y-87775000D03*
%TD*%
D14*
%TO.C,BTN_Trigger1*%
X143850000Y-96525000D03*
D15*
X141350000Y-96525000D03*
%TD*%
D18*
%TO.C,R2*%
X121500000Y-88500000D03*
X123500000Y-88500000D03*
%TD*%
D14*
%TO.C,BTN_B1*%
X171650000Y-104725000D03*
D15*
X169150000Y-104725000D03*
%TD*%
D17*
%TO.C,R6*%
X122520000Y-70020000D03*
X120520000Y-70020000D03*
%TD*%
D19*
%TO.C,U2*%
X128660000Y-57955000D03*
X128660000Y-59225000D03*
X128660000Y-60495000D03*
X128660000Y-61765000D03*
X128660000Y-63035000D03*
X128660000Y-64305000D03*
X128660000Y-65575000D03*
X128660000Y-66845000D03*
X128660000Y-68115000D03*
X128660000Y-69385000D03*
X128660000Y-70655000D03*
X128660000Y-71925000D03*
X128660000Y-73195000D03*
X128660000Y-74465000D03*
D20*
X131445000Y-75465000D03*
X132715000Y-75465000D03*
X133985000Y-75465000D03*
X135255000Y-75465000D03*
X136525000Y-75465000D03*
X137795000Y-75465000D03*
X139065000Y-75465000D03*
X140335000Y-75465000D03*
X141605000Y-75465000D03*
X142875000Y-75465000D03*
D19*
X145660000Y-74465000D03*
X145660000Y-73195000D03*
X145660000Y-71925000D03*
X145660000Y-70655000D03*
X145660000Y-69385000D03*
X145660000Y-68115000D03*
X145660000Y-66845000D03*
X145660000Y-65575000D03*
X145660000Y-64305000D03*
X145660000Y-63035000D03*
X145660000Y-61765000D03*
X145660000Y-60495000D03*
X145660000Y-59225000D03*
X145660000Y-57955000D03*
D21*
X136160000Y-65455000D03*
%TD*%
D22*
%TO.C,C_Out1*%
X131762500Y-89800000D03*
X133837500Y-89800000D03*
%TD*%
D17*
%TO.C,R4*%
X122500000Y-75000000D03*
X120500000Y-75000000D03*
%TD*%
D23*
%TO.C,J2*%
X124200000Y-103675000D03*
D12*
X126700000Y-103675000D03*
X129200000Y-103675000D03*
X131700000Y-103675000D03*
X134200000Y-103675000D03*
%TD*%
D17*
%TO.C,R5*%
X122500000Y-72500000D03*
X120500000Y-72500000D03*
%TD*%
D10*
%TO.C,REF\u002A\u002A*%
X114500000Y-104000000D03*
%TD*%
D14*
%TO.C,BTN_Grab1*%
X143516667Y-104725000D03*
D15*
X141016667Y-104725000D03*
%TD*%
D11*
%TO.C,Pinky_Servo1*%
X158500000Y-96525000D03*
D12*
X156000000Y-96525000D03*
X153500000Y-96525000D03*
%TD*%
D24*
%TO.C,Q1*%
X131862500Y-78050000D03*
X131862500Y-79950000D03*
X133737500Y-79000000D03*
%TD*%
D11*
%TO.C,RV_Ring1*%
X171500000Y-70275000D03*
D12*
X169000000Y-70275000D03*
X166500000Y-70275000D03*
%TD*%
D16*
%TO.C,R8*%
X124600000Y-79800000D03*
X124600000Y-77800000D03*
%TD*%
D25*
%TO.C,U3*%
X127262500Y-82150000D03*
X127262500Y-82650000D03*
X127262500Y-83150000D03*
X127262500Y-83650000D03*
X127262500Y-84150000D03*
X127262500Y-84650000D03*
D26*
X127950000Y-85337500D03*
X128450000Y-85337500D03*
X128950000Y-85337500D03*
X129450000Y-85337500D03*
X129950000Y-85337500D03*
X130450000Y-85337500D03*
D25*
X131137500Y-84650000D03*
X131137500Y-84150000D03*
X131137500Y-83650000D03*
X131137500Y-83150000D03*
X131137500Y-82650000D03*
X131137500Y-82150000D03*
D26*
X130450000Y-81462500D03*
X129950000Y-81462500D03*
X129450000Y-81462500D03*
X128950000Y-81462500D03*
X128450000Y-81462500D03*
X127950000Y-81462500D03*
D27*
X129200000Y-83400000D03*
%TD*%
D28*
%TO.C,J1*%
X116205000Y-81510000D03*
X116205000Y-87290000D03*
D29*
X117270000Y-81050000D03*
X117270000Y-81850000D03*
X117270000Y-83150000D03*
X117270000Y-84150000D03*
X117270000Y-84650000D03*
X117270000Y-85650000D03*
X117270000Y-86950000D03*
X117270000Y-87750000D03*
X117270000Y-87450000D03*
X117270000Y-86650000D03*
X117270000Y-86150000D03*
X117270000Y-85150000D03*
X117270000Y-83650000D03*
X117270000Y-82650000D03*
X117270000Y-82150000D03*
X117270000Y-81350000D03*
D30*
X112525000Y-80080000D03*
X112525000Y-88720000D03*
D31*
X116705000Y-88720000D03*
X116705000Y-80080000D03*
%TD*%
D11*
%TO.C,Pointer_Servo1*%
X158500000Y-70275000D03*
D12*
X156000000Y-70275000D03*
X153500000Y-70275000D03*
%TD*%
D32*
%TO.C,C5*%
X119580000Y-77762500D03*
X119580000Y-79837500D03*
%TD*%
D11*
%TO.C,Middle_Servo1*%
X158500000Y-79025000D03*
D12*
X156000000Y-79025000D03*
X153500000Y-79025000D03*
%TD*%
D32*
%TO.C,C4*%
X122000000Y-77762500D03*
X122000000Y-79837500D03*
%TD*%
D14*
%TO.C,BTN_Pinch1*%
X162272221Y-104725000D03*
D15*
X159772221Y-104725000D03*
%TD*%
D10*
%TO.C,REF\u002A\u002A*%
X178800000Y-104000000D03*
%TD*%
D33*
%TO.C,J_JTAG1*%
X116500000Y-75100000D03*
D34*
X116500000Y-72560000D03*
X116500000Y-70020000D03*
X116500000Y-67480000D03*
%TD*%
D18*
%TO.C,R9*%
X127000000Y-90000000D03*
X129000000Y-90000000D03*
%TD*%
%TO.C,R1*%
X121500000Y-91000000D03*
X123500000Y-91000000D03*
%TD*%
D11*
%TO.C,RV_Thumb1*%
X171500000Y-61525000D03*
D12*
X169000000Y-61525000D03*
X166500000Y-61525000D03*
%TD*%
D22*
%TO.C,C_In1*%
X130962500Y-87500000D03*
X133037500Y-87500000D03*
%TD*%
D11*
%TO.C,RV_Middle1*%
X171500000Y-79025000D03*
D12*
X169000000Y-79025000D03*
X166500000Y-79025000D03*
%TD*%
D24*
%TO.C,Q2*%
X127662500Y-78050000D03*
X127662500Y-79950000D03*
X129537500Y-79000000D03*
%TD*%
D35*
%TO.C,U1*%
X138100000Y-86950000D03*
X140400000Y-86950000D03*
X142700000Y-86950000D03*
D36*
X140400000Y-80650000D03*
%TD*%
D11*
%TO.C,Thumb_Servo1*%
X158500000Y-61525000D03*
D12*
X156000000Y-61525000D03*
X153500000Y-61525000D03*
%TD*%
M02*
