%TF.GenerationSoftware,KiCad,Pcbnew,6.0.4-1.fc35*%
%TF.CreationDate,2022-04-08T19:50:51+03:00*%
%TF.ProjectId,Glove,476c6f76-652e-46b6-9963-61645f706362,rev?*%
%TF.SameCoordinates,Original*%
%TF.FileFunction,Legend,Top*%
%TF.FilePolarity,Positive*%
%FSLAX46Y46*%
G04 Gerber Fmt 4.6, Leading zero omitted, Abs format (unit mm)*
G04 Created by KiCad (PCBNEW 6.0.4-1.fc35) date 2022-04-08 19:50:51*
%MOMM*%
%LPD*%
G01*
G04 APERTURE LIST*
%ADD10C,0.150000*%
%ADD11C,0.120000*%
G04 APERTURE END LIST*
D10*
X179641666Y-97750000D02*
X179641666Y-98583333D01*
X177891666Y-98583333D01*
X178475000Y-96416666D02*
X179641666Y-96416666D01*
X178475000Y-97166666D02*
X179391666Y-97166666D01*
X179558333Y-97083333D01*
X179641666Y-96916666D01*
X179641666Y-96666666D01*
X179558333Y-96500000D01*
X179475000Y-96416666D01*
X179558333Y-94833333D02*
X179641666Y-95000000D01*
X179641666Y-95333333D01*
X179558333Y-95500000D01*
X179475000Y-95583333D01*
X179308333Y-95666666D01*
X178808333Y-95666666D01*
X178641666Y-95583333D01*
X178558333Y-95500000D01*
X178475000Y-95333333D01*
X178475000Y-95000000D01*
X178558333Y-94833333D01*
X179641666Y-94083333D02*
X178475000Y-94083333D01*
X177891666Y-94083333D02*
X177975000Y-94166666D01*
X178058333Y-94083333D01*
X177975000Y-94000000D01*
X177891666Y-94083333D01*
X178058333Y-94083333D01*
X179641666Y-92500000D02*
X177891666Y-92500000D01*
X179558333Y-92500000D02*
X179641666Y-92666666D01*
X179641666Y-93000000D01*
X179558333Y-93166666D01*
X179475000Y-93250000D01*
X179308333Y-93333333D01*
X178808333Y-93333333D01*
X178641666Y-93250000D01*
X178558333Y-93166666D01*
X178475000Y-93000000D01*
X178475000Y-92666666D01*
X178558333Y-92500000D01*
X177891666Y-91916666D02*
X179641666Y-91333333D01*
X177891666Y-90750000D01*
X179641666Y-89166666D02*
X178808333Y-89750000D01*
X179641666Y-90166666D02*
X177891666Y-90166666D01*
X177891666Y-89500000D01*
X177975000Y-89333333D01*
X178058333Y-89250000D01*
X178225000Y-89166666D01*
X178475000Y-89166666D01*
X178641666Y-89250000D01*
X178725000Y-89333333D01*
X178808333Y-89500000D01*
X178808333Y-90166666D01*
X179641666Y-87083333D02*
X177891666Y-87083333D01*
X177891666Y-86416666D01*
X177975000Y-86250000D01*
X178058333Y-86166666D01*
X178225000Y-86083333D01*
X178475000Y-86083333D01*
X178641666Y-86166666D01*
X178725000Y-86250000D01*
X178808333Y-86416666D01*
X178808333Y-87083333D01*
X179641666Y-85333333D02*
X178475000Y-85333333D01*
X178808333Y-85333333D02*
X178641666Y-85250000D01*
X178558333Y-85166666D01*
X178475000Y-85000000D01*
X178475000Y-84833333D01*
X179641666Y-84000000D02*
X179558333Y-84166666D01*
X179475000Y-84250000D01*
X179308333Y-84333333D01*
X178808333Y-84333333D01*
X178641666Y-84250000D01*
X178558333Y-84166666D01*
X178475000Y-84000000D01*
X178475000Y-83750000D01*
X178558333Y-83583333D01*
X178641666Y-83500000D01*
X178808333Y-83416666D01*
X179308333Y-83416666D01*
X179475000Y-83500000D01*
X179558333Y-83583333D01*
X179641666Y-83750000D01*
X179641666Y-84000000D01*
X178475000Y-82916666D02*
X178475000Y-82250000D01*
X177891666Y-82666666D02*
X179391666Y-82666666D01*
X179558333Y-82583333D01*
X179641666Y-82416666D01*
X179641666Y-82250000D01*
X179641666Y-81416666D02*
X179558333Y-81583333D01*
X179475000Y-81666666D01*
X179308333Y-81750000D01*
X178808333Y-81750000D01*
X178641666Y-81666666D01*
X178558333Y-81583333D01*
X178475000Y-81416666D01*
X178475000Y-81166666D01*
X178558333Y-81000000D01*
X178641666Y-80916666D01*
X178808333Y-80833333D01*
X179308333Y-80833333D01*
X179475000Y-80916666D01*
X179558333Y-81000000D01*
X179641666Y-81166666D01*
X179641666Y-81416666D01*
X178475000Y-80333333D02*
X178475000Y-79666666D01*
X177891666Y-80083333D02*
X179391666Y-80083333D01*
X179558333Y-80000000D01*
X179641666Y-79833333D01*
X179641666Y-79666666D01*
X178475000Y-79250000D02*
X179641666Y-78833333D01*
X178475000Y-78416666D02*
X179641666Y-78833333D01*
X180058333Y-79000000D01*
X180141666Y-79083333D01*
X180225000Y-79250000D01*
X178475000Y-77750000D02*
X180225000Y-77750000D01*
X178558333Y-77750000D02*
X178475000Y-77583333D01*
X178475000Y-77250000D01*
X178558333Y-77083333D01*
X178641666Y-77000000D01*
X178808333Y-76916666D01*
X179308333Y-76916666D01*
X179475000Y-77000000D01*
X179558333Y-77083333D01*
X179641666Y-77250000D01*
X179641666Y-77583333D01*
X179558333Y-77750000D01*
X179558333Y-75500000D02*
X179641666Y-75666666D01*
X179641666Y-76000000D01*
X179558333Y-76166666D01*
X179391666Y-76250000D01*
X178725000Y-76250000D01*
X178558333Y-76166666D01*
X178475000Y-76000000D01*
X178475000Y-75666666D01*
X178558333Y-75500000D01*
X178725000Y-75416666D01*
X178891666Y-75416666D01*
X179058333Y-76250000D01*
X178475000Y-72583333D02*
X179641666Y-72583333D01*
X177808333Y-73000000D02*
X179058333Y-73416666D01*
X179058333Y-72333333D01*
X179641666Y-70333333D02*
X177891666Y-70333333D01*
X177891666Y-69666666D01*
X177975000Y-69500000D01*
X178058333Y-69416666D01*
X178225000Y-69333333D01*
X178475000Y-69333333D01*
X178641666Y-69416666D01*
X178725000Y-69500000D01*
X178808333Y-69666666D01*
X178808333Y-70333333D01*
X179475000Y-67583333D02*
X179558333Y-67666666D01*
X179641666Y-67916666D01*
X179641666Y-68083333D01*
X179558333Y-68333333D01*
X179391666Y-68500000D01*
X179225000Y-68583333D01*
X178891666Y-68666666D01*
X178641666Y-68666666D01*
X178308333Y-68583333D01*
X178141666Y-68500000D01*
X177975000Y-68333333D01*
X177891666Y-68083333D01*
X177891666Y-67916666D01*
X177975000Y-67666666D01*
X178058333Y-67583333D01*
X178725000Y-66250000D02*
X178808333Y-66000000D01*
X178891666Y-65916666D01*
X179058333Y-65833333D01*
X179308333Y-65833333D01*
X179475000Y-65916666D01*
X179558333Y-66000000D01*
X179641666Y-66166666D01*
X179641666Y-66833333D01*
X177891666Y-66833333D01*
X177891666Y-66250000D01*
X177975000Y-66083333D01*
X178058333Y-66000000D01*
X178225000Y-65916666D01*
X178391666Y-65916666D01*
X178558333Y-66000000D01*
X178641666Y-66083333D01*
X178725000Y-66250000D01*
X178725000Y-66833333D01*
X119147619Y-86047619D02*
X119100000Y-86000000D01*
X119052380Y-85904761D01*
X119052380Y-85666666D01*
X119100000Y-85571428D01*
X119147619Y-85523809D01*
X119242857Y-85476190D01*
X119338095Y-85476190D01*
X119480952Y-85523809D01*
X120052380Y-86095238D01*
X120052380Y-85476190D01*
X119957142Y-85047619D02*
X120004761Y-85000000D01*
X120052380Y-85047619D01*
X120004761Y-85095238D01*
X119957142Y-85047619D01*
X120052380Y-85047619D01*
X119052380Y-84095238D02*
X119052380Y-84571428D01*
X119528571Y-84619047D01*
X119480952Y-84571428D01*
X119433333Y-84476190D01*
X119433333Y-84238095D01*
X119480952Y-84142857D01*
X119528571Y-84095238D01*
X119623809Y-84047619D01*
X119861904Y-84047619D01*
X119957142Y-84095238D01*
X120004761Y-84142857D01*
X120052380Y-84238095D01*
X120052380Y-84476190D01*
X120004761Y-84571428D01*
X119957142Y-84619047D01*
X119766666Y-83666666D02*
X119766666Y-83190476D01*
X120052380Y-83761904D02*
X119052380Y-83428571D01*
X120052380Y-83095238D01*
X119671428Y-82761904D02*
X119671428Y-82000000D01*
X120052380Y-82380952D02*
X119290476Y-82380952D01*
%TO.C,F1*%
X114128571Y-93883333D02*
X114128571Y-94216666D01*
X114652380Y-94216666D02*
X113652380Y-94216666D01*
X113652380Y-93740476D01*
X114652380Y-92835714D02*
X114652380Y-93407142D01*
X114652380Y-93121428D02*
X113652380Y-93121428D01*
X113795238Y-93216666D01*
X113890476Y-93311904D01*
X113938095Y-93407142D01*
%TO.C,C6*%
X118483333Y-97727142D02*
X118435714Y-97774761D01*
X118292857Y-97822380D01*
X118197619Y-97822380D01*
X118054761Y-97774761D01*
X117959523Y-97679523D01*
X117911904Y-97584285D01*
X117864285Y-97393809D01*
X117864285Y-97250952D01*
X117911904Y-97060476D01*
X117959523Y-96965238D01*
X118054761Y-96870000D01*
X118197619Y-96822380D01*
X118292857Y-96822380D01*
X118435714Y-96870000D01*
X118483333Y-96917619D01*
X119340476Y-96822380D02*
X119150000Y-96822380D01*
X119054761Y-96870000D01*
X119007142Y-96917619D01*
X118911904Y-97060476D01*
X118864285Y-97250952D01*
X118864285Y-97631904D01*
X118911904Y-97727142D01*
X118959523Y-97774761D01*
X119054761Y-97822380D01*
X119245238Y-97822380D01*
X119340476Y-97774761D01*
X119388095Y-97727142D01*
X119435714Y-97631904D01*
X119435714Y-97393809D01*
X119388095Y-97298571D01*
X119340476Y-97250952D01*
X119245238Y-97203333D01*
X119054761Y-97203333D01*
X118959523Y-97250952D01*
X118911904Y-97298571D01*
X118864285Y-97393809D01*
D11*
%TO.C,F1*%
X112490000Y-92163748D02*
X112490000Y-94936252D01*
X115910000Y-92163748D02*
X115910000Y-94936252D01*
%TO.C,C6*%
X118911252Y-96425000D02*
X118388748Y-96425000D01*
X118911252Y-94955000D02*
X118388748Y-94955000D01*
%TO.C,RV_Pinky1*%
X167250000Y-98975000D02*
X170750000Y-98975000D01*
X173300000Y-96725000D02*
X173300000Y-93775000D01*
X174060000Y-93015000D02*
X163940000Y-93015000D01*
X164700000Y-96725000D02*
X164700000Y-93775000D01*
X165750000Y-98975000D02*
X165750000Y-98225000D01*
X163940000Y-98985000D02*
X174060000Y-98985000D01*
X174050000Y-96725000D02*
X173300000Y-96725000D01*
X174350000Y-99275000D02*
X174350000Y-98025000D01*
X173300000Y-93775000D02*
X169000000Y-93775000D01*
X163940000Y-93015000D02*
X163940000Y-98985000D01*
X165750000Y-98225000D02*
X163950000Y-98225000D01*
X173100000Y-99275000D02*
X174350000Y-99275000D01*
X174060000Y-98985000D02*
X174060000Y-93015000D01*
X174050000Y-98225000D02*
X172250000Y-98225000D01*
X170750000Y-98225000D02*
X167250000Y-98225000D01*
X164700000Y-93775000D02*
X169000000Y-93775000D01*
X174050000Y-98975000D02*
X174050000Y-98225000D01*
X163950000Y-98225000D02*
X163950000Y-98975000D01*
X163950000Y-96725000D02*
X164700000Y-96725000D01*
X172250000Y-98975000D02*
X174050000Y-98975000D01*
X163950000Y-98975000D02*
X165750000Y-98975000D01*
X167250000Y-98225000D02*
X167250000Y-98975000D01*
X172250000Y-98225000D02*
X172250000Y-98975000D01*
X170750000Y-98975000D02*
X170750000Y-98225000D01*
%TO.C,C3*%
X118911252Y-92315000D02*
X118388748Y-92315000D01*
X118911252Y-93785000D02*
X118388748Y-93785000D01*
%TO.C,BTN_A1*%
X147844444Y-107175000D02*
X149644444Y-107175000D01*
X149644444Y-106425000D02*
X147844444Y-106425000D01*
X149644444Y-107175000D02*
X149644444Y-106425000D01*
X148594444Y-104925000D02*
X148594444Y-101975000D01*
X147844444Y-104925000D02*
X148594444Y-104925000D01*
X153644444Y-107175000D02*
X155444444Y-107175000D01*
X151144444Y-106425000D02*
X151144444Y-107175000D01*
X147834444Y-107185000D02*
X155454444Y-107185000D01*
X151144444Y-107175000D02*
X152144444Y-107175000D01*
X155444444Y-106425000D02*
X153644444Y-106425000D01*
X155454444Y-101215000D02*
X147834444Y-101215000D01*
X147844444Y-106425000D02*
X147844444Y-107175000D01*
X154694444Y-101975000D02*
X151644444Y-101975000D01*
X154694444Y-104925000D02*
X154694444Y-101975000D01*
X147834444Y-101215000D02*
X147834444Y-107185000D01*
X155454444Y-107185000D02*
X155454444Y-101215000D01*
X152144444Y-107175000D02*
X152144444Y-106425000D01*
X155444444Y-104925000D02*
X154694444Y-104925000D01*
X152144444Y-106425000D02*
X151144444Y-106425000D01*
X155744444Y-107475000D02*
X155744444Y-106225000D01*
X155444444Y-107175000D02*
X155444444Y-106425000D01*
X148594444Y-101975000D02*
X151644444Y-101975000D01*
X154494444Y-107475000D02*
X155744444Y-107475000D01*
X153644444Y-106425000D02*
X153644444Y-107175000D01*
%TO.C,C2*%
X123265000Y-59261252D02*
X123265000Y-58738748D01*
X124735000Y-59261252D02*
X124735000Y-58738748D01*
%TO.C,Ring_Servo1*%
X150950000Y-87975000D02*
X151700000Y-87975000D01*
X150940000Y-84265000D02*
X150940000Y-90235000D01*
X161060000Y-84265000D02*
X150940000Y-84265000D01*
X161060000Y-90235000D02*
X161060000Y-84265000D01*
X159250000Y-90225000D02*
X161050000Y-90225000D01*
X151700000Y-87975000D02*
X151700000Y-85025000D01*
X161050000Y-89475000D02*
X159250000Y-89475000D01*
X157750000Y-90225000D02*
X157750000Y-89475000D01*
X161050000Y-90225000D02*
X161050000Y-89475000D01*
X152750000Y-90225000D02*
X152750000Y-89475000D01*
X160300000Y-85025000D02*
X156000000Y-85025000D01*
X154250000Y-89475000D02*
X154250000Y-90225000D01*
X161350000Y-90525000D02*
X161350000Y-89275000D01*
X154250000Y-90225000D02*
X157750000Y-90225000D01*
X150940000Y-90235000D02*
X161060000Y-90235000D01*
X161050000Y-87975000D02*
X160300000Y-87975000D01*
X160100000Y-90525000D02*
X161350000Y-90525000D01*
X159250000Y-89475000D02*
X159250000Y-90225000D01*
X150950000Y-89475000D02*
X150950000Y-90225000D01*
X150950000Y-90225000D02*
X152750000Y-90225000D01*
X151700000Y-85025000D02*
X156000000Y-85025000D01*
X157750000Y-89475000D02*
X154250000Y-89475000D01*
X152750000Y-89475000D02*
X150950000Y-89475000D01*
X160300000Y-87975000D02*
X160300000Y-85025000D01*
%TO.C,R3*%
X130672936Y-83235000D02*
X131127064Y-83235000D01*
X130672936Y-81765000D02*
X131127064Y-81765000D01*
%TO.C,C1*%
X120265000Y-59298752D02*
X120265000Y-58776248D01*
X121735000Y-59298752D02*
X121735000Y-58776248D01*
%TO.C,R7*%
X121767064Y-68215000D02*
X121312936Y-68215000D01*
X121767064Y-66745000D02*
X121312936Y-66745000D01*
%TO.C,RV_Pointer1*%
X174350000Y-90525000D02*
X174350000Y-89275000D01*
X173100000Y-90525000D02*
X174350000Y-90525000D01*
X170750000Y-90225000D02*
X170750000Y-89475000D01*
X174050000Y-90225000D02*
X174050000Y-89475000D01*
X174060000Y-84265000D02*
X163940000Y-84265000D01*
X174060000Y-90235000D02*
X174060000Y-84265000D01*
X164700000Y-85025000D02*
X169000000Y-85025000D01*
X172250000Y-89475000D02*
X172250000Y-90225000D01*
X163950000Y-89475000D02*
X163950000Y-90225000D01*
X165750000Y-90225000D02*
X165750000Y-89475000D01*
X174050000Y-89475000D02*
X172250000Y-89475000D01*
X173300000Y-87975000D02*
X173300000Y-85025000D01*
X173300000Y-85025000D02*
X169000000Y-85025000D01*
X165750000Y-89475000D02*
X163950000Y-89475000D01*
X167250000Y-89475000D02*
X167250000Y-90225000D01*
X163940000Y-90235000D02*
X174060000Y-90235000D01*
X163950000Y-90225000D02*
X165750000Y-90225000D01*
X163950000Y-87975000D02*
X164700000Y-87975000D01*
X167250000Y-90225000D02*
X170750000Y-90225000D01*
X164700000Y-87975000D02*
X164700000Y-85025000D01*
X172250000Y-90225000D02*
X174050000Y-90225000D01*
X174050000Y-87975000D02*
X173300000Y-87975000D01*
X170750000Y-89475000D02*
X167250000Y-89475000D01*
X163940000Y-84265000D02*
X163940000Y-90235000D01*
%TO.C,BTN_Trigger1*%
X139550000Y-96725000D02*
X139550000Y-93775000D01*
X138800000Y-96725000D02*
X139550000Y-96725000D01*
X140600000Y-98225000D02*
X138800000Y-98225000D01*
X144600000Y-98975000D02*
X146400000Y-98975000D01*
X146400000Y-96725000D02*
X145650000Y-96725000D01*
X146410000Y-93015000D02*
X138790000Y-93015000D01*
X140600000Y-98975000D02*
X140600000Y-98225000D01*
X146700000Y-99275000D02*
X146700000Y-98025000D01*
X139550000Y-93775000D02*
X142600000Y-93775000D01*
X143100000Y-98975000D02*
X143100000Y-98225000D01*
X142100000Y-98225000D02*
X142100000Y-98975000D01*
X146410000Y-98985000D02*
X146410000Y-93015000D01*
X145650000Y-93775000D02*
X142600000Y-93775000D01*
X138790000Y-98985000D02*
X146410000Y-98985000D01*
X145650000Y-96725000D02*
X145650000Y-93775000D01*
X138800000Y-98975000D02*
X140600000Y-98975000D01*
X142100000Y-98975000D02*
X143100000Y-98975000D01*
X146400000Y-98975000D02*
X146400000Y-98225000D01*
X145450000Y-99275000D02*
X146700000Y-99275000D01*
X144600000Y-98225000D02*
X144600000Y-98975000D01*
X146400000Y-98225000D02*
X144600000Y-98225000D01*
X138800000Y-98225000D02*
X138800000Y-98975000D01*
X138790000Y-93015000D02*
X138790000Y-98985000D01*
X143100000Y-98225000D02*
X142100000Y-98225000D01*
%TO.C,R2*%
X123665000Y-93922936D02*
X123665000Y-94377064D01*
X125135000Y-93922936D02*
X125135000Y-94377064D01*
%TO.C,BTN_B1*%
X168400000Y-106425000D02*
X166600000Y-106425000D01*
X166600000Y-104925000D02*
X167350000Y-104925000D01*
X174210000Y-107185000D02*
X174210000Y-101215000D01*
X166600000Y-106425000D02*
X166600000Y-107175000D01*
X166600000Y-107175000D02*
X168400000Y-107175000D01*
X174200000Y-107175000D02*
X174200000Y-106425000D01*
X174200000Y-104925000D02*
X173450000Y-104925000D01*
X166590000Y-107185000D02*
X174210000Y-107185000D01*
X166590000Y-101215000D02*
X166590000Y-107185000D01*
X173450000Y-101975000D02*
X170400000Y-101975000D01*
X174200000Y-106425000D02*
X172400000Y-106425000D01*
X169900000Y-106425000D02*
X169900000Y-107175000D01*
X170900000Y-107175000D02*
X170900000Y-106425000D01*
X172400000Y-107175000D02*
X174200000Y-107175000D01*
X168400000Y-107175000D02*
X168400000Y-106425000D01*
X170900000Y-106425000D02*
X169900000Y-106425000D01*
X174210000Y-101215000D02*
X166590000Y-101215000D01*
X169900000Y-107175000D02*
X170900000Y-107175000D01*
X167350000Y-101975000D02*
X170400000Y-101975000D01*
X173250000Y-107475000D02*
X174500000Y-107475000D01*
X167350000Y-104925000D02*
X167350000Y-101975000D01*
X174500000Y-107475000D02*
X174500000Y-106225000D01*
X173450000Y-104925000D02*
X173450000Y-101975000D01*
X172400000Y-106425000D02*
X172400000Y-107175000D01*
%TO.C,R6*%
X121747064Y-69285000D02*
X121292936Y-69285000D01*
X121747064Y-70755000D02*
X121292936Y-70755000D01*
%TO.C,U2*%
X128040000Y-76090000D02*
X129040000Y-76090000D01*
X146280000Y-75310000D02*
X146280000Y-76090000D01*
X128040000Y-50345000D02*
X146280000Y-50345000D01*
X128040000Y-56765000D02*
X127660000Y-56765000D01*
X128040000Y-50345000D02*
X128040000Y-56765000D01*
X146280000Y-76090000D02*
X145280000Y-76090000D01*
X146280000Y-50345000D02*
X146280000Y-56765000D01*
X128040000Y-75310000D02*
X128040000Y-76090000D01*
%TO.C,C_Out1*%
X141188748Y-88915000D02*
X141711252Y-88915000D01*
X141188748Y-90385000D02*
X141711252Y-90385000D01*
%TO.C,R4*%
X121727064Y-74265000D02*
X121272936Y-74265000D01*
X121727064Y-75735000D02*
X121272936Y-75735000D01*
%TO.C,J2*%
X134950000Y-101975000D02*
X136750000Y-101975000D01*
X136760000Y-107185000D02*
X136760000Y-101215000D01*
X121650000Y-101225000D02*
X121650000Y-101975000D01*
X123450000Y-101975000D02*
X123450000Y-101225000D01*
X122600000Y-100925000D02*
X121350000Y-100925000D01*
X136750000Y-101975000D02*
X136750000Y-101225000D01*
X136750000Y-103475000D02*
X136000000Y-103475000D01*
X122400000Y-103475000D02*
X122400000Y-106425000D01*
X124950000Y-101225000D02*
X124950000Y-101975000D01*
X121650000Y-101975000D02*
X123450000Y-101975000D01*
X121650000Y-103475000D02*
X122400000Y-103475000D01*
X136000000Y-106425000D02*
X129200000Y-106425000D01*
X133450000Y-101975000D02*
X133450000Y-101225000D01*
X134950000Y-101225000D02*
X134950000Y-101975000D01*
X121350000Y-100925000D02*
X121350000Y-102175000D01*
X121640000Y-107185000D02*
X136760000Y-107185000D01*
X136750000Y-101225000D02*
X134950000Y-101225000D01*
X123450000Y-101225000D02*
X121650000Y-101225000D01*
X122400000Y-106425000D02*
X129200000Y-106425000D01*
X136760000Y-101215000D02*
X121640000Y-101215000D01*
X124950000Y-101975000D02*
X133450000Y-101975000D01*
X133450000Y-101225000D02*
X124950000Y-101225000D01*
X136000000Y-103475000D02*
X136000000Y-106425000D01*
X121640000Y-101215000D02*
X121640000Y-107185000D01*
%TO.C,R5*%
X121727064Y-73235000D02*
X121272936Y-73235000D01*
X121727064Y-71765000D02*
X121272936Y-71765000D01*
%TO.C,BTN_Grab1*%
X138466667Y-106425000D02*
X138466667Y-107175000D01*
X139216667Y-104925000D02*
X139216667Y-101975000D01*
X139216667Y-101975000D02*
X142266667Y-101975000D01*
X142766667Y-106425000D02*
X141766667Y-106425000D01*
X144266667Y-107175000D02*
X146066667Y-107175000D01*
X138466667Y-107175000D02*
X140266667Y-107175000D01*
X138466667Y-104925000D02*
X139216667Y-104925000D01*
X138456667Y-107185000D02*
X146076667Y-107185000D01*
X146366667Y-107475000D02*
X146366667Y-106225000D01*
X141766667Y-107175000D02*
X142766667Y-107175000D01*
X145116667Y-107475000D02*
X146366667Y-107475000D01*
X140266667Y-107175000D02*
X140266667Y-106425000D01*
X146076667Y-101215000D02*
X138456667Y-101215000D01*
X146066667Y-106425000D02*
X144266667Y-106425000D01*
X142766667Y-107175000D02*
X142766667Y-106425000D01*
X145316667Y-104925000D02*
X145316667Y-101975000D01*
X146066667Y-104925000D02*
X145316667Y-104925000D01*
X145316667Y-101975000D02*
X142266667Y-101975000D01*
X146076667Y-107185000D02*
X146076667Y-101215000D01*
X146066667Y-107175000D02*
X146066667Y-106425000D01*
X138456667Y-101215000D02*
X138456667Y-107185000D01*
X144266667Y-106425000D02*
X144266667Y-107175000D01*
X140266667Y-106425000D02*
X138466667Y-106425000D01*
X141766667Y-106425000D02*
X141766667Y-107175000D01*
%TO.C,Pinky_Servo1*%
X161060000Y-98985000D02*
X161060000Y-93015000D01*
X151700000Y-93775000D02*
X156000000Y-93775000D01*
X152750000Y-98225000D02*
X150950000Y-98225000D01*
X150940000Y-93015000D02*
X150940000Y-98985000D01*
X160100000Y-99275000D02*
X161350000Y-99275000D01*
X161050000Y-98225000D02*
X159250000Y-98225000D01*
X150950000Y-98975000D02*
X152750000Y-98975000D01*
X150950000Y-98225000D02*
X150950000Y-98975000D01*
X157750000Y-98225000D02*
X154250000Y-98225000D01*
X161350000Y-99275000D02*
X161350000Y-98025000D01*
X159250000Y-98975000D02*
X161050000Y-98975000D01*
X161050000Y-98975000D02*
X161050000Y-98225000D01*
X152750000Y-98975000D02*
X152750000Y-98225000D01*
X161050000Y-96725000D02*
X160300000Y-96725000D01*
X159250000Y-98225000D02*
X159250000Y-98975000D01*
X160300000Y-93775000D02*
X156000000Y-93775000D01*
X151700000Y-96725000D02*
X151700000Y-93775000D01*
X160300000Y-96725000D02*
X160300000Y-93775000D01*
X161060000Y-93015000D02*
X150940000Y-93015000D01*
X150950000Y-96725000D02*
X151700000Y-96725000D01*
X154250000Y-98975000D02*
X157750000Y-98975000D01*
X157750000Y-98975000D02*
X157750000Y-98225000D01*
X154250000Y-98225000D02*
X154250000Y-98975000D01*
X150940000Y-98985000D02*
X161060000Y-98985000D01*
%TO.C,Q1*%
X130560000Y-79350000D02*
X130560000Y-80000000D01*
X127440000Y-79350000D02*
X127440000Y-81025000D01*
X127440000Y-79350000D02*
X127440000Y-78700000D01*
X130560000Y-79350000D02*
X130560000Y-78700000D01*
%TO.C,RV_Ring1*%
X163950000Y-71975000D02*
X163950000Y-72725000D01*
X163950000Y-70475000D02*
X164700000Y-70475000D01*
X163940000Y-72735000D02*
X174060000Y-72735000D01*
X170750000Y-71975000D02*
X167250000Y-71975000D01*
X167250000Y-72725000D02*
X170750000Y-72725000D01*
X164700000Y-70475000D02*
X164700000Y-67525000D01*
X174050000Y-71975000D02*
X172250000Y-71975000D01*
X164700000Y-67525000D02*
X169000000Y-67525000D01*
X174350000Y-73025000D02*
X174350000Y-71775000D01*
X163950000Y-72725000D02*
X165750000Y-72725000D01*
X173100000Y-73025000D02*
X174350000Y-73025000D01*
X170750000Y-72725000D02*
X170750000Y-71975000D01*
X174050000Y-70475000D02*
X173300000Y-70475000D01*
X172250000Y-71975000D02*
X172250000Y-72725000D01*
X174050000Y-72725000D02*
X174050000Y-71975000D01*
X165750000Y-71975000D02*
X163950000Y-71975000D01*
X173300000Y-70475000D02*
X173300000Y-67525000D01*
X174060000Y-72735000D02*
X174060000Y-66765000D01*
X172250000Y-72725000D02*
X174050000Y-72725000D01*
X163940000Y-66765000D02*
X163940000Y-72735000D01*
X174060000Y-66765000D02*
X163940000Y-66765000D01*
X165750000Y-72725000D02*
X165750000Y-71975000D01*
X167250000Y-71975000D02*
X167250000Y-72725000D01*
X173300000Y-67525000D02*
X169000000Y-67525000D01*
%TO.C,R8*%
X125985000Y-78198416D02*
X125985000Y-78652544D01*
X124515000Y-78198416D02*
X124515000Y-78652544D01*
%TO.C,U3*%
X126585000Y-82290000D02*
X127060000Y-82290000D01*
X126585000Y-86510000D02*
X127060000Y-86510000D01*
X123315000Y-86510000D02*
X122840000Y-86510000D01*
X127060000Y-86510000D02*
X127060000Y-86035000D01*
X123315000Y-82290000D02*
X122840000Y-82290000D01*
X127060000Y-82290000D02*
X127060000Y-82765000D01*
X122840000Y-86510000D02*
X122840000Y-86035000D01*
%TO.C,J1*%
X109815000Y-79820000D02*
X111520000Y-79820000D01*
X109815000Y-88980000D02*
X109815000Y-79820000D01*
X111520000Y-88980000D02*
X109815000Y-88980000D01*
X115450000Y-79820000D02*
X113530000Y-79820000D01*
X113530000Y-88980000D02*
X115450000Y-88980000D01*
%TO.C,Pointer_Servo1*%
X150950000Y-71975000D02*
X150950000Y-72725000D01*
X157750000Y-72725000D02*
X157750000Y-71975000D01*
X154250000Y-71975000D02*
X154250000Y-72725000D01*
X160300000Y-70475000D02*
X160300000Y-67525000D01*
X154250000Y-72725000D02*
X157750000Y-72725000D01*
X161050000Y-72725000D02*
X161050000Y-71975000D01*
X157750000Y-71975000D02*
X154250000Y-71975000D01*
X161060000Y-72735000D02*
X161060000Y-66765000D01*
X161060000Y-66765000D02*
X150940000Y-66765000D01*
X151700000Y-67525000D02*
X156000000Y-67525000D01*
X161350000Y-73025000D02*
X161350000Y-71775000D01*
X152750000Y-72725000D02*
X152750000Y-71975000D01*
X152750000Y-71975000D02*
X150950000Y-71975000D01*
X159250000Y-71975000D02*
X159250000Y-72725000D01*
X161050000Y-70475000D02*
X160300000Y-70475000D01*
X150940000Y-72735000D02*
X161060000Y-72735000D01*
X160300000Y-67525000D02*
X156000000Y-67525000D01*
X160100000Y-73025000D02*
X161350000Y-73025000D01*
X150950000Y-72725000D02*
X152750000Y-72725000D01*
X159250000Y-72725000D02*
X161050000Y-72725000D01*
X150950000Y-70475000D02*
X151700000Y-70475000D01*
X161050000Y-71975000D02*
X159250000Y-71975000D01*
X151700000Y-70475000D02*
X151700000Y-67525000D01*
X150940000Y-66765000D02*
X150940000Y-72735000D01*
%TO.C,C5*%
X121885000Y-86426248D02*
X121885000Y-86948752D01*
X120415000Y-86426248D02*
X120415000Y-86948752D01*
%TO.C,Middle_Servo1*%
X161060000Y-75515000D02*
X150940000Y-75515000D01*
X157750000Y-80725000D02*
X154250000Y-80725000D01*
X161050000Y-81475000D02*
X161050000Y-80725000D01*
X151700000Y-79225000D02*
X151700000Y-76275000D01*
X150950000Y-81475000D02*
X152750000Y-81475000D01*
X150940000Y-81485000D02*
X161060000Y-81485000D01*
X161350000Y-81775000D02*
X161350000Y-80525000D01*
X160100000Y-81775000D02*
X161350000Y-81775000D01*
X151700000Y-76275000D02*
X156000000Y-76275000D01*
X161060000Y-81485000D02*
X161060000Y-75515000D01*
X157750000Y-81475000D02*
X157750000Y-80725000D01*
X152750000Y-80725000D02*
X150950000Y-80725000D01*
X154250000Y-80725000D02*
X154250000Y-81475000D01*
X150950000Y-79225000D02*
X151700000Y-79225000D01*
X154250000Y-81475000D02*
X157750000Y-81475000D01*
X150940000Y-75515000D02*
X150940000Y-81485000D01*
X152750000Y-81475000D02*
X152750000Y-80725000D01*
X160300000Y-79225000D02*
X160300000Y-76275000D01*
X159250000Y-81475000D02*
X161050000Y-81475000D01*
X161050000Y-80725000D02*
X159250000Y-80725000D01*
X150950000Y-80725000D02*
X150950000Y-81475000D01*
X160300000Y-76275000D02*
X156000000Y-76275000D01*
X159250000Y-80725000D02*
X159250000Y-81475000D01*
X161050000Y-79225000D02*
X160300000Y-79225000D01*
%TO.C,C4*%
X121738748Y-79865000D02*
X122261252Y-79865000D01*
X121738748Y-81335000D02*
X122261252Y-81335000D01*
%TO.C,BTN_Pinch1*%
X160522221Y-107175000D02*
X161522221Y-107175000D01*
X164822221Y-107175000D02*
X164822221Y-106425000D01*
X159022221Y-107175000D02*
X159022221Y-106425000D01*
X165122221Y-107475000D02*
X165122221Y-106225000D01*
X164072221Y-101975000D02*
X161022221Y-101975000D01*
X157972221Y-104925000D02*
X157972221Y-101975000D01*
X161522221Y-106425000D02*
X160522221Y-106425000D01*
X164822221Y-106425000D02*
X163022221Y-106425000D01*
X157212221Y-101215000D02*
X157212221Y-107185000D01*
X161522221Y-107175000D02*
X161522221Y-106425000D01*
X159022221Y-106425000D02*
X157222221Y-106425000D01*
X157972221Y-101975000D02*
X161022221Y-101975000D01*
X164822221Y-104925000D02*
X164072221Y-104925000D01*
X160522221Y-106425000D02*
X160522221Y-107175000D01*
X157222221Y-104925000D02*
X157972221Y-104925000D01*
X163022221Y-107175000D02*
X164822221Y-107175000D01*
X164832221Y-101215000D02*
X157212221Y-101215000D01*
X157222221Y-107175000D02*
X159022221Y-107175000D01*
X164072221Y-104925000D02*
X164072221Y-101975000D01*
X164832221Y-107185000D02*
X164832221Y-101215000D01*
X163872221Y-107475000D02*
X165122221Y-107475000D01*
X163022221Y-106425000D02*
X163022221Y-107175000D01*
X157212221Y-107185000D02*
X164832221Y-107185000D01*
X157222221Y-106425000D02*
X157222221Y-107175000D01*
%TO.C,J_JTAG1*%
X117830000Y-66150000D02*
X115170000Y-66150000D01*
X117830000Y-76430000D02*
X116500000Y-76430000D01*
X117830000Y-75100000D02*
X117830000Y-76430000D01*
X115170000Y-73830000D02*
X115170000Y-66150000D01*
X117830000Y-73830000D02*
X115170000Y-73830000D01*
X117830000Y-73830000D02*
X117830000Y-66150000D01*
%TO.C,R9*%
X127115000Y-91627064D02*
X127115000Y-91172936D01*
X128585000Y-91627064D02*
X128585000Y-91172936D01*
%TO.C,R1*%
X121565000Y-93922936D02*
X121565000Y-94377064D01*
X123035000Y-93922936D02*
X123035000Y-94377064D01*
%TO.C,RV_Thumb1*%
X163940000Y-58015000D02*
X163940000Y-63985000D01*
X167250000Y-63975000D02*
X170750000Y-63975000D01*
X173300000Y-58775000D02*
X169000000Y-58775000D01*
X174050000Y-61725000D02*
X173300000Y-61725000D01*
X173300000Y-61725000D02*
X173300000Y-58775000D01*
X164700000Y-61725000D02*
X164700000Y-58775000D01*
X165750000Y-63975000D02*
X165750000Y-63225000D01*
X174060000Y-58015000D02*
X163940000Y-58015000D01*
X170750000Y-63975000D02*
X170750000Y-63225000D01*
X174060000Y-63985000D02*
X174060000Y-58015000D01*
X172250000Y-63975000D02*
X174050000Y-63975000D01*
X163940000Y-63985000D02*
X174060000Y-63985000D01*
X167250000Y-63225000D02*
X167250000Y-63975000D01*
X173100000Y-64275000D02*
X174350000Y-64275000D01*
X164700000Y-58775000D02*
X169000000Y-58775000D01*
X163950000Y-63975000D02*
X165750000Y-63975000D01*
X163950000Y-61725000D02*
X164700000Y-61725000D01*
X174050000Y-63975000D02*
X174050000Y-63225000D01*
X170750000Y-63225000D02*
X167250000Y-63225000D01*
X174050000Y-63225000D02*
X172250000Y-63225000D01*
X163950000Y-63225000D02*
X163950000Y-63975000D01*
X165750000Y-63225000D02*
X163950000Y-63225000D01*
X174350000Y-64275000D02*
X174350000Y-63025000D01*
X172250000Y-63225000D02*
X172250000Y-63975000D01*
%TO.C,C_In1*%
X132265000Y-86388748D02*
X132265000Y-86911252D01*
X133735000Y-86388748D02*
X133735000Y-86911252D01*
%TO.C,RV_Middle1*%
X174050000Y-81475000D02*
X174050000Y-80725000D01*
X173100000Y-81775000D02*
X174350000Y-81775000D01*
X163950000Y-80725000D02*
X163950000Y-81475000D01*
X174350000Y-81775000D02*
X174350000Y-80525000D01*
X163950000Y-79225000D02*
X164700000Y-79225000D01*
X173300000Y-76275000D02*
X169000000Y-76275000D01*
X174050000Y-79225000D02*
X173300000Y-79225000D01*
X174050000Y-80725000D02*
X172250000Y-80725000D01*
X163950000Y-81475000D02*
X165750000Y-81475000D01*
X163940000Y-81485000D02*
X174060000Y-81485000D01*
X173300000Y-79225000D02*
X173300000Y-76275000D01*
X167250000Y-81475000D02*
X170750000Y-81475000D01*
X163940000Y-75515000D02*
X163940000Y-81485000D01*
X167250000Y-80725000D02*
X167250000Y-81475000D01*
X174060000Y-81485000D02*
X174060000Y-75515000D01*
X170750000Y-80725000D02*
X167250000Y-80725000D01*
X165750000Y-81475000D02*
X165750000Y-80725000D01*
X172250000Y-80725000D02*
X172250000Y-81475000D01*
X174060000Y-75515000D02*
X163940000Y-75515000D01*
X165750000Y-80725000D02*
X163950000Y-80725000D01*
X164700000Y-79225000D02*
X164700000Y-76275000D01*
X164700000Y-76275000D02*
X169000000Y-76275000D01*
X170750000Y-81475000D02*
X170750000Y-80725000D01*
X172250000Y-81475000D02*
X174050000Y-81475000D01*
%TO.C,Q2*%
X131190000Y-79350000D02*
X131190000Y-81025000D01*
X134310000Y-79350000D02*
X134310000Y-78700000D01*
X134310000Y-79350000D02*
X134310000Y-80000000D01*
X131190000Y-79350000D02*
X131190000Y-78700000D01*
%TO.C,U1*%
X139050000Y-86560000D02*
X142810000Y-86560000D01*
X142810000Y-79740000D02*
X142810000Y-81000000D01*
X142810000Y-86560000D02*
X142810000Y-85300000D01*
X136800000Y-79740000D02*
X142810000Y-79740000D01*
%TO.C,Thumb_Servo1*%
X159250000Y-63975000D02*
X161050000Y-63975000D01*
X150950000Y-63975000D02*
X152750000Y-63975000D01*
X150940000Y-58015000D02*
X150940000Y-63985000D01*
X154250000Y-63975000D02*
X157750000Y-63975000D01*
X152750000Y-63975000D02*
X152750000Y-63225000D01*
X161050000Y-61725000D02*
X160300000Y-61725000D01*
X150950000Y-61725000D02*
X151700000Y-61725000D01*
X161050000Y-63225000D02*
X159250000Y-63225000D01*
X161350000Y-64275000D02*
X161350000Y-63025000D01*
X151700000Y-61725000D02*
X151700000Y-58775000D01*
X160300000Y-61725000D02*
X160300000Y-58775000D01*
X151700000Y-58775000D02*
X156000000Y-58775000D01*
X161050000Y-63975000D02*
X161050000Y-63225000D01*
X157750000Y-63975000D02*
X157750000Y-63225000D01*
X150940000Y-63985000D02*
X161060000Y-63985000D01*
X160100000Y-64275000D02*
X161350000Y-64275000D01*
X152750000Y-63225000D02*
X150950000Y-63225000D01*
X161060000Y-63985000D02*
X161060000Y-58015000D01*
X160300000Y-58775000D02*
X156000000Y-58775000D01*
X159250000Y-63225000D02*
X159250000Y-63975000D01*
X150950000Y-63225000D02*
X150950000Y-63975000D01*
X157750000Y-63225000D02*
X154250000Y-63225000D01*
X154250000Y-63225000D02*
X154250000Y-63975000D01*
X161060000Y-58015000D02*
X150940000Y-58015000D01*
%TD*%
M02*
